<?xml version="1.0" encoding="UTF-8"?>
<svg version="1.1" xmlns="http://www.w3.org/2000/svg" width="2000" height="1104">
<path d="M0 0 C3.78635114 0.00817157 7.57266959 -0.00139101 11.35901723 -0.00851054 C17.99894161 -0.01862167 24.63879191 -0.01774468 31.27871778 -0.00945991 C41.2189502 0.00288639 51.15912323 -0.00223769 61.0993571 -0.01060784 C78.0457631 -0.02437158 94.99214204 -0.02397553 111.93855045 -0.0157652 C129.10265159 -0.00750016 146.26673492 -0.00577947 163.43083713 -0.01197721 C164.51650956 -0.01236473 165.60218199 -0.01275224 166.72075358 -0.01315151 C171.14281452 -0.01475139 175.56487545 -0.01639752 179.98693636 -0.01810233 C221.13959812 -0.03395644 262.29224796 -0.03505256 303.44491146 -0.02665998 C304.66345194 -0.02641159 305.88199242 -0.02616321 307.13745837 -0.02590729 C308.35795674 -0.0256585 309.5784551 -0.02540972 310.83593827 -0.02515339 C348.03134461 -0.01758142 385.22674602 -0.01563078 422.42215297 -0.01922132 C424.91371578 -0.01945376 427.40527859 -0.01968523 429.89684139 -0.01991573 C439.9096272 -0.02084715 449.922413 -0.02180315 459.9351988 -0.02279502 C487.9246163 -0.02554595 515.91403381 -0.02725782 543.90345142 -0.02815343 C545.17799011 -0.02819437 546.45252881 -0.02823531 547.76568989 -0.02827749 C588.37367246 -0.02950519 628.98165332 -0.02612535 669.58963535 -0.0196047 C671.56504413 -0.01928858 671.56504413 -0.01928858 673.58036015 -0.01896607 C694.96606362 -0.0155313 716.35176705 -0.01187387 737.73747048 -0.00819555 C804.41277203 0.00326476 871.08806724 0.00954715 990.15946541 -0.00854154 C1012.20241694 -0.0123313 1034.24536847 -0.01607683 1056.28832004 -0.0196047 C1058.26236033 -0.01992171 1058.26236033 -0.01992171 1060.27628023 -0.02024513 C1100.84045532 -0.02671479 1141.40462922 -0.0294563 1181.96880481 -0.02815343 C1183.87924618 -0.0280923 1183.87924618 -0.0280923 1185.82828233 -0.02802994 C1213.78792757 -0.02709245 1241.74757269 -0.02519144 1269.70721781 -0.02242192 C1279.71163799 -0.02143452 1289.71605817 -0.02049527 1299.72047836 -0.01956979 C1302.20927093 -0.01933762 1304.69806351 -0.01910143 1307.18685609 -0.0188612 C1344.37000457 -0.01528196 1381.5531475 -0.01832678 1418.73629529 -0.02590729 C1419.95467018 -0.02615568 1421.17304507 -0.02640407 1422.42834041 -0.02665998 C1423.64446333 -0.02690803 1424.86058626 -0.02715607 1426.11356139 -0.02741164 C1467.15068907 -0.03569025 1508.18780246 -0.03263448 1549.2249281 -0.01681775 C1553.63401981 -0.01516072 1558.04311152 -0.01355061 1562.45220325 -0.01197721 C1564.07527713 -0.01139128 1564.07527713 -0.01139128 1565.73114037 -0.01079351 C1582.84618993 -0.00488248 1599.96122168 -0.00898952 1617.07626963 -0.01728423 C1633.91613772 -0.02523128 1650.75597583 -0.02241397 1667.59584013 -0.00824196 C1677.46060212 -0.00025608 1687.32528178 -0.00036804 1697.19003978 -0.01268675 C1703.75413876 -0.02005593 1710.31817408 -0.01641331 1716.88226542 -0.00408619 C1720.59510849 0.00258697 1724.30778852 0.00485896 1728.02062386 -0.00653574 C1767.6358415 -0.11941296 1809.0761463 3.54368076 1838.8268275 32.57753848 C1859.31061073 53.49838678 1867.0935667 79.89672989 1866.95323799 108.76519011 C1866.95668016 110.35792304 1866.96143273 111.95065358 1866.96735896 113.5433792 C1866.97978191 117.89124122 1866.97375805 122.23890514 1866.96452528 126.58676773 C1866.95778384 131.32793141 1866.96849738 136.06906228 1866.97692112 140.81021886 C1866.98926865 149.11028099 1866.99050873 157.41028658 1866.98437069 165.71035479 C1866.97526751 178.05305045 1866.98332136 190.39569395 1866.99466193 202.73838562 C1867.01431876 224.78471652 1867.01667817 246.83102389 1867.01146673 268.87736146 C1867.00690822 288.17119262 1867.0075104 307.46501446 1867.01330707 326.75884532 C1867.01406394 329.34764166 1867.01481992 331.936438 1867.01557502 334.52523435 C1867.01672022 338.42638047 1867.0178701 342.32752659 1867.01903426 346.2286727 C1867.02973774 382.49303112 1867.03449756 418.75738472 1867.0265641 455.02174376 C1867.02634164 456.0464879 1867.02634164 456.0464879 1867.02611469 457.09193393 C1867.02445577 464.70947572 1867.02270618 472.32701749 1867.02092168 479.94455926 C1867.02076065 480.63227746 1867.02059963 481.31999566 1867.02043372 482.0285538 C1867.01912625 487.60861541 1867.01912625 487.60861541 1867.01847254 490.3720836 C1867.00808044 534.36433043 1867.0158506 578.35653724 1867.03947399 622.34877871 C1867.04541763 633.43544062 1867.05130929 644.52210254 1867.05688331 655.60876464 C1867.05722708 656.29145924 1867.05757085 656.97415384 1867.05792504 657.67753615 C1867.06845578 678.72492314 1867.07404653 699.77230679 1867.07444046 720.81969641 C1867.07445324 721.48066697 1867.07446602 722.14163752 1867.07447919 722.82263749 C1867.07471775 737.98473533 1867.0735015 753.14683278 1867.07128624 768.30893044 C1867.07057018 773.49655058 1867.0698958 778.68417073 1867.06924579 783.87179087 C1867.06907598 785.14909802 1867.06890618 786.42640517 1867.06873122 787.74241859 C1867.06642839 807.02243279 1867.07440441 826.30242531 1867.08753727 845.58243464 C1867.10244541 867.50768719 1867.1032957 889.43288893 1867.08546636 911.35814039 C1867.07590122 923.62560825 1867.07734269 935.89295761 1867.09470104 948.16041756 C1867.10519058 956.35870326 1867.10109 964.55689868 1867.08522101 972.75517549 C1867.07659009 977.42349987 1867.07416249 982.09159204 1867.08949033 986.75990448 C1867.10333127 991.01562895 1867.09841848 995.27092375 1867.07920514 999.5266236 C1867.0755017 1001.0480256 1867.07833462 1002.56946309 1867.08891822 1004.09083279 C1867.26316386 1031.01641147 1857.08602202 1053.85877661 1838.26042125 1073.00722598 C1833.0848128 1078.14682637 1827.81425639 1082.56498083 1821.57292125 1086.38222598 C1820.05698375 1087.34708926 1820.05698375 1087.34708926 1818.51042125 1088.33144473 C1811.93142229 1092.32910035 1805.2844542 1095.49448415 1798.07292125 1098.19472598 C1796.97186046 1098.61141543 1796.97186046 1098.61141543 1795.84855602 1099.03652285 C1784.50448366 1103.09388279 1773.24255415 1104.83267688 1761.2286946 1104.75827347 C1759.95391658 1104.76248042 1758.67913856 1104.76668737 1757.3657309 1104.77102181 C1753.84964663 1104.78220112 1750.33381433 1104.77492503 1746.81773703 1104.76445195 C1742.9698471 1104.75635323 1739.12199147 1104.76581795 1735.27410514 1104.7729625 C1728.51171254 1104.78311978 1721.74939253 1104.78216372 1714.98699838 1104.77391187 C1704.86340424 1104.76161436 1694.73986879 1104.76666871 1684.6162733 1104.77505979 C1667.36124514 1104.78885353 1650.10624351 1104.78841281 1632.85121296 1104.78021716 C1615.36566455 1104.77196261 1597.88013361 1104.77022301 1580.39458416 1104.77642916 C1578.73780976 1104.77701044 1578.73780976 1104.77701044 1577.04756517 1104.77760346 C1572.54901701 1104.77920328 1568.05046887 1104.7808494 1563.55192076 1104.78255429 C1521.65197776 1104.79842258 1479.75204648 1104.79949823 1437.85210178 1104.79111193 C1435.98971848 1104.79073935 1435.98971848 1104.79073935 1434.08971127 1104.79035925 C1432.84613652 1104.79011046 1431.60256178 1104.78986167 1430.32130295 1104.78960534 C1392.44773933 1104.78203832 1354.57418055 1104.78008044 1316.70061634 1104.78367327 C1314.16524539 1104.78390571 1311.62987445 1104.78413718 1309.0945035 1104.78436768 C1298.90607752 1104.78529907 1288.71765153 1104.78625507 1278.52922556 1104.78724697 C1250.04738332 1104.78999813 1221.56554108 1104.79170984 1193.08369873 1104.79260539 C1191.78665082 1104.79264632 1190.48960292 1104.79268726 1189.15325054 1104.79272944 C1147.81761597 1104.79395745 1106.48198332 1104.79057851 1065.14634941 1104.78405665 C1064.47601663 1104.7839513 1063.80568385 1104.78384594 1063.11503795 1104.78373739 C1040.66239537 1104.78020837 1018.20975283 1104.77644016 995.7571103 1104.7726475 C927.86496671 1104.76118708 859.97282933 1104.75490445 738.73120285 1104.7729935 C716.28790984 1104.77678316 693.84461683 1104.78052873 671.40132377 1104.78405665 C670.39626548 1104.78421525 670.39626548 1104.78421525 669.37090297 1104.78437706 C627.40477617 1104.79099377 585.43865064 1104.79392988 543.47252319 1104.79260539 C541.52831628 1104.79254426 541.52831628 1104.79254426 539.54483245 1104.79248189 C511.09288025 1104.79154447 482.64092818 1104.78964358 454.1889761 1104.78687388 C444.00866864 1104.78588644 433.82836117 1104.7849472 423.64805371 1104.78402175 C421.11542645 1104.78378958 418.5827992 1104.78355339 416.05017194 1104.78331316 C378.18820076 1104.77973168 340.32623502 1104.78278309 302.46426451 1104.79035925 C301.22292403 1104.79060763 299.98158354 1104.79085602 298.70262668 1104.79111193 C296.84404647 1104.791484 296.84404647 1104.791484 294.94791917 1104.79186359 C253.1664169 1104.80013638 211.38492868 1104.79709829 169.60342842 1104.7812697 C165.11743948 1104.77961262 160.63145052 1104.77800251 156.14546154 1104.77642916 C155.04451604 1104.77603854 153.94357054 1104.77564792 152.80926306 1104.77524546 C135.37150503 1104.76932662 117.93376446 1104.7734498 100.496008 1104.78173618 C83.35255388 1104.78966907 66.20912924 1104.78689173 49.06567886 1104.77269392 C39.0135436 1104.76468663 28.96148913 1104.76485755 18.90935772 1104.77713871 C12.23128116 1104.7844762 5.55326743 1104.78091465 -1.12480154 1104.76853815 C-4.90903957 1104.76182749 -8.69311688 1104.75968222 -12.47734764 1104.7709877 C-43.24377186 1104.85638681 -72.5424234 1101.06253337 -97.42707875 1081.38222598 C-98.17086781 1080.80214785 -98.91465687 1080.22206973 -99.680985 1079.62441348 C-113.71635692 1067.95674777 -122.11626777 1052.16359605 -127.73957875 1035.06972598 C-127.96999867 1034.38507266 -128.20041859 1033.70041934 -128.43782093 1032.99501895 C-134.49414785 1013.29194656 -133.8608832 992.89121785 -133.81248141 972.52207251 C-133.80481301 967.88477091 -133.81467395 963.2474991 -133.82221141 958.61020182 C-133.83300825 950.49708395 -133.83274139 942.38402606 -133.82506993 934.27090548 C-133.8136931 922.20613899 -133.81953893 910.14142281 -133.82869485 898.07665663 C-133.84447195 876.52536926 -133.84313091 854.97410861 -133.83445811 833.42281871 C-133.82690575 814.56270697 -133.824944 795.70260503 -133.82852604 776.84249209 C-133.8287552 775.59052533 -133.82898435 774.33855857 -133.82922045 773.04865343 C-133.8301545 767.96626771 -133.8311097 762.883882 -133.83209974 757.80149629 C-133.83892487 722.34198524 -133.84013784 686.88247693 -133.82890942 651.42296694 C-133.82869867 650.75515106 -133.82848792 650.08733517 -133.82827079 649.39928244 C-133.82483625 638.55545799 -133.82117772 627.71163361 -133.81750027 616.86780924 C-133.80293208 573.8641419 -133.80360827 530.86050258 -133.81819203 487.85683535 C-133.82185581 477.01838527 -133.82548906 466.17993518 -133.82890942 455.34148501 C-133.82912076 454.67405626 -133.82933211 454.00662751 -133.82954986 453.31897364 C-133.84088983 417.25965845 -133.83837955 381.20034442 -133.83135524 345.14102839 C-133.83039311 340.06800555 -133.82945459 334.99498271 -133.82852604 329.92195986 C-133.82828881 328.67289007 -133.82805158 327.42382028 -133.82780716 326.13689989 C-133.82439749 307.2905502 -133.82838044 288.44421137 -133.8359647 269.59786318 C-133.8445471 248.16462074 -133.8423881 226.73140916 -133.82612247 205.29817055 C-133.81732347 193.30885026 -133.81672435 181.31959681 -133.82806099 169.33027827 C-133.83480293 161.31495127 -133.83057478 153.2996777 -133.81754669 145.2843586 C-133.81043241 140.7222538 -133.80792403 136.16028148 -133.81876463 131.598181 C-133.91043472 89.99327984 -133.91043472 89.99327984 -127.67707875 71.56972598 C-127.41958851 70.78895693 -127.16209828 70.00818789 -126.89680531 69.20375918 C-118.52311349 44.66321277 -102.52085781 24.81149733 -79.2447057 13.08803652 C-54.01593193 1.02738147 -27.56594045 -0.08442721 0 0 Z M-101.30207875 143.25722598 C-112.16388728 156.53565699 -113.58402838 171.88108688 -113.5557132 188.37219046 C-113.55746624 189.66720902 -113.55921927 190.96222759 -113.56102543 192.29648914 C-113.56574013 195.88660764 -113.56425874 199.47670069 -113.56174766 203.06682042 C-113.5601114 206.97438644 -113.56425807 210.88194708 -113.56765684 214.78951137 C-113.57280705 221.63668121 -113.57422869 228.48384399 -113.57320072 235.33101557 C-113.57167581 245.51313695 -113.57583751 255.69525051 -113.58107535 265.87737037 C-113.5907477 285.12044334 -113.59355954 304.36351364 -113.59413241 323.60658875 C-113.59459187 338.46563633 -113.59664981 353.32468287 -113.59983303 368.18373011 C-113.60073057 372.46019447 -113.60162038 376.73665884 -113.60250791 381.0131232 C-113.60283948 382.60780975 -113.60283948 382.60780975 -113.60317775 384.23471218 C-113.60933212 414.13920873 -113.6132783 444.04370491 -113.61283448 473.94820212 C-113.6128189 475.07572773 -113.61280332 476.20325335 -113.61278727 477.3649464 C-113.61270416 483.07978051 -113.61260512 488.79461462 -113.61250256 494.50944873 C-113.61248261 495.64444627 -113.61246267 496.77944381 -113.61244212 497.94883521 C-113.61240168 500.24407629 -113.61235988 502.53931737 -113.61231673 504.83455844 C-113.61170387 540.55056562 -113.61921233 576.26656331 -113.63288929 611.98256777 C-113.64824693 652.10406364 -113.65685572 692.22555327 -113.65592607 732.34705226 C-113.65585144 736.62445969 -113.65580273 740.90186712 -113.65577175 745.17927455 C-113.6557601 746.23249078 -113.65574845 747.28570702 -113.65573644 748.3708389 C-113.65570565 765.32534471 -113.66209353 782.27984229 -113.67070402 799.23434566 C-113.6791772 816.27069379 -113.68017306 833.30702986 -113.6735947 850.34337893 C-113.66989694 860.46558937 -113.67173817 870.5877632 -113.68153704 880.70996977 C-113.6875304 887.47214867 -113.68624873 894.234301 -113.67906654 900.99647868 C-113.67517964 904.84874621 -113.67442495 908.70094282 -113.68252389 912.5532054 C-113.69118043 916.70710523 -113.68430278 920.86083762 -113.67596771 925.01473807 C-113.68093589 926.20475685 -113.68590407 927.39477563 -113.6910228 928.62085559 C-113.61270879 947.05626812 -109.13206571 962.06871766 -96.91926625 976.11660098 C-74.02972374 998.4069408 -33.03823086 993.63792202 -4.0079346 993.32046839 C2.71660862 993.22743131 9.44072517 993.11058227 16.16483022 992.99049905 C42.13208553 992.53027996 68.09635536 992.27682044 94.067574 992.25473403 C94.81698894 992.25407021 95.56640387 992.25340638 96.33852835 992.25272245 C105.81971669 992.24497546 115.30089689 992.24556792 124.78208698 992.24899354 C133.54021935 992.25192238 142.29834763 992.24872014 151.05647953 992.24550223 C167.40674256 992.23964702 183.75700297 992.23825796 200.10726688 992.2394781 C216.62110812 992.24068082 233.13494707 992.23961296 249.64878795 992.23589038 C251.22685742 992.23553531 251.22685742 992.23553531 252.83680708 992.23517307 C258.20344076 992.23395132 263.57007443 992.23268559 268.93670809 992.23139762 C279.92510524 992.22876962 290.91350244 992.22641452 301.90189967 992.22414361 C303.00736448 992.22391448 304.11282929 992.22368534 305.25179303 992.22344926 C322.38472609 992.21994349 339.51765908 992.21764109 356.65059242 992.21608292 C357.80393719 992.21597761 358.95728195 992.2158723 360.14557656 992.21576379 C364.82792057 992.21533936 369.51026458 992.2149214 374.1926086 992.21450799 C431.66434147 992.20942732 489.13606813 992.19472847 546.60779799 992.17582197 C560.09366234 992.17138655 573.57952672 992.1670676 587.0653911 992.16275327 C589.53470852 992.16196275 592.00402594 992.16117219 594.47334336 992.16038158 C598.18641406 992.15919288 601.89948475 992.15800448 605.61255544 992.15681694 C611.82347876 992.15483049 618.03440207 992.15284091 624.24532537 992.15084437 C681.43965047 992.1324635 738.63397595 992.1156324 795.82830194 992.10030529 C799.70061912 992.09926673 803.57293629 992.09822328 807.44525347 992.09717936 C867.15240047 992.08111808 926.85954674 992.06807774 986.56669567 992.06215762 C988.49659594 992.06196548 988.49659594 992.06196548 990.4654841 992.06176945 C1011.21598399 992.05971285 1031.96648388 992.05781418 1052.71698378 992.05594931 C1112.49985936 992.05057572 1172.28273137 992.04279003 1232.06560371 992.02158927 C1233.90934815 992.02093726 1233.90934815 992.02093726 1235.79033994 992.02027207 C1261.55920044 992.01112778 1287.32806053 992.001139 1313.09692027 991.99005783 C1325.16202476 991.98487201 1337.22712932 991.9798725 1349.29223392 991.97497843 C1350.47996723 991.97449327 1351.66770053 991.97400811 1352.89142575 991.97350824 C1391.12158498 991.95798475 1429.35173132 991.95556302 1467.58189302 991.96020857 C1506.05083831 991.96484047 1544.51975968 991.95728347 1582.98869797 991.93260485 C1588.30436744 991.92919907 1593.62003698 991.9259379 1598.93570659 991.92276477 C1599.97767176 991.92213782 1601.01963693 991.92151088 1602.0931768 991.92086494 C1618.58205488 991.91131536 1635.07090134 991.91519541 1651.55977829 991.92470763 C1667.77683052 991.93378897 1683.99382657 991.92863583 1700.21086928 991.90840951 C1709.71320496 991.89698721 1719.21538903 991.89643788 1728.71771944 991.91215694 C1735.03628977 991.9215139 1741.35474158 991.91626561 1747.67329596 991.89938739 C1751.24967765 991.89023682 1754.82575832 991.88704013 1758.40212753 991.90195322 C1782.82085443 991.99655036 1807.38199024 991.45409618 1826.57292125 974.38222598 C1838.13190489 961.08617801 1841.05186659 944.9054921 1840.95044468 927.71010874 C1840.954805 926.40207748 1840.95916532 925.09404621 1840.96365777 923.74637763 C1840.97524648 920.14297231 1840.96839998 916.53981094 1840.95832392 912.93640998 C1840.95067051 909.00575963 1840.96051062 905.07514487 1840.96805392 901.14449965 C1840.97886161 894.26443225 1840.97857717 887.38443555 1840.97091244 880.50436495 C1840.95954552 870.27320559 1840.96537634 860.04210565 1840.97453736 849.81094666 C1840.99032251 831.53551062 1840.98897013 813.26010608 1840.98030062 794.98466705 C1840.97275052 778.99016789 1840.97078544 762.99568026 1840.97436855 747.00117968 C1840.97459771 745.93974971 1840.97482686 744.87831973 1840.97506296 743.78472521 C1840.975997 739.47588792 1840.9769522 735.16705064 1840.97794225 730.85821336 C1840.98711735 690.44527264 1840.97880212 650.03235195 1840.96265156 609.61941432 C1840.94841702 573.72800356 1840.94968713 537.83662474 1840.96403454 501.94521426 C1840.98010502 461.60866011 1840.98646457 421.27212367 1840.97719774 380.93556677 C1840.97623562 376.63401245 1840.97529709 372.33245813 1840.97436855 368.0309038 C1840.97413132 366.97177401 1840.97389409 365.91264421 1840.97364967 364.82141957 C1840.97023977 348.83976218 1840.97422343 332.85811759 1840.98180721 316.87646197 C1840.99038963 298.69984888 1840.98823067 280.52327216 1840.97196498 262.3466636 C1840.9631656 252.17859768 1840.96256736 242.01061057 1840.9739035 231.84254672 C1840.98064509 225.04486769 1840.97641793 218.24725167 1840.9633892 211.44958195 C1840.95627434 207.58038736 1840.95376766 203.71134901 1840.96460714 199.84215951 C1841.6612333 167.11613587 1841.6612333 167.11613587 1826.82292125 138.88222598 C1806.73782719 120.80564132 1777.14576639 121.92518873 1751.93596421 121.99742879 C1748.04718003 122.0051804 1744.15843037 121.9952932 1740.26965115 121.98778828 C1733.44291606 121.97699877 1726.61625183 121.97725429 1719.78951348 121.98486131 C1709.56958214 121.99619468 1699.34971026 121.99013646 1689.12977952 121.98079732 C1671.7084469 121.96538651 1654.28713929 121.96418293 1636.86580227 121.97077654 C1619.216255 121.97740838 1601.5667256 121.97752412 1583.91717861 121.96972941 C1582.80153289 121.96924141 1581.68588717 121.96875341 1580.536434 121.96825063 C1575.99241637 121.9662424 1571.44839877 121.96418929 1566.90438119 121.96207889 C1520.79569742 121.94068699 1474.68702686 121.93862285 1428.57833937 121.94413593 C1422.20881464 121.94489165 1415.8392899 121.94561927 1409.46976516 121.9463179 C1408.20460173 121.94645699 1406.93943829 121.94659608 1405.63593657 121.94673939 C1377.59147289 121.94969234 1349.5470108 121.94667824 1321.50254741 121.94242161 C1317.66374843 121.94183945 1313.82494945 121.94127061 1309.98615046 121.94070598 C1299.6954965 121.93919101 1289.40484253 121.9376641 1279.11418857 121.93611297 C1207.28102122 121.92535697 1135.44785598 121.92065343 1063.61468838 121.92858313 C1062.24709906 121.92873302 1060.87950975 121.92888283 1059.51192043 121.92903254 C1044.41449438 121.93068908 1029.31706833 121.93244073 1014.21964229 121.93422555 C1013.19745334 121.93434631 1013.19745334 121.93434631 1012.15461411 121.9344695 C1010.0887311 121.93471356 1008.0228481 121.93495775 1005.9569651 121.93520201 C1005.27495678 121.93528264 1004.59294845 121.93536327 1003.8902732 121.93544635 C1000.44422617 121.93585403 996.99817914 121.93626313 993.55213211 121.9366747 C925.00473159 121.94485329 856.45734001 121.94672589 734.04658747 121.91623338 C711.38670114 121.91009397 688.7268148 121.90401143 666.06692837 121.89826392 C665.39040409 121.8980919 664.71387982 121.89791989 664.01685481 121.89774266 C621.63783194 121.88698017 579.25881127 121.88110726 536.87978695 121.88070677 C535.57070307 121.88069399 534.2616192 121.88068121 532.91286611 121.88066804 C504.17536929 121.88043975 475.4378726 121.88144587 446.70037586 121.88357709 C436.41766515 121.88433185 426.13495443 121.88501006 415.85224372 121.88565724 C413.29418848 121.88581994 410.73613324 121.8859876 408.178078 121.88616026 C367.4232221 121.88888111 326.66837845 121.88032866 285.91352519 121.86630616 C243.72555698 121.85189699 201.53761208 121.8523505 159.34964467 121.86968088 C154.81785252 121.87148504 150.28606034 121.87322523 145.75426815 121.87491511 C144.08601268 121.87554586 144.08601268 121.87554586 142.38405509 121.87618936 C124.78492849 121.88248328 107.18583394 121.87538898 89.58671186 121.86270591 C72.27494895 121.85051331 54.96323655 121.85264171 37.65147745 121.86992622 C27.5071819 121.87963077 17.36302997 121.87849007 7.21874388 121.86109624 C0.47204445 121.85062881 -6.27454603 121.85480169 -13.02123472 121.87061273 C-16.83961249 121.87915997 -20.65770705 121.88176543 -24.47606926 121.86622901 C-51.87415777 121.76236881 -81.22339881 121.79081871 -101.30207875 143.25722598 Z " fill="#0669B6" transform="translate(133.4270787453279,-0.3822259772568941)"/>
<path d="M0 0 C4.6428194 0.56460158 9.10866976 0.51493596 13.77563477 0.40429688 C15.6760084 0.37704367 17.5764003 0.35104035 19.47680664 0.32617188 C22.44386538 0.28296109 25.40995894 0.23229013 28.37646484 0.16015625 C31.25967038 0.0932106 34.14183284 0.05869928 37.02563477 0.02929688 C37.90295761 0.00035339 38.78028046 -0.02859009 39.68418884 -0.05841064 C45.02856431 -0.08141227 48.68112267 0.89487515 53.27357483 3.62335205 C57.93680429 8.74259756 58.40391584 15.39064799 58.32107544 21.96943665 C58.32293315 22.7861829 58.32479086 23.60292915 58.32670486 24.44442528 C58.32928979 27.1621425 58.31051302 29.87927669 58.29174805 32.59692383 C58.28926253 34.5542692 58.28811769 36.51161667 58.28820801 38.46896362 C58.28550646 42.67863949 58.27330185 46.88814194 58.25366592 51.0977726 C58.22251418 57.78061147 58.2123467 64.46338482 58.20480347 71.14628601 C58.19031439 81.7457756 58.16140405 92.34517042 58.12655628 102.94461077 C58.06482465 121.84760064 58.02673957 140.75064376 57.99496353 159.6537053 C57.98327093 166.26886456 57.96508508 172.88396433 57.94154012 179.49909157 C57.92401521 184.63586155 57.91152651 189.77263494 57.90112305 194.90942383 C57.89885845 195.87711374 57.89659386 196.84480365 57.89426064 197.8418175 C57.87180659 210.46427413 58.01423644 223.04827305 58.78668404 235.65121174 C59.08239084 241.09800922 58.99343881 245.3781522 56.96704102 250.48242188 C52.16993288 255.73639745 47.64179454 256.23937483 40.91967773 256.58886719 C20.18226949 257.2171224 20.18226949 257.2171224 10.84204102 253.10742188 C4.71359341 244.52759523 6.69636559 230.01208105 6.73999023 219.86230469 C6.74055537 218.00834153 6.74023579 216.15437793 6.73910522 214.30041504 C6.7385347 209.3012452 6.75024003 204.30217261 6.76425314 199.30302525 C6.77681092 194.06601526 6.77793496 188.8290027 6.78030396 183.59197998 C6.78650395 173.69005381 6.80289462 163.78817215 6.82300293 153.88626552 C6.84540816 142.60688523 6.85636697 131.32750274 6.8663938 120.04810572 C6.88726224 96.85951983 6.92240926 73.67097335 6.96704102 50.48242188 C5.31704102 50.15242187 3.66704102 49.82242188 1.96704102 49.48242188 C1.68707275 50.35552002 1.40710449 51.22861816 1.11865234 52.12817383 C0.05807585 55.21726868 -1.15051137 58.1597513 -2.45874023 61.15039062 C-4.89087871 66.94106939 -6.66386721 72.71804681 -8.22045898 78.79492188 C-8.5139624 79.91294189 -8.80746582 81.03096191 -9.10986328 82.18286133 C-9.92416516 85.29703567 -10.72996657 88.41324442 -11.53088379 91.53088379 C-12.19918716 94.12854146 -12.87315211 96.72472738 -13.54646301 99.3210907 C-16.10917973 109.21250908 -18.63168702 119.11413252 -21.15106201 129.0166626 C-21.77910077 131.48478667 -22.40737057 133.95285098 -23.03594971 136.4208374 C-25.34976421 145.50563444 -27.66072919 154.59115123 -29.96884155 163.67739868 C-30.74763707 166.74314531 -31.52713408 169.80871211 -32.30728149 172.87411499 C-33.42889785 177.28207639 -34.54831486 181.69059163 -35.66577148 186.09960938 C-35.93842992 187.17516429 -35.93842992 187.17516429 -36.2165966 188.27244759 C-38.27338787 196.39537659 -40.29724859 204.5252927 -42.26245117 212.67089844 C-42.44351095 213.42117624 -42.62457073 214.17145405 -42.81111717 214.94446754 C-43.67137672 218.51425287 -44.52718928 222.08503328 -45.37649536 225.65744019 C-51.24306116 250.15379085 -51.24306116 250.15379085 -57.67211914 254.10400391 C-61.50876632 255.67756994 -64.90879133 256.00863341 -68.99389648 256.09960938 C-69.74329498 256.1246756 -70.49269348 256.14974182 -71.26480103 256.17556763 C-72.84291829 256.2243174 -74.42127043 256.26593325 -75.99975586 256.30078125 C-78.39490059 256.35711474 -80.78736791 256.44559904 -83.18139648 256.53710938 C-84.72300928 256.58072386 -86.26467682 256.62245199 -87.80639648 256.66210938 C-88.86460098 256.70402908 -88.86460098 256.70402908 -89.94418335 256.74679565 C-96.38390822 256.84673014 -101.68737724 255.2546392 -106.84545898 251.35742188 C-111.77267781 244.88164856 -113.04561595 235.89469514 -115.00170898 228.11914062 C-115.27849487 227.02990295 -115.55528076 225.94066528 -115.8404541 224.81842041 C-116.74122595 221.26974079 -117.63713434 217.71985326 -118.53295898 214.16992188 C-119.1590218 211.69989051 -119.78532643 209.22992043 -120.41186523 206.76000977 C-124.55705177 190.40198349 -128.64907158 174.03086924 -132.72052002 157.65435791 C-135.39363709 146.90856722 -138.13311681 136.19203105 -141.11132812 125.52587891 C-142.93499352 118.96335063 -144.52641783 112.35912524 -146.06738281 105.72509766 C-147.77581619 98.41993163 -149.67817914 91.17268282 -151.59545898 83.91992188 C-153.76458991 75.66647218 -155.7960439 67.41388644 -157.47045898 59.04492188 C-157.63425049 58.22886475 -157.79804199 57.41280762 -157.96679688 56.57202148 C-158.62998833 53.12424055 -159.03295898 50.0071441 -159.03295898 46.48242188 C-161.01295898 46.97742188 -161.01295898 46.97742188 -163.03295898 47.48242188 C-166.96340934 66.7560853 -166.37791975 86.12262833 -166.2383461 105.68583322 C-166.2080453 110.50928279 -166.19780183 115.33277151 -166.18603516 120.15629578 C-166.15299784 132.36926659 -166.09425695 144.58206525 -166.03295898 156.79492188 C-165.96670315 170.03093384 -165.90512971 183.26687913 -165.87270451 196.5030238 C-165.85781132 202.22703245 -165.82832234 207.95071908 -165.78741455 213.67459834 C-165.76499361 217.23021598 -165.75508147 220.78578994 -165.74851608 224.34146881 C-165.74291601 225.98457413 -165.73214497 227.62767153 -165.71571732 229.27070427 C-165.56344624 244.99797199 -165.56344624 244.99797199 -169.03295898 251.48242188 C-176.42715852 257.61803425 -184.0795518 256.72718335 -193.28295898 256.79492188 C-194.58104492 256.82392578 -195.87913086 256.85292969 -197.21655273 256.8828125 C-205.46893049 256.93749186 -211.63167258 256.59028919 -217.90795898 250.73242188 C-221.07309561 244.40214862 -221.3242842 237.88143605 -221.2936554 230.9564209 C-221.29939372 229.56418501 -221.29939372 229.56418501 -221.30524796 228.14382315 C-221.31552295 225.05025068 -221.31159631 221.95686573 -221.30761719 218.86328125 C-221.31196664 216.63865488 -221.31715057 214.41403 -221.32310486 212.18940735 C-221.3364794 206.15852761 -221.33707535 200.1277106 -221.33454156 194.09681892 C-221.33347103 189.05940609 -221.33835721 184.0220059 -221.34314698 178.98459578 C-221.35487 166.42184548 -221.35402008 153.85913353 -221.34759017 141.2963838 C-221.34241965 130.39646438 -221.35368219 119.4966343 -221.37268839 108.59673256 C-221.392077 97.39123094 -221.40002986 86.18577041 -221.39656514 74.98024797 C-221.39475231 68.69453848 -221.39738876 62.40891086 -221.41127968 56.12321472 C-221.42385172 50.21343722 -221.42191967 44.30383869 -221.40886879 38.39406395 C-221.4065023 36.22691475 -221.40924026 34.05975297 -221.41749191 31.89261818 C-221.42795448 28.93101222 -221.41986241 25.97000735 -221.40718079 23.00842285 C-221.41455507 22.15393728 -221.42192936 21.2994517 -221.4295271 20.41907263 C-221.37019719 13.81863915 -220.45038922 7.89985211 -215.59545898 3.04492188 C-211.28709154 0.41786856 -207.62000956 0.35111958 -202.61547852 0.32128906 C-201.31377716 0.31168152 -200.01207581 0.30207397 -198.67092896 0.29217529 C-197.25254492 0.28732726 -195.83415884 0.28304845 -194.41577148 0.27929688 C-192.95612589 0.27354093 -191.4964803 0.26778325 -190.03683472 0.26202393 C-186.97873585 0.2515312 -183.92066315 0.2456771 -180.86254883 0.2421875 C-176.95304431 0.23670347 -173.04388818 0.21267042 -169.13449287 0.18421555 C-166.11981204 0.1655499 -163.10521453 0.16038151 -160.0904808 0.15885162 C-158.64963754 0.1558339 -157.20879543 0.14783515 -155.76800919 0.13466644 C-153.74848631 0.11752408 -151.72881883 0.1213428 -149.70922852 0.12597656 C-148.56213409 0.12233093 -147.41503967 0.1186853 -146.23318481 0.1149292 C-141.30148659 0.68125266 -138.05330822 2.55924876 -134.40795898 5.85742188 C-128.29647274 13.80090003 -127.10045998 26.04866655 -124.91485596 35.64068604 C-120.32538796 55.71111208 -115.23675595 75.65681199 -110.15795898 95.60742188 C-109.96148647 96.37929462 -109.76501396 97.15116737 -109.56258774 97.94643021 C-108.96837221 100.28078768 -108.37409182 102.61512862 -107.77978516 104.94946289 C-107.58492995 105.71482266 -107.39007475 106.48018244 -107.18931484 107.26873493 C-106.89835477 108.41157334 -106.89835477 108.41157334 -106.60151672 109.57749939 C-106.40860865 110.33524092 -106.21570057 111.09298244 -106.01694679 111.87368584 C-105.62983141 113.39415486 -105.24265384 114.91460805 -104.85541344 116.43504524 C-102.41402664 126.02205473 -99.98940491 135.61291942 -97.59936523 145.21289062 C-97.34640686 146.22875244 -97.09344849 147.24461426 -96.83282471 148.29125977 C-95.70762227 152.81446719 -94.58609106 157.33855395 -93.46899414 161.86376953 C-92.53092978 165.65489254 -91.57904423 169.44218573 -90.61053467 173.22564697 C-90.20833976 174.79715249 -89.80919598 176.36944071 -89.41241455 177.94232178 C-88.78518496 180.41126286 -88.13999205 182.87485836 -87.48999023 185.33789062 C-87.30305099 186.08283279 -87.11611176 186.82777496 -86.92350769 187.59529114 C-85.72175107 192.05388882 -84.17468291 195.09477694 -81.03295898 198.48242188 C-75.34594657 186.64970006 -71.68836437 174.82661111 -68.53295898 162.10742188 C-68.05461496 160.22350216 -67.57477907 158.33996065 -67.09350586 156.45678711 C-66.15169721 152.76881304 -65.21526379 149.07954736 -64.28295898 145.38916016 C-62.76983113 139.42167674 -61.16191735 133.48169204 -59.53295898 127.54492188 C-55.20318385 111.6202675 -51.18307378 95.6141216 -47.11064148 79.62223816 C-45.57338317 73.58975449 -44.02461395 67.56034551 -42.46655273 61.53320312 C-42.26392822 60.74867264 -42.06130371 59.96414215 -41.85253906 59.15583801 C-40.29717335 53.1343609 -40.29717335 53.1343609 -39.55206299 50.26443481 C-37.38654957 41.92262607 -35.30904146 33.5699085 -33.40760803 25.16366577 C-31.34688796 16.19323409 -28.23882067 8.53705122 -21.03295898 2.48242188 C-14.41987457 -1.12031881 -7.27856294 -1.24209558 0 0 Z " fill="#0669B6" transform="translate(1523.032958984375,617.517578125)"/>
<path d="M0 0 C10.00831736 9.32593209 11.63774628 25.55256157 14.3515625 38.34375 C16.23232966 47.17047209 18.27317632 55.95879656 20.3125 64.75 C20.71616996 66.4937093 21.11973313 68.23744333 21.52319336 69.98120117 C22.32035806 73.42620947 23.11803009 76.87109972 23.91601562 80.31591797 C24.82760118 84.25280579 25.73536365 88.19055868 26.640625 92.12890625 C29.16909775 103.12878501 31.72488038 114.12205119 34.309021 125.10897827 C34.64345444 126.5311414 34.97764408 127.95336189 35.31158447 129.37564087 C37.13516647 137.14179158 38.97248333 144.90427982 40.84669495 152.65838623 C41.67842615 156.1012082 42.50546323 159.54515157 43.33236694 162.98913574 C43.73098868 164.64312746 44.13199211 166.29654727 44.53555298 167.94934082 C46.56877288 176.27810107 48.45896492 184.41214153 49 193 C50.65 193 52.3 193 54 193 C57.51419209 186.50029959 59.73663808 179.8838194 61.6328125 172.77734375 C61.88581116 171.83873001 62.13880981 170.90011627 62.3994751 169.93305969 C66.19198802 155.70746979 69.65527108 141.39553031 73.15926743 127.09680557 C74.16011187 123.0148568 75.16390198 118.93363224 76.16723633 114.85229492 C77.92830764 107.68648158 79.68644811 100.51995354 81.44279385 93.35298061 C82.52560368 88.93456926 83.60955135 84.51644003 84.69482422 80.09863281 C89.96935438 58.67254256 89.96935438 58.67254256 95.046875 37.19921875 C95.20956375 36.49610062 95.3722525 35.79298248 95.53987122 35.06855774 C96.28694583 31.83483763 97.02778511 28.60001253 97.75854492 25.36254883 C102.02460484 6.70378629 102.02460484 6.70378629 108 1 C114.86634016 -3.17857588 122.36663149 -2.28182164 130.12109375 -2.07421875 C131.59080004 -2.04614992 133.06053332 -2.01946336 134.5302887 -1.99409485 C138.37915436 -1.92397821 142.22736744 -1.83520939 146.07574463 -1.74243164 C150.01055987 -1.65091249 153.94570533 -1.57720257 157.88085938 -1.50195312 C165.58767009 -1.35197521 173.29387824 -1.18227314 181 -1 C181.8050495 5.35212754 182.14496225 11.53340806 182.13371277 17.93218994 C182.13597833 18.89190319 182.13824388 19.85161644 182.14057809 20.8404119 C182.14687426 24.03457093 182.14609158 27.22868704 182.14526367 30.42285156 C182.14825774 32.72145645 182.15166084 35.02006083 182.15544128 37.31866455 C182.16425635 43.54554415 182.16661824 49.77241 182.16725707 55.99929523 C182.16796854 59.88946233 182.1701046 63.77962594 182.17275429 67.66979218 C182.18152021 80.54027501 182.18617504 93.41074675 182.18542381 106.28123215 C182.18536388 107.32006423 182.18536388 107.32006423 182.18530273 108.37988281 C182.18526185 109.0732856 182.18522097 109.76668839 182.18517885 110.48110339 C182.18477181 121.73539029 182.19435904 132.98964383 182.2084411 144.24392107 C182.2227988 155.80991074 182.22952849 167.3758798 182.22884732 178.94187903 C182.22859209 185.43146495 182.23145805 191.92101302 182.24202538 198.41059113 C182.25168331 204.50747272 182.25180141 210.60428008 182.24450874 216.70116425 C182.2434603 218.94052743 182.24584109 221.17989518 182.2518692 223.41925049 C182.25955485 226.47150335 182.25496716 229.52349757 182.24723816 232.57574463 C182.25238172 233.46552325 182.25752529 234.35530186 182.26282471 235.27204347 C182.23388162 240.42979109 181.93041396 244.50678313 178.66015625 248.73046875 C172.71597581 254.15144504 166.56103018 255.01074448 158.68359375 254.9921875 C151.2597572 254.59647895 144.11267766 254.11267766 138.625 248.625 C135.52699079 243.62052358 134.75199643 239.83807922 134.77294922 233.9410553 C134.7726515 233.24176751 134.77235378 232.54247972 134.77204704 231.8220014 C134.77343331 229.4841565 134.7891061 227.146628 134.8046875 224.80883789 C134.80852735 223.12953366 134.81145424 221.45022713 134.8135376 219.7709198 C134.81985949 216.15380174 134.83239827 212.53677708 134.84967041 208.9196949 C134.87678532 203.17941626 134.88852126 197.43916846 134.89794922 191.69883728 C134.92203192 178.45476613 134.96588605 165.21077432 135.01040649 151.96675873 C135.05093386 139.87062393 135.08707928 127.77451831 135.10683632 115.67832941 C135.11509414 110.91794869 135.12757506 106.15766073 135.15032959 101.39732552 C135.31428436 73.14301472 135.31428436 73.14301472 133 45 C132.01 45 131.02 45 130 45 C126.10793525 52.8360237 124.09742151 60.90273453 122.125 69.375 C121.77546741 70.84705812 121.42536146 72.3189802 121.07470703 73.79077148 C118.66163768 83.96602639 116.38073103 94.16975549 114.14892578 104.38623047 C112.33852295 112.62706618 110.32459362 120.80341907 108.24072266 128.97875977 C106.43321222 136.1242021 104.81034442 143.2969517 103.25 150.5 C100.54195829 162.95754378 97.46264951 175.30877661 94.34213257 187.66809082 C91.16305387 200.2633374 88.11419274 212.87470572 85.25390625 225.546875 C84.83681641 227.36478521 84.41882148 229.18248796 84 231 C83.76120117 232.06210693 83.52240234 233.12421387 83.27636719 234.21850586 C83.02661133 235.28464111 82.77685547 236.35077637 82.51953125 237.44921875 C82.2975708 238.41432373 82.07561035 239.37942871 81.84692383 240.3737793 C80.2273683 245.39584873 77.03434687 248.43153409 72.953125 251.578125 C68.6504965 253.64976094 64.33160167 254.08936937 59.625 254.6875 C58.70460938 254.81705078 57.78421875 254.94660156 56.8359375 255.08007812 C48.10989622 256.2580937 40.17294057 256.78251795 32 253 C22.47806465 245.69105175 20.73595726 231.60038919 18.25 220.625 C17.90417021 219.12471627 17.55780391 217.62455612 17.2109375 216.12451172 C16.12682708 211.41943523 15.06074486 206.71039309 14 202 C13.83072998 201.2486377 13.66145996 200.49727539 13.48706055 199.72314453 C11.29918038 189.99993832 9.14462409 180.26944677 7 170.53662109 C5.33977068 163.00215508 3.6713845 155.46949855 2 147.9375 C1.7529985 146.82409744 1.7529985 146.82409744 1.50100708 145.6882019 C-1.30129594 133.0643797 -4.16075719 120.45410673 -7.05932617 107.85205078 C-8.71745748 100.63888563 -10.3562624 93.42231198 -11.953125 86.1953125 C-12.26935057 84.77056715 -12.58567379 83.34584347 -12.90209961 81.92114258 C-13.49237377 79.26336834 -14.07547584 76.6043666 -14.65454102 73.9440918 C-16.92475019 63.72573319 -19.23747778 54.5199434 -27 47 C-26.99815641 47.97606673 -26.99631283 48.95213346 -26.99441338 49.95777798 C-26.94999252 73.71971394 -26.91713812 97.48164451 -26.89637566 121.24361324 C-26.88606793 132.73477086 -26.87201719 144.22590102 -26.84912109 155.71704102 C-26.82917185 165.73399724 -26.8162799 175.75093358 -26.81182301 185.76790911 C-26.80921824 191.07063385 -26.8031063 196.37330173 -26.78853989 201.67600822 C-26.77493177 206.67047832 -26.7707839 211.66486829 -26.77378464 216.65935516 C-26.77323592 218.48905689 -26.76927778 220.31876138 -26.76158905 222.14844704 C-26.75157718 224.65459875 -26.75405371 227.16045148 -26.75949097 229.66661072 C-26.75366528 230.38356627 -26.7478396 231.10052182 -26.74183738 231.8392033 C-26.77874484 238.1717826 -27.47165841 244.43456947 -30.75 249.9375 C-36.36098254 255.08090066 -43.649418 254.33440545 -50.8125 254.3125 C-51.85470703 254.32861328 -52.89691406 254.34472656 -53.97070312 254.36132812 C-66.59108158 254.36925052 -66.59108158 254.36925052 -72 251 C-75.99650893 245.16358345 -76.57661212 238.99336852 -76.50120544 232.11923218 C-76.50673984 231.16501361 -76.51227424 230.21079505 -76.51797634 229.22766078 C-76.53151645 226.05173137 -76.51664958 222.87659689 -76.50170898 219.70068359 C-76.50549451 217.41517301 -76.51099647 215.12966472 -76.51808167 212.84416199 C-76.5320213 206.65217571 -76.52087742 200.46046776 -76.50437045 194.26849699 C-76.49050279 187.78418996 -76.49698187 181.29989879 -76.50050354 174.81558228 C-76.50320391 163.92941718 -76.48983156 153.04336497 -76.46655273 142.15722656 C-76.44262318 130.96545315 -76.43555383 119.77382566 -76.44604492 108.58203125 C-76.45868024 95.07868413 -76.45615695 81.575449 -76.44038582 68.07210159 C-76.43462909 62.91994271 -76.43470623 57.76783266 -76.43945122 52.61567307 C-76.44422423 46.54991851 -76.43410556 40.48436583 -76.41249657 34.41864967 C-76.4069335 32.19303506 -76.40645898 29.96740102 -76.41144943 27.74178505 C-76.4174082 24.70323306 -76.40488536 21.66529706 -76.38768005 18.62680054 C-76.3936901 17.74673855 -76.39970014 16.86667657 -76.40589231 15.95994604 C-76.34305884 9.85509381 -75.37357772 5.09597094 -71.5625 0.125 C-68.59321624 -2.0128843 -65.35193816 -2.12362598 -61.78564453 -2.09765625 C-60.55383957 -2.09270142 -60.55383957 -2.09270142 -59.29714966 -2.08764648 C-58.4179184 -2.07934814 -57.53868713 -2.0710498 -56.6328125 -2.0625 C-55.26429642 -2.05682007 -55.26429642 -2.05682007 -53.86813354 -2.05102539 C-49.97111506 -2.03470437 -46.07420206 -2.00660369 -42.17724609 -1.97949219 C-39.32910653 -1.96136636 -36.4809842 -1.9492964 -33.6328125 -1.9375 C-32.7576297 -1.92920166 -31.8824469 -1.92090332 -30.98074341 -1.91235352 C-3.06085144 -1.80090364 -3.06085144 -1.80090364 0 0 Z " fill="#0669B6" transform="translate(1102,259)"/>
<path d="M0 0 C0.67801414 0.01043209 1.35602829 0.02086418 2.05458832 0.0316124 C25.84638781 0.4005551 49.60469863 1.27702913 73.36739731 2.50091934 C75.7964651 2.62418628 78.22575369 2.74158654 80.65518188 2.85751343 C84.51056346 3.04289926 88.36460533 3.24630676 92.21832848 3.46339035 C93.62899642 3.54071266 95.03995587 3.61293772 96.45118141 3.67930984 C113.05166784 4.47307036 127.45523183 8.14716372 139.375 20.25 C147.48975513 29.8216232 152.41471681 41.54698412 154.6875 53.8125 C154.96013672 54.99585938 154.96013672 54.99585938 155.23828125 56.203125 C157.74342331 70.7547328 154.62110311 85.42522432 146.6875 97.8125 C141.99805974 103.82709927 136.69369701 109.11468553 130.6875 113.8125 C128.77493288 115.69327873 128.77493288 115.69327873 127.6875 117.8125 C127.94063953 120.44937009 128.32607235 121.50654729 130.3671875 123.234375 C131.45386719 123.89179688 131.45386719 123.89179688 132.5625 124.5625 C133.37460937 125.08070313 134.18671875 125.59890625 135.0234375 126.1328125 C135.90257812 126.68710937 136.78171875 127.24140625 137.6875 127.8125 C150.26021277 135.84606718 159.27396253 146.62077215 162.9375 161.25 C166.40148185 181.37854319 162.7498112 204.56830901 151.6875 221.8125 C150.84058594 223.14087891 150.84058594 223.14087891 149.9765625 224.49609375 C140.87129223 237.89384858 128.96977012 245.35078957 113.38989258 249.12109375 C105.58737586 250.57818095 97.66226405 250.90621458 89.75 251.375 C87.76375305 251.49918297 85.77750631 251.62336925 83.79125977 251.74755859 C59.77510161 253.21144953 35.73741381 254.13141048 11.6875 254.8125 C9.7155365 254.86854401 9.7155365 254.86854401 7.70373535 254.92572021 C-0.59829797 255.1584642 -8.9006223 255.36224988 -17.20407104 255.53729248 C-19.88584146 255.59403208 -22.56732836 255.65734734 -25.24880981 255.72637939 C-28.98735927 255.8188599 -32.72574881 255.89080863 -36.46484375 255.95703125 C-37.57797943 255.98802414 -38.69111511 256.01901703 -39.83798218 256.0509491 C-45.3936778 256.1257007 -49.59465833 256.13339295 -54.3125 252.8125 C-56.97291605 248.82187593 -56.59293455 245.34464561 -56.57319641 240.71141052 C-56.57702196 239.76851876 -56.58084751 238.82562699 -56.58478898 237.85416275 C-56.5951441 234.68063259 -56.59112198 231.50728251 -56.5871582 228.33374023 C-56.59150346 226.06383598 -56.59668597 223.79393319 -56.60264587 221.52403259 C-56.61607158 215.34603343 -56.61661026 209.16809532 -56.61408257 202.99008441 C-56.61301464 197.83381533 -56.61789202 192.67755869 -56.622688 187.52129227 C-56.63443271 174.65584749 -56.63355123 161.79044661 -56.62713119 148.92500121 C-56.62196922 137.76422148 -56.63319688 126.60352921 -56.65222941 115.44276678 C-56.67163077 103.97750507 -56.6795683 92.51230079 -56.67610615 81.04701954 C-56.67429391 74.61250164 -56.67692315 68.17806373 -56.69082069 61.74355888 C-56.70341122 55.68692407 -56.70144313 49.63046374 -56.68840981 43.57383156 C-56.68604664 41.35431229 -56.68876935 39.13478071 -56.69703293 36.91527557 C-56.7075246 33.87747431 -56.69937983 30.84025574 -56.6867218 27.80247498 C-56.69409609 26.93094974 -56.70147037 26.05942451 -56.70906812 25.16148943 C-56.64502149 17.8187386 -55.58093863 10.67789617 -50.9375 4.8125 C-38.59666742 -4.59003911 -14.50523883 -0.23374346 0 0 Z M-1.3125 42.8125 C-9.25606153 53.30934917 -8.49273511 72.57817556 -7.0390625 85.18359375 C-6.04031358 90.1679162 -3.95295479 93.3338432 -0.3125 96.8125 C8.61989944 101.79403046 19.18316975 100.97134953 29.12109375 100.98046875 C30.39420914 100.98379715 31.66732452 100.98712555 32.97901917 100.99055481 C35.66093467 100.99559842 38.34274867 100.99839881 41.0246582 100.99780273 C44.43471176 100.99770111 47.84455714 101.01137166 51.25456142 101.02857494 C54.54339736 101.04246446 57.83223251 101.04178591 61.12109375 101.04296875 C62.33180038 101.05015427 63.54250702 101.05733978 64.78990173 101.06474304 C77.7361166 101.03015035 89.1910824 99.3089176 98.6875 89.8125 C103.80508236 81.76824914 104.99703677 72.72641021 103.2265625 63.37890625 C100.97785355 55.74652353 96.85672247 49.95569655 90.25 45.5 C79.24150156 39.5943653 66.42578988 39.35128553 54.21484375 39.4140625 C52.79333854 39.41203355 51.37183435 39.40911537 49.95033264 39.40536499 C47.00495261 39.40099303 44.05984932 39.40721266 41.11450195 39.42138672 C37.35209817 39.4386191 33.59033006 39.42851757 29.82794857 39.41066933 C26.90675585 39.39981219 23.98571338 39.40328416 21.06451607 39.4110527 C19.67672206 39.41304205 18.28891405 39.4106403 16.9011364 39.40361404 C14.9665645 39.3959525 13.03194404 39.4097103 11.09741211 39.42431641 C10.00126083 39.42670319 8.90510956 39.42908997 7.77574158 39.43154907 C4.18469218 39.874524 1.78118691 40.96197957 -1.3125 42.8125 Z M6.8046875 141.515625 C5.52964355 141.64098633 4.25459961 141.76634766 2.94091797 141.89550781 C-1.06341951 143.02415043 -2.18463447 144.29066931 -4.3125 147.8125 C-7.64307851 156.63118911 -6.61609464 167.37924165 -6.57324219 176.66503906 C-6.56249662 179.43837206 -6.5731979 182.21106133 -6.5859375 184.984375 C-6.58461617 186.77343891 -6.58205432 188.56250242 -6.578125 190.3515625 C-6.58217346 191.16742828 -6.58622192 191.98329407 -6.59039307 192.82388306 C-6.53213273 200.07524773 -5.94690286 207.93037329 -1.3125 213.8125 C2.24687517 216.18768035 5.49182203 216.08456375 9.6953125 216.11328125 C10.74835068 216.12147636 10.74835068 216.12147636 11.82266235 216.12983704 C14.15279779 216.14155255 16.48236154 216.13498614 18.8125 216.125 C19.61385376 216.12417419 20.41520752 216.12334839 21.24084473 216.12249756 C35.00903351 216.09024163 48.70664 215.41991895 62.4375 214.4375 C63.3384137 214.37446686 64.23932739 214.31143372 65.1675415 214.24649048 C67.75314264 214.06185537 70.33754929 213.86570459 72.921875 213.6640625 C74.05419052 213.58107658 74.05419052 213.58107658 75.2093811 213.49641418 C86.37810313 212.57011388 95.45875649 210.14219718 103 201.3125 C108.70441005 193.00217562 111.05113551 181.74755872 109.6875 171.8125 C107.66033372 162.22332016 104.27065357 155.52660081 97.5 148.5625 C89.05827002 143.30986801 80.135006 142.06707738 70.375 141.5625 C69.10188965 141.48805664 67.8287793 141.41361328 66.51708984 141.33691406 C55.62320217 140.74529658 44.72054158 140.60401183 33.8125 140.5625 C33.02410736 140.55714233 32.23571472 140.55178467 31.4234314 140.54626465 C23.19086476 140.50372408 15.00041502 140.69090807 6.8046875 141.515625 Z " fill="#0669B6" transform="translate(199.3125,257.1875)"/>
<path d="M0 0 C0.77085938 0.0014653 1.54171875 0.0029306 2.3359375 0.00444031 C4.9651625 0.01388584 7.59361836 0.04588101 10.22265625 0.078125 C12.13939775 0.09094497 14.05614657 0.10270348 15.97290039 0.11352539 C21.69912979 0.15191437 27.42491561 0.21473219 33.15087891 0.28131104 C37.68517353 0.33354416 42.21953417 0.37842746 46.75390625 0.42333984 C56.36378773 0.51927616 65.97355134 0.62424335 75.58327103 0.73518372 C77.32926874 0.75532114 79.07526838 0.77529245 80.82126999 0.79508972 C98.59704675 0.99727025 116.37120979 1.23371987 134.140625 1.765625 C135.94381447 1.81419899 135.94381447 1.81419899 137.78343201 1.86375427 C157.48056836 2.51786288 175.63822912 8.28434517 189.734375 22.546875 C200.57245578 34.36420044 208.26148896 50.16658994 209.28515625 66.328125 C209.33800781 67.05128906 209.39085937 67.77445313 209.4453125 68.51953125 C210.04781378 84.4203258 204.66802741 99.66254134 195.28515625 112.328125 C194.17140625 113.8440625 194.17140625 113.8440625 193.03515625 115.390625 C192.45765625 116.03 191.88015625 116.669375 191.28515625 117.328125 C190.62515625 117.328125 189.96515625 117.328125 189.28515625 117.328125 C188.95515625 118.318125 188.62515625 119.308125 188.28515625 120.328125 C186.82641602 121.57080078 186.82641602 121.57080078 184.9765625 122.7734375 C184.31205078 123.21042969 183.64753906 123.64742187 182.96289062 124.09765625 C182.26486328 124.54496094 181.56683594 124.99226562 180.84765625 125.453125 C180.15349609 125.90816406 179.45933594 126.36320313 178.74414062 126.83203125 C173.71620784 130.11259921 173.71620784 130.11259921 171.28515625 131.328125 C173.47735764 137.72204571 177.00179058 141.36683564 182.59765625 145.015625 C193.07615348 152.4623437 198.19260909 163.17701409 200.84106445 175.5402832 C201.69221451 180.88348414 201.86910702 186.2859751 202.11968994 191.68432617 C202.2989855 195.52616138 202.5045506 199.36656946 202.7109375 203.20703125 C202.77568268 204.41947006 202.77568268 204.41947006 202.84173584 205.65640259 C203.48218549 217.32218301 204.41649041 228.96774515 205.32006836 240.61547852 C205.41600029 241.85709496 205.41600029 241.85709496 205.51387024 243.12379456 C205.63424317 244.67714747 205.75582674 246.23040723 205.87882996 247.78355408 C206.10154619 250.64159602 206.28515625 253.46001188 206.28515625 256.328125 C165.9378501 256.91972773 165.9378501 256.91972773 155.546875 249.00390625 C145.02063208 238.63438159 145.55571115 217.51721456 143.93066406 203.76586914 C141.99486133 183.4130323 141.99486133 183.4130323 133.28515625 165.328125 C132.95515625 164.338125 132.62515625 163.348125 132.28515625 162.328125 C129.89446891 161.22176105 129.89446891 161.22176105 127.28515625 160.328125 C126.29515625 159.668125 125.30515625 159.008125 124.28515625 158.328125 C110.38546521 155.14678854 95.5131511 155.65540183 81.34765625 155.203125 C78.83396209 155.11652977 76.32028989 155.02929494 73.80664062 154.94140625 C57.47438253 153.12672284 57.47438253 153.12672284 41.91015625 156.015625 C41.26304688 156.32886719 40.6159375 156.64210938 39.94921875 156.96484375 C37.62543869 158.86859784 37.18375944 160.45037256 36.28515625 163.328125 C36.10000605 166.0601517 36.01474664 168.68944269 36.02978516 171.41967773 C36.02435448 172.62063583 36.02435448 172.62063583 36.01881409 173.84585571 C36.0119378 175.57877401 36.00941133 177.31171389 36.01076126 179.04464531 C36.01172866 181.78984534 35.99875942 184.53465616 35.98178101 187.27980042 C35.93557037 195.0827434 35.91090091 202.88564553 35.90429688 210.6887207 C35.89927844 215.46681174 35.87501408 220.2444948 35.83897018 225.02244759 C35.82918213 226.84004325 35.82683482 228.6576951 35.83214188 230.47530937 C35.83922354 233.01970835 35.8219092 235.56289342 35.79931641 238.10717773 C35.80748886 238.85386215 35.81566132 239.60054657 35.82408142 240.36985779 C35.74343047 245.48730609 34.48687894 248.37352416 31.28515625 252.328125 C24.13316922 258.25405711 12.41738059 256.39256435 3.72265625 256.078125 C2.54251953 256.05105469 1.36238281 256.02398438 0.14648438 255.99609375 C-6.39884567 255.7690034 -11.85138515 255.36792042 -17.71484375 252.328125 C-19.46751563 249.59784496 -19.96660918 247.46549872 -19.9821434 244.25066757 C-19.99084229 243.44297259 -19.99954118 242.63527761 -20.00850368 241.80310702 C-20.00793318 240.92140629 -20.00736269 240.03970556 -20.0067749 239.13128662 C-20.01397844 238.19021285 -20.02118197 237.24913908 -20.02860379 236.27954793 C-20.05033445 233.11831056 -20.05785349 229.95719912 -20.06542969 226.79589844 C-20.07799908 224.53245073 -20.0914116 222.26900756 -20.10560608 220.00556946 C-20.14152945 213.85052587 -20.16485872 207.69549321 -20.18542385 201.54038143 C-20.20847639 195.10186498 -20.24114801 188.66339604 -20.27227783 182.22491455 C-20.32620376 170.71388345 -20.37007701 159.2028424 -20.41005698 147.69175592 C-20.4465652 137.26303413 -20.49359878 126.83440317 -20.54833984 116.40576172 C-20.61192124 104.29212028 -20.66862603 92.17848492 -20.71532845 80.06476426 C-20.74005924 73.65380054 -20.76755529 67.2428809 -20.80223846 60.83196259 C-20.83443308 54.80083192 -20.85666056 48.76974453 -20.87124443 42.73854637 C-20.87821687 40.52623556 -20.88864282 38.31393249 -20.90279579 36.10165596 C-20.92156971 33.07867947 -20.92777226 30.05592541 -20.93084717 27.03289795 C-20.93919956 26.1601201 -20.94755195 25.28734226 -20.95615745 24.3881166 C-20.93963711 16.5850303 -19.9883898 9.45684068 -14.71484375 3.328125 C-9.71209275 0.72188986 -5.6513097 -0.10016069 0 0 Z M41.00390625 44.11328125 C40.43671875 44.84417969 39.86953125 45.57507813 39.28515625 46.328125 C38.19847656 47.71257813 38.19847656 47.71257813 37.08984375 49.125 C33.88288931 54.96336126 34.78185044 62.0477104 34.91015625 68.515625 C34.9265642 69.95425918 34.94251191 71.39289868 34.95800781 72.83154297 C35.07123762 80.88381959 35.33360361 88.92863267 36.03515625 96.953125 C36.09654785 97.73196045 36.15793945 98.5107959 36.22119141 99.31323242 C36.84567053 105.08287651 38.71240928 109.11757247 43.13954163 112.92144775 C49.92138443 117.36766277 59.46431952 116.62367473 67.2578125 116.59375 C68.37973495 116.59566345 69.50165741 116.5975769 70.65757751 116.59954834 C73.02163926 116.60090251 75.38570863 116.59726006 77.74975586 116.58886719 C81.31316445 116.57822798 84.87606074 116.58875252 88.43945312 116.6015625 C115.84884827 116.78838226 115.84884827 116.78838226 140.59765625 106.140625 C149.70425428 96.61046427 152.76346456 87.54407579 152.5390625 74.6484375 C151.69548888 63.6170902 147.75692348 56.32648371 139.67578125 48.94140625 C133.8664884 45.02108281 127.19906018 43.69364924 120.37890625 42.71484375 C119.09590637 42.52748909 119.09590637 42.52748909 117.7869873 42.33634949 C106.50375575 40.8082386 95.15312614 40.50948473 83.78515625 40.140625 C81.56897405 40.05892318 79.35282763 39.97624488 77.13671875 39.89257812 C69.64121995 39.61409282 69.64121995 39.61409282 62.14379883 39.39712524 C60.11712264 39.34820652 58.09085621 39.28070932 56.06518555 39.20028687 C55.00533447 39.17246124 53.9454834 39.14463562 52.85351562 39.1159668 C51.41558655 39.06716621 51.41558655 39.06716621 49.9486084 39.01737976 C45.99539217 39.47860191 43.79900862 41.41012303 41.00390625 44.11328125 Z " fill="#0669B6" transform="translate(1033.71484375,617.671875)"/>
<path d="M0 0 C0.68497559 0.28359375 1.36995117 0.5671875 2.07568359 0.859375 C12.11521384 5.09315501 20.57843155 10.02859105 29 17 C30.02287109 17.79664063 30.02287109 17.79664063 31.06640625 18.609375 C32.42549845 19.6815127 33.72393298 20.8302719 35 22 C35 22.66 35 23.32 35 24 C35.99 24.33 36.98 24.66 38 25 C39.68771274 26.90310265 41.22753582 28.78408882 42.75 30.8125 C43.1931958 31.39999023 43.6363916 31.98748047 44.09301758 32.59277344 C61.10756409 55.52528914 68.11323865 82.97196253 71 111 C71.13148438 112.25039063 71.26296875 113.50078125 71.3984375 114.7890625 C73.65024961 140.77619147 71.76461722 167.94466872 61 192 C60.72172363 192.62616211 60.44344727 193.25232422 60.15673828 193.89746094 C47.58207198 221.76711076 24.9215818 241.94990587 -3.51123047 252.97363281 C-14.48204083 257.00985256 -25.43902808 260.19200659 -37 262 C-38.25296875 262.20367188 -39.5059375 262.40734375 -40.796875 262.6171875 C-69.1354412 266.83905553 -96.10040623 260.68506102 -121 247 C-121.89847656 246.51917969 -122.79695313 246.03835938 -123.72265625 245.54296875 C-150.90160846 230.20785263 -170.2224339 204.74967938 -179 175 C-179.80808364 171.94989376 -180.54703627 168.88844823 -181.25 165.8125 C-181.41338867 165.1004541 -181.57677734 164.3884082 -181.74511719 163.65478516 C-184.23393837 152.05178408 -184.20529172 140.31126741 -184.1875 128.5 C-184.18656342 127.69908936 -184.18562683 126.89817871 -184.18466187 126.07299805 C-184.08948173 88.55233154 -176.04799626 51.47891347 -148.86328125 23.828125 C-147.91109435 22.88315401 -146.9568361 21.94026312 -146 21 C-144.87658203 19.87851562 -144.87658203 19.87851562 -143.73046875 18.734375 C-134.61744998 10.14548161 -123.57667462 3.65149745 -112 -1 C-111.21238281 -1.34546875 -110.42476562 -1.6909375 -109.61328125 -2.046875 C-77.78912538 -15.03632638 -31.47493474 -13.04804351 0 0 Z M-109.15234375 55.08984375 C-121.06975266 67.71741483 -126.07733485 86.25758044 -129 103 C-129.20496094 104.10472656 -129.40992188 105.20945312 -129.62109375 106.34765625 C-134.32696107 134.61531443 -129.32795509 167.13220177 -112.9375 191.00390625 C-101.69238744 205.44182756 -86.88055678 214.35366289 -69 218 C-65.11346311 218.43013845 -61.28329511 218.52522923 -57.375 218.5 C-55.80903076 218.49141968 -55.80903076 218.49141968 -54.21142578 218.48266602 C-44.83404645 218.26885658 -36.64969507 216.56989217 -28 213 C-27.37416016 212.74299316 -26.74832031 212.48598633 -26.10351562 212.22119141 C-8.67228806 204.8033571 3.64625637 192.59643808 11.15625 175.34375 C18.67551907 155.97593573 18.35919725 135.44367333 18 115 C17.98114746 113.75718262 17.98114746 113.75718262 17.96191406 112.48925781 C17.54185275 90.98040424 13.46136592 71.3349455 -2.265625 55.61328125 C-3.16796875 54.75089844 -4.0703125 53.88851562 -5 53 C-5.69609375 52.33355469 -6.3921875 51.66710937 -7.109375 50.98046875 C-36.51479891 25.7351145 -81.82834855 28.5592858 -109.15234375 55.08984375 Z " fill="#0669B6" transform="translate(1790,259)"/>
<path d="M0 0 C1.07354736 -0.03440186 2.14709473 -0.06880371 3.25317383 -0.10424805 C9.27186393 -0.13652361 13.49702256 0.45694411 18.57299805 3.77319336 C27.2592697 12.72742198 25.48450613 31.29431671 25.53125 42.82421875 C25.54494495 44.22427953 25.55973959 45.62432993 25.57556152 47.02436829 C25.63105705 52.13576613 25.66729236 57.24725883 25.70318604 62.35882568 C25.73449684 66.72150455 25.77365064 71.08397332 25.82344055 75.4464817 C25.84336156 77.47221908 25.85178775 79.49779105 25.85974121 81.52360535 C25.87315552 82.75291275 25.88656982 83.98222015 25.90039062 85.2487793 C25.90768188 86.32637009 25.91497314 87.40396088 25.92248535 88.51420593 C26.1999026 91.57430918 26.76666023 93.718407 28.1875 96.4375 C33.90283762 100.24772508 40.92788659 99.58989109 47.59179688 99.59863281 C48.50816422 99.60359772 49.42453156 99.60856262 50.3686676 99.61367798 C53.38120286 99.62820928 56.39368555 99.63508477 59.40625 99.640625 C61.50939942 99.64638179 63.61254883 99.65213945 65.71569824 99.65789795 C70.11694583 99.66838074 74.51817529 99.67424189 78.91943359 99.67773438 C84.55168775 99.68322797 90.18370126 99.70728604 95.81587982 99.73570633 C100.15680643 99.75434684 104.49767506 99.75953896 108.83863831 99.76107025 C110.91501691 99.76409167 112.99139462 99.77210292 115.06773376 99.78525543 C117.97307639 99.8023531 120.87783029 99.80042706 123.78320312 99.79394531 C124.63535904 99.8031601 125.48751495 99.81237488 126.36549377 99.8218689 C131.71352003 99.78458539 135.45533191 98.98932297 140.1875 96.4375 C144.03825258 91.36368327 143.66032436 85.71923212 143.69921875 79.609375 C143.71707932 78.55500748 143.73493988 77.50063995 143.75334167 76.4143219 C143.80751325 73.00542558 143.84123032 69.59665356 143.875 66.1875 C143.90971834 63.85699599 143.9456891 61.5265103 143.98291016 59.19604492 C144.12570801 49.6525981 144.23157646 40.11074658 144.13671875 30.56640625 C144.12088745 28.77928223 144.12088745 28.77928223 144.10473633 26.95605469 C144.07769013 24.90304537 144.03593299 22.85014478 143.9753418 20.79785156 C143.87602095 14.95757314 144.51244085 10.6891854 147.1875 5.4375 C156.10578861 -1.91486837 173.16082905 -0.38108496 184.1875 0.4375 C188.99091294 1.21720092 192.70075323 2.39677726 196.6875 5.1875 C203.81370011 15.87680016 201.32285277 32.85779961 201.27734375 45.12890625 C201.27326827 47.17265272 201.26944735 49.21639972 201.26585388 51.26014709 C201.25025482 58.31931596 201.22035776 65.37839262 201.1875 72.4375 C201.1783041 74.41391605 201.1783041 74.41391605 201.16892242 76.4302597 C201.08023296 95.13171172 200.96235842 113.83294158 200.83167708 132.53414285 C200.82623487 133.31299046 200.82079267 134.09183806 200.81518555 134.89428711 C200.80973233 135.6742082 200.80427911 136.45412929 200.79866064 137.25768435 C200.75455322 143.61214337 200.71461678 149.96662396 200.67550808 156.32111543 C200.63670343 162.59259532 200.59477557 168.86404981 200.55062145 175.13549429 C200.52472613 178.82128245 200.49991718 182.50706775 200.47842598 186.19288445 C200.42263627 195.60839747 200.3295791 205.02283001 200.1875 214.4375 C200.17724084 215.15556902 200.16698169 215.87363805 200.15641165 216.61346674 C200.09150045 221.04673055 200.00867883 225.47911355 199.90296924 229.91159737 C199.87157325 231.30688669 199.84484714 232.7022903 199.82319558 234.09776485 C199.60059921 247.84278234 199.60059921 247.84278234 196.1875 253.4375 C188.41749611 258.00809052 179.08983213 257.65944981 170.3125 257.75 C169.38308594 257.77900391 168.45367188 257.80800781 167.49609375 257.83789062 C160.73353155 257.89919698 155.16402611 256.69133099 149.1875 253.4375 C145.44868266 249.69868266 144.23188143 246.99793318 144.08070374 241.68258667 C144.08390566 240.08378274 144.09267234 238.48498442 144.10571289 236.88623047 C144.10877945 236.0126741 144.11184601 235.13911774 144.11500549 234.23908997 C144.12216315 232.3402401 144.13155451 230.44139766 144.14290047 228.54256821 C144.16028607 225.53220885 144.17058959 222.5219026 144.17881775 219.51150513 C144.20326779 210.95130379 144.23869249 202.39117353 144.28344727 193.83105469 C144.31032444 188.5950887 144.32730774 183.35916446 144.33831596 178.12314224 C144.34450251 176.1321471 144.35447848 174.14115983 144.36839485 172.1502037 C144.38774702 169.35512853 144.39452646 166.56027018 144.39868164 163.76513672 C144.40744324 162.95129013 144.41620483 162.13744354 144.42523193 161.29893494 C144.49145497 151.63094645 144.49145497 151.63094645 140.25 143.4375 C137.07110178 141.89621602 134.52136189 141.31119145 131.03276062 141.29705811 C130.18747803 141.29134796 129.34219543 141.28563782 128.47129822 141.27975464 C127.54708572 141.27863678 126.62287323 141.27751892 125.6706543 141.27636719 C124.20678787 141.26891983 124.20678787 141.26891983 122.71334839 141.26132202 C119.47946471 141.24669717 116.24563009 141.23989777 113.01171875 141.234375 C110.76593525 141.22862373 108.52015176 141.222866 106.27436829 141.21710205 C101.56254853 141.20659109 96.85074585 141.20074907 92.13891602 141.19726562 C86.1028939 141.19178129 80.06709741 141.16775477 74.03114605 141.13929367 C69.39086753 141.12066492 64.75064333 141.11546155 60.11033058 141.11392975 C57.88519876 141.11090315 55.6600679 141.10287439 53.43497276 141.08974457 C50.32065063 141.07267976 47.20687929 141.07456559 44.0925293 141.08105469 C43.1743895 141.0718399 42.25624969 141.06262512 41.31028748 141.0531311 C36.28334234 141.08592301 32.2709032 141.19387204 28.1875 144.4375 C25.03894653 150.23176612 24.77534126 156.32654252 24.91040039 162.77758789 C24.91638748 163.66338028 24.92237457 164.54917267 24.92854309 165.46180725 C24.94321094 167.3687923 24.96475365 169.27573475 24.99257088 171.18257332 C25.03580896 174.20579419 25.05890567 177.22858887 25.07676697 180.25205994 C25.12465846 187.7566402 25.20158188 195.26083884 25.28729248 202.76507568 C25.3598191 209.11943195 25.4165546 215.47349778 25.45019341 221.82818413 C25.47228366 224.79757227 25.51775342 227.76602327 25.56373596 230.73512268 C25.5750765 232.56567666 25.58522526 234.39623854 25.59399414 236.22680664 C25.61308838 237.04417297 25.63218262 237.86153931 25.65185547 238.70367432 C25.64339402 244.32020759 24.47861576 248.80472532 21.1875 253.4375 C9.87661631 260.89787009 -8.79837429 257.8491562 -21.8125 256.4375 C-26.37098641 255.40671866 -29.13016985 254.46099523 -31.8125 250.4375 C-32.06089699 248.49395734 -32.06089699 248.49395734 -32.05859566 246.24210072 C-32.06257775 245.38269565 -32.06655985 244.52329059 -32.07066262 243.63784295 C-32.06483693 242.69329915 -32.05901125 241.74875534 -32.05300903 240.77558899 C-32.05471788 239.77255539 -32.05642673 238.76952178 -32.05818737 237.73609322 C-32.06149374 234.35955368 -32.05045962 230.98321083 -32.03955078 227.60668945 C-32.03898692 225.19248459 -32.03930274 222.77827937 -32.04043579 220.36407471 C-32.04089191 215.15846654 -32.03520214 209.95290323 -32.02396011 204.74730873 C-32.00771654 197.22086683 -32.00249828 189.69444919 -31.99998413 182.16799166 C-31.99560523 169.95727693 -31.98229084 157.7465889 -31.96337891 145.53588867 C-31.94502515 133.67325982 -31.93086618 121.81063822 -31.92236328 109.94799805 C-31.92157511 108.85145943 -31.92157511 108.85145943 -31.92077102 107.73276851 C-31.91816097 104.065483 -31.91563355 100.39819745 -31.91314721 96.73091185 C-31.89240864 66.29975545 -31.85702929 35.86863143 -31.8125 5.4375 C-21.65233949 0.23560261 -11.23705414 0.19837299 0 0 Z " fill="#0669B6" transform="translate(457.8125,616.5625)"/>
<path d="M0 0 C2.21857654 0.01593319 4.43529103 0.00017137 6.65380859 -0.01904297 C30.82774587 -0.05921269 30.82774587 -0.05921269 40.05615234 7.07861328 C56.9033764 24.5621036 63.6164385 55.71095015 72.26708984 78.15551758 C75.24653332 85.8812852 78.27577758 93.58493622 81.36865234 101.26611328 C88.60355661 119.24789586 95.59064918 137.32775286 102.61865234 155.39111328 C103.23940676 156.98617074 103.86017457 158.58122299 104.48095703 160.17626953 C106.80507159 166.1483474 109.12887934 172.12054317 111.44946289 178.09399414 C114.11625793 184.9584328 116.78541486 191.82190963 119.46496582 198.68138123 C120.73323812 201.92842297 122.00005093 205.17603331 123.26678467 208.42367554 C123.86392498 209.95343653 124.46175421 211.48292882 125.06036377 213.01211548 C128.74259922 222.41936225 132.26325165 231.86139883 135.61865234 241.39111328 C136.45400013 243.70529374 137.29476547 246.01736805 138.13818359 248.32861328 C138.76907844 251.03684481 138.6476467 253.61897042 138.61865234 256.39111328 C132.33817012 256.44199261 126.05774143 256.47692202 119.77709961 256.50097656 C117.64231378 256.51100891 115.5075416 256.52463792 113.37280273 256.54199219 C110.29716615 256.56636218 107.22171191 256.57762428 104.14599609 256.58642578 C102.72370949 256.60190964 102.72370949 256.60190964 101.27268982 256.6177063 C94.58642599 256.61882806 88.18581527 256.34756478 82.93115234 251.70361328 C82.39103516 251.24599609 81.85091797 250.78837891 81.29443359 250.31689453 C76.53010984 244.84180919 74.37210842 238.35110028 72.11865234 231.57861328 C71.50937172 229.79818687 70.89871045 228.01823229 70.28662109 226.23876953 C69.99835449 225.39717285 69.71008789 224.55557617 69.41308594 223.68847656 C65.82319923 211.99794681 65.82319923 211.99794681 57.56297302 203.75720215 C53.16980068 201.99024243 49.00733352 201.95486921 44.32202148 201.97119141 C43.41701401 201.96272186 42.51200653 201.95425232 41.57957458 201.94552612 C38.60417417 201.92223131 35.62929309 201.92113212 32.65380859 201.92236328 C30.57547298 201.91525764 28.49713931 201.90755805 26.41880798 201.89929199 C22.06878196 201.88586477 17.71893739 201.88427075 13.36889648 201.89013672 C7.80600144 201.89603382 2.24397882 201.86543208 -3.31874752 201.82501984 C-7.60914263 201.7991198 -11.89932822 201.79626749 -16.18979073 201.7999115 C-18.2402319 201.7982227 -20.290683 201.78860342 -22.34104729 201.77076721 C-25.21305991 201.74852988 -28.08331355 201.75830335 -30.95532227 201.77587891 C-31.79453217 201.76261566 -32.63374207 201.74935242 -33.49838257 201.73568726 C-39.57692946 201.82173451 -43.66743233 203.537346 -48.38134766 207.39111328 C-52.05186809 211.83338417 -53.86437952 216.79378259 -55.81884766 222.14111328 C-60.94598156 235.66665616 -65.90012643 247.79168893 -78.95166016 255.29736328 C-92.74595846 261.50701525 -111.49635749 256.15163145 -125.38134766 252.39111328 C-123.81334351 243.30287874 -120.26940724 234.97966263 -116.88134766 226.45361328 C-116.24202859 224.83044628 -115.60344612 223.20698897 -114.96557617 221.58325195 C-113.69249083 218.34319378 -112.41686586 215.10415393 -111.13964844 211.86572266 C-108.82740861 205.99312106 -106.57110724 200.0994279 -104.31884766 194.20361328 C-100.15673712 183.34526586 -95.90323429 172.52393067 -91.62817383 161.7097168 C-88.49754279 153.7862424 -85.39055873 145.85413486 -82.31103516 137.91064453 C-69.927773 105.98734336 -69.927773 105.98734336 -64.19116211 92.89819336 C-61.81382759 87.46469996 -59.65823251 81.98232839 -57.6171875 76.41455078 C-55.63407788 71.01327634 -53.52567455 65.66780621 -51.38134766 60.32861328 C-51.03910156 59.47517334 -50.69685547 58.6217334 -50.34423828 57.74243164 C-48.83537828 53.98650981 -47.31934639 50.23381765 -45.78369141 46.48876953 C-43.60042042 41.12665599 -41.49287351 35.79463891 -39.66650391 30.30126953 C-39.36945557 29.41568359 -39.07240723 28.53009766 -38.76635742 27.61767578 C-38.19469688 25.89685928 -37.63565547 24.17177561 -37.09204102 22.44189453 C-34.54957803 14.78749913 -30.3493766 7.76638727 -23.38134766 3.39111328 C-15.66108522 0.02544451 -8.27360256 -0.0704367 0 0 Z M2.61865234 60.39111328 C2.01730469 61.93992187 2.01730469 61.93992187 1.40380859 63.52001953 C1.13463623 64.21264893 0.86546387 64.90527832 0.58813477 65.61889648 C-0.03083876 67.21223265 -0.64913644 68.80583148 -1.2668457 70.3996582 C-2.98942205 74.83787511 -4.72789671 79.26870885 -6.49853516 83.68798828 C-12.21383499 98.00961562 -17.33084746 112.4975867 -22.26074219 127.10693359 C-23.26252524 130.04287818 -24.29470763 132.96487458 -25.34619141 135.88330078 C-29.70043332 146.89154158 -29.70043332 146.89154158 -29.38134766 158.39111328 C-24.04375581 163.72870513 -14.34195508 162.55043306 -7.24072266 162.55908203 C-5.79647919 162.56407463 -5.79647919 162.56407463 -4.32305908 162.56916809 C-2.29252599 162.57421227 -0.26198467 162.5765772 1.76855469 162.57641602 C4.84503133 162.57859654 7.92114553 162.59676285 10.99755859 162.61572266 C12.9806303 162.61865845 14.96370369 162.620642 16.94677734 162.62158203 C18.30515717 162.63236031 18.30515717 162.63236031 19.690979 162.64335632 C30.66313537 162.88290475 30.66313537 162.88290475 40.4216156 158.94006348 C41.79005027 157.45711143 41.79005027 157.45711143 41.79174805 155.43481445 C41.01367802 149.93927335 39.68438489 144.9209259 37.80615234 139.70361328 C35.9381906 134.34025709 34.19391795 129.01151435 32.74365234 123.51611328 C30.91915201 116.96893513 28.46998392 110.77527459 25.89916992 104.49511719 C23.10969617 97.67440809 20.4944128 90.79979227 17.93115234 83.89111328 C14.99109257 75.98211469 11.99445705 68.12662558 8.61865234 60.39111328 C6.63865234 60.39111328 4.65865234 60.39111328 2.61865234 60.39111328 Z " fill="#0669B6" transform="translate(1751.38134765625,617.60888671875)"/>
<path d="M0 0 C1.71231812 0.01353516 1.71231812 0.01353516 3.45922852 0.02734375 C16.81508037 0.30226944 27.01165816 3.10906241 37.0625 12.4375 C47.03210477 23.54945532 51.76066177 37.80919514 56.5625 51.6875 C57.04663914 53.07037494 57.53142756 54.45302272 58.0168457 55.83544922 C59.37238934 59.70038728 60.71834317 63.56858723 62.0625 67.4375 C66.13367283 79.12832572 70.39268757 90.72720148 74.84521484 102.27880859 C75.95853163 105.16771605 77.0686468 108.0578389 78.17819214 110.94819641 C83.33807147 124.38184967 88.55584953 137.78298581 94.05712891 151.08154297 C96.09578612 156.02354526 98.03650976 160.98012229 99.875 166 C102.57901395 173.38036747 105.59940823 180.62151129 108.625 187.875 C114.84009439 202.77696723 120.77479879 217.78292193 126.6484375 232.82226562 C127.90510835 236.03510782 129.16917198 239.24487165 130.4375 242.453125 C131.0834583 244.0937008 131.72930449 245.73432075 132.375 247.375 C132.65899658 248.09002686 132.94299316 248.80505371 133.2355957 249.54174805 C135.0625 254.20945001 135.0625 254.20945001 135.0625 256.4375 C128.2307047 256.51384871 121.39902032 256.56622499 114.56689453 256.60229492 C112.2449126 256.61733911 109.92295888 256.63777945 107.60107422 256.66381836 C104.25481177 256.70039345 100.90892656 256.71727054 97.5625 256.73046875 C96.5319751 256.74595261 95.5014502 256.76143646 94.43969727 256.77738953 C87.62100498 256.77896546 81.51872096 256.26894256 76.03125 251.7734375 C68.15845633 241.26242042 63.23773068 228.79091044 59.16796875 216.390625 C58.07955708 213.4830659 56.67409438 211.0788524 55.0625 208.4375 C55.0625 207.7775 55.0625 207.1175 55.0625 206.4375 C48.84863452 204.01017855 43.46568768 202.99629722 36.81420898 203.03344727 C35.93817017 203.02658401 35.06213135 203.01972076 34.1595459 203.01264954 C31.29239237 202.99449594 28.42579185 202.99820165 25.55859375 203.00390625 C23.55037765 202.99933988 21.5421631 202.99403296 19.53395081 202.98802185 C15.33710354 202.97911392 11.14044682 202.98148853 6.94360352 202.99145508 C1.57816183 203.00295842 -3.78662304 202.98270032 -9.15197849 202.95353794 C-13.2948165 202.93515497 -17.43749756 202.93547232 -21.58036613 202.94117546 C-23.55822612 202.94132833 -25.53609698 202.93531268 -27.51391792 202.92288399 C-30.28256135 202.90793112 -33.04999673 202.91868136 -35.81860352 202.93579102 C-36.62661911 202.92612305 -37.4346347 202.91645508 -38.26713562 202.90649414 C-43.88547219 202.97884325 -48.26483382 204.24216175 -52.9375 207.4375 C-57.64346924 212.29158659 -59.66008039 218.35644473 -61.875 224.625 C-71.10789368 249.64386348 -71.10789368 249.64386348 -82 256.3125 C-96.36050753 261.81226884 -115.32413343 257.71801115 -129.9375 254.4375 C-128.51965532 247.24380382 -126.34515797 240.56117008 -123.8125 233.6875 C-123.41144043 232.58768799 -123.01038086 231.48787598 -122.59716797 230.35473633 C-115.36406301 210.59138268 -107.66948875 191.00982232 -99.9375 171.4375 C-99.59295776 170.56518738 -99.24841553 169.69287476 -98.89343262 168.79412842 C-88.48736712 142.45031604 -78.05397256 116.11795502 -67.49023438 89.83691406 C-63.95013072 81.01988772 -60.48529997 72.17566397 -57.0625 63.3125 C-56.53843037 61.95743084 -56.01434156 60.60236909 -55.49023438 59.24731445 C-52.13955072 50.57857504 -48.81047916 41.90178988 -45.52392578 33.20849609 C-44.66802278 30.94904704 -43.80482317 28.6925886 -42.9375 26.4375 C-42.60459961 25.56665771 -42.27169922 24.69581543 -41.92871094 23.79858398 C-41.58614258 22.91887939 -41.24357422 22.0391748 -40.890625 21.1328125 C-40.58286133 20.33762207 -40.27509766 19.54243164 -39.95800781 18.72314453 C-36.77676543 11.59807487 -31.99162135 6.69138042 -24.9375 3.4375 C-16.64708933 0.71013489 -8.68700843 -0.08233522 0 0 Z M-2.9375 61.4375 C-6.7592955 71.70639734 -10.50889063 81.99460283 -14.10864258 92.34350586 C-16.59836073 99.49219483 -19.1371499 106.62273554 -21.6875 113.75 C-25.47195346 124.32853248 -29.24253195 134.91185676 -33 145.5 C-33.36260925 146.52125473 -33.36260925 146.52125473 -33.73254395 147.56314087 C-34.41707351 149.49119736 -35.1011921 151.41939912 -35.78515625 153.34765625 C-36.17711182 154.45246338 -36.56906738 155.55727051 -36.97290039 156.69555664 C-37.64421953 158.60382929 -38.29779898 160.51839695 -38.9375 162.4375 C-30.28815651 162.48387774 -21.63885595 162.51939682 -12.98941517 162.54112434 C-8.97296056 162.55155342 -4.95659113 162.56569659 -0.94018555 162.58837891 C2.93719124 162.61013859 6.81448618 162.62207522 10.69191933 162.62725449 C12.16986695 162.63094463 13.64781019 162.63815059 15.12572289 162.64896011 C17.19874057 162.66351675 19.2714217 162.66547623 21.34448242 162.66455078 C22.52362717 162.668992 23.70277191 162.67343323 24.91764832 162.67800903 C28.07402561 162.43661856 30.25188079 161.86693126 33.0625 160.4375 C36.40206631 155.73142924 35.72837858 149.90601876 35.0625 144.4375 C33.55679777 138.23873631 31.22034474 132.28199124 29 126.3125 C28.43124665 124.73759064 27.86418035 123.16207097 27.29882812 121.5859375 C23.63442673 111.42967869 19.74282228 101.36255742 15.79782104 91.31256104 C14.85511937 88.90868155 13.92095066 86.50153736 12.98828125 84.09375 C10.05145517 76.52607489 7.10667606 68.96285449 4.0625 61.4375 C1.7525 61.4375 -0.5575 61.4375 -2.9375 61.4375 Z " fill="#0669B6" transform="translate(833.9375,616.5625)"/>
<path d="M0 0 C5.65596793 -0.00575801 11.31172629 -0.0305239 16.96762466 -0.05797195 C21.45419011 -0.07646675 25.94069913 -0.08179417 30.4272995 -0.08333588 C32.52125107 -0.08633173 34.61520239 -0.09425419 36.70911407 -0.10752106 C39.56098754 -0.12449376 42.41225739 -0.1227378 45.26416016 -0.11621094 C46.09559036 -0.12542572 46.92702057 -0.1346405 47.78364563 -0.14413452 C52.68176496 -0.10885609 56.04167743 0.52123574 60.28271484 3.24023438 C64.01074959 8.34465325 63.73425529 13.60977806 63.65771484 19.67773438 C63.66931641 20.59361328 63.68091797 21.50949219 63.69287109 22.453125 C63.66837196 28.14100781 63.05393523 32.24027306 60.28271484 37.24023438 C55.17521394 41.45947425 50.72278481 42.37672212 44.24880981 42.34030151 C42.76436874 42.33586029 42.76436874 42.33586029 41.24993896 42.33132935 C40.17552551 42.32302094 39.10111206 42.31471252 37.99414062 42.30615234 C36.85373322 42.30147949 35.71332581 42.29680664 34.5383606 42.29199219 C32.06386487 42.28149682 29.5893776 42.2688365 27.1149025 42.25426865 C23.19760239 42.23225087 19.28035063 42.21816856 15.36300659 42.20657349 C4.22566183 42.17319904 -6.91160721 42.1315649 -18.04882812 42.06884766 C-24.86266778 42.03056855 -31.67642791 42.00817306 -38.49036026 41.99454117 C-41.08589094 41.98648918 -43.68141057 41.97288357 -46.27688217 41.95360947 C-49.90799869 41.92711485 -53.53872065 41.91923568 -57.16992188 41.91552734 C-58.24028687 41.90317047 -59.31065186 41.8908136 -60.41345215 41.87808228 C-66.3022508 41.8939324 -70.53267869 42.36686764 -75.71728516 45.24023438 C-81.13775171 51.02206537 -79.90338794 58.50686285 -79.90258789 65.90649414 C-79.90474709 68.1383857 -79.92283199 70.36976019 -79.94189453 72.6015625 C-80.20678078 85.11662523 -80.20678078 85.11662523 -77.71728516 97.24023438 C-74.91342097 99.79781547 -73.0464401 100.61795983 -69.27416992 100.67260742 C-67.94495262 100.70231377 -67.94495262 100.70231377 -66.58888245 100.73262024 C-65.13843788 100.74219002 -65.13843788 100.74219002 -63.65869141 100.75195312 C-62.63037704 100.76981369 -61.60206268 100.78767426 -60.54258728 100.80607605 C-57.12169857 100.86105056 -53.70094742 100.89437072 -50.27978516 100.92773438 C-47.89044811 100.96275335 -45.50112507 100.99874012 -43.11181641 101.03564453 C-30.37310007 101.21458829 -17.6380129 101.25775767 -4.89851189 101.19906807 C-2.78899799 101.18951255 -0.67948306 101.18148388 1.43003845 101.17381287 C9.63384579 101.14327786 9.63384579 101.14327786 17.83737183 101.0718689 C21.64208338 101.0298219 25.44659589 101.00497405 29.25146484 100.98242188 C30.94953026 100.95440742 30.94953026 100.95440742 32.68190002 100.92582703 C38.29370234 100.90763375 42.47973731 100.96773418 47.28271484 104.24023438 C51.75755047 109.17798403 51.49424139 114.12289673 51.53271484 120.42773438 C51.56365234 121.66620117 51.56365234 121.66620117 51.59521484 122.9296875 C51.63169878 128.71695155 50.73286553 132.97651351 48.28271484 138.24023438 C42.40262074 143.03715325 35.32326288 142.36849014 28.12744141 142.30615234 C27.10728943 142.30147949 26.08713745 142.29680664 25.03607178 142.29199219 C22.82349836 142.28150143 20.61093439 142.26884264 18.39838409 142.25426865 C14.892195 142.23222607 11.38606014 142.21815918 7.87982178 142.20657349 C-2.08849504 142.17300167 -12.05672226 142.1314351 -22.02490234 142.06884766 C-28.1255292 142.03111492 -34.22606361 142.00815018 -40.32678986 141.99454117 C-42.64714382 141.98650628 -44.96748566 141.97292495 -47.28777313 141.95360947 C-50.54010808 141.92701206 -53.79200304 141.9192264 -57.04443359 141.91552734 C-58.47088196 141.89699203 -58.47088196 141.89699203 -59.92614746 141.87808228 C-65.80382993 141.89563469 -71.44797136 142.4195886 -76.71728516 145.24023438 C-79.73664557 149.99094364 -80.06267247 154.00533315 -79.86181641 159.54492188 C-79.83056168 160.56088188 -79.83056168 160.56088188 -79.79867554 161.59736633 C-79.7263936 163.77103647 -79.62964595 165.94267013 -79.52978516 168.11523438 C-79.47055962 169.60911554 -79.4117228 171.10301217 -79.35327148 172.59692383 C-79.54996155 191.48183657 -79.54996155 191.48183657 -72.71728516 208.24023438 C-61.279427 215.451058 -41.90427845 212.41567168 -28.90716362 212.47002983 C-25.08626131 212.4866085 -21.26545077 212.50984416 -17.44459534 212.53492737 C-6.59177271 212.60529244 4.26108248 212.66611758 15.11401367 212.71704102 C21.77620045 212.74838009 28.43825918 212.79004345 35.10035515 212.8372364 C37.63329976 212.85324762 40.16627046 212.86557324 42.69925117 212.8741436 C46.22922556 212.88627543 49.75892965 212.9104098 53.28881836 212.93725586 C54.33353302 212.937845 55.37824768 212.93843414 56.45462036 212.93904114 C57.89864479 212.95361862 57.89864479 212.95361862 59.37184143 212.9684906 C60.20447289 212.97272254 61.03710436 212.97695448 61.89496708 212.98131466 C64.67483626 213.28275476 66.78679798 213.98590733 69.28271484 215.24023438 C71.97074642 222.12477093 71.51229667 230.84085533 71.65771484 238.17773438 C71.68389893 238.98202881 71.71008301 239.78632324 71.73706055 240.61499023 C71.75215543 245.97367251 70.81731927 248.97752791 67.28271484 253.24023438 C62.2041853 257.04913153 53.75068147 256.36601668 47.69287109 256.37394714 C46.97297501 256.3762127 46.25307892 256.37847826 45.5113678 256.38081247 C43.12263338 256.38709325 40.73395656 256.38632696 38.34521484 256.38549805 C36.62304614 256.38849315 34.9008781 256.39189649 33.17871094 256.39567566 C28.51763554 256.40448191 23.85657852 256.40685229 19.19549561 256.40749145 C16.2807191 256.40820361 13.36594723 256.41034104 10.45117188 256.41298866 C0.27522486 256.42222936 -9.90070908 256.42632495 -20.07666016 256.42553711 C-29.55155268 256.42493595 -39.02638835 256.43549858 -48.50126648 256.45128077 C-56.64756029 256.46436492 -64.79383553 256.46972067 -72.94013977 256.4690817 C-77.80060835 256.46882707 -82.6610263 256.47165951 -87.52148438 256.48225975 C-92.09172694 256.49195598 -96.66187061 256.49200945 -101.2321167 256.48474312 C-102.90582423 256.48369933 -104.57953797 256.48604791 -106.25323486 256.49210358 C-108.54475232 256.49985548 -110.83593091 256.49515789 -113.12744141 256.48747253 C-115.04762085 256.48828969 -115.04762085 256.48828969 -117.0065918 256.48912334 C-127.16476307 255.80777985 -127.16476307 255.80777985 -131.18722153 251.74639702 C-133.22612953 247.07421023 -133.26059858 243.18662828 -133.19830322 238.14163208 C-133.20172092 237.1278681 -133.20513862 236.11410412 -133.20865989 235.06962001 C-133.21524559 231.67454317 -133.19325043 228.28025785 -133.17138672 224.88525391 C-133.1702584 222.45090249 -133.1708918 220.01654972 -133.17315674 217.5821991 C-133.17406745 212.34220867 -133.16272627 207.10239704 -133.14020538 201.86246109 C-133.10766548 194.28646055 -133.09727635 186.7105563 -133.09225342 179.13449346 C-133.08350387 166.8422118 -133.05689757 154.55003645 -133.01904297 142.2578125 C-132.98231405 130.3186903 -132.95400661 118.379597 -132.93701172 106.44042969 C-132.93596082 105.70421812 -132.93490993 104.96800655 -132.93382719 104.20948555 C-132.92860695 100.51604393 -132.92355214 96.82260212 -132.91857958 93.12916017 C-132.87712814 62.49944213 -132.80639121 31.86985302 -132.71728516 1.24023438 C-42.20590132 0.03636937 -42.20590132 0.03636937 0 0 Z " fill="#0669B6" transform="translate(550.71728515625,256.759765625)"/>
<path d="M0 0 C1.41672752 -0.005476 1.41672752 -0.005476 2.86207581 -0.01106262 C5.98188371 -0.01915592 9.10116907 -0.00554227 12.22094727 0.0090332 C14.42114766 0.00955303 16.62134852 0.00903061 18.82154846 0.00752258 C23.44750867 0.00761232 28.07329474 0.01802575 32.69921875 0.03613281 C38.52961361 0.0584907 44.35974951 0.05923182 50.19017506 0.05288792 C91.13932744 0.01900487 91.13932744 0.01900487 110.88891602 1.25512695 C112.11327866 1.33079391 113.3376413 1.40646088 114.59910583 1.48442078 C135.83734695 3.01722333 157.82585625 8.30573217 174.34985352 22.37231445 C174.99051758 22.89051758 175.63118164 23.4087207 176.29125977 23.94262695 C187.16347711 33.62303524 193.36140379 50.08308826 195.16235352 64.24731445 C195.25955312 65.95402511 195.31638767 67.66316582 195.34985352 69.37231445 C195.37837402 70.31083252 195.37837402 70.31083252 195.4074707 71.26831055 C196.07606999 95.01454604 193.71464516 120.56038227 177.59985352 139.30981445 C162.19251961 155.11161324 143.293057 157.50061516 122.34985352 159.37231445 C121.27944824 159.47141113 120.20904297 159.57050781 119.10620117 159.67260742 C106.66698945 160.78536237 94.26672403 161.3975359 81.78344727 161.6105957 C80.77555145 161.62854187 79.76765564 161.64648804 78.72921753 161.66497803 C73.6798469 161.75147236 68.63127396 161.81809398 63.58129883 161.85522461 C61.70596902 161.88013147 59.83064326 161.9053458 57.95532227 161.9309082 C56.67884071 161.93094597 56.67884071 161.93094597 55.37657166 161.9309845 C48.73768752 162.04135461 42.74239585 162.91842488 37.91235352 167.87231445 C35.27847814 172.08651506 35.221589 175.32706364 35.20800781 180.21118164 C35.20453339 180.90263275 35.20105896 181.59408386 35.19747925 182.30648804 C35.19013106 183.80753527 35.18478068 185.30859331 35.18118858 186.80965424 C35.17401114 189.18945572 35.15833416 191.56905245 35.1398468 193.9487915 C35.08744426 200.71493689 35.03942936 207.48097059 35.02392578 214.24731445 C35.01381745 218.38774422 34.98442026 222.52765897 34.94260597 226.66788483 C34.93033029 228.24181464 34.92516843 229.8158173 34.9274044 231.3897934 C34.9297701 233.59903973 34.9074979 235.80682151 34.87988281 238.01586914 C34.87401657 239.27034851 34.86815033 240.52482788 34.86210632 241.81732178 C34.21806408 246.28692237 32.8660302 248.63724595 30.34985352 252.37231445 C21.31152224 258.98572758 6.32227817 256.32664957 -4.33764648 255.93481445 C-5.92551634 255.88145839 -7.51340706 255.82871952 -9.10131836 255.77661133 C-12.95120496 255.64895124 -16.80071376 255.51297232 -20.65014648 255.37231445 C-20.74138991 224.13552108 -20.81218155 192.89876293 -20.8544078 161.66186794 C-20.85941065 157.97436682 -20.86458794 154.28686596 -20.86987305 150.59936523 C-20.87092229 149.86524786 -20.87197153 149.13113049 -20.87305257 148.37476714 C-20.89045949 136.4868373 -20.92199874 124.59898481 -20.95875767 112.71110086 C-20.99615913 100.51372286 -21.01838065 88.31638538 -21.02650046 76.11895239 C-21.03198991 68.59198456 -21.04932989 61.06523534 -21.08181235 53.5383348 C-21.10544871 47.76742793 -21.10796833 41.99666126 -21.10257721 36.22571564 C-21.10367922 33.85776294 -21.11165657 31.4898021 -21.12696838 29.12189865 C-21.14683311 25.89194387 -21.1420978 22.66292884 -21.13116455 19.43295288 C-21.14281592 18.49325665 -21.15446728 17.55356042 -21.16647172 16.58538854 C-21.11556336 11.03149057 -20.44453518 7.72769242 -16.65014648 3.37231445 C-11.13828039 0.12893192 -6.29330699 -0.0547677 0 0 Z M37.34985352 42.37231445 C33.12039711 48.0631536 33.91812966 54.81662712 33.95141602 61.58325195 C33.94854584 62.86535553 33.94567566 64.14745911 33.94271851 65.46841431 C33.93830855 68.17672629 33.94468067 70.88474039 33.95874023 73.59301758 C33.97579753 77.0449883 33.96600527 80.49625734 33.94802284 83.94820213 C33.93449871 87.26410642 33.94400389 90.57982781 33.95141602 93.89575195 C33.94534332 95.12619232 33.93927063 96.35663269 33.93301392 97.62435913 C33.99497672 105.23337845 34.39534659 111.50089159 39.16235352 117.74731445 C46.58356873 123.26021719 57.43757091 122.53505694 66.29125977 122.6105957 C67.68017677 122.62270332 67.68017677 122.62270332 69.09715271 122.63505554 C71.04766013 122.64880342 72.99819066 122.65956655 74.94873047 122.66748047 C76.91202014 122.67896359 78.87527951 122.69935676 80.83837891 122.72900391 C97.38475718 122.97799943 114.05433907 122.63566897 127.34985352 111.37231445 C136.145216 102.78530235 139.67077811 93.05677122 139.91235352 80.93481445 C139.84214066 71.81121364 137.56781386 63.10702099 131.84985352 55.80981445 C114.74378474 39.1313974 88.05161889 39.22736869 65.58718872 39.07577515 C64.02585311 39.06522626 62.46454008 39.05034964 60.90328979 39.03091431 C48.54354655 38.3513578 48.54354655 38.3513578 37.34985352 42.37231445 Z " fill="#0669B6" transform="translate(178.650146484375,617.627685546875)"/>
<path d="M0 0 C1.23907104 0.13994385 1.23907104 0.13994385 2.50317383 0.28271484 C8.26353872 0.95947128 13.90629756 1.88935518 19.5625 3.1875 C18.88694299 7.3343807 16.7342318 10.69301397 14.625 14.25 C14.19896484 14.97243896 13.77292969 15.69487793 13.33398438 16.43920898 C8.2447103 24.92220509 2.68919014 33.10024617 -2.82861328 41.30712891 C-7.30004702 47.9603287 -11.68701068 54.64887293 -15.8894043 61.47607422 C-19.08966086 66.66682604 -22.41045091 71.7729521 -25.75 76.875 C-30.39733286 83.98991268 -34.95833454 91.15296397 -39.4375 98.375 C-39.96512939 99.22344482 -40.49275879 100.07188965 -41.03637695 100.94604492 C-49.81343585 114.11595099 -49.81343585 114.11595099 -51.08203125 129.375 C-49.25063784 136.84806842 -45.09478548 142.76942717 -40.85205078 149.06005859 C-38.77224404 152.18802475 -36.77493669 155.36644662 -34.77075195 158.54321289 C-20.91324923 180.500928 -6.53447659 202.12489839 7.9140625 223.6965332 C13.55963543 232.13243556 19.14195643 240.60462386 24.5625 249.1875 C25.14080566 250.08138428 25.71911133 250.97526855 26.31494141 251.89624023 C27.5625 254.1875 27.5625 254.1875 27.5625 257.1875 C21.08871311 257.21307182 14.61493948 257.23045904 8.14111328 257.24243164 C5.94351718 257.24742838 3.74592436 257.25422801 1.54833984 257.26293945 C-1.62924003 257.27521089 -4.80677557 257.28077505 -7.984375 257.28515625 C-8.9505072 257.29031754 -9.9166394 257.29547882 -10.91204834 257.30079651 C-15.9030918 257.30119752 -20.87776523 257.17420869 -25.86035156 256.87670898 C-26.81637268 256.82103256 -27.7723938 256.76535614 -28.75738525 256.70799255 C-34.64977586 255.56365892 -38.30675327 251.28318086 -41.59765625 246.50195312 C-43.97016931 242.83356246 -46.13932494 239.06363446 -48.26733398 235.24975586 C-50.07781262 232.05903751 -51.98369451 228.92678815 -53.87768555 225.78515625 C-55.40346541 223.24417993 -56.91031637 220.69307909 -58.41015625 218.13671875 C-63.96632163 208.66870535 -69.57182406 199.23251206 -75.3125 189.875 C-75.82304932 189.03477295 -76.33359863 188.1945459 -76.85961914 187.32885742 C-80.3265294 181.71274353 -83.93469087 176.03874945 -88.4375 171.1875 C-89.0975 171.1875 -89.7575 171.1875 -90.4375 171.1875 C-91.85268941 173.05474041 -91.85268941 173.05474041 -93.3125 175.5625 C-96.55247466 180.81139424 -99.9319394 185.94469858 -103.375 191.0625 C-110.40205844 201.57809194 -116.99199589 212.08142211 -122.57910156 223.44213867 C-129.94602024 238.38827393 -138.73081672 251.4204801 -155.25 257.0625 C-170.67394351 260.88267177 -185.91845056 258.1907705 -201.4375 256.1875 C-200.79270427 253.00094656 -199.66895625 250.58915606 -198.0234375 247.79296875 C-197.26426025 246.50084473 -197.26426025 246.50084473 -196.48974609 245.18261719 C-195.93625488 244.25610352 -195.38276367 243.32958984 -194.8125 242.375 C-193.94939209 240.9214209 -193.94939209 240.9214209 -193.06884766 239.43847656 C-188.21610408 231.33797735 -183.1011311 223.42513097 -177.90380859 215.54272461 C-172.59630978 207.48362326 -167.55287365 199.28510645 -162.55859375 191.02978516 C-159.92501464 186.70204388 -157.18363221 182.44429769 -154.4375 178.1875 C-153.69131151 177.02219608 -152.94522532 175.85682665 -152.19921875 174.69140625 C-147.78882397 167.82391434 -143.32265159 160.99890958 -138.76171875 154.23046875 C-137.93787989 153.00522649 -137.11406816 151.779966 -136.2902832 150.5546875 C-134.65596334 148.12445535 -133.0139255 145.69967149 -131.36791992 143.27734375 C-130.60698679 142.14731874 -129.84631434 141.01711815 -129.0859375 139.88671875 C-128.40708496 138.88471436 -127.72823242 137.88270996 -127.02880859 136.8503418 C-124.08536476 131.92488277 -123.59763709 126.82051991 -124.4375 121.1875 C-127.17542353 113.26499787 -132.14217125 106.57822916 -137.00805664 99.85327148 C-142.4435257 92.30153705 -147.53587021 84.53696933 -152.625 76.75 C-153.3007608 75.71681137 -153.3007608 75.71681137 -153.99017334 74.66275024 C-156.71001603 70.50330118 -159.42568441 66.34114296 -162.13964844 62.17785645 C-164.91078004 57.92811032 -167.68653585 53.68138419 -170.4621582 49.43457031 C-171.88844902 47.25206683 -173.31408252 45.06913363 -174.73901367 42.88574219 C-178.03211381 37.84413904 -181.34323391 32.81703992 -184.70874023 27.82348633 C-188.45144685 22.26928889 -192.07535903 16.65627389 -195.5625 10.9375 C-195.95373047 10.30432861 -196.34496094 9.67115723 -196.74804688 9.01879883 C-199.4375 4.54311283 -199.4375 4.54311283 -199.4375 1.1875 C-192.33914269 1.13656604 -185.24083296 1.10166847 -178.14233398 1.07763672 C-175.73020669 1.06761246 -173.31809145 1.05398955 -170.90600586 1.03662109 C-167.4281923 1.01221538 -163.95054017 1.00098082 -160.47265625 0.9921875 C-159.40354507 0.98186493 -158.3344339 0.97154236 -157.23292542 0.96090698 C-150.03682791 0.95984164 -142.87048889 1.04188194 -136.625 4.9453125 C-134.14163135 7.49076537 -132.32575446 10.04571845 -130.4375 13.0625 C-130.06141602 13.66054443 -129.68533203 14.25858887 -129.29785156 14.87475586 C-125.24865711 21.37243239 -121.3973355 27.99101812 -117.51757812 34.59057617 C-109.4605774 48.27932726 -101.17998323 61.79791669 -92.25 74.9375 C-91.42048828 76.16279419 -91.42048828 76.16279419 -90.57421875 77.4128418 C-90.06117188 78.15832275 -89.548125 78.90380371 -89.01953125 79.671875 C-88.56811768 80.32897461 -88.1167041 80.98607422 -87.65161133 81.66308594 C-86.49583557 83.33376096 -86.49583557 83.33376096 -84.4375 84.1875 C-84.251875 83.08728516 -84.251875 83.08728516 -84.0625 81.96484375 C-82.44778818 74.78946812 -78.11584508 68.57309879 -74.125 62.5 C-68.54390121 53.9956341 -63.82311543 45.10540729 -59.37109375 35.96484375 C-52.53158755 21.9318966 -52.53158755 21.9318966 -47.4375 16.1875 C-46.9528125 15.5996875 -46.468125 15.011875 -45.96875 14.40625 C-38.91505968 6.52271376 -28.82651828 1.65051942 -18.4375 0.1875 C-17.42175903 0.03486694 -17.42175903 0.03486694 -16.38549805 -0.12084961 C-10.76953562 -0.86521157 -5.61140237 -0.68048189 0 0 Z " fill="#0669B6" transform="translate(853.4375,255.8125)"/>
<path d="M0 0 C0.72759521 -0.00570007 1.45519043 -0.01140015 2.20483398 -0.01727295 C3.73761576 -0.02665515 5.27041708 -0.03322967 6.80322266 -0.03710938 C9.09185264 -0.04673558 11.3795516 -0.0777902 13.66796875 -0.109375 C44.49577768 -0.33119519 72.93359034 10.74289852 95.125 32.203125 C95.81464844 32.86699219 96.50429687 33.53085937 97.21484375 34.21484375 C109.32602273 46.80567338 117.89040466 65.94087597 120.125 83.203125 C91.1416174 90.7173353 91.1416174 90.7173353 78.421875 84.65625 C69.80632303 79.20559467 62.79109266 71.13866934 56.53125 63.17578125 C46.04165138 50.19233198 31.43550403 43.98846396 15.125 42.203125 C-0.94825636 40.74424664 -17.9032487 46.24977065 -30.3125 56.578125 C-32.86190417 58.92295356 -32.86190417 58.92295356 -33.875 61.203125 C-34.535 61.203125 -35.195 61.203125 -35.875 61.203125 C-36.13925781 61.75742187 -36.40351562 62.31171875 -36.67578125 62.8828125 C-38.00732535 65.45915515 -39.52984017 67.86604902 -41.0625 70.328125 C-57.62421393 98.65555653 -62.2495066 134.18897537 -54.35327148 165.96777344 C-49.04459278 185.63845829 -40.94586305 204.30709991 -22.875 215.203125 C-7.4565995 223.84823567 8.80534222 226.47372555 26.125 222.203125 C39.50746174 217.14100259 47.78987106 209.59232882 55.40429688 197.78125 C62.53552857 186.81519572 71.75120838 178.93565371 84.6015625 175.55078125 C86.80784279 175.25794768 88.89995702 175.18384386 91.125 175.203125 C92.02347656 175.17863281 92.92195313 175.15414062 93.84765625 175.12890625 C101.60683232 174.99600864 109.41432561 175.31216262 117.125 176.203125 C118.125 177.203125 118.125 177.203125 118.14453125 179.43359375 C116.85239949 197.889136 109.7586344 215.5912685 97.125 229.203125 C96.63789551 229.73647461 96.15079102 230.26982422 95.64892578 230.81933594 C77.20480349 250.83162717 51.03478759 266.10897642 23.25708008 267.38012695 C21.8029911 267.40640435 20.34878139 267.42651294 18.89453125 267.44140625 C18.11052444 267.4512001 17.32651764 267.46099396 16.51875305 267.47108459 C-16.05593512 267.79454291 -16.05593512 267.79454291 -29.875 263.203125 C-30.57125488 262.97818359 -31.26750977 262.75324219 -31.98486328 262.52148438 C-36.71442284 260.95753072 -41.2928667 259.15632714 -45.875 257.203125 C-47.40833984 256.56117188 -47.40833984 256.56117188 -48.97265625 255.90625 C-76.29848073 243.40183503 -95.22416031 218.81209134 -105.625 191.265625 C-118.43529647 153.09352946 -118.72432279 104.16602685 -101.875 67.203125 C-101.35035156 66.04554688 -100.82570313 64.88796875 -100.28515625 63.6953125 C-88.41815763 38.38907465 -66.27892184 17.59737144 -40.03515625 7.69140625 C-27.05892637 3.09802102 -13.78757233 0.08692416 0 0 Z " fill="#0669B6" transform="translate(1443.875,252.796875)"/>
<path d="M0 0 C0.78678131 0.00187317 1.57356262 0.00374634 2.38418579 0.00567627 C4.03302299 0.01235629 5.68184544 0.02618922 7.33056641 0.046875 C9.86505714 0.07829228 12.39892674 0.08787705 14.93359375 0.09375 C16.53907016 0.10291055 18.14454021 0.11328328 19.75 0.125 C20.89050308 0.13137482 20.89050308 0.13137482 22.05404663 0.13787842 C27.3593318 0.2108943 27.3593318 0.2108943 28.4765625 1.328125 C28.57645995 2.6700317 28.6076188 4.01713668 28.61078358 5.36275291 C28.61524142 6.23722616 28.61969926 7.1116994 28.62429219 8.01267183 C28.62410783 8.98434065 28.62392347 9.95600947 28.62373352 10.9571228 C28.62741021 11.98083217 28.6310869 13.00454154 28.634875 14.05927241 C28.64596072 17.51787275 28.6497639 20.9764431 28.65356445 24.43505859 C28.65982533 26.90321449 28.66647179 29.37136942 28.67347717 31.83952332 C28.69274092 39.26669543 28.70331028 46.69385957 28.71220496 54.12104934 C28.71658425 57.61532394 28.72195197 61.10959701 28.72719383 64.60387039 C28.74420792 76.21385318 28.75870337 87.82383501 28.76594257 99.43382835 C28.76785259 102.4483986 28.7697729 105.46296884 28.77172852 108.47753906 C28.77221226 109.22683094 28.772696 109.97612281 28.7731944 110.7481205 C28.78149945 122.89344728 28.80684353 135.03867572 28.83930919 147.18395953 C28.8723415 159.64239439 28.89038784 172.1007792 28.89358681 184.5592581 C28.89575544 191.55867522 28.90455524 198.55794891 28.93004799 205.55732346 C28.95396125 212.13838055 28.9576048 218.71922523 28.94728661 225.30033302 C28.94678857 227.72114355 28.95318711 230.14196636 28.96684265 232.56273842 C28.98439272 235.85719476 28.97753868 239.15070494 28.96430969 242.44515991 C28.97527894 243.41236729 28.98624818 244.37957467 28.99754983 245.37609136 C28.93486374 251.80249089 28.93486374 251.80249089 26.66995525 254.40015602 C23.41546764 255.77704739 20.14789813 256.17735819 16.6640625 256.515625 C15.54269897 256.63188232 15.54269897 256.63188232 14.39868164 256.75048828 C-7.27720291 258.8327278 -7.27720291 258.8327278 -14.07421875 254.66015625 C-18.50706548 250.58576074 -19.35259536 244.03535635 -19.61741316 238.28887677 C-19.66101931 235.84766176 -19.67112706 233.40831302 -19.67060852 230.96670532 C-19.67612355 229.56478205 -19.67612355 229.56478205 -19.68175 228.1345371 C-19.69275089 225.00716625 -19.69662451 221.87982867 -19.70043945 218.75244141 C-19.70670662 216.50840653 -19.71335365 214.26437268 -19.72035217 212.02033997 C-19.74135795 204.65679645 -19.75174864 197.2932528 -19.76171875 189.9296875 C-19.76576706 187.39335494 -19.76988401 184.85702249 -19.77406883 182.32069016 C-19.79092958 171.77251539 -19.80556614 161.22434276 -19.81281757 150.676157 C-19.8147273 147.9426333 -19.81664766 145.20910961 -19.81860352 142.47558594 C-19.81908726 141.79622665 -19.819571 141.11686736 -19.8200694 140.41692142 C-19.82837333 129.40692761 -19.8537208 118.3970423 -19.88618419 107.38709588 C-19.91927111 96.07317682 -19.93693491 84.75933235 -19.94046181 73.44535768 C-19.94281332 67.09697929 -19.95178786 60.74877275 -19.97692299 54.40044022 C-20.00018183 48.42992847 -20.00444557 42.45970201 -19.99416161 36.48915672 C-19.99366567 34.29942438 -20.00000296 32.10967808 -20.01371765 29.91998863 C-20.03141057 26.92748772 -20.02434286 23.93601369 -20.01118469 20.94351196 C-20.02215394 20.07988025 -20.03312318 19.21624854 -20.04442483 18.32644618 C-19.98425305 12.64700469 -18.92557167 7.9878098 -15.5234375 3.328125 C-10.41017197 0.182097 -5.81599302 -0.09597684 0 0 Z " fill="#0669B6" transform="translate(938.5234375,256.671875)"/>
</svg>
