<?xml version="1.0" encoding="UTF-8"?>
<svg version="1.1" xmlns="http://www.w3.org/2000/svg" width="225" height="225">
<path d="M0 0 C74.25 0 148.5 0 225 0 C225 74.25 225 148.5 225 225 C150.75 225 76.5 225 0 225 C0 150.75 0 76.5 0 0 Z " fill="#FEFEFE" transform="translate(0,0)"/>
<path d="M0 0 C25.2656273 -0.99558076 25.2656273 -0.99558076 32 5 C36.70582419 9.36009017 38.28231036 13.52287539 38.60449219 19.94091797 C38.66817035 26.52857533 38.35295636 32.74184171 34 38 C29.17634216 42.87403547 25.18417546 45.2351635 18.3125 45.44921875 C17.65475586 45.47095657 16.99701172 45.4926944 16.31933594 45.51509094 C14.92412739 45.55899012 13.52876437 45.59819415 12.13330078 45.63305664 C10.0349154 45.68660893 7.93763226 45.7570836 5.83984375 45.83007812 C-1.93483855 46.06242377 -9.17125647 45.71170396 -17 45 C-17 35.76 -17 26.52 -17 17 C-13.04 17 -9.08 17 -5 17 C-5 15.35 -5 13.7 -5 12 C2.31790241 10.04855936 10.44738182 11 18 11 C18.495 13.475 18.495 13.475 19 16 C17.68 16 16.36 16 15 16 C14.67 21.94 14.34 27.88 14 34 C20.38637984 32.50672881 20.38637984 32.50672881 25.125 28.375 C26.26078785 23.99410401 26.24344288 20.36033971 25 16 C23.09936318 13.54756539 21.74145145 12.37072573 19 11 C17.5534758 10.84932786 16.1012066 10.75138964 14.6484375 10.68359375 C13.79765625 10.64169922 12.946875 10.59980469 12.0703125 10.55664062 C11.18085938 10.51732422 10.29140625 10.47800781 9.375 10.4375 C8.4778125 10.39431641 7.580625 10.35113281 6.65625 10.30664062 C4.43768761 10.20043285 2.21886435 10.09970041 0 10 C0 6.7 0 3.4 0 0 Z " fill="#29287A" transform="translate(175,90)"/>
<path d="M0 0 C3.68928712 -0.1626298 7.37135149 -0.28121401 11.0625 -0.375 C12.10083984 -0.42527344 13.13917969 -0.47554688 14.20898438 -0.52734375 C19.34267966 -0.62512842 23.06508019 -0.57808244 27.20703125 2.67578125 C29.29740089 4.82225331 29.96465092 5.87382829 30.7890625 8.81640625 C30.21570926 18.41324736 30.21570926 18.41324736 27 22 C26.34 22 25.68 22 25 22 C25 22.66 25 23.32 25 24 C25.639375 24.268125 26.27875 24.53625 26.9375 24.8125 C29 26 29 26 30 29 C30.53094699 33.64796219 30.64784823 36.96344284 28.125 41 C24.82892815 44.10218527 22.9866417 44.12098232 18.5546875 44.09765625 C16.94013672 44.09282227 16.94013672 44.09282227 15.29296875 44.08789062 C14.16503906 44.07951172 13.03710938 44.07113281 11.875 44.0625 C10.73933594 44.05798828 9.60367188 44.05347656 8.43359375 44.04882812 C5.62234362 44.03701615 2.8111977 44.02054507 0 44 C0 41.03 0 38.06 0 35 C5.94 35 11.88 35 18 35 C17.67 32.69 17.34 30.38 17 28 C11.39 27.67 5.78 27.34 0 27 C0 24.36 0 21.72 0 19 C5.94 19 11.88 19 18 19 C17.67 16.69 17.34 14.38 17 12 C11.39 11.67 5.78 11.34 0 11 C0 7.37 0 3.74 0 0 Z " fill="#27267C" transform="translate(85,90)"/>
<path d="M0 0 C3.63 0 7.26 0 11 0 C14.10895541 8.39988412 16.98799078 16.85505626 19.75 25.375 C20.16121094 26.61894531 20.57242188 27.86289063 20.99609375 29.14453125 C21.38410156 30.34207031 21.77210937 31.53960937 22.171875 32.7734375 C22.6992627 34.38871338 22.6992627 34.38871338 23.23730469 36.03662109 C24 39 24 39 24 44 C10.8 44 -2.4 44 -16 44 C-15.35291825 40.11750949 -14.76646322 36.9128432 -13.58984375 33.2578125 C-13.32236328 32.41992188 -13.05488281 31.58203125 -12.77929688 30.71875 C-12.50150391 29.8628125 -12.22371094 29.006875 -11.9375 28.125 C-11.65583984 27.24585937 -11.37417969 26.36671875 -11.08398438 25.4609375 C-10.39303079 23.30609921 -9.69702247 21.15288286 -9 19 C-5.7 19 -2.4 19 1 19 C0.46610545 24.03386292 -0.10525894 29.01501407 -1 34 C2.63 34 6.26 34 10 34 C9.7326001 33.1121582 9.4652002 32.22431641 9.18969727 31.30957031 C8.19562771 28.00738403 7.20239215 24.70494928 6.2097168 21.40234375 C5.78036228 19.9745092 5.35067807 18.54677375 4.9206543 17.11914062 C4.3016983 15.06406361 3.68393883 13.00863013 3.06640625 10.953125 C2.69459229 9.71723633 2.32277832 8.48134766 1.93969727 7.20800781 C1.24025374 4.82019592 0.60346387 2.41385548 0 0 Z " fill="#29287E" transform="translate(57,90)"/>
<path d="M0 0 C3.63 0 7.26 0 11 0 C13.28479418 5.09249743 15.09195106 10.18184013 16.69921875 15.5234375 C16.9391304 16.31021881 17.17904205 17.09700012 17.42622375 17.90762329 C17.9280134 19.555853 18.42792301 21.20465615 18.92602539 22.85400391 C19.69192285 25.38964263 20.46363423 27.92345626 21.23632812 30.45703125 C21.72429409 32.06239798 22.21193612 33.66786322 22.69921875 35.2734375 C22.93041916 36.03377289 23.16161957 36.79410828 23.39982605 37.57748413 C25 42.88297561 25 42.88297561 25 44 C11.47 44 -2.06 44 -16 44 C-12.625 30.5 -12.625 30.5 -10.8125 24.75 C-10.46832031 23.65171875 -10.12414062 22.5534375 -9.76953125 21.421875 C-9.51558594 20.62265625 -9.26164062 19.8234375 -9 19 C-5.7 19 -2.4 19 1 19 C0.46610545 24.03386292 -0.10525894 29.01501407 -1 34 C2.63 34 6.26 34 10 34 C9.7326001 33.1121582 9.4652002 32.22431641 9.18969727 31.30957031 C8.19562771 28.00738403 7.20239215 24.70494928 6.2097168 21.40234375 C5.78036228 19.9745092 5.35067807 18.54677375 4.9206543 17.11914062 C4.3016983 15.06406361 3.68393883 13.00863013 3.06640625 10.953125 C2.69459229 9.71723633 2.32277832 8.48134766 1.93969727 7.20800781 C1.24025374 4.82019592 0.60346387 2.41385548 0 0 Z " fill="#28287B" transform="translate(131,90)"/>
<path d="M0 0 C3.96 0 7.92 0 12 0 C12 11.88 12 23.76 12 36 C16.62 36 21.24 36 26 36 C26 38.64 26 41.28 26 44 C17.42 44 8.84 44 0 44 C0 29.48 0 14.96 0 0 Z " fill="#222073" transform="translate(11,90)"/>
<path d="M0 0 C1.33333333 0.33333333 2.66666667 0.66666667 4 1 C4.33 0.67 4.66 0.34 5 0 C7.86267567 -0.07325168 10.700719 -0.09238205 13.5625 -0.0625 C14.36880859 -0.05798828 15.17511719 -0.05347656 16.00585938 -0.04882812 C18.00393756 -0.03700518 20.00197783 -0.01906914 22 0 C22.495 2.475 22.495 2.475 23 5 C21.68 5 20.36 5 19 5 C18.67 5.66 18.34 6.32 18 7 C18 6.34 18 5.68 18 5 C13.38 5 8.76 5 4 5 C4 14.24 4 23.48 4 33 C12.25 33 20.5 33 29 33 C29 33.33 29 33.66 29 34 C24.78684004 34.16982027 20.57344808 34.33010041 16.35961914 34.48217773 C14.9311385 34.53500117 13.50274582 34.59026993 12.07446289 34.64819336 C10.00165813 34.73180351 7.92867869 34.80611874 5.85546875 34.87890625 C3.99378052 34.94960327 3.99378052 34.94960327 2.09448242 35.02172852 C-2.94845415 34.99496676 -7.97770301 34.45657245 -13 34 C-13 24.76 -13 15.52 -13 6 C-9.04 6 -5.08 6 -1 6 C-1 4.35 -1 2.7 -1 1 C-0.67 0.67 -0.34 0.34 0 0 Z " fill="#FCFCFA" transform="translate(171,101)"/>
<path d="M0 0 C3.63 0 7.26 0 11 0 C11 8.91 11 17.82 11 27 C7.37 27 3.74 27 0 27 C0 18.09 0 9.18 0 0 Z " fill="#272681" transform="translate(158,107)"/>
<path d="M0 0 C3.3 0.33 6.6 0.66 10 1 C11.0394775 4.1184325 11.11494838 6.27475586 11.09765625 9.54296875 C11.09443359 10.61611328 11.09121094 11.68925781 11.08789062 12.79492188 C11.07951172 13.91447266 11.07113281 15.03402344 11.0625 16.1875 C11.05798828 17.31865234 11.05347656 18.44980469 11.04882812 19.61523438 C11.03703498 22.41020927 11.0205765 25.2050782 11 28 C9.02 28 7.04 28 5 28 C5 26.68 5 25.36 5 24 C6.65 24 8.3 24 10 24 C10 23.34 10 22.68 10 22 C8.35 22 6.7 22 5 22 C3.89485234 25.31544299 3.67892369 28.20410111 3.4375 31.6875 C3.35371094 32.86699219 3.26992187 34.04648438 3.18359375 35.26171875 C3.12300781 36.16535156 3.06242188 37.06898437 3 38 C2.67 38 2.34 38 2 38 C1.67 39.98 1.34 41.96 1 44 C0.67 44 0.34 44 0 44 C0 29.48 0 14.96 0 0 Z " fill="#262681" transform="translate(11,90)"/>
<path d="M0 0 C3.04263267 -0.10845027 6.08136204 -0.18752063 9.125 -0.25 C9.9809375 -0.28351563 10.836875 -0.31703125 11.71875 -0.3515625 C17.32648555 -0.43783535 20.5988794 0.16205597 25 4 C27.12294258 8.06128147 27.33802815 11.65933113 26.59765625 16.1015625 C25.54237017 19.45364768 23.80702106 20.9862675 21 23 C18.67666686 23.39708772 16.3424379 23.73819812 14 24 C13.97309156 21.37493198 13.95320596 18.75013827 13.9375 16.125 C13.92912109 15.37863281 13.92074219 14.63226563 13.91210938 13.86328125 C13.88671875 8.2265625 13.88671875 8.2265625 15 6 C16.32 6 17.64 6 19 6 C18.67 4.68 18.34 3.36 18 2 C12.06 1.67 6.12 1.34 0 1 C0 0.67 0 0.34 0 0 Z " fill="#F4F5F9" transform="translate(175,100)"/>
<path d="M0 0 C1.95364977 2.93047465 2.7511658 5.08947168 3.7265625 8.4375 C4.0359375 9.49710938 4.3453125 10.55671875 4.6640625 11.6484375 C4.98117188 12.75445312 5.29828125 13.86046875 5.625 15 C5.94984375 16.10601562 6.2746875 17.21203125 6.609375 18.3515625 C9 26.60825893 9 26.60825893 9 30 C5.37 30 1.74 30 -2 30 C-1 19.28571429 -1 19.28571429 0 15 C-2.97 15 -5.94 15 -9 15 C-9 14.67 -9 14.34 -9 14 C-6.36 14 -3.72 14 -1 14 C-0.67 9.38 -0.34 4.76 0 0 Z " fill="#EEEFF9" transform="translate(132,94)"/>
<path d="M0 0 C2.6877438 0.14209669 5.37513302 0.2885723 8.0625 0.4375 C8.81466797 0.47681641 9.56683594 0.51613281 10.34179688 0.55664062 C14.94698741 0.81580719 19.44366724 1.2799421 24 2 C23.67 3.65 23.34 5.3 23 7 C22.01 7 21.02 7 20 7 C19.01 7.495 19.01 7.495 18 8 C16.12060547 8.02172852 16.12060547 8.02172852 13.8671875 7.87890625 C13.06152344 7.83056641 12.25585938 7.78222656 11.42578125 7.73242188 C10.58402344 7.67634766 9.74226562 7.62027344 8.875 7.5625 C7.60076172 7.48418945 7.60076172 7.48418945 6.30078125 7.40429688 C4.20020876 7.27448622 2.10005809 7.1378826 0 7 C0 4.69 0 2.38 0 0 Z " fill="#272681" transform="translate(177,92)"/>
<path d="M0 0 C2.81256281 -0.02684312 5.62487241 -0.04676188 8.4375 -0.0625 C9.23994141 -0.07087891 10.04238281 -0.07925781 10.86914062 -0.08789062 C12.91295221 -0.0965143 14.95683902 -0.0522815 17 0 C18 1 18 1 18 8 C12.06 8 6.12 8 0 8 C0 5.36 0 2.72 0 0 Z " fill="#FBFCFB" transform="translate(85,101)"/>
<path d="M0 0 C0 0.99 0 1.98 0 3 C-1.32 3.33 -2.64 3.66 -4 4 C-3.01 4.33 -2.02 4.66 -1 5 C-0.34 6.65 0.32 8.3 1 10 C-5.27 9.67 -11.54 9.34 -18 9 C-18 6.36 -18 3.72 -18 1 C-12.06 0.67 -6.12 0.34 0 0 Z " fill="#222271" transform="translate(103,108)"/>
<path d="M0 0 C0.66 0 1.32 0 2 0 C0.40842727 6.89681515 -1.73270318 13.19810955 -4 20 C9.53 20 23.06 20 37 20 C37 20.33 37 20.66 37 21 C36.44289841 20.99777939 35.88579681 20.99555878 35.31181335 20.99327087 C29.52078898 20.97117125 23.72977657 20.95607379 17.9387207 20.94506836 C15.77660638 20.94003528 13.61449547 20.93320831 11.45239258 20.92456055 C8.34715941 20.91245021 5.2419712 20.90676148 2.13671875 20.90234375 C1.16788254 20.89718246 0.19904633 20.89202118 -0.79914856 20.88670349 C-2.15020943 20.88659019 -2.15020943 20.88659019 -3.52856445 20.88647461 C-4.71770195 20.88314369 -4.71770195 20.88314369 -5.93086243 20.87974548 C-8.19844698 20.92134223 -8.19844698 20.92134223 -11 22 C-12.77512885 22.015731 -14.55121069 21.96706687 -16.32421875 21.87890625 C-17.35224609 21.83056641 -18.38027344 21.78222656 -19.43945312 21.73242188 C-20.51130859 21.67634766 -21.58316406 21.62027344 -22.6875 21.5625 C-23.77095703 21.51029297 -24.85441406 21.45808594 -25.97070312 21.40429688 C-28.64742591 21.27458784 -31.32377888 21.13962067 -34 21 C-34 20.67 -34 20.34 -34 20 C-33.29915283 19.99589111 -32.59830566 19.99178223 -31.8762207 19.98754883 C-28.68746795 19.95456628 -25.50061395 19.88391668 -22.3125 19.8125 C-20.65831055 19.80379883 -20.65831055 19.80379883 -18.97070312 19.79492188 C-12.46228397 19.6584753 -12.46228397 19.6584753 -6.78125 16.75 C-4.98401872 13.97532714 -4.33358536 12.45007313 -4.1875 9.1875 C-4.13980469 8.39730469 -4.09210938 7.60710937 -4.04296875 6.79296875 C-4.02169922 5.90544922 -4.02169922 5.90544922 -4 5 C-3.01 4.67 -2.02 4.34 -1 4 C-0.26676204 1.98491642 -0.26676204 1.98491642 0 0 Z " fill="#B6B6D5" transform="translate(119,114)"/>
<path d="M0 0 C3.96 0 7.92 0 12 0 C12 3.63 12 7.26 12 11 C8.04 11 4.08 11 0 11 C0 7.37 0 3.74 0 0 Z " fill="#292672" transform="translate(158,90)"/>
<path d="M0 0 C1.98 0 3.96 0 6 0 C6 0.99 6 1.98 6 3 C6.66 3.33 7.32 3.66 8 4 C7.01 4 6.02 4 5 4 C5 4.99 5 5.98 5 7 C9.2356085 7.16752496 13.47140574 7.32809332 17.70751953 7.48217773 C19.14899823 7.5355959 20.59040741 7.59092518 22.03173828 7.64819336 C24.10173553 7.73010997 26.17188427 7.80518359 28.2421875 7.87890625 C29.4885498 7.9260376 30.73491211 7.97316895 32.01904297 8.02172852 C34.92828145 8.2194769 34.92828145 8.2194769 37 7 C37 7.99 37 8.98 37 10 C23.8 10 10.6 10 -3 10 C-1.875 3.25 -1.875 3.25 0 0 Z " fill="#24226F" transform="translate(44,124)"/>
<path d="M0 0 C3.3 0 6.6 0 10 0 C10 1.32 10 2.64 10 4 C10.66 4 11.32 4 12 4 C12 2.68 12 1.36 12 0 C12.66 0 13.32 0 14 0 C14.67413211 1.91405367 15.3390332 3.83136026 16 5.75 C16.37125 6.81734375 16.7425 7.8846875 17.125 8.984375 C18 12 18 12 18 16 C14.37 16 10.74 16 7 16 C8 5.28571429 8 5.28571429 9 1 C6.03 1 3.06 1 0 1 C0 0.67 0 0.34 0 0 Z " fill="#EDEFF8" transform="translate(49,108)"/>
<path d="M0 0 C3.63 0 7.26 0 11 0 C11 8.91 11 17.82 11 27 C7.37 27 3.74 27 0 27 C0 19.74 0 12.48 0 5 C0.33 5 0.66 5 1 5 C1 10.61 1 16.22 1 22 C1.99 21.67 2.98 21.34 4 21 C4.33 22.65 4.66 24.3 5 26 C6.32 26 7.64 26 9 26 C8.67 18.41 8.34 10.82 8 3 C5.36 2.67 2.72 2.34 0 2 C0 1.34 0 0.68 0 0 Z " fill="#28266D" transform="translate(158,107)"/>
<path d="M0 0 C0.33 0 0.66 0 1 0 C1 8.58 1 17.16 1 26 C0.01 25.67 -0.98 25.34 -2 25 C-3.07612171 22.19144059 -3.95286914 19.51165142 -4.75 16.625 C-4.98332031 15.84382813 -5.21664062 15.06265625 -5.45703125 14.2578125 C-7.13268289 8.39804868 -7.13268289 8.39804868 -6 5 C-4.35 4.67 -2.7 4.34 -1 4 C-0.67 2.68 -0.34 1.36 0 0 Z " fill="#F8F8FA" transform="translate(157,108)"/>
<path d="M0 0 C0 0.66 0 1.32 0 2 C0.66 2 1.32 2 2 2 C3.75 3.625 3.75 3.625 5 6 C4.1875 9.25 4.1875 9.25 3 12 C3.598125 11.484375 4.19625 10.96875 4.8125 10.4375 C5.534375 9.963125 6.25625 9.48875 7 9 C7.99 9.33 8.98 9.66 10 10 C9.67 10.99 9.34 11.98 9 13 C8.01 13 7.02 13 6 13 C5.06576355 16.01031744 4.95550089 16.86650268 6 20 C5.34 20 4.68 20 4 20 C3.67 19.34 3.34 18.68 3 18 C2.34 20.31 1.68 22.62 1 25 C0.67 25 0.34 25 0 25 C0.04125 23.88625 0.0825 22.7725 0.125 21.625 C0.41121859 17.95633975 0.41121859 17.95633975 -2 16 C-1.67 15.34 -1.34 14.68 -1 14 C-2.32 13.67 -3.64 13.34 -5 13 C-3.35 12.34 -1.7 11.68 0 11 C-0.33 8.36 -0.66 5.72 -1 3 C-6.61 2.67 -12.22 2.34 -18 2 C-18 1.67 -18 1.34 -18 1 C-15.37504621 0.83257698 -12.75004205 0.6660283 -10.125 0.5 C-9.00544922 0.42845703 -9.00544922 0.42845703 -7.86328125 0.35546875 C-2.2265625 0 -2.2265625 0 0 0 Z " fill="#383788" transform="translate(103,99)"/>
<path d="M0 0 C1.32 0 2.64 0 4 0 C6.41342568 6.7575919 6.41342568 6.7575919 5.2421875 10.27734375 C4.22966802 12.23511742 3.13831508 14.11378369 2 16 C2 16.33 2 16.66 2 17 C2 17.99 2 18.98 2 20 C1.01 20.33 0.02 20.66 -1 21 C-1.66 20.67 -2.32 20.34 -3 20 C-3 19.34 -3 18.68 -3 18 C-6.96 18 -10.92 18 -15 18 C-14.505 16.515 -14.505 16.515 -14 15 C-14 15.66 -14 16.32 -14 17 C-12.18706911 16.85962479 -10.3746557 16.71255111 -8.5625 16.5625 C-7.55316406 16.48128906 -6.54382813 16.40007812 -5.50390625 16.31640625 C-3.06359221 16.26788532 -3.06359221 16.26788532 -2 15 C-1.92794489 13.31391034 -1.91613932 11.62499341 -1.9375 9.9375 C-1.95103516 8.55884766 -1.95103516 8.55884766 -1.96484375 7.15234375 C-1.97644531 6.44207031 -1.98804687 5.73179688 -2 5 C-1.34 5 -0.68 5 0 5 C0 3.35 0 1.7 0 0 Z M1 9 C1 9.66 1 10.32 1 11 C1.66 11 2.32 11 3 11 C3 10.34 3 9.68 3 9 C2.34 9 1.68 9 1 9 Z " fill="#2A2887" transform="translate(70,107)"/>
<path d="M0 0 C0.66 0 1.32 0 2 0 C2 7.59 2 15.18 2 23 C1.34 23.33 0.68 23.66 0 24 C-0.33 23.34 -0.66 22.68 -1 22 C-1.66 22.33 -2.32 22.66 -3 23 C-3 16.4 -3 9.8 -3 3 C-2.01 2.67 -1.02 2.34 0 2 C0 1.34 0 0.68 0 0 Z " fill="#FBFDFF" transform="translate(173,107)"/>
<path d="M0 0 C3.68928712 -0.1626298 7.37135149 -0.28121401 11.0625 -0.375 C12.10083984 -0.42527344 13.13917969 -0.47554688 14.20898438 -0.52734375 C19.3373607 -0.62502711 23.06952678 -0.57561683 27.21484375 2.6640625 C29.36943153 4.87317614 29.96394158 5.85341467 30.71875 8.921875 C30.6465625 9.85515625 30.574375 10.7884375 30.5 11.75 C30.4484375 12.69359375 30.396875 13.6371875 30.34375 14.609375 C30 17 30 17 29 19 C28.34 19 27.68 19 27 19 C27.33 15.04 27.66 11.08 28 7 C27.34 7 26.68 7 26 7 C25.67 6.34 25.34 5.68 25 5 C24.34 5 23.68 5 23 5 C23 4.34 23 3.68 23 3 C20.65061112 1.82530556 19.04926795 1.79965111 16.4296875 1.68359375 C15.53378906 1.64169922 14.63789062 1.59980469 13.71484375 1.55664062 C12.77769531 1.51732422 11.84054688 1.47800781 10.875 1.4375 C9.93011719 1.39431641 8.98523438 1.35113281 8.01171875 1.30664062 C5.67462908 1.20040928 3.3374317 1.09836824 1 1 C1 3.64 1 6.28 1 9 C1.84304687 8.91621094 2.68609375 8.83242187 3.5546875 8.74609375 C4.65039062 8.64425781 5.74609375 8.54242188 6.875 8.4375 C8.51082031 8.28087891 8.51082031 8.28087891 10.1796875 8.12109375 C13 8 13 8 15 9 C15 8.34 15 7.68 15 7 C15.99 6.67 16.98 6.34 18 6 C18 6.66 18 7.32 18 8 C17.34 8 16.68 8 16 8 C16 8.66 16 9.32 16 10 C10.72 10 5.44 10 0 10 C0 6.7 0 3.4 0 0 Z " fill="#282668" transform="translate(85,90)"/>
<path d="M0 0 C3.3 0.33 6.6 0.66 10 1 C9.01 1.33 8.02 1.66 7 2 C7 2.66 7 3.32 7 4 C5.68 4 4.36 4 3 4 C3 15.22 3 26.44 3 38 C2.67 38 2.34 38 2 38 C1.67 39.98 1.34 41.96 1 44 C0.67 44 0.34 44 0 44 C0 29.48 0 14.96 0 0 Z " fill="#454583" transform="translate(11,90)"/>
<path d="M0 0 C0.33 0 0.66 0 1 0 C1.33 6.93 1.66 13.86 2 21 C3.32 21.66 4.64 22.32 6 23 C6 24.32 6 25.64 6 27 C14.25 27 22.5 27 31 27 C31 27.33 31 27.66 31 28 C26.78684004 28.16982027 22.57344808 28.33010041 18.35961914 28.48217773 C16.9311385 28.53500117 15.50274582 28.59026993 14.07446289 28.64819336 C5.64335491 28.98827663 -2.60396306 29.07000657 -11 28 C-11 27.67 -11 27.34 -11 27 C-7.37 27 -3.74 27 0 27 C0 18.09 0 9.18 0 0 Z " fill="#BBBCD9" transform="translate(169,107)"/>
<path d="M0 0 C0.66 1.65 1.32 3.3 2 5 C-3.61 5 -9.22 5 -15 5 C-14.34 3.35 -13.68 1.7 -13 0 C-8.4245356 -0.82358359 -4.48011086 -1.45864074 0 0 Z " fill="#272783" transform="translate(103,127)"/>
<path d="M0 0 C7.26 0 14.52 0 22 0 C22.33 0.66 22.66 1.32 23 2 C16.07 2 9.14 2 2 2 C2 4.31 2 6.62 2 9 C7.28 9 12.56 9 18 9 C18 9.33 18 9.66 18 10 C12.06 10 6.12 10 0 10 C0 6.7 0 3.4 0 0 Z " fill="#3A3777" transform="translate(175,90)"/>
<path d="M0 0 C2.11434065 3.17151097 3.01955937 5.86432861 4.125 9.5 C4.47820312 10.6446875 4.83140625 11.789375 5.1953125 12.96875 C6 16 6 16 6 19 C4.02 19 2.04 19 0 19 C0 17.68 0 16.36 0 15 C-2.97 15 -5.94 15 -9 15 C-9 14.67 -9 14.34 -9 14 C-6.36 14 -3.72 14 -1 14 C-0.67 9.38 -0.34 4.76 0 0 Z " fill="#E4E5F4" transform="translate(132,94)"/>
<path d="M0 0 C0.33 0 0.66 0 1 0 C1.6271777 7.99651568 1.6271777 7.99651568 -0.875 12 C-4.17107185 15.10218527 -6.0133583 15.12098232 -10.4453125 15.09765625 C-12.05986328 15.09282227 -12.05986328 15.09282227 -13.70703125 15.08789062 C-14.83496094 15.07951172 -15.96289062 15.07113281 -17.125 15.0625 C-18.26066406 15.05798828 -19.39632812 15.05347656 -20.56640625 15.04882812 C-23.37765638 15.03701615 -26.1888023 15.02054507 -29 15 C-29 13.35 -29 11.7 -29 10 C-28.01 10.495 -28.01 10.495 -27 11 C-27.33 11.99 -27.66 12.98 -28 14 C-20.74 14 -13.48 14 -6 14 C-6 13.01 -6 12.02 -6 11 C-6.66 10.34 -7.32 9.68 -8 9 C-3.25 6 -3.25 6 -1 6 C-0.67 4.02 -0.34 2.04 0 0 Z " fill="#211F67" transform="translate(114,119)"/>
<path d="M0 0 C2 3.75 2 3.75 2 6 C13.22 6 24.44 6 36 6 C36 4.35 36 2.7 36 1 C36.66 1.33 37.32 1.66 38 2 C38.495 4.475 38.495 4.475 39 7 C25.47 7 11.94 7 -2 7 C-1.34 4.69 -0.68 2.38 0 0 Z " fill="#221F5E" transform="translate(117,127)"/>
<path d="M0 0 C3.96 0 7.92 0 12 0 C12 3.63 12 7.26 12 11 C8.04 11 4.08 11 0 11 C0 10.67 0 10.34 0 10 C3.3 10 6.6 10 10 10 C10 7.36 10 4.72 10 2 C6.7 2 3.4 2 0 2 C0 1.34 0 0.68 0 0 Z " fill="#585685" transform="translate(158,90)"/>
<path d="M0 0 C0.99 0.33 1.98 0.66 3 1 C3 3.31 3 5.62 3 8 C-2.94 8 -8.88 8 -15 8 C-15 7.67 -15 7.34 -15 7 C-11.37 7 -7.74 7 -4 7 C-4 6.34 -4 5.68 -4 5 C-3.01 5 -2.02 5 -1 5 C-0.67 3.35 -0.34 1.7 0 0 Z " fill="#EBECFC" transform="translate(100,101)"/>
<path d="M0 0 C0.33 0 0.66 0 1 0 C1 7.59 1 15.18 1 23 C-0.98 23 -2.96 23 -5 23 C-5 21.68 -5 20.36 -5 19 C-3.35 19 -1.7 19 0 19 C0 12.73 0 6.46 0 0 Z " fill="#272572" transform="translate(21,95)"/>
<path d="M0 0 C2.81256281 -0.02684312 5.62487241 -0.04676188 8.4375 -0.0625 C9.23994141 -0.07087891 10.04238281 -0.07925781 10.86914062 -0.08789062 C12.91295221 -0.0965143 14.95683902 -0.0522815 17 0 C18 1 18 1 18.0625 4.5625 C18.041875 5.696875 18.02125 6.83125 18 8 C16.68 7.67 15.36 7.34 14 7 C14.33 6.01 14.66 5.02 15 4 C14.34 3.67 13.68 3.34 13 3 C13 2.34 13 1.68 13 1 C8.71 1 4.42 1 0 1 C0 0.67 0 0.34 0 0 Z " fill="#C8C7E2" transform="translate(85,117)"/>
<path d="M0 0 C0 0.66 0 1.32 0 2 C0.66 2 1.32 2 2 2 C3.6875 3.8125 3.6875 3.8125 5 6 C4.67 6.99 4.34 7.98 4 9 C3.01 8.67 2.02 8.34 1 8 C0.34 6.35 -0.32 4.7 -1 3 C-6.61 2.67 -12.22 2.34 -18 2 C-18 1.67 -18 1.34 -18 1 C-15.37504621 0.83257698 -12.75004205 0.6660283 -10.125 0.5 C-9.00544922 0.42845703 -9.00544922 0.42845703 -7.86328125 0.35546875 C-2.2265625 0 -2.2265625 0 0 0 Z " fill="#494783" transform="translate(103,99)"/>
<path d="M0 0 C2.26568725 2.26568725 2.55280451 3.43233985 3.25 6.5 C3.44078125 7.2940625 3.6315625 8.088125 3.828125 8.90625 C3.91320313 9.94265625 3.91320313 9.94265625 4 11 C3.34 11.66 2.68 12.32 2 13 C1.01 12.67 0.02 12.34 -1 12 C-1.02698189 10.37509046 -1.04638757 8.75005367 -1.0625 7.125 C-1.07410156 6.22007813 -1.08570313 5.31515625 -1.09765625 4.3828125 C-1 2 -1 2 0 0 Z " fill="#EDEEF0" transform="translate(57,92)"/>
<path d="M0 0 C0.66 0 1.32 0 2 0 C1.125 7.625 1.125 7.625 0 11 C3.96 11 7.92 11 12 11 C11.67 11.66 11.34 12.32 11 13 C7.04 12.67 3.08 12.34 -1 12 C-1.66 10.02 -2.32 8.04 -3 6 C-2.34 5.34 -1.68 4.68 -1 4 C-0.3574765 1.93125966 -0.3574765 1.93125966 0 0 Z " fill="#242169" transform="translate(55,114)"/>
<path d="M0 0 C0.99 0.33 1.98 0.66 3 1 C3.25 6.625 3.25 6.625 1 10 C0.34 10 -0.32 10 -1 10 C-1.02689216 8.52093108 -1.04634621 7.04172517 -1.0625 5.5625 C-1.07410156 4.73878906 -1.08570313 3.91507812 -1.09765625 3.06640625 C-1 1 -1 1 0 0 Z " fill="#FCFDF4" transform="translate(133,112)"/>
<path d="M0 0 C0.99 0 1.98 0 3 0 C3.33 1.32 3.66 2.64 4 4 C3.34 4 2.68 4 2 4 C1.67 5.65 1.34 7.3 1 9 C0.01 9.33 -0.98 9.66 -2 10 C-1.85950482 8.52031676 -1.71245174 7.04125484 -1.5625 5.5625 C-1.48128906 4.73878906 -1.40007812 3.91507812 -1.31640625 3.06640625 C-1 1 -1 1 0 0 Z " fill="#2B2885" transform="translate(128,110)"/>
<path d="M0 0 C3.63 0 7.26 0 11 0 C11.66 1.98 12.32 3.96 13 6 C11.68 5.67 10.36 5.34 9 5 C9 4.01 9 3.02 9 2 C6.03 2 3.06 2 0 2 C0 1.34 0 0.68 0 0 Z " fill="#34356D" transform="translate(57,90)"/>
<path d="M0 0 C0.33 0.66 0.66 1.32 1 2 C1.98742188 1.90460938 2.97484375 1.80921875 3.9921875 1.7109375 C5.27351563 1.60007812 6.55484375 1.48921875 7.875 1.375 C9.15117188 1.25898437 10.42734375 1.14296875 11.7421875 1.0234375 C12.81726563 1.01570313 13.89234375 1.00796875 15 1 C17 3 17 3 17 5 C16.01 5.33 15.02 5.66 14 6 C13.34 5.67 12.68 5.34 12 5 C12 4.34 12 3.68 12 3 C8.04 3 4.08 3 0 3 C0 2.01 0 1.02 0 0 Z " fill="#3B3B83" transform="translate(55,122)"/>
<path d="M0 0 C0.66 0 1.32 0 2 0 C0.52307692 7.50769231 0.52307692 7.50769231 -2.125 10 C-2.74375 10.33 -3.3625 10.66 -4 11 C-4 9.02 -4 7.04 -4 5 C-3.01 4.67 -2.02 4.34 -1 4 C-0.26676204 1.98491642 -0.26676204 1.98491642 0 0 Z " fill="#DBDDF1" transform="translate(119,114)"/>
<path d="M0 0 C0.66 0 1.32 0 2 0 C2.33 0.66 2.66 1.32 3 2 C3.66 1.34 4.32 0.68 5 0 C5 3.3 5 6.6 5 10 C4.01 9.67 3.02 9.34 2 9 C1.26953125 6.93359375 1.26953125 6.93359375 0.8125 4.4375 C0.65394531 3.61121094 0.49539062 2.78492187 0.33203125 1.93359375 C0.16767578 0.97646484 0.16767578 0.97646484 0 0 Z " fill="#ECEEF8" transform="translate(153,124)"/>
<path d="M0 0 C0 0.99 0 1.98 0 3 C-2.64 3.33 -5.28 3.66 -8 4 C-7.67 2.68 -7.34 1.36 -7 0 C-3.98968256 -0.93423645 -3.13349732 -1.04449911 0 0 Z " fill="#26258B" transform="translate(167,94)"/>
<path d="M0 0 C0.66 0.99 1.32 1.98 2 3 C1.06609915 6.99030365 -0.35974109 9.87969402 -3 13 C-3 11.35 -3 9.7 -3 8 C-2.34 8 -1.68 8 -1 8 C-1.33 7.01 -1.66 6.02 -2 5 C-1.0625 2.3125 -1.0625 2.3125 0 0 Z " fill="#333378" transform="translate(74,110)"/>
<path d="M0 0 C0 2.64 0 5.28 0 8 C-1.32 7.34 -2.64 6.68 -4 6 C-4 4.35 -4 2.7 -4 1 C-1 0 -1 0 0 0 Z " fill="#2F2F6D" transform="translate(37,126)"/>
<path d="M0 0 C1.32 0.66 2.64 1.32 4 2 C3.67 3.65 3.34 5.3 3 7 C1.68 7.33 0.36 7.66 -1 8 C-0.67 5.36 -0.34 2.72 0 0 Z " fill="#F4F6EE" transform="translate(115,111)"/>
<path d="M0 0 C-0.625 2.375 -0.625 2.375 -2 5 C-5.125 6.3125 -5.125 6.3125 -8 7 C-6.56389554 2.69168661 -4.72692072 0 0 0 Z " fill="#FAFCF0" transform="translate(132,100)"/>
<path d="M0 0 C3.63 0 7.26 0 11 0 C10.67 0.66 10.34 1.32 10 2 C2.58823529 3.29411765 2.58823529 3.29411765 0 2 C0 1.34 0 0.68 0 0 Z " fill="#313174" transform="translate(131,90)"/>
<path d="M0 0 C0.33 0 0.66 0 1 0 C1.05422947 1.4370809 1.09289723 2.87475462 1.125 4.3125 C1.14820312 5.11300781 1.17140625 5.91351563 1.1953125 6.73828125 C1 9 1 9 -1 12 C-1.66 12 -2.32 12 -3 12 C-2.67 10.02 -2.34 8.04 -2 6 C-1.67 6 -1.34 6 -1 6 C-0.67 4.02 -0.34 2.04 0 0 Z " fill="#222363" transform="translate(114,119)"/>
<path d="M0 0 C1.32 0 2.64 0 4 0 C4.33 0.99 4.66 1.98 5 3 C5.66 3.66 6.32 4.32 7 5 C5.02 5.33 3.04 5.66 1 6 C0.67 4.02 0.34 2.04 0 0 Z " fill="#23226D" transform="translate(58,91)"/>
<path d="M0 0 C0.99 0.33 1.98 0.66 3 1 C2.67 2.65 2.34 4.3 2 6 C1.01 6 0.02 6 -1 6 C-1.66 5.34 -2.32 4.68 -3 4 C-2.01 4 -1.02 4 0 4 C-0.33 3.01 -0.66 2.02 -1 1 C-0.67 0.67 -0.34 0.34 0 0 Z " fill="#EEEFF0" transform="translate(205,88)"/>
<path d="M0 0 C2.97 0 5.94 0 9 0 C8.67 0.99 8.34 1.98 8 3 C4.79604584 3 2.90600261 2.25664978 0 1 C0 0.67 0 0.34 0 0 Z " fill="#1B1963" transform="translate(49,109)"/>
<path d="M0 0 C1.37562854 1.28965176 2.70766393 2.62689293 4 4 C4 4.66 4 5.32 4 6 C1.525 5.01 1.525 5.01 -1 4 C-0.67 2.68 -0.34 1.36 0 0 Z " fill="#DDDEF0" transform="translate(197,102)"/>
<path d="M0 0 C1.32 0.33 2.64 0.66 4 1 C3.67 1.99 3.34 2.98 3 4 C0.69 4 -1.62 4 -4 4 C-4 3.34 -4 2.68 -4 2 C-2.68 2 -1.36 2 0 2 C0 1.34 0 0.68 0 0 Z " fill="#2D2A89" transform="translate(18,92)"/>
<path d="M0 0 C0.66 0.33 1.32 0.66 2 1 C2 2.65 2 4.3 2 6 C1.01 6.33 0.02 6.66 -1 7 C-1.33 7.66 -1.66 8.32 -2 9 C-1.34 6.03 -0.68 3.06 0 0 Z " fill="#222080" transform="translate(140,104)"/>
</svg>
