<?xml version="1.0" encoding="UTF-8"?>
<svg version="1.1" xmlns="http://www.w3.org/2000/svg" width="225" height="225">
<path d="M0 0 C74.25 0 148.5 0 225 0 C225 74.25 225 148.5 225 225 C150.75 225 76.5 225 0 225 C0 150.75 0 76.5 0 0 Z " fill="#01974D" transform="translate(0,0)"/>
<path d="M0 0 C74.25 0 148.5 0 225 0 C225 74.25 225 148.5 225 225 C150.75 225 76.5 225 0 225 C0 150.75 0 76.5 0 0 Z M31 1 C31 53.47 31 105.94 31 160 C85.45 160 139.9 160 196 160 C196 107.53 196 55.06 196 1 C141.55 1 87.1 1 31 1 Z " fill="#FDFEFD" transform="translate(0,0)"/>
<path d="M0 0 C1.09077347 0.00067978 1.09077347 0.00067978 2.20358276 0.00137329 C3.34772644 -0.00366463 3.34772644 -0.00366463 4.51498413 -0.00880432 C7.05394087 -0.01835322 9.5928318 -0.02026024 12.13180542 -0.02133179 C13.89764432 -0.02454468 15.66348295 -0.02790878 17.42932129 -0.03141785 C21.14346939 -0.03742106 24.85759421 -0.03925683 28.57174683 -0.03866577 C33.30693405 -0.03856477 38.04196921 -0.05214656 42.77712059 -0.06943798 C46.43195261 -0.08062478 50.08674885 -0.08258284 53.74159622 -0.08205605 C55.48531233 -0.08322883 57.22902958 -0.08761077 58.97272873 -0.09538841 C76.9313174 -0.16790852 96.39132513 1.46840319 110.92086792 13.14663696 C111.50739136 13.55011353 112.09391479 13.95359009 112.69821167 14.36929321 C116.93591443 17.51153539 119.78399738 21.53123953 122.67086792 25.89663696 C123.0479187 26.45673462 123.42496948 27.01683228 123.81344604 27.59390259 C128.95255197 35.7116674 130.44801897 44.09218517 130.29586792 53.58413696 C130.28571655 54.50573608 130.27556519 55.42733521 130.2651062 56.37686157 C130.11361353 63.01963917 129.49565845 68.96323849 126.92086792 75.14663696 C126.51868042 76.14952759 126.11649292 77.15241821 125.70211792 78.18569946 C121.49716617 87.60011921 115.41222273 93.85604756 106.13571167 98.35757446 C95.86294632 102.01736035 82.39722419 103.7624847 72.17086792 99.14663696 C66.99018653 96.02391191 63.59933773 91.50357658 60.92086792 86.14663696 C60.39307525 79.93492327 60.17683149 74.38828797 63.92086792 69.14663696 C67.14900851 65.90967632 70.20719757 63.27635352 74.96383667 63.04898071 C76.02537964 63.06638306 76.02537964 63.06638306 77.10836792 63.08413696 C78.36649292 63.10476196 79.62461792 63.12538696 80.92086792 63.14663696 C81.25086792 64.79663696 81.58086792 66.44663696 81.92086792 68.14663696 C81.16161011 68.31679321 80.40235229 68.48694946 79.62008667 68.66226196 C78.62621948 68.90460571 77.63235229 69.14694946 76.60836792 69.39663696 C75.62223511 69.62866821 74.63610229 69.86069946 73.62008667 70.09976196 C70.52412037 71.300513 69.52068831 72.27338095 67.92086792 75.14663696 C67.3062798 80.57549865 68.34225834 84.35779059 70.92086792 89.14663696 C75.63601649 94.0301837 82.1884183 94.32932088 88.60836792 94.58413696 C98.01192246 94.45381051 105.8775816 91.38263631 112.92086792 85.14663696 C121.52592164 74.92180843 124.42854099 62.78162383 123.73727417 49.66226196 C122.82871456 41.08246196 120.53944791 32.72255108 114.22946167 26.47085571 C112.92086792 25.14663696 112.92086792 25.14663696 112.92086792 23.14663696 C112.34336792 22.87335571 111.76586792 22.60007446 111.17086792 22.31851196 C108.93913137 21.15614918 106.97643987 19.84488084 104.92086792 18.39663696 C86.76110216 6.19040232 73.5401109 6.93394506 49.92086792 6.14663696 C49.92086792 45.08663696 49.92086792 84.02663696 49.92086792 124.14663696 C57.18086792 124.14663696 64.44086792 124.14663696 71.92086792 124.14663696 C72.58086792 124.47663696 73.24086792 124.80663696 73.92086792 125.14663696 C73.92086792 127.12663696 73.92086792 129.10663696 73.92086792 131.14663696 C63.7854919 131.19291147 53.65014088 131.22848123 43.51468086 131.25026131 C38.80873009 131.26071293 34.10285141 131.27489718 29.39694214 131.29751587 C24.85822716 131.31919522 20.31958168 131.33119519 15.78081894 131.33639145 C14.04640483 131.34009605 12.31199466 131.3473299 10.57761002 131.35809708 C8.15434706 131.37254691 5.73137383 131.37461766 3.30807495 131.37368774 C2.22482437 131.38447357 2.22482437 131.38447357 1.11968994 131.39547729 C-3.85102776 131.37474129 -3.85102776 131.37474129 -6.07913208 129.14663696 C-5.74913208 127.49663696 -5.41913208 125.84663696 -5.07913208 124.14663696 C-0.45913208 124.14663696 4.16086792 124.14663696 8.92086792 124.14663696 C8.92086792 85.20663696 8.92086792 46.26663696 8.92086792 6.14663696 C4.30086792 6.14663696 -0.31913208 6.14663696 -5.07913208 6.14663696 C-5.40913208 4.49663696 -5.73913208 2.84663696 -6.07913208 1.14663696 C-4.38290551 -0.5495896 -2.26390965 0.01466047 0 0 Z " fill="#F1FBF6" transform="translate(50.079132080078125,14.853363037109375)"/>
<path d="M0 0 C0.33 0 0.66 0 1 0 C1 50.82 1 101.64 1 154 C53.8 154 106.6 154 161 154 C161 153.34 161 152.68 161 152 C109.19 152 57.38 152 4 152 C4 151.67 4 151.34 4 151 C5.98 151 7.96 151 10 151 C9.835 149.88625 9.67 148.7725 9.5 147.625 C9 144 9 144 9 142 C12.68754757 142.49831724 14.60490662 143.10067643 17 146 C16.01 146.99 15.02 147.98 14 149 C16.79905486 150.39952743 19.0841357 150.11181653 22.21630859 150.09765625 C22.85839767 150.09619598 23.50048676 150.09473572 24.16203308 150.0932312 C25.57239919 150.08940808 26.98276039 150.08327385 28.39310837 150.07516479 C30.70549203 150.06217961 33.01781632 150.05581877 35.33023071 150.05102539 C41.13788751 150.03774833 46.9454971 150.01496331 52.75311279 149.98962402 C88.85094741 149.83258231 124.89291309 150.46901343 161 151 C161 103.48 161 55.96 161 7 C161.33 7 161.66 7 162 7 C162 56.17 162 105.34 162 156 C162.66 156 163.32 156 164 156 C164 104.52 164 53.04 164 0 C164.33 0 164.66 0 165 0 C165 52.47 165 104.94 165 159 C110.55 159 56.1 159 0 159 C0 106.53 0 54.06 0 0 Z " fill="#1F995D" transform="translate(31,1)"/>
<path d="M0 0 C0.99 0.33 1.98 0.66 3 1 C4.1875 3.5625 4.1875 3.5625 5 6 C5.33 4.02 5.66 2.04 6 0 C10.29 0 14.58 0 19 0 C19 0.66 19 1.32 19 2 C20.65 2 22.3 2 24 2 C24.495 11.405 24.495 11.405 25 21 C27.64 21.33 30.28 21.66 33 22 C33.495 20.515 33.495 20.515 34 19 C36.5625 17.8125 36.5625 17.8125 39 17 C38.01 16.01 38.01 16.01 37 15 C37 14.01 37 13.02 37 12 C37.639375 11.71125 38.27875 11.4225 38.9375 11.125 C41.15206079 10.17176549 41.15206079 10.17176549 42 8 C42.66 8 43.32 8 44 8 C44.33 6.35 44.66 4.7 45 3 C47.31 3 49.62 3 52 3 C53.5056651 6.62267294 55.00356546 10.24850549 56.5 13.875 C57.14388672 15.42380859 57.14388672 15.42380859 57.80078125 17.00390625 C58.20683594 17.99003906 58.61289063 18.97617188 59.03125 19.9921875 C59.40830078 20.90339355 59.78535156 21.81459961 60.17382812 22.75341797 C61 25 61 25 61 27 C59.02 27 57.04 27 55 27 C54.67 25.35 54.34 23.7 54 22 C50.37 22 46.74 22 43 22 C42.505 24.475 42.505 24.475 42 27 C34.08 27 26.16 27 18 27 C17.34 19.08 16.68 11.16 16 3 C15.34 3 14.68 3 14 3 C14.01160156 4.26457031 14.02320313 5.52914062 14.03515625 6.83203125 C14.04453566 8.49218602 14.0536357 10.15234239 14.0625 11.8125 C14.07087891 12.64587891 14.07925781 13.47925781 14.08789062 14.33789062 C14.09111328 15.14033203 14.09433594 15.94277344 14.09765625 16.76953125 C14.10289307 17.50792236 14.10812988 18.24631348 14.11352539 19.00708008 C13.94920527 21.89169321 13.39082466 23.60733183 11.34375 25.6640625 C8.26442935 27.41927527 6.02814222 27.39927621 2.5 27.375 C0.81390625 27.38660156 0.81390625 27.38660156 -0.90625 27.3984375 C-4.25641005 26.96697749 -5.58911474 26.30410945 -8 24 C-9.3125 22 -9.3125 22 -10 20 C-9.67 19.01 -9.34 18.02 -9 17 C-9.78375 17.165 -10.5675 17.33 -11.375 17.5 C-15.93966142 18.12960847 -20.40072601 18.08180527 -25 18 C-25 20.97 -25 23.94 -25 27 C-26.65 27 -28.3 27 -30 27 C-30 19.08 -30 11.16 -30 3 C-26.04 3 -22.08 3 -18 3 C-18 3.66 -18 4.32 -18 5 C-17.34 5.66 -16.68 6.32 -16 7 C-18.97 7 -21.94 7 -25 7 C-25 9.31 -25 11.62 -25 14 C-20.545 13.505 -20.545 13.505 -16 13 C-16 11.35 -16 9.7 -16 8 C-14.35 8 -12.7 8 -11 8 C-10.67 10.31 -10.34 12.62 -10 15 C-9.67 15 -9.34 15 -9 15 C-8.67 10.71 -8.34 6.42 -8 2 C-5.69 2 -3.38 2 -1 2 C-0.67 6.95 -0.34 11.9 0 17 C1.22988841 15.99027095 1.22988841 15.99027095 1.1328125 13.92578125 C1.11860085 9.17198551 0.98422575 4.67507233 0 0 Z " fill="#E9F9F1" transform="translate(111,168)"/>
<path d="M0 0 C11.56536181 1.39685539 22.83231464 4.63140112 32 12 C32.87978516 12.60521484 32.87978516 12.60521484 33.77734375 13.22265625 C38.01504651 16.36489843 40.86312946 20.38460257 43.75 24.75 C44.12705078 25.31009766 44.50410156 25.87019531 44.89257812 26.44726562 C50.03168405 34.56503044 51.52715105 42.94554821 51.375 52.4375 C51.36484863 53.35909912 51.35469727 54.28069824 51.34423828 55.23022461 C51.19274561 61.87300221 50.57479053 67.81660153 48 74 C47.5978125 75.00289063 47.195625 76.00578125 46.78125 77.0390625 C42.57629825 86.45348225 36.49135481 92.70941059 27.21484375 97.2109375 C16.9420784 100.87072339 3.47635627 102.61584774 -6.75 98 C-11.93068139 94.87727495 -15.32153019 90.35693961 -18 85 C-18.52779267 78.7882863 -18.74403643 73.241651 -15 68 C-11.77185941 64.76303936 -8.71367035 62.12971656 -3.95703125 61.90234375 C-3.24933594 61.91394531 -2.54164062 61.92554688 -1.8125 61.9375 C-0.554375 61.958125 0.70375 61.97875 2 62 C2.33 63.65 2.66 65.3 3 67 C2.24074219 67.17015625 1.48148438 67.3403125 0.69921875 67.515625 C-0.29464844 67.75796875 -1.28851563 68.0003125 -2.3125 68.25 C-3.29863281 68.48203125 -4.28476563 68.7140625 -5.30078125 68.953125 C-8.39674755 70.15387604 -9.40017961 71.12674399 -11 74 C-11.61458812 79.42886169 -10.57860958 83.21115363 -8 88 C-3.28485143 92.88354673 3.26755038 93.18268392 9.6875 93.4375 C19.09105454 93.30717355 26.95671368 90.23599935 34 84 C42.60505372 73.77517147 45.50767308 61.63498687 44.81640625 48.515625 C43.90784664 39.935825 41.61857999 31.57591412 35.30859375 25.32421875 C34 24 34 24 34 22 C33.4225 21.72671875 32.845 21.4534375 32.25 21.171875 C30.01826345 20.00951221 28.05557195 18.69824387 26 17.25 C12.69691911 8.30822569 1.2341907 5.72973986 -14.5 5.375 C-15.90887638 5.33674703 -17.3177312 5.29769125 -18.7265625 5.2578125 C-22.15091327 5.16399467 -25.57526508 5.07829784 -29 5 C-29 4.67 -29 4.34 -29 4 C-13.655 3.505 -13.655 3.505 2 3 C1.34 2.67 0.68 2.34 0 2 C0 1.34 0 0.68 0 0 Z " fill="#E3F6ED" transform="translate(129,16)"/>
<path d="M0 0 C2.31 0 4.62 0 7 0 C7 38.94 7 77.88 7 118 C4.69 118 2.38 118 0 118 C0 79.06 0 40.12 0 0 Z " fill="#179158" transform="translate(88,21)"/>
<path d="M0 0 C1.98 0 3.96 0 6 0 C6 38.94 6 77.88 6 118 C4.02 118 2.04 118 0 118 C0 79.06 0 40.12 0 0 Z " fill="#019248" transform="translate(65,21)"/>
<path d="M0 0 C3.48265406 1.20309868 5.32686793 1.9903019 7.375 5.0625 C8.59723658 10.80701191 9.17600523 16.84458305 6 22 C2.17798986 25.34425887 -1.66207417 25.58490395 -6.5546875 25.40234375 C-10.84507515 24.69641735 -12.26708772 23.43365902 -15 20 C-16.71847539 14.4947046 -16.2819044 9.28986928 -14 4 C-10.02579797 -0.69678421 -5.76591877 -0.83240377 0 0 Z " fill="#169451" transform="translate(69,170)"/>
<path d="M0 0 C0.88459344 6.80813537 1.13782911 13.44218057 1.11352539 20.30297852 C1.11367142 21.39669266 1.11381744 22.4904068 1.1139679 23.61726379 C1.11327554 27.20449867 1.105515 30.79168053 1.09765625 34.37890625 C1.09578967 36.87711051 1.0943669 39.37531514 1.09336853 41.8735199 C1.08995058 47.75936301 1.08208249 53.64518679 1.07201904 59.53102201 C1.05970198 66.89632903 1.05436481 74.26163843 1.04882812 81.62695312 C1.03812423 94.7513116 1.02126466 107.8756546 1 121 C-0.65 120.67 -2.3 120.34 -4 120 C-3.67 80.73 -3.34 41.46 -3 1 C-1 0 -1 0 0 0 Z " fill="#F9FDFC" transform="translate(63,22)"/>
<path d="M0 0 C2.536875 -0.103125 5.07375 -0.20625 7.6875 -0.3125 C8.47729248 -0.35802002 9.26708496 -0.40354004 10.08081055 -0.45043945 C14.16018894 -0.53038681 15.63830077 -0.2741989 19.01953125 2.2890625 C21 5 21 5 21 8.6875 C20 12 20 12 17 14 C18.1357441 16.55542423 19.34872527 18.43077828 21.125 20.625 C23 23 23 23 23 25 C19.875 25.5625 19.875 25.5625 16 25 C14.15457198 22.81153948 12.822007 20.58000713 11.45703125 18.06640625 C10.01282763 15.54059251 10.01282763 15.54059251 6 15 C6 18.63 6 22.26 6 26 C4.02 26 2.04 26 0 26 C0 17.42 0 8.84 0 0 Z " fill="#309E69" transform="translate(174,170)"/>
<path d="M0 0 C0.99 0.33 1.98 0.66 3 1 C3 38.62 3 76.24 3 115 C2.01 115.495 2.01 115.495 1 116 C-0.20139488 113.59721025 -0.12320302 112.11474633 -0.12025452 109.43161011 C-0.12162918 108.46964722 -0.12300385 107.50768433 -0.12442017 106.51657104 C-0.12082489 105.4577774 -0.11722961 104.39898376 -0.11352539 103.30810547 C-0.11367142 102.19590637 -0.11381744 101.08370728 -0.1139679 99.93780518 C-0.1132691 96.2475797 -0.10547824 92.5574042 -0.09765625 88.8671875 C-0.09579195 86.31413806 -0.0943681 83.76108826 -0.09336853 81.20803833 C-0.08993553 75.16613084 -0.08204747 69.12424492 -0.07201904 63.08234608 C-0.06085045 56.20456124 -0.05534557 49.32677555 -0.05032361 42.44898391 C-0.03986466 28.2993126 -0.02226986 14.14965729 0 0 Z " fill="#FCFCFC" transform="translate(96,23)"/>
<path d="M0 0 C2.3925 -0.0825 4.785 -0.165 7.25 -0.25 C7.99668945 -0.28641602 8.74337891 -0.32283203 9.51269531 -0.36035156 C12.87309974 -0.41638843 14.70087908 -0.21563422 17.44921875 1.765625 C19.52346443 4.75421071 19.64646407 6.54823421 19.44140625 10.09375 C19 12 19 12 17 14.5 C13.01367043 16.49316478 10.41916048 16.2996041 6 16 C6 18.97 6 21.94 6 25 C4.02 25 2.04 25 0 25 C0 16.75 0 8.5 0 0 Z " fill="#09904B" transform="translate(31,170)"/>
<path d="M0 0 C2.31 0 4.62 0 7 0 C8.5056651 3.62267294 10.00356546 7.24850549 11.5 10.875 C11.92925781 11.90753906 12.35851562 12.94007813 12.80078125 14.00390625 C13.40986328 15.48310547 13.40986328 15.48310547 14.03125 16.9921875 C14.40830078 17.90339355 14.78535156 18.81459961 15.17382812 19.75341797 C16 22 16 22 16 24 C14.02 24 12.04 24 10 24 C9.505 21.525 9.505 21.525 9 19 C5.37 19 1.74 19 -2 19 C-2.33 20.65 -2.66 22.3 -3 24 C-4.98 24 -6.96 24 -9 24 C-6 16 -3 8 0 0 Z " fill="#04964A" transform="translate(156,171)"/>
<path d="M0 0 C0.33 0 0.66 0 1 0 C1 38.94 1 77.88 1 118 C2.98 118 4.96 118 7 118 C6.360625 118.268125 5.72125 118.53625 5.0625 118.8125 C2.66868314 119.88667752 2.66868314 119.88667752 2 123 C21.14 123 40.28 123 60 123 C60 123.66 60 124.32 60 125 C49.86462398 125.04627451 39.72927296 125.08184427 29.59381294 125.10362434 C24.88786217 125.11407597 20.18198349 125.12826022 15.47607422 125.15087891 C10.93735924 125.17255826 6.39871376 125.18455823 1.85995102 125.18975449 C0.12553691 125.19345909 -1.60887326 125.20069294 -3.3432579 125.21146011 C-5.76652086 125.22590995 -8.18949409 125.2279807 -10.61279297 125.22705078 C-11.69604355 125.23783661 -11.69604355 125.23783661 -12.80117798 125.24884033 C-17.77189568 125.22810432 -17.77189568 125.22810432 -20 123 C-19.67 121.35 -19.34 119.7 -19 118 C-14.38 118 -9.76 118 -5 118 C-4.67 118.99 -4.34 119.98 -4 121 C-2.68 121.33 -1.36 121.66 0 122 C0 81.74 0 41.48 0 0 Z " fill="#A6D0BE" transform="translate(64,21)"/>
<path d="M0 0 C1.98 0 3.96 0 6 0 C6.05413245 2.89608593 6.09373641 5.79115195 6.125 8.6875 C6.14175781 9.50412109 6.15851563 10.32074219 6.17578125 11.16210938 C6.21123829 15.54105333 6.15547121 19.05835159 4 23 C1.23212572 25.76787428 -0.57791969 25.36435299 -4.4375 25.4375 C-5.59121094 25.47746094 -6.74492188 25.51742187 -7.93359375 25.55859375 C-11 25 -11 25 -12.8984375 23.0859375 C-14.45181334 18.73428177 -14.32070468 14.76769172 -14.1875 10.1875 C-14.17396484 9.30384766 -14.16042969 8.42019531 -14.14648438 7.50976562 C-14.11129217 5.33957977 -14.05748985 3.16970967 -14 1 C-12.35 1 -10.7 1 -9 1 C-8.93941406 2.20398438 -8.87882812 3.40796875 -8.81640625 4.6484375 C-8.73200268 6.22397077 -8.64735459 7.79949096 -8.5625 9.375 C-8.52318359 10.1690625 -8.48386719 10.963125 -8.44335938 11.78125 C-8.31106596 16.02601221 -8.31106596 16.02601221 -7 20 C-5.02 20 -3.04 20 -1 20 C-0.67 13.4 -0.34 6.8 0 0 Z " fill="#28955E" transform="translate(118,170)"/>
<path d="M0 0 C2.58686253 0.22860646 5.16718692 0.48188792 7.75 0.75 C8.47960937 0.811875 9.20921875 0.87375 9.9609375 0.9375 C13.4830032 1.32172535 15.68980739 1.75916723 18.515625 3.953125 C20 6 20 6 20 8 C19.01 8.33 18.02 8.66 17 9 C16.34 8.67 15.68 8.34 15 8 C15 9.65 15 11.3 15 13 C10.545 13.495 10.545 13.495 6 14 C6 11.69 6 9.38 6 7 C9.465 6.505 9.465 6.505 13 6 C12.67 5.34 12.34 4.68 12 4 C6.555 3.505 6.555 3.505 1 3 C1 10.92 1 18.84 1 27 C2.65 27 4.3 27 6 27 C6 27.33 6 27.66 6 28 C4.02 28 2.04 28 0 28 C0 26.68 0 25.36 0 24 C-0.66 24 -1.32 24 -2 24 C-2.33 24.99 -2.66 25.98 -3 27 C-3.99 27 -4.98 27 -6 27 C-6.33 27.66 -6.66 28.32 -7 29 C-9.5625 29.625 -9.5625 29.625 -12 30 C-12 29.67 -12 29.34 -12 29 C-14.31 28.67 -16.62 28.34 -19 28 C-19 27.67 -19 27.34 -19 27 C-18.40832031 26.95101562 -17.81664062 26.90203125 -17.20703125 26.8515625 C-10.84658869 26.34322463 -10.84658869 26.34322463 -5 24 C-3.14790132 18.6678433 -3.44302931 12.43041754 -4.6875 7 C-6.46531698 4.29094555 -7.89738838 3.84616681 -11 3 C-12.9924325 2.62406934 -14.9918674 2.28020455 -17 2 C-17 1.67 -17 1.34 -17 1 C-15.22992286 0.91885894 -13.45877902 0.86074495 -11.6875 0.8125 C-10.70136719 0.77769531 -9.71523437 0.74289063 -8.69921875 0.70703125 C-6 1 -6 1 -4.14453125 2.51171875 C-3.76683594 3.00285156 -3.38914062 3.49398437 -3 4 C-2.01 2.68 -1.02 1.36 0 0 Z " fill="#DFF4EC" transform="translate(80,168)"/>
<path d="M0 0 C0.33 0 0.66 0 1 0 C1.33 37.95 1.66 75.9 2 115 C0.68 114.67 -0.64 114.34 -2 114 C-1.89289216 99.28385114 -1.78015468 84.56775449 -1.66066074 69.85170078 C-1.60531349 63.01923417 -1.55182908 56.18676233 -1.50268555 49.35424805 C-1.45529811 42.76660723 -1.40277841 36.17902051 -1.34705925 29.59144402 C-1.32660102 27.0719327 -1.30789383 24.55240657 -1.29092598 22.03286934 C-1.26695848 18.51738219 -1.23689381 15.00199815 -1.20532227 11.48657227 C-1.19668907 9.907015 -1.19668907 9.907015 -1.18788147 8.29554749 C-1.17809265 7.34337341 -1.16830383 6.39119934 -1.15821838 5.41017151 C-1.15176583 4.57779244 -1.14531328 3.74541338 -1.1386652 2.88781071 C-1 1 -1 1 0 0 Z " fill="#009A46" transform="translate(92,24)"/>
<path d="M0 0 C3.96 0 7.92 0 12 0 C12 0.66 12 1.32 12 2 C12.66 2.66 13.32 3.32 14 4 C11.03 4 8.06 4 5 4 C5 6.31 5 8.62 5 11 C9.455 10.505 9.455 10.505 14 10 C14 8.35 14 6.7 14 5 C15.65 5 17.3 5 19 5 C18.39174107 11.44754464 18.39174107 11.44754464 16.78125 13.71875 C14.3644799 15.45712849 12.75629566 15.30219334 9.8125 15.1875 C8.91144531 15.16042969 8.01039062 15.13335937 7.08203125 15.10546875 C6.39496094 15.07066406 5.70789063 15.03585938 5 15 C5 17.97 5 20.94 5 24 C3.35 24 1.7 24 0 24 C0 16.08 0 8.16 0 0 Z " fill="#0B8E4C" transform="translate(81,171)"/>
<path d="M0 0 C2.09599765 1.80689452 2.86097012 3.17429813 3.3203125 5.90234375 C3.52049844 9.485672 3.36223724 11.44271194 1.375 14.5 C-1.68406701 16.43204232 -3.4427796 16.52979878 -7 16 C-9.2827144 14.32959017 -9.92604929 13.44080424 -10.3984375 10.625 C-10.39070313 9.75875 -10.38296875 8.8925 -10.375 8 C-10.38273437 7.13375 -10.39046875 6.2675 -10.3984375 5.375 C-9.92745081 2.5675499 -9.21268047 1.72697012 -7 0 C-4.24438552 -1.37780724 -2.90228766 -0.92023755 0 0 Z " fill="#F1F8F6" transform="translate(69,175)"/>
<path d="M0 0 C0.66 0 1.32 0 2 0 C3.22080679 5.37154989 3.22080679 5.37154989 2.1875 8.3125 C1 10 1 10 -1 11 C0.1357441 13.55542423 1.34872527 15.43077828 3.125 17.625 C5 20 5 20 5 22 C1.875 22.5625 1.875 22.5625 -2 22 C-3.51953125 19.99609375 -3.51953125 19.99609375 -4.9375 17.5 C-6.79534724 14.02463653 -6.79534724 14.02463653 -10.15234375 12.40234375 C-12.62021304 12.39035959 -12.62021304 12.39035959 -16 13 C-16 10.69 -16 8.38 -16 6 C-15.01 6.33 -14.02 6.66 -13 7 C-11.43881572 7.06740865 -9.8749748 7.08514456 -8.3125 7.0625 C-7.50425781 7.05347656 -6.69601563 7.04445312 -5.86328125 7.03515625 C-5.24839844 7.02355469 -4.63351563 7.01195312 -4 7 C-3.525625 6.030625 -3.05125 5.06125 -2.5625 4.0625 C-1 1 -1 1 0 0 Z " fill="#0A984C" transform="translate(192,173)"/>
<path d="M0 0 C1.65 0 3.3 0 5 0 C5 6.6 5 13.2 5 20 C8.96 20 12.92 20 17 20 C17 21.32 17 22.64 17 24 C11.39 24 5.78 24 0 24 C0 16.08 0 8.16 0 0 Z " fill="#05914A" transform="translate(129,171)"/>
<path d="M0 0 C0.74446381 0.00359528 1.48892761 0.00719055 2.25595093 0.01089478 C3.0363826 0.01074875 3.81681427 0.01060272 4.62089539 0.01045227 C7.21273534 0.01115158 9.80450432 0.01894481 12.39633179 0.02676392 C14.18852194 0.02862803 15.9807126 0.03005196 17.77290344 0.03105164 C22.49938351 0.03487733 27.22583305 0.04470805 31.95230103 0.05575562 C36.77153104 0.06596863 41.59076596 0.07054902 46.41000366 0.07559204 C55.87290773 0.08633027 65.3357891 0.10340731 74.79867554 0.12442017 C74.79867554 0.45442017 74.79867554 0.78442017 74.79867554 1.12442017 C52.68867554 1.45442017 30.57867554 1.78442017 7.79867554 2.12442017 C8.12867554 3.44442017 8.45867554 4.76442017 8.79867554 6.12442017 C4.17867554 6.12442017 -0.44132446 6.12442017 -5.20132446 6.12442017 C-5.53132446 4.47442017 -5.86132446 2.82442017 -6.20132446 1.12442017 C-4.48145241 -0.59545189 -2.29255418 0.00467229 0 0 Z " fill="#B5DFCB" transform="translate(50.201324462890625,14.875579833984375)"/>
<path d="M0 0 C0.99 0 1.98 0 3 0 C4.22485812 2.44971624 4.16722808 4.14234461 4.1875 6.875 C4.20167969 7.73867187 4.21585938 8.60234375 4.23046875 9.4921875 C3.88690636 13.23061212 2.8119571 15.28953754 0 17.75 C-4.34267922 19.55944968 -8.36151518 19.72238698 -13 19 C-16.125 17 -16.125 17 -18 15 C-17.67 14.01 -17.34 13.02 -17 12 C-12.125 12.875 -12.125 12.875 -11 14 C-6.91363828 14.44706628 -6.91363828 14.44706628 -3.34375 12.76953125 C-1.67752702 10.57534808 -1.54584855 9.16658072 -1.375 6.4375 C-1.08 2.16 -1.08 2.16 0 0 Z " fill="#0B8E4C" transform="translate(73,176)"/>
<path d="M0 0 C4.95 0 9.9 0 15 0 C15 0.33 15 0.66 15 1 C10.38 1 5.76 1 1 1 C1 1.66 1 2.32 1 3 C1.66 3.33 2.32 3.66 3 4 C2.67 4.66 2.34 5.32 2 6 C2.66 6 3.32 6 4 6 C4.28875 6.928125 4.5775 7.85625 4.875 8.8125 C5.8875 12.09791667 5.8875 12.09791667 8 15 C7.34 15 6.68 15 6 15 C6 18.3 6 21.6 6 25 C4.02 25 2.04 25 0 25 C0 16.75 0 8.5 0 0 Z " fill="#3FA071" transform="translate(31,170)"/>
<path d="M0 0 C1.12591553 0.00523682 2.25183105 0.01047363 3.41186523 0.01586914 C4.62680664 0.0190918 5.84174805 0.02231445 7.09350586 0.02563477 C8.37290039 0.03401367 9.65229492 0.04239258 10.97045898 0.05102539 C12.2537207 0.05553711 13.53698242 0.06004883 14.85913086 0.06469727 C18.04211921 0.07652994 21.22501661 0.09301471 24.40795898 0.11352539 C24.40795898 0.44352539 24.40795898 0.77352539 24.40795898 1.11352539 C42.88795898 1.44352539 61.36795898 1.77352539 80.40795898 2.11352539 C80.40795898 2.44352539 80.40795898 2.77352539 80.40795898 3.11352539 C78.85487534 3.12232475 78.85487534 3.12232475 77.27041626 3.13130188 C67.52879754 3.18843168 57.78740414 3.26114169 48.04601479 3.3492403 C43.03744733 3.39403209 38.02896288 3.43326852 33.02026367 3.45996094 C28.18961112 3.48590638 23.35927651 3.52624583 18.52882004 3.57671165 C16.68281371 3.5934399 14.83675233 3.60491693 12.99068069 3.6111393 C10.41149546 3.62071601 7.83313465 3.64869636 5.25415039 3.68115234 C4.48522964 3.67971725 3.7163089 3.67828217 2.92408752 3.67680359 C0.58215252 3.68362186 0.58215252 3.68362186 -2.59204102 4.11352539 C-3.25204102 5.10352539 -3.91204102 6.09352539 -4.59204102 7.11352539 C-3.55577431 0.15573468 -3.55577431 0.15573468 0 0 Z " fill="#078748" transform="translate(47.592041015625,11.886474609375)"/>
<path d="M0 0 C2.31 0 4.62 0 7 0 C7.33 6.27 7.66 12.54 8 19 C10.64 19.33 13.28 19.66 16 20 C16.33 19.01 16.66 18.02 17 17 C19.5625 15.8125 19.5625 15.8125 22 15 C21.34 14.34 20.68 13.68 20 13 C20 12.01 20 11.02 20 10 C20.61875 9.71125 21.2375 9.4225 21.875 9.125 C24.13325765 8.06279958 24.13325765 8.06279958 26 6 C25.3098442 10.12542568 24.05112152 13.8451293 22.5625 17.75 C22.13066406 18.89984375 21.69882813 20.0496875 21.25390625 21.234375 C20 24 20 24 18 25 C18 23.68 18 22.36 18 21 C14.04 21 10.08 21 6 21 C6 14.4 6 7.8 6 1 C4.35 1 2.7 1 1 1 C1 5.95 1 10.9 1 16 C0.67 16 0.34 16 0 16 C0 10.72 0 5.44 0 0 Z " fill="#C7EEDB" transform="translate(128,170)"/>
<path d="M0 0 C0.33 0 0.66 0 1 0 C1.19619224 4.29131609 1.38048583 8.58306102 1.5625 12.875 C1.61857422 14.09832031 1.67464844 15.32164062 1.73242188 16.58203125 C1.78076172 17.74863281 1.82910156 18.91523438 1.87890625 20.1171875 C1.9260376 21.19597168 1.97316895 22.27475586 2.02172852 23.38623047 C2 26 2 26 1 28 C-1.97 27.67 -4.94 27.34 -8 27 C-7.505 25.515 -7.505 25.515 -7 24 C-5.02 24 -3.04 24 -1 24 C-1.37253906 23.25234375 -1.74507812 22.5046875 -2.12890625 21.734375 C-2.83853516 20.25710937 -2.83853516 20.25710937 -3.5625 18.75 C-4.03816406 17.77546875 -4.51382813 16.8009375 -5.00390625 15.796875 C-6.05467407 12.84648379 -6.09914651 11.84778869 -5 9 C-4.7215625 7.88625 -4.7215625 7.88625 -4.4375 6.75 C-4.2209375 5.88375 -4.2209375 5.88375 -4 5 C-3.34 5 -2.68 5 -2 5 C-2 7.64 -2 10.28 -2 13 C-1.34 13 -0.68 13 0 13 C0 8.71 0 4.42 0 0 Z " fill="#EDF9F3" transform="translate(173,171)"/>
<path d="M0 0 C2.4178712 -0.10826289 4.83087556 -0.18739789 7.25 -0.25 C8.27287109 -0.30027344 8.27287109 -0.30027344 9.31640625 -0.3515625 C12.83282253 -0.41984243 14.64850319 -0.26749128 17.484375 1.890625 C19 4 19 4 19 6 C18.01 6.33 17.02 6.66 16 7 C15.34 6.67 14.68 6.34 14 6 C14 7.65 14 9.3 14 11 C9.545 11.495 9.545 11.495 5 12 C5 9.69 5 7.38 5 5 C8.465 4.505 8.465 4.505 12 4 C11.67 3.34 11.34 2.68 11 2 C8.41394668 1.5316735 8.41394668 1.5316735 5.4375 1.375 C3.91962891 1.26285156 3.91962891 1.26285156 2.37109375 1.1484375 C1.19740234 1.07496094 1.19740234 1.07496094 0 1 C0 0.67 0 0.34 0 0 Z " fill="#3EA773" transform="translate(81,170)"/>
<path d="M0 0 C0.33 8.25 0.66 16.5 1 25 C0.34 25 -0.32 25 -1 25 C-1.99 25.66 -2.98 26.32 -4 27 C-5.32 26.34 -6.64 25.68 -8 25 C-7.01 23.515 -7.01 23.515 -6 22 C-5.34 22 -4.68 22 -4 22 C-3.67 15.07 -3.34 8.14 -3 1 C-1 0 -1 0 0 0 Z " fill="#F5FCF9" transform="translate(128,170)"/>
<path d="M0 0 C0.12375 1.9490625 0.12375 1.9490625 0.25 3.9375 C0.72559455 8.49888407 2.15497699 12.00854193 4.2578125 16.0546875 C5 18 5 18 4 21 C2.25 20.9375 2.25 20.9375 0 20 C-4.00698537 14.87996314 -4.44244041 10.76929718 -4.43359375 4.35546875 C-4.29050781 3.57816406 -4.14742188 2.80085938 -4 2 C-1 0 -1 0 0 0 Z " fill="#F1F9F6" transform="translate(115,88)"/>
<path d="M0 0 C2.31 0 4.62 0 7 0 C8.80230168 3.82989106 9.19622241 6.78121808 9 11 C6.13275314 10.42655063 5.1385485 10.1385485 3 8 C2.34 9.98 1.68 11.96 1 14 C0.34 14 -0.32 14 -1 14 C-0.34 11.69 0.32 9.38 1 7 C0.34 7 -0.32 7 -1 7 C-1.33 8.32 -1.66 9.64 -2 11 C-2.66 10.67 -3.32 10.34 -4 10 C-2.68 6.7 -1.36 3.4 0 0 Z " fill="#178F53" transform="translate(156,171)"/>
<path d="M0 0 C1.65 0 3.3 0 5 0 C5 6.27 5 12.54 5 19 C3.35 18.67 1.7 18.34 0 18 C0 12.06 0 6.12 0 0 Z " fill="#058F48" transform="translate(104,171)"/>
<path d="M0 0 C3.63 0 7.26 0 11 0 C11.33 1.65 11.66 3.3 12 5 C11.34 5 10.68 5 10 5 C9.67 5.66 9.34 6.32 9 7 C8.67 6.34 8.34 5.68 8 5 C7.34 5.66 6.68 6.32 6 7 C4.35008418 7.70710678 2.68437744 8.37943989 1 9 C1 8.34 1 7.68 1 7 C-1.64 6.67 -4.28 6.34 -7 6 C-7 5.67 -7 5.34 -7 5 C-5.02 5 -3.04 5 -1 5 C-0.67 3.35 -0.34 1.7 0 0 Z " fill="#F9F9FB" transform="translate(154,190)"/>
<path d="M0 0 C0.33 0 0.66 0 1 0 C1 6.6 1 13.2 1 20 C0.34 20 -0.32 20 -1 20 C-1.144375 20.61875 -1.28875 21.2375 -1.4375 21.875 C-2 24 -2 24 -3 26 C-3.66 25.67 -4.32 25.34 -5 25 C-4.5518821 21.76933036 -4.08969975 18.5408228 -3.625 15.3125 C-3.49867188 14.40048828 -3.37234375 13.48847656 -3.2421875 12.54882812 C-2.59705889 8.1135689 -1.9744334 4.07763419 0 0 Z " fill="#F8FBFB" transform="translate(178,62)"/>
<path d="M0 0 C0.66 0.33 1.32 0.66 2 1 C-2.58345553 7.8751833 -9.86771909 11.80758147 -17.875 13.66796875 C-18.57625 13.77753906 -19.2775 13.88710937 -20 14 C-20 13.34 -20 12.68 -20 12 C-17.35261084 10.5393715 -16.10551666 10 -13 10 C-12.34 8.35 -11.68 6.7 -11 5 C-10.34 5.66 -9.68 6.32 -9 7 C-8.814375 6.401875 -8.62875 5.80375 -8.4375 5.1875 C-6.29235552 1.92314971 -3.61524626 1.22660141 0 0 Z " fill="#199456" transform="translate(164,96)"/>
<path d="M0 0 C0.33 0 0.66 0 1 0 C1 2.31 1 4.62 1 7 C2.44197868 5.55802132 3.11786244 3.82308429 4 2 C4.66 2 5.32 2 6 2 C5.34 4.64 4.68 7.28 4 10 C2.35 10.33 0.7 10.66 -1 11 C-1.061875 11.94875 -1.12375 12.8975 -1.1875 13.875 C-2 17 -2 17 -4.4375 18.4375 C-7 19 -7 19 -9 18 C-8.2575 17.071875 -7.515 16.14375 -6.75 15.1875 C-3.40313163 10.55337456 -1.74697363 5.39707496 0 0 Z " fill="#DCF3E9" transform="translate(173,80)"/>
<path d="M0 0 C0.42410156 0.40992187 0.84820312 0.81984375 1.28515625 1.2421875 C5.40909902 5.03077668 8.50753777 6.87908934 14 8 C14 8.33 14 8.66 14 9 C12.02 9.33 10.04 9.66 8 10 C8.66 11.32 9.32 12.64 10 14 C5.48521602 13.46884894 2.65333143 11.63379708 -1 9 C-0.649375 8.443125 -0.29875 7.88625 0.0625 7.3125 C1.21845993 4.46113217 0.80967438 2.91482778 0 0 Z " fill="#E0F4EA" transform="translate(118,101)"/>
<path d="M0 0 C0.66 0.33 1.32 0.66 2 1 C1.57576756 2.46224799 1.13509755 3.91973412 0.6875 5.375 C0.44386719 6.18710938 0.20023438 6.99921875 -0.05078125 7.8359375 C-1 10 -1 10 -4 12 C-4.66 12 -5.32 12 -6 12 C-6.226875 12.639375 -6.45375 13.27875 -6.6875 13.9375 C-8 16 -8 16 -10.625 16.75 C-11.40875 16.8325 -12.1925 16.915 -13 17 C-12.690625 16.401875 -12.38125 15.80375 -12.0625 15.1875 C-10.89790296 12.91043228 -10.89790296 12.91043228 -10 10 C-9.21625 9.7525 -8.4325 9.505 -7.625 9.25 C-3.83460015 7.44504769 -3.45188141 4.80254655 -2 1 C-1.34 0.67 -0.68 0.34 0 0 Z " fill="#EDF8F3" transform="translate(174,89)"/>
<path d="M0 0 C0.33 0 0.66 0 1 0 C1 2.31 1 4.62 1 7 C0.360625 7.103125 -0.27875 7.20625 -0.9375 7.3125 C-1.618125 7.539375 -2.29875 7.76625 -3 8 C-3.33 8.99 -3.66 9.98 -4 11 C-4.99 11 -5.98 11 -7 11 C-7 11.33 -7 11.66 -7 12 C-11.455 12.495 -11.455 12.495 -16 13 C-16 10.69 -16 8.38 -16 6 C-15.01 6.33 -14.02 6.66 -13 7 C-11.43881572 7.06740865 -9.8749748 7.08514456 -8.3125 7.0625 C-7.50425781 7.05347656 -6.69601563 7.04445312 -5.86328125 7.03515625 C-5.24839844 7.02355469 -4.63351563 7.01195312 -4 7 C-3.525625 6.030625 -3.05125 5.06125 -2.5625 4.0625 C-1 1 -1 1 0 0 Z " fill="#069147" transform="translate(192,173)"/>
<path d="M0 0 C0.66 1.32 1.32 2.64 2 4 C2.99 4 3.98 4 5 4 C5.33 3.01 5.66 2.02 6 1 C8 3 8 3 8 7 C6.68 7.33 5.36 7.66 4 8 C4 8.66 4 9.32 4 10 C2.02 10 0.04 10 -2 10 C-1.125 2.25 -1.125 2.25 0 0 Z " fill="#1C9356" transform="translate(159,177)"/>
<path d="M0 0 C0.99 0.33 1.98 0.66 3 1 C3 1.66 3 2.32 3 3 C4.66342837 4.66342837 6.7825709 4.36048097 9.0625 4.5625 C9.98160156 4.64628906 10.90070313 4.73007813 11.84765625 4.81640625 C12.91306641 4.90728516 12.91306641 4.90728516 14 5 C14 5.33 14 5.66 14 6 C10.37 6 6.74 6 3 6 C2.67 7.65 2.34 9.3 2 11 C0.02 11 -1.96 11 -4 11 C-2.68 7.37 -1.36 3.74 0 0 Z " fill="#21985B" transform="translate(151,184)"/>
<path d="M0 0 C0 3 0 3 -1 5 C0.32 5 1.64 5 3 5 C3.66 3.35 4.32 1.7 5 0 C5.99 0.33 6.98 0.66 8 1 C7.0919838 2.13199353 6.17316174 3.25532363 5.25 4.375 C4.73953125 5.00148438 4.2290625 5.62796875 3.703125 6.2734375 C1.91800519 8.08312318 0.32050356 9.00117455 -2 10 C-2.33 9.34 -2.66 8.68 -3 8 C-5.64 8 -8.28 8 -11 8 C-7.38813161 5.25498003 -3.69604737 2.62987986 0 0 Z " fill="#E3F5ED" transform="translate(163,100)"/>
<path d="M0 0 C0.66 0.33 1.32 0.66 2 1 C2 7.93 2 14.86 2 22 C1.67 22 1.34 22 1 22 C0.67 16.72 0.34 11.44 0 6 C-0.99 10.95 -1.98 15.9 -3 21 C-3.33 21 -3.66 21 -4 21 C-4 15.39 -4 9.78 -4 4 C-2.68 4 -1.36 4 0 4 C0 2.68 0 1.36 0 0 Z " fill="#E1F9EE" transform="translate(178,57)"/>
<path d="M0 0 C0.99 0 1.98 0 3 0 C3 5.94 3 11.88 3 18 C1.02 18.99 1.02 18.99 -1 20 C-0.75443359 19.00419922 -0.75443359 19.00419922 -0.50390625 17.98828125 C0.10603857 14.37116663 0.10795513 10.84139292 0.0625 7.1875 C0.05798828 6.49462891 0.05347656 5.80175781 0.04882812 5.08789062 C0.03713156 3.39188932 0.01919924 1.69593297 0 0 Z " fill="#029849" transform="translate(119,172)"/>
<path d="M0 0 C8.8404908 -0.60736196 8.8404908 -0.60736196 12.625 1.375 C14.76252473 5.45572903 14.31009455 9.48640154 14 14 C13.01 14 12.02 14 11 14 C10.67 10.37 10.34 6.74 10 3 C6.7 2.34 3.4 1.68 0 1 C0 0.67 0 0.34 0 0 Z " fill="#ECF9F6" transform="translate(89,169)"/>
<path d="M0 0 C2.64 0 5.28 0 8 0 C8.38218767 1.65614657 8.71395102 3.32457024 9 5 C8 6 8 6 6.15234375 6.09765625 C4.1015625 6.06510417 2.05078125 6.03255208 0 6 C0 4.02 0 2.04 0 0 Z " fill="#EFFBF9" transform="translate(180,175)"/>
<path d="M0 0 C0.66 0.66 1.32 1.32 2 2 C1.67 2.66 1.34 3.32 1 4 C1.99 4.33 2.98 4.66 4 5 C5.35439668 7.70879335 5.06501451 10.00933268 5 13 C3.68 13 2.36 13 1 13 C0.49440092 11.56445975 -0.0042749 10.1264798 -0.5 8.6875 C-0.7784375 7.88699219 -1.056875 7.08648437 -1.34375 6.26171875 C-2 4 -2 4 -2 1 C-1.34 0.67 -0.68 0.34 0 0 Z " fill="#EEF7F4" transform="translate(173,48)"/>
<path d="M0 0 C0.99 0.495 0.99 0.495 2 1 C1.67 1.66 1.34 2.32 1 3 C1.66 3 2.32 3 3 3 C3.433125 4.3921875 3.433125 4.3921875 3.875 5.8125 C4.8875 9.09791667 4.8875 9.09791667 7 12 C6.360625 12.12375 5.72125 12.2475 5.0625 12.375 C4.381875 12.58125 3.70125 12.7875 3 13 C2.67 13.66 2.34 14.32 2 15 C1.34 14.67 0.68 14.34 0 14 C0 9.38 0 4.76 0 0 Z " fill="#029648" transform="translate(32,173)"/>
<path d="M0 0 C1.65 0 3.3 0 5 0 C5 6.27 5 12.54 5 19 C4.67 19 4.34 19 4 19 C4 14.05 4 9.1 4 4 C3.01 4.495 3.01 4.495 2 5 C2.02320313 5.61488281 2.04640625 6.22976562 2.0703125 6.86328125 C2.08835938 7.67152344 2.10640625 8.47976562 2.125 9.3125 C2.14820313 10.11300781 2.17140625 10.91351563 2.1953125 11.73828125 C2 14 2 14 0 17 C0 11.39 0 5.78 0 0 Z " fill="#048145" transform="translate(129,171)"/>
<path d="M0 0 C2.31 0 4.62 0 7 0 C8.125 3.75 8.125 3.75 7 6 C4.67843403 6.40729228 2.3431213 6.74438677 0 7 C0 4.69 0 2.38 0 0 Z " fill="#DCF4EB" transform="translate(86,175)"/>
<path d="M0 0 C4.62 0 9.24 0 14 0 C14.33 0.99 14.66 1.98 15 3 C17.01508358 3.73323796 17.01508358 3.73323796 19 4 C19 2.68 19 1.36 19 0 C21.31 0 23.62 0 26 0 C25.360625 0.268125 24.72125 0.53625 24.0625 0.8125 C21.66868314 1.88667752 21.66868314 1.88667752 21 5 C18.69 5.33 16.38 5.66 14 6 C13.62230469 5.35546875 13.24460937 4.7109375 12.85546875 4.046875 C11.13940092 1.75970238 11.13940092 1.75970238 8.30078125 1.390625 C6.82158203 1.32101563 6.82158203 1.32101563 5.3125 1.25 C4.31863281 1.19328125 3.32476562 1.1365625 2.30078125 1.078125 C1.16189453 1.03945312 1.16189453 1.03945312 0 1 C0 0.67 0 0.34 0 0 Z " fill="#DBF4E8" transform="translate(45,139)"/>
<path d="M0 0 C1.98 0 3.96 0 6 0 C6 0.33 6 0.66 6 1 C4.35 1 2.7 1 1 1 C1.33 7.93 1.66 14.86 2 22 C1.01 22 0.02 22 -1 22 C-2.125 17.25 -2.125 17.25 -1 15 C-2.65 15 -4.3 15 -6 15 C-5.01 13.68 -4.02 12.36 -3 11 C-2.34 11.66 -1.68 12.32 -1 13 C-0.67 8.71 -0.34 4.42 0 0 Z " fill="#BDE0CD" transform="translate(103,170)"/>
<path d="M0 0 C0.598125 0.825 1.19625 1.65 1.8125 2.5 C2.8953125 3.7375 2.8953125 3.7375 4 5 C4.99 5 5.98 5 7 5 C7.66 5 8.32 5 9 5 C12 8.46153846 12 8.46153846 12 11 C8.875 11.625 8.875 11.625 5 11 C2.50484239 7.91488105 0.73463624 4.55822819 -1 1 C-0.67 0.67 -0.34 0.34 0 0 Z " fill="#25985D" transform="translate(185,184)"/>
<path d="M0 0 C-0.33 0.99 -0.66 1.98 -1 3 C-5.31035482 4.34256953 -8.47781648 5 -13 5 C-12 2 -12 2 -9 0 C-5.62709561 -0.95133201 -3.33379087 -1.11126362 0 0 Z " fill="#FBF9FC" transform="translate(161,108)"/>
<path d="M0 0 C1.65 0 3.3 0 5 0 C5.28875 0.928125 5.5775 1.85625 5.875 2.8125 C6.8875 6.09791667 6.8875 6.09791667 9 9 C8.01 9.495 8.01 9.495 7 10 C4.5 9 4.5 9 2 7 C0.6875 3.3125 0.6875 3.3125 0 0 Z " fill="#F0F8F5" transform="translate(163,35)"/>
<path d="M0 0 C0.33 0 0.66 0 1 0 C1 4.95 1 9.9 1 15 C0.34 15 -0.32 15 -1 15 C-3.1875 12.6875 -3.1875 12.6875 -5 10 C-4.67 9.01 -4.34 8.02 -4 7 C-3.34 6.67 -2.68 6.34 -2 6 C-1.27306096 4.02111039 -0.60183749 2.02045442 0 0 Z " fill="#DCF1E8" transform="translate(195,176)"/>
<path d="M0 0 C5.75 -0.125 5.75 -0.125 8 1 C7.125 4.875 7.125 4.875 6 6 C4.00041636 6.04080783 1.99954746 6.04254356 0 6 C0 4.02 0 2.04 0 0 Z " fill="#E5F7F1" transform="translate(37,175)"/>
<path d="M0 0 C0.33 0 0.66 0 1 0 C1 1.98 1 3.96 1 6 C3.31 6 5.62 6 8 6 C8 6.99 8 7.98 8 9 C8.66 9.33 9.32 9.66 10 10 C9 11 9 11 7.15234375 11.09765625 C5.1015625 11.06510417 3.05078125 11.03255208 1 11 C1 10.01 1 9.02 1 8 C0.67 7.67 0.34 7.34 0 7 C-0.04092937 4.66702567 -0.04241723 2.33294775 0 0 Z " fill="#2B9862" transform="translate(36,175)"/>
<path d="M0 0 C-0.9590625 0.433125 -0.9590625 0.433125 -1.9375 0.875 C-4.15206079 1.82823451 -4.15206079 1.82823451 -5 4 C-2.36 3.67 0.28 3.34 3 3 C0.36966546 5.63033454 -1.32706204 5.77962372 -5 6 C-6.34400833 5.01439389 -7.67607028 4.01241685 -9 3 C-11.67575135 2.4369558 -14.26586841 2.2278443 -17 2 C-17 1.67 -17 1.34 -17 1 C-14.91835982 0.63601378 -12.83459438 0.28416713 -10.75 -0.0625 C-9.00976562 -0.35833984 -9.00976562 -0.35833984 -7.234375 -0.66015625 C-4.37477376 -0.9606216 -2.66674071 -0.9439206 0 0 Z " fill="#D5F3E6" transform="translate(153,109)"/>
<path d="M0 0 C0.33 0.66 0.66 1.32 1 2 C2.65 1.34 4.3 0.68 6 0 C6 3 6 3 5 5 C4.92966231 6.87379605 4.9156978 8.75001102 4.9375 10.625 C4.95103516 12.12933594 4.95103516 12.12933594 4.96484375 13.6640625 C4.97644531 14.43492188 4.98804687 15.20578125 5 16 C1.6133733 11.9687339 1.4285983 9.14317962 1 4 C0.01 4.495 0.01 4.495 -1 5 C-0.67 3.35 -0.34 1.7 0 0 Z " fill="#DEF2EA" transform="translate(113,85)"/>
<path d="M0 0 C3.63 0 7.26 0 11 0 C10.67 0.66 10.34 1.32 10 2 C9.34 2 8.68 2 8 2 C8 2.66 8 3.32 8 4 C4.7 4.33 1.4 4.66 -2 5 C-1.34 3.35 -0.68 1.7 0 0 Z " fill="#E4F3EC" transform="translate(109,195)"/>
<path d="M0 0 C0.33 0 0.66 0 1 0 C1.1953125 2.05078125 1.390625 4.1015625 1.5859375 6.15234375 C1.72257812 6.76207031 1.85921875 7.37179688 2 8 C2.66 8.33 3.32 8.66 4 9 C4.33 8.34 4.66 7.68 5 7 C5.33 7.66 5.66 8.32 6 9 C6.99 9.33 7.98 9.66 9 10 C9.33 9.34 9.66 8.68 10 8 C10.33 8.99 10.66 9.98 11 11 C9 13 9 13 6.0625 13.3125 C3 13 3 13 1.3203125 11.8046875 C-0.45899579 9.37261522 -0.30357277 7.79170104 -0.1875 4.8125 C-0.16042969 3.91144531 -0.13335937 3.01039063 -0.10546875 2.08203125 C-0.07066406 1.39496094 -0.03585938 0.70789063 0 0 Z M4 10 C4.33 10.66 4.66 11.32 5 12 C5.33 11.34 5.66 10.68 6 10 C5.34 10 4.68 10 4 10 Z " fill="#D5F2E6" transform="translate(59,178)"/>
<path d="M0 0 C1.09658936 3.28976808 0.79953138 4.71303767 0 8 C-0.99 8.33 -1.98 8.66 -3 9 C-3.33 7.68 -3.66 6.36 -4 5 C-6.31 5 -8.62 5 -11 5 C-11 6.65 -11 8.3 -11 10 C-11.33 10 -11.66 10 -12 10 C-12 8.02 -12 6.04 -12 4 C-10.95199219 3.81824219 -10.95199219 3.81824219 -9.8828125 3.6328125 C-8.51769531 3.38144531 -8.51769531 3.38144531 -7.125 3.125 C-5.76761719 2.88136719 -5.76761719 2.88136719 -4.3828125 2.6328125 C-1.83494012 2.16955297 -1.83494012 2.16955297 0 0 Z " fill="#E4F5F0" transform="translate(49,182)"/>
<path d="M0 0 C1.12591553 0.00523682 2.25183105 0.01047363 3.41186523 0.01586914 C4.62680664 0.0190918 5.84174805 0.02231445 7.09350586 0.02563477 C8.37290039 0.03401367 9.65229492 0.04239258 10.97045898 0.05102539 C12.2537207 0.05553711 13.53698242 0.06004883 14.85913086 0.06469727 C18.04211921 0.07652994 21.22501661 0.09301471 24.40795898 0.11352539 C24.40795898 0.44352539 24.40795898 0.77352539 24.40795898 1.11352539 C16.48795898 1.11352539 8.56795898 1.11352539 0.40795898 1.11352539 C0.40795898 1.77352539 0.40795898 2.43352539 0.40795898 3.11352539 C-0.58204102 3.44352539 -1.57204102 3.77352539 -2.59204102 4.11352539 C-3.25204102 5.10352539 -3.91204102 6.09352539 -4.59204102 7.11352539 C-3.55577431 0.15573468 -3.55577431 0.15573468 0 0 Z " fill="#0B904C" transform="translate(47.592041015625,11.886474609375)"/>
<path d="M0 0 C0.99 0.33 1.98 0.66 3 1 C3.6875 3.0625 3.6875 3.0625 4 5 C2.68 5.33 1.36 5.66 0 6 C0 6.66 0 7.32 0 8 C-0.66 8 -1.32 8 -2 8 C-3.625 6 -3.625 6 -5 4 C-2.6875 1.9375 -2.6875 1.9375 0 0 Z " fill="#1E9758" transform="translate(60,170)"/>
<path d="M0 0 C1.43583001 -0.10836453 2.8740202 -0.18576167 4.3125 -0.25 C5.11300781 -0.29640625 5.91351563 -0.3428125 6.73828125 -0.390625 C9 0 9 0 12 4 C8.04 4 4.08 4 0 4 C0 2.68 0 1.36 0 0 Z " fill="#F8FBFB" transform="translate(136,111)"/>
<path d="M0 0 C2.50298434 2.93828597 3.46930939 5.17902761 4 9 C2.02 9 0.04 9 -2 9 C-2.33 7.35 -2.66 5.7 -3 4 C-2.01 3.67 -1.02 3.34 0 3 C0 2.01 0 1.02 0 0 Z " fill="#1E9258" transform="translate(168,186)"/>
<path d="M0 0 C0 0.66 0 1.32 0 2 C0.66 2.33 1.32 2.66 2 3 C2.33 2.34 2.66 1.68 3 1 C2.67 2.32 2.34 3.64 2 5 C-1.3 5 -4.6 5 -8 5 C-7.67 3.68 -7.34 2.36 -7 1 C-4 0 -4 0 0 0 Z " fill="#209259" transform="translate(94,181)"/>
<path d="M0 0 C5.61 0 11.22 0 17 0 C17 0.33 17 0.66 17 1 C11.06 1.495 11.06 1.495 5 2 C4.67 2.99 4.34 3.98 4 5 C4 4.34 4 3.68 4 3 C2.35 3.66 0.7 4.32 -1 5 C-1 2 -1 2 0 0 Z M-4 4 C-2 5 -2 5 -2 5 Z " fill="#D0EADD" transform="translate(129,195)"/>
<path d="M0 0 C0.33 0.66 0.66 1.32 1 2 C1.66 2 2.32 2 3 2 C3.33 1.34 3.66 0.68 4 0 C3.95875 1.175625 3.9175 2.35125 3.875 3.5625 C3.86016365 7.72409674 4.68829222 11.06487667 6 15 C4.35 14.67 2.7 14.34 1 14 C1.33 10.7 1.66 7.4 2 4 C1.34 4 0.68 4 0 4 C0 2.68 0 1.36 0 0 Z " fill="#C6E9D9" transform="translate(50,177)"/>
<path d="M0 0 C4.875 2.75 4.875 2.75 6 5 C4.68 5.33 3.36 5.66 2 6 C1.67 7.32 1.34 8.64 1 10 C1 9.34 1 8.68 1 8 C0.01 7.67 -0.98 7.34 -2 7 C-2.125 4.625 -2.125 4.625 -2 2 C-1.34 1.34 -0.68 0.68 0 0 Z " fill="#DAF1E5" transform="translate(162,30)"/>
<path d="M0 0 C0.33 1.65 0.66 3.3 1 5 C-1.97 5 -4.94 5 -8 5 C-8 4.01 -8 3.02 -8 2 C-5.09399739 0.74335022 -3.20395416 0 0 0 Z " fill="#139754" transform="translate(152,114)"/>
<path d="M0 0 C2.475 0.99 2.475 0.99 5 2 C5 2.99 5 3.98 5 5 C6.65 5 8.3 5 10 5 C9.67 5.99 9.34 6.98 9 8 C7.53932801 7.54917531 6.08151968 7.08906463 4.625 6.625 C3.81289062 6.36976562 3.00078125 6.11453125 2.1640625 5.8515625 C0 5 0 5 -2 3 C-1.34 2.01 -0.68 1.02 0 0 Z " fill="#179455" transform="translate(146,16)"/>
<path d="M0 0 C2.31 0 4.62 0 7 0 C7 0.66 7 1.32 7 2 C6.38125 2.0825 5.7625 2.165 5.125 2.25 C2.81562433 2.81258459 2.81562433 2.81258459 1.75 5.0625 C1.5025 5.701875 1.255 6.34125 1 7 C-1.64 6.67 -4.28 6.34 -7 6 C-7 5.67 -7 5.34 -7 5 C-5.02 5 -3.04 5 -1 5 C-0.67 3.35 -0.34 1.7 0 0 Z " fill="#D9F0E7" transform="translate(154,190)"/>
<path d="M0 0 C3.3 0.99 6.6 1.98 10 3 C10 3.33 10 3.66 10 4 C8.02 4.33 6.04 4.66 4 5 C4.66 6.32 5.32 7.64 6 9 C1.25 8.25 1.25 8.25 -1 6 C-0.01 5.34 0.98 4.68 2 4 C1.34 3.67 0.68 3.34 0 3 C0 2.01 0 1.02 0 0 Z " fill="#D3EFE1" transform="translate(122,106)"/>
<path d="M0 0 C0.33 0.66 0.66 1.32 1 2 C1.66 2 2.32 2 3 2 C2.67 2.66 2.34 3.32 2 4 C1.34 3.67 0.68 3.34 0 3 C-0.33 3.99 -0.66 4.98 -1 6 C-4.92653154 9.83521686 -7.36139301 11.59724236 -13 12 C-12.319375 11.46375 -11.63875 10.9275 -10.9375 10.375 C-8.69151659 8.55909852 -6.45997899 6.73411634 -4.25 4.875 C-3.65703125 4.37742187 -3.0640625 3.87984375 -2.453125 3.3671875 C-0.87728556 2.0420502 -0.87728556 2.0420502 0 0 Z " fill="#1F9359" transform="translate(171,100)"/>
<path d="M0 0 C0 0.99 0 1.98 0 3 C-0.99 2.67 -1.98 2.34 -3 2 C-6.11785113 2.64644661 -6.11785113 2.64644661 -7 5 C-8.32 4.67 -9.64 4.34 -11 4 C-10.4375 2.0625 -10.4375 2.0625 -9 0 C-2.85365854 -1.42682927 -2.85365854 -1.42682927 0 0 Z " fill="#E4F3EB" transform="translate(199,195)"/>
<path d="M0 0 C1.485 0.99 1.485 0.99 3 2 C3.66 1.67 4.32 1.34 5 1 C5.33 2.65 5.66 4.3 6 6 C5.34 6 4.68 6 4 6 C4 6.66 4 7.32 4 8 C2.0625 7.25 2.0625 7.25 0 6 C-0.8125 4 -0.8125 4 -1 2 C-0.67 1.34 -0.34 0.68 0 0 Z " fill="#1E995A" transform="translate(105,187)"/>
<path d="M0 0 C1.37562854 1.28965176 2.70766393 2.62689293 4 4 C4 4.66 4 5.32 4 6 C4.99 6 5.98 6 7 6 C7 6.66 7 7.32 7 8 C4.36 7.67 1.72 7.34 -1 7 C-0.67 4.69 -0.34 2.38 0 0 Z M2 8 C2.99 8.495 2.99 8.495 4 9 C3.01 9.495 3.01 9.495 2 10 C2 9.34 2 8.68 2 8 Z " fill="#FAFAFC" transform="translate(61,180)"/>
<path d="M0 0 C2.64 0 5.28 0 8 0 C8 0.99 8 1.98 8 3 C4.93109813 4.53445094 2.29905734 3.54984289 -1 3 C-0.67 2.01 -0.34 1.02 0 0 Z " fill="#E2F2EC" transform="translate(166,195)"/>
<path d="M0 0 C0.99 0.33 1.98 0.66 3 1 C2.67 2.65 2.34 4.3 2 6 C0.02 6 -1.96 6 -4 6 C-2.25 1.125 -2.25 1.125 0 0 Z " fill="#119053" transform="translate(151,189)"/>
<path d="M0 0 C0.99 0.33 1.98 0.66 3 1 C2.01 3.31 1.02 5.62 0 8 C-0.66 7.01 -1.32 6.02 -2 5 C-3.96361864 4.42251197 -3.96361864 4.42251197 -6.125 4.3125 C-7.40375 4.209375 -8.6825 4.10625 -10 4 C-6.5980513 1.90649311 -3.94727588 1.82057837 0 2 C0 1.34 0 0.68 0 0 Z " fill="#27975D" transform="translate(190,171)"/>
<path d="M0 0 C0.66 0 1.32 0 2 0 C3.59854133 5.9146029 2.25890714 11.15284453 1 17 C0.67 17 0.34 17 0 17 C0 11.39 0 5.78 0 0 Z " fill="#CBEED9" transform="translate(174,61)"/>
<path d="M0 0 C2.64 0.33 5.28 0.66 8 1 C8.33 2.32 8.66 3.64 9 5 C6.69 5 4.38 5 2 5 C2 4.34 2 3.68 2 3 C1.01 2.67 0.02 2.34 -1 2 C-0.67 1.34 -0.34 0.68 0 0 Z " fill="#F6FAF9" transform="translate(150,25)"/>
<path d="M0 0 C0 2.97 0 5.94 0 9 C-1.32 9 -2.64 9 -4 9 C-3.4140625 2.84765625 -3.4140625 2.84765625 -3 1 C-1 0 -1 0 0 0 Z " fill="#05944C" transform="translate(179,186)"/>
<path d="M0 0 C-0.33 0.66 -0.66 1.32 -1 2 C-4.63 1.67 -8.26 1.34 -12 1 C-12 3.64 -12 6.28 -12 9 C-12.33 9 -12.66 9 -13 9 C-13 6.03 -13 3.06 -13 0 C-11.39679026 -0.19551338 -9.79237014 -0.38111983 -8.1875 -0.5625 C-7.29417969 -0.66691406 -6.40085937 -0.77132812 -5.48046875 -0.87890625 C-3 -1 -3 -1 0 0 Z " fill="#D7F6E6" transform="translate(99,186)"/>
<path d="M0 0 C1.43655854 -0.08131463 2.8744483 -0.13933559 4.3125 -0.1875 C5.51326172 -0.23970703 5.51326172 -0.23970703 6.73828125 -0.29296875 C9 0 9 0 12 3 C8.7 3 5.4 3 2 3 C2 2.34 2 1.68 2 1 C1.34 0.67 0.68 0.34 0 0 Z " fill="#149451" transform="translate(83,172)"/>
<path d="M0 0 C3.64939813 0.91234953 5.71592813 1.72321202 8.4375 4.375 C10 7 10 7 9.59765625 9.1640625 C9.40042969 9.76992188 9.20320312 10.37578125 9 11 C8.60167969 10.45730469 8.20335937 9.91460937 7.79296875 9.35546875 C7.26316406 8.64003906 6.73335937 7.92460938 6.1875 7.1875 C5.66542969 6.47980469 5.14335937 5.77210937 4.60546875 5.04296875 C3.16871123 3.21468607 1.68184237 1.60103312 0 0 Z " fill="#219359" transform="translate(162,29)"/>
<path d="M0 0 C2.5654594 2.5654594 2.54046087 4.47686668 3 8 C1.35 8 -0.3 8 -2 8 C-1.125 2.25 -1.125 2.25 0 0 Z " fill="#CEF1E3" transform="translate(159,177)"/>
<path d="M0 0 C0.66 0.66 1.32 1.32 2 2 C1.9375 5.4375 1.9375 5.4375 1 9 C-1.5625 10.9375 -1.5625 10.9375 -4 12 C-4 10.68 -4 9.36 -4 8 C-2.68 7.67 -1.36 7.34 0 7 C0 4.69 0 2.38 0 0 Z " fill="#1D9057" transform="translate(193,173)"/>
<path d="M0 0 C1.65 0.33 3.3 0.66 5 1 C4.67 2.65 4.34 4.3 4 6 C1.36 6 -1.28 6 -4 6 C-4 5.67 -4 5.34 -4 5 C-1.69 5 0.62 5 3 5 C2.34 4.34 1.68 3.68 1 3 C0.67 2.01 0.34 1.02 0 0 Z " fill="#C8F0E0" transform="translate(184,175)"/>
<path d="M0 0 C-0.33 0.66 -0.66 1.32 -1 2 C-0.01 2.66 0.98 3.32 2 4 C-0.64 4 -3.28 4 -6 4 C-6 3.01 -6 2.02 -6 1 C-6.66 0.67 -7.32 0.34 -8 0 C-5.13822943 -1.43088528 -3.06624227 -0.59991697 0 0 Z " fill="#048F46" transform="translate(142,106)"/>
<path d="M0 0 C0.33 0.66 0.66 1.32 1 2 C0.67 2.99 0.34 3.98 0 5 C-1.65 5.33 -3.3 5.66 -5 6 C-5 5.67 -5 5.34 -5 5 C-7.31 4.67 -9.62 4.34 -12 4 C-12 3.67 -12 3.34 -12 3 C-11.38511719 2.95101562 -10.77023438 2.90203125 -10.13671875 2.8515625 C-9.32847656 2.77679688 -8.52023438 2.70203125 -7.6875 2.625 C-6.88699219 2.55539063 -6.08648437 2.48578125 -5.26171875 2.4140625 C-2.72775559 2.10435574 -2.72775559 2.10435574 0 0 Z " fill="#C1E5D5" transform="translate(73,192)"/>
<path d="M0 0 C1.31223496 3.93670488 0.24296256 6.12488144 -1 10 C-1.33 10 -1.66 10 -2 10 C-2 8.35 -2 6.7 -2 5 C-2.66 5 -3.32 5 -4 5 C-3 2 -3 2 0 0 Z " fill="#DFF6EA" transform="translate(148,185)"/>
<path d="M0 0 C0.33 1.32 0.66 2.64 1 4 C-0.32 4.99 -1.64 5.98 -3 7 C-3.66 6.67 -4.32 6.34 -5 6 C-5.625 3.9375 -5.625 3.9375 -6 2 C-5.34 1.67 -4.68 1.34 -4 1 C-1.875 1.9375 -1.875 1.9375 0 3 C0 2.01 0 1.02 0 0 Z " fill="#1A9457" transform="translate(49,178)"/>
<path d="M0 0 C1.65 0 3.3 0 5 0 C4.67 1.98 4.34 3.96 4 6 C2.68 5.67 1.36 5.34 0 5 C0 3.35 0 1.7 0 0 Z " fill="#099148" transform="translate(45,175)"/>
<path d="M0 0 C-0.33 0.99 -0.66 1.98 -1 3 C-6.61 2.67 -12.22 2.34 -18 2 C-18 1.67 -18 1.34 -18 1 C-15.75013201 0.83156069 -13.50009983 0.66531346 -11.25 0.5 C-9.37054688 0.36078125 -9.37054688 0.36078125 -7.453125 0.21875 C-4.97265229 0.06161598 -2.48544483 0 0 0 Z " fill="#EBFAF6" transform="translate(49,168)"/>
<path d="M0 0 C3.96 0 7.92 0 12 0 C10.02 0.99 10.02 0.99 8 2 C8 2.66 8 3.32 8 4 C5.36 3.34 2.72 2.68 0 2 C0 1.34 0 0.68 0 0 Z " fill="#199657" transform="translate(128,116)"/>
<path d="M0 0 C1.16945792 0.80847729 2.33550461 1.62189112 3.5 2.4375 C4.47453125 3.11619141 4.47453125 3.11619141 5.46875 3.80859375 C6.22671875 4.39833984 6.22671875 4.39833984 7 5 C7 5.33 7 5.66 7 6 C0.47692308 5.38461538 0.47692308 5.38461538 -1.9375 3.4375 C-2.288125 2.963125 -2.63875 2.48875 -3 2 C-2.01 2 -1.02 2 0 2 C0 1.34 0 0.68 0 0 Z " fill="#1B9959" transform="translate(156,33)"/>
<path d="M0 0 C0 0.99 0 1.98 0 3 C-4.87804878 7.87804878 -4.87804878 7.87804878 -8.875 8.3125 C-9.926875 8.1578125 -9.926875 8.1578125 -11 8 C-7.38813161 5.25498003 -3.69604737 2.62987986 0 0 Z " fill="#D6F3E4" transform="translate(163,100)"/>
<path d="M0 0 C0.66 0.33 1.32 0.66 2 1 C2 3.31 2 5.62 2 8 C1.34 7.34 0.68 6.68 0 6 C-0.66 7.32 -1.32 8.64 -2 10 C-2 7.36 -2 4.72 -2 2 C-1.34 2 -0.68 2 0 2 C0 1.34 0 0.68 0 0 Z " fill="#24A264" transform="translate(109,90)"/>
<path d="M0 0 C2.27795022 2.27795022 3.05219877 3.93787293 4 7 C3.625 9.3125 3.625 9.3125 3 11 C2.71125 10.360625 2.4225 9.72125 2.125 9.0625 C1.17176549 6.84793921 1.17176549 6.84793921 -1 6 C-1.042721 4.33388095 -1.04063832 2.66617115 -1 1 C-0.67 0.67 -0.34 0.34 0 0 Z " fill="#CEEEE0" transform="translate(175,46)"/>
<path d="M0 0 C1.33895632 1.66215268 2.67130142 3.32963607 4 5 C4.5775 5.721875 5.155 6.44375 5.75 7.1875 C7 9 7 9 7 11 C3.30209954 9.76736651 3.0645154 8.79947549 1.3125 5.4375 C0.87550781 4.61121094 0.43851563 3.78492188 -0.01171875 2.93359375 C-0.33785156 2.29550781 -0.66398438 1.65742188 -1 1 C-0.67 0.67 -0.34 0.34 0 0 Z " fill="#208C54" transform="translate(185,184)"/>
<path d="M0 0 C1.32 0 2.64 0 4 0 C4.33 1.65 4.66 3.3 5 5 C4.34 5 3.68 5 3 5 C2.67 5.66 2.34 6.32 2 7 C0 5 0 5 -0.125 2.375 C-0.08375 1.59125 -0.0425 0.8075 0 0 Z " fill="#E9F7F1" transform="translate(161,190)"/>
<path d="M0 0 C0.66 0.99 1.32 1.98 2 3 C-2.61073111 4.29676812 -6.33840089 3.71109139 -11 3 C-11 2.67 -11 2.34 -11 2 C-10.28972656 1.93941406 -9.57945313 1.87882813 -8.84765625 1.81640625 C-7.46900391 1.69072266 -7.46900391 1.69072266 -6.0625 1.5625 C-5.14597656 1.48128906 -4.22945312 1.40007812 -3.28515625 1.31640625 C-1.03840268 1.23955024 -1.03840268 1.23955024 0 0 Z " fill="#2A9D61" transform="translate(48,172)"/>
<path d="M0 0 C0.66 0.33 1.32 0.66 2 1 C1.67 1.99 1.34 2.98 1 4 C0.34 4 -0.32 4 -1 4 C-1.33 5.32 -1.66 6.64 -2 8 C-2.66 7.34 -3.32 6.68 -4 6 C-2.25 1.125 -2.25 1.125 0 0 Z " fill="#F9FBFB" transform="translate(174,89)"/>
<path d="M0 0 C2.0625 0.4375 2.0625 0.4375 4 1 C3.67 1.99 3.34 2.98 3 4 C1.35 4.33 -0.3 4.66 -2 5 C-1.125 1.125 -1.125 1.125 0 0 Z " fill="#F5F8FA" transform="translate(116,82)"/>
<path d="M0 0 C-0.5775 0.268125 -1.155 0.53625 -1.75 0.8125 C-4.06461975 1.93880119 -4.06461975 1.93880119 -6.0625 3.6875 C-6.701875 4.120625 -7.34125 4.55375 -8 5 C-8.99 4.67 -9.98 4.34 -11 4 C-7.64191281 0.32209498 -4.88401581 -0.13200043 0 0 Z " fill="#C7EBDB" transform="translate(128,78)"/>
<path d="M0 0 C0.66 1.65 1.32 3.3 2 5 C-1.3 4.01 -4.6 3.02 -8 2 C-8 1.67 -8 1.34 -8 1 C-2.25 0 -2.25 0 0 0 Z " fill="#D7F0E3" transform="translate(142,21)"/>
<path d="M0 0 C2.31 0 4.62 0 7 0 C7 0.99 7 1.98 7 3 C5.35 3.33 3.7 3.66 2 4 C1.34 2.68 0.68 1.36 0 0 Z " fill="#088A49" transform="translate(62,170)"/>
<path d="M0 0 C1.32 0.33 2.64 0.66 4 1 C3.67 1.99 3.34 2.98 3 4 C2.01 4.33 1.02 4.66 0 5 C-0.66 4.67 -1.32 4.34 -2 4 C-1.34 2.68 -0.68 1.36 0 0 Z " fill="#EDF8F7" transform="translate(157,107)"/>
<path d="M0 0 C1.42944945 2.35438733 2.08661261 3.48032433 1.625 6.25 C1.41875 6.8275 1.2125 7.405 1 8 C0.34 7.67 -0.32 7.34 -1 7 C-1.33 7.99 -1.66 8.98 -2 10 C-1.125 2.25 -1.125 2.25 0 0 Z " fill="#09904A" transform="translate(109,94)"/>
<path d="M0 0 C0.99 0 1.98 0 3 0 C2.71758359 1.46015291 2.42373386 2.91809793 2.125 4.375 C1.96257812 5.18710938 1.80015625 5.99921875 1.6328125 6.8359375 C1 9 1 9 -1 11 C-0.67 7.37 -0.34 3.74 0 0 Z " fill="#199258" transform="translate(171,77)"/>
<path d="M0 0 C1.65 0 3.3 0 5 0 C5.33 0.66 5.66 1.32 6 2 C5.67 2.99 5.34 3.98 5 5 C2.525 4.01 2.525 4.01 0 3 C0 2.01 0 1.02 0 0 Z " fill="#E3F3EB" transform="translate(190,168)"/>
<path d="M0 0 C1.98 0 3.96 0 6 0 C6.33 1.32 6.66 2.64 7 4 C6.01 4.33 5.02 4.66 4 5 C4 4.34 4 3.68 4 3 C2.68 2.34 1.36 1.68 0 1 C0 0.67 0 0.34 0 0 Z " fill="#DDF0E7" transform="translate(31,195)"/>
<path d="M0 0 C3.08089673 2.77280706 4.68775452 5.06326356 6 9 C5.34 9 4.68 9 4 9 C4 8.34 4 7.68 4 7 C3.01 6.67 2.02 6.34 1 6 C0.67 4.02 0.34 2.04 0 0 Z " fill="#D2F0E3" transform="translate(184,186)"/>
<path d="M0 0 C2 2 2 2 2.1953125 3.9453125 C2.13020833 5.96354167 2.06510417 7.98177083 2 10 C1.01 10.495 1.01 10.495 0 11 C-0.19491452 9.54263913 -0.38069358 8.08405407 -0.5625 6.625 C-0.66691406 5.81289062 -0.77132812 5.00078125 -0.87890625 4.1640625 C-1 2 -1 2 0 0 Z " fill="#C3E8D9" transform="translate(70,177)"/>
<path d="M0 0 C0.99 0.33 1.98 0.66 3 1 C3.33 1.99 3.66 2.98 4 4 C2.35 4.33 0.7 4.66 -1 5 C-0.67 3.35 -0.34 1.7 0 0 Z " fill="#039845" transform="translate(158,171)"/>
<path d="M0 0 C-0.66 1.98 -1.32 3.96 -2 6 C-2.268125 5.38125 -2.53625 4.7625 -2.8125 4.125 C-3.95556848 1.7004767 -3.95556848 1.7004767 -7 0 C-2.25 -1.125 -2.25 -1.125 0 0 Z " fill="#23975E" transform="translate(135,77)"/>
<path d="M0 0 C2.475 0.99 2.475 0.99 5 2 C4.67 2.99 4.34 3.98 4 5 C2.68 5 1.36 5 0 5 C-0.33 4.01 -0.66 3.02 -1 2 C-0.67 1.34 -0.34 0.68 0 0 Z " fill="#F7FCFB" transform="translate(144,21)"/>
<path d="M0 0 C3.875 1.75 3.875 1.75 5 4 C2 5 2 5 -0.1875 4.0625 C-0.785625 3.711875 -1.38375 3.36125 -2 3 C-1.34 2.01 -0.68 1.02 0 0 Z " fill="#E7F4EE" transform="translate(122,192)"/>
<path d="M0 0 C1.98 0 3.96 0 6 0 C4.625 1.5 4.625 1.5 3 3 C2.34 3 1.68 3 1 3 C1 3.99 1 4.98 1 6 C0.34 5.67 -0.32 5.34 -1 5 C-0.67 3.35 -0.34 1.7 0 0 Z " fill="#069D53" transform="translate(41,136)"/>
<path d="M0 0 C4.875 4.75 4.875 4.75 6 7 C4.02 6.34 2.04 5.68 0 5 C0 3.35 0 1.7 0 0 Z " fill="#199255" transform="translate(112,104)"/>
</svg>
