<svg width="186" height="185" viewBox="0 0 186 185" fill="none" xmlns="http://www.w3.org/2000/svg">
<circle cx="94.7923" cy="92.3981" r="73.8356" stroke="#4B3B8B" stroke-width="3"/>
<mask id="path-2-inside-1_5800_5540" fill="white">
<path d="M126.041 36.1561C126.617 35.176 126.263 33.9103 125.242 33.4092C115.934 28.838 105.501 26.6192 94.8257 26.9553C84.0747 27.2938 73.4214 30.2131 63.7823 35.4485C62.8259 35.968 62.4943 37.169 63.0199 38.122L77.0236 63.5132C77.5649 64.4947 78.8049 64.8342 79.8063 64.3306C84.2124 62.1147 89.0178 60.8788 93.8642 60.7262C98.7195 60.5733 103.471 61.5122 107.765 63.4616C108.742 63.9049 109.915 63.5805 110.459 62.656L126.041 36.1561Z"/>
</mask>
<path d="M126.041 36.1561C126.617 35.176 126.263 33.9103 125.242 33.4092C115.934 28.838 105.501 26.6192 94.8257 26.9553C84.0747 27.2938 73.4214 30.2131 63.7823 35.4485C62.8259 35.968 62.4943 37.169 63.0199 38.122L77.0236 63.5132C77.5649 64.4947 78.8049 64.8342 79.8063 64.3306C84.2124 62.1147 89.0178 60.8788 93.8642 60.7262C98.7195 60.5733 103.471 61.5122 107.765 63.4616C108.742 63.9049 109.915 63.5805 110.459 62.656L126.041 36.1561Z" fill="#65636E" fill-opacity="0.65" stroke="#4B3B8B" stroke-width="2" mask="url(#path-2-inside-1_5800_5540)"/>
<mask id="path-3-inside-2_5800_5540" fill="white">
<path d="M158.927 88.9483C160.031 88.9483 160.93 88.0525 160.893 86.9486C160.536 76.2108 157.302 65.7197 151.477 56.4541C145.618 47.1347 137.34 39.379 127.434 33.9057C126.502 33.391 125.337 33.7309 124.8 34.6499L109.168 61.3985C108.59 62.3871 108.962 63.6531 109.942 64.2454C114.028 66.7151 117.453 70.053 119.935 74.001C122.42 77.9524 123.879 82.3883 124.21 86.95C124.29 88.0517 125.178 88.9483 126.282 88.9483H158.927Z"/>
</mask>
<path d="M158.927 88.9483C160.031 88.9483 160.93 88.0525 160.893 86.9486C160.536 76.2108 157.302 65.7197 151.477 56.4541C145.618 47.1347 137.34 39.379 127.434 33.9057C126.502 33.391 125.337 33.7309 124.8 34.6499L109.168 61.3985C108.59 62.3871 108.962 63.6531 109.942 64.2454C114.028 66.7151 117.453 70.053 119.935 74.001C122.42 77.9524 123.879 82.3883 124.21 86.95C124.29 88.0517 125.178 88.9483 126.282 88.9483H158.927Z" fill="#E6E4EF" stroke="#4B3B8B" stroke-width="2" mask="url(#path-3-inside-2_5800_5540)"/>
<path d="M67.2332 35.1211C66.7048 34.1942 65.54 33.8426 64.6022 34.3515C54.6312 39.7614 46.2618 47.4641 40.2908 56.7461C34.356 65.9717 30.9956 76.4388 30.5059 87.1712C30.4553 88.2791 31.3502 89.1876 32.4592 89.1947L65.0981 89.4044C66.1981 89.4114 67.0899 88.5274 67.1822 87.4312C67.5666 82.8671 69.0804 78.4359 71.6144 74.4967C74.1461 70.5611 77.6152 67.2428 81.7346 64.7986C82.7171 64.2156 83.1001 62.9566 82.5343 61.9641L67.2332 35.1211Z" fill="#4B3B8B"/>
<path d="M90.5 83.5L122.69 61.5055" stroke="#4B3B8B" stroke-linecap="round"/>
<line x1="121.765" y1="62.2208" x2="98.3949" y2="92.3106" stroke="#4B3B8B"/>
<path d="M97.8776 92.7871C97.3921 93.1159 96.8744 93.3359 96.3043 93.4668C96.8591 93.3188 97.3887 93.0894 97.8776 92.7871Z" fill="#4B3B8B" stroke="#4B3B8B"/>
<path d="M63.8001 133.767V111.244C65.0784 111.136 66.2376 111.049 67.2776 110.984C68.3392 110.919 69.3142 110.876 70.2026 110.854C71.1126 110.811 71.9467 110.789 72.7051 110.789C74.8284 110.789 76.5292 110.984 77.8076 111.374C79.1076 111.743 80.0501 112.338 80.6351 113.162C81.2201 113.963 81.5126 115.014 81.5126 116.314C81.5126 117.506 81.2417 118.535 80.7001 119.402C80.1584 120.247 79.3351 120.908 78.2301 121.384V121.417C79.6384 121.807 80.7326 122.511 81.5126 123.529C82.3142 124.548 82.7151 125.783 82.7151 127.234C82.7151 128.491 82.5417 129.563 82.1951 130.452C81.8484 131.318 81.2851 132.033 80.5051 132.597C79.7467 133.138 78.7284 133.539 77.4501 133.799C76.1934 134.059 74.6442 134.189 72.8026 134.189C72.1092 134.189 71.5026 134.178 70.9826 134.157C70.4842 134.157 70.0184 134.146 69.5851 134.124C69.1517 134.124 68.6751 134.103 68.1551 134.059C67.6351 134.038 67.0284 133.994 66.3351 133.929C65.6417 133.886 64.7967 133.832 63.8001 133.767ZM69.3251 120.474H73.7451C74.2867 120.474 74.7526 120.366 75.1426 120.149C75.5326 119.933 75.8251 119.629 76.0201 119.239C76.2367 118.849 76.3451 118.394 76.3451 117.874C76.3451 117.224 76.2151 116.704 75.9551 116.314C75.7167 115.924 75.3267 115.643 74.7851 115.469C74.2434 115.274 73.4959 115.177 72.5426 115.177C72.2826 115.177 72.0551 115.177 71.8601 115.177C71.6651 115.177 71.4809 115.188 71.3076 115.209C71.1559 115.209 70.9826 115.22 70.7876 115.242C70.6142 115.242 70.4084 115.253 70.1701 115.274C69.9317 115.296 69.6501 115.318 69.3251 115.339V120.474ZM69.3251 129.672C69.6934 129.693 70.0292 129.715 70.3326 129.737C70.6359 129.758 70.9067 129.78 71.1451 129.802C71.4051 129.802 71.6434 129.802 71.8601 129.802C72.0984 129.802 72.3259 129.802 72.5426 129.802C73.7126 129.802 74.6226 129.715 75.2726 129.542C75.9442 129.347 76.4101 129.043 76.6701 128.632C76.9301 128.22 77.0601 127.678 77.0601 127.007C77.0601 126.097 76.7892 125.425 76.2476 124.992C75.7276 124.558 74.8826 124.342 73.7126 124.342H69.3251V129.672ZM85.2234 133.864V111.114H90.9434L96.4359 121.807L101.993 111.114H107.421V133.864H102.416V119.174L97.5734 128.502H94.9734L90.2284 119.272V133.864H85.2234ZM110.995 133.864V111.114H116.487V133.864H110.995Z" fill="#4B3B8B"/>
<path d="M120.5 63.5L98.5 92L95.5 93.5L93 93.5L91 92L89 89L89.5 86L90.4998 83.999L120.5 63.5Z" fill="#4B3B8B"/>
</svg>
