<svg width="30" height="40" viewBox="0 0 30 40" fill="none" xmlns="http://www.w3.org/2000/svg">
<g id="Frame 1597881710">
<g id="Group 37400">
<circle id="Ellipse 3918" cx="6.77987" cy="6.31447" r="2.89992" fill="#65636E" stroke="#65636E"/>
<circle id="Ellipse 3917" cx="6.77987" cy="6.31452" r="1.87994" fill="white" stroke="#65636E"/>
<circle id="Ellipse 3919" cx="19.3596" cy="29.774" r="1.87994" stroke="#65636E"/>
<path id="Ellipse 3920" d="M22.0795 23.3147C23.6797 23.8563 24.605 24.6445 25.4764 26.0918C26.3478 27.5391 26.6777 29.2486 26.4076 30.9162C26.1374 32.5839 25.2847 34.1017 24.001 35.1999C22.7172 36.2981 21.0857 36.9056 19.3963 36.9143C17.7069 36.9229 16.0692 36.3323 14.7743 35.2473C13.4793 34.1624 12.611 32.6534 12.3237 30.9886C12.0365 29.3238 12.3488 27.6111 13.2053 26.1549C14.0617 24.6987 14.8751 23.8727 16.4696 23.3147" stroke="#65636E"/>
<line id="Line 190" x1="16.1396" y1="23.6543" x2="16.1396" y2="3.59476" stroke="#65636E"/>
<line id="Line 191" x1="21.9195" y1="23.6543" x2="21.9195" y2="3.59476" stroke="#65636E"/>
<path id="Line 192" d="M16.2997 3.93463C17.5085 0.67137 20.8707 0.852669 22.0795 3.93463" stroke="#65636E"/>
<line id="Line 193" x1="19.5196" y1="7.33447" x2="19.5196" y2="27.734" stroke="#65636E"/>
<line id="Line 194" x1="24.4595" y1="4.45459" x2="27.5194" y2="4.45459" stroke="#65636E"/>
<line id="Line 195" x1="24.4595" y1="9.21436" x2="27.5194" y2="9.21436" stroke="#65636E"/>
<line id="Line 196" x1="24.4595" y1="13.6343" x2="27.5194" y2="13.6343" stroke="#65636E"/>
<line id="Line 197" x1="24.4595" y1="18.0542" x2="27.5194" y2="18.0542" stroke="#65636E"/>
<line id="Line 198" x1="24.4595" y1="6.83447" x2="26.4994" y2="6.83447" stroke="#65636E"/>
<line id="Line 199" x1="24.4595" y1="11.2544" x2="26.4994" y2="11.2544" stroke="#65636E"/>
<line id="Line 200" x1="24.4595" y1="16.0146" x2="26.4994" y2="16.0146" stroke="#65636E"/>
<line id="Line 201" x1="24.4595" y1="20.4346" x2="26.4994" y2="20.4346" stroke="#65636E"/>
<line id="Line 202" x1="6.95985" y1="1.89453" x2="6.95985" y2="0.534563" stroke="#65636E"/>
<line id="Line 203" x1="5.93988" y1="12.0947" x2="5.93988" y2="10.7348" stroke="#65636E"/>
<line id="Line 204" x1="10.3389" y1="10.7348" x2="9.45868" y2="9.69812" stroke="#65636E"/>
<line id="Line 205" x1="12.5458" y1="7.19074" x2="11.1864" y2="7.1543" stroke="#65636E"/>
<line id="Line 206" x1="9.85888" y1="3.40417" x2="10.9018" y2="2.5313" stroke="#65636E"/>
<line id="Line 207" x1="3.92084" y1="3.23906" x2="3.00899" y2="2.23007" stroke="#65636E"/>
<line id="Line 208" x1="2.34697" y1="6.16879" x2="0.987427" y2="6.1346" stroke="#65636E"/>
<line id="Line 209" x1="2.382" y1="9.51403" x2="3.43153" y2="8.64917" stroke="#65636E"/>
</g>
</g>
</svg>
