<svg width="17" height="33" viewBox="0 0 17 33" fill="none" xmlns="http://www.w3.org/2000/svg">
<path d="M2.33701 25.0018L2.35435 10.3018L3.65635 10.3034L3.64729 17.9894L12.0053 17.9992L12.0143 10.3132L13.3373 10.3148L13.32 25.0148L11.997 25.0132L12.0039 19.1962L3.64587 19.1864L3.63901 25.0034L2.33701 25.0018Z" fill="#4B3B8B"/>
<path d="M13.2599 10.4054C13.3215 9.64487 13.2242 8.87988 12.9741 8.15904C12.7241 7.43819 12.3268 6.77725 11.8075 6.21825C11.2883 5.65924 10.6584 5.21438 9.95787 4.91196C9.25738 4.60955 8.50164 4.45618 7.73868 4.46162C6.97571 4.46706 6.22223 4.63118 5.52613 4.94355C4.83002 5.25592 4.20652 5.7097 3.69526 6.27606C3.18401 6.84241 2.79618 7.50894 2.55644 8.23328C2.3167 8.95761 2.23028 9.72391 2.30269 10.4834L3.66205 10.3539C3.60762 9.78289 3.67258 9.20685 3.8528 8.66235C4.03302 8.11785 4.32456 7.6168 4.70888 7.19106C5.0932 6.76532 5.5619 6.4242 6.08518 6.18938C6.60846 5.95456 7.17487 5.83119 7.74841 5.8271C8.32194 5.82302 8.89005 5.9383 9.41663 6.16564C9.9432 6.39297 10.4167 6.72738 10.8071 7.1476C11.1974 7.56782 11.4961 8.06466 11.684 8.60654C11.872 9.14842 11.9452 9.72347 11.8989 10.2952L13.2599 10.4054Z" fill="#4B3B8B"/>
<path d="M2.27821 24.8597C2.26484 25.5859 2.39547 26.3077 2.66256 26.9832C2.92964 27.6587 3.3279 28.2746 3.83432 28.7954C4.34074 29.3161 4.94531 29.7314 5.61311 30.0172C6.28091 30.3031 6.99871 30.4538 7.72507 30.4607C8.45144 30.4676 9.17197 30.3305 9.84508 30.0574C10.5182 29.7843 11.1305 29.3806 11.6467 28.8695C12.163 28.3585 12.5728 27.7502 12.8527 27.0799C13.1326 26.4096 13.2769 25.6905 13.2773 24.9641L11.9002 24.9633C11.8999 25.5078 11.7917 26.0469 11.5819 26.5494C11.3722 27.0519 11.0649 27.5078 10.6779 27.8909C10.291 28.274 9.83193 28.5767 9.32736 28.7814C8.82278 28.9861 8.28265 29.0888 7.73815 29.0837C7.19364 29.0785 6.65556 28.9655 6.15496 28.7513C5.65436 28.537 5.20116 28.2257 4.82153 27.8353C4.4419 27.445 4.14336 26.9832 3.94315 26.4769C3.74293 25.9705 3.64501 25.4295 3.65503 24.885L2.27821 24.8597Z" fill="#4B3B8B"/>
<path d="M3.5 9.68347C5 3.18302 12 5.68359 12.0005 9.68347V17.9492H3.5V9.68347Z" fill="#4B3B8B" fill-opacity="0.39"/>
<path d="M7.67613 7.84656C7.71062 7.48667 7.44278 7.15816 7.08623 7.21801C6.81815 7.263 6.55776 7.35166 6.31579 7.48181C5.88034 7.71604 5.52412 8.07413 5.29218 8.51081C5.06024 8.94749 4.963 9.44314 5.01275 9.93508C5.0404 10.2084 5.11274 10.4738 5.22556 10.7211C5.37561 11.0501 5.79777 11.088 6.07664 10.8579V10.8579C6.35551 10.6279 6.37145 10.2078 6.32098 9.84977C6.3188 9.83436 6.31693 9.81887 6.31536 9.80334C6.29166 9.56902 6.33797 9.33295 6.44845 9.12496C6.55892 8.91697 6.72859 8.7464 6.936 8.63484C6.94975 8.62745 6.96362 8.62033 6.97762 8.6135C7.3025 8.45487 7.64163 8.20645 7.67613 7.84656V7.84656Z" fill="white"/>
</svg>
