<svg width="19" height="19" viewBox="0 0 19 19" fill="none" xmlns="http://www.w3.org/2000/svg">
<path d="M17.67 7.04084C18.1819 6.88675 18.727 7.17644 18.8282 7.70136C19.17 9.47387 19.0008 11.3144 18.3299 13.0047C17.5395 14.996 16.0993 16.6617 14.243 17.7313C12.3866 18.8009 10.2233 19.2117 8.1041 18.8969C5.98493 18.5821 4.03438 17.5602 2.56914 15.9972C1.10391 14.4341 0.210023 12.4217 0.0326236 10.2866C-0.144776 8.15156 0.404724 6.0192 1.59191 4.23578C2.77909 2.45235 4.53424 1.12257 6.57241 0.462345C8.3024 -0.0980556 10.1501 -0.148142 11.8968 0.307312C12.4141 0.442194 12.668 1.00486 12.4812 1.50576C12.2944 2.00666 11.7375 2.25469 11.2169 2.13335C9.88309 1.82248 8.48339 1.87829 7.169 2.30406C5.54618 2.82975 4.14869 3.88854 3.20344 5.30853C2.25818 6.72853 1.82066 8.42634 1.96191 10.1263C2.10316 11.8263 2.81488 13.4286 3.98153 14.6732C5.14817 15.9177 6.70124 16.7313 8.38856 16.982C10.0759 17.2326 11.7984 16.9056 13.2764 16.0539C14.7545 15.2022 15.9012 13.876 16.5305 12.2905C17.0402 11.0063 17.1862 9.61312 16.9621 8.26204C16.8746 7.73465 17.158 7.19492 17.67 7.04084Z" fill="#4B3B8B"/>
<line x1="5.4" y1="9.2" x2="7.2" y2="11.6" stroke="#4B3B8B" stroke-width="2" stroke-linecap="round"/>
<line x1="17.933" y1="2.41262" x2="7.4127" y2="11.9798" stroke="#4B3B8B" stroke-width="2" stroke-linecap="round"/>
</svg>
