<svg width="250" height="304" viewBox="0 0 250 304" fill="none" xmlns="http://www.w3.org/2000/svg">
<path d="M2.4906 2L24.9906 261M128.991 2.5C128.991 2.5 134.471 3.30379 135.991 5C137.684 6.89083 138.491 11 138.491 11L132.991 75L137.03 28H4.74929L24.9906 261M24.9906 261V299.5H110.491C110.491 299.5 111.71 297.976 112.491 297M24.9906 261H105.991M112.491 297C113.857 297.976 115.991 299.5 115.991 299.5H238.491C238.491 299.5 241.712 297.586 243.491 296C245.245 294.435 247.491 291.5 247.491 291.5V234.5C247.491 234.5 247.491 232 247.491 229C247.491 226 242.991 225 242.991 225H238.991M112.491 297C110.784 296.627 109.813 296.141 108.491 295C107.219 293.903 105.991 291.5 105.991 291.5V261M238.991 225C238.991 225 238.991 198 238.991 194.5C238.991 191 231.991 187 231.991 187C231.991 187 225.741 183.583 221.991 181C218.098 178.319 215.638 177.027 212.491 173.5C207.955 168.417 211.107 159.62 204.491 158C202.404 157.489 201.106 157.626 198.991 158C195.031 158.7 193.574 161.177 189.991 163C184.848 165.616 182.174 168.005 176.491 169C172.451 169.707 170.072 168.605 165.991 169C159.155 169.662 155.709 172.078 148.991 173.5C143.181 174.73 139.564 173.949 133.991 176C130.056 177.448 127.912 178.576 124.491 181M238.991 225H113.991M124.491 181C127.029 147.024 130.991 94 130.991 94M124.491 181C120.528 181.897 118.163 183.566 115.991 187C114.066 190.043 113.991 196 113.991 196V206M113.991 206H238.991M113.991 206V225M113.991 225C113.991 225 109.991 225 108.491 225C106.991 225 105.991 229 105.991 229V261" stroke="#4B3B8B" stroke-width="5"/>
<path d="M52.4249 299.003L52.4251 287.998C52.4251 287.998 52.6544 285.384 53.4908 284.002C54.4233 282.462 56.9906 281 56.9906 281L82.4906 281C82.4906 281 85.7412 282.298 86.9906 284.002C87.9764 285.346 88.4906 287.998 88.4906 287.998L88.4906 299.003" stroke="#4B3B8B" stroke-width="5"/>
<path d="M157.491 279.002H138.991C138.991 279.002 136.637 278.842 135.491 278.002C134.355 277.17 133.491 275.002 133.491 275.002V252.002C133.491 252.002 134.415 249.911 135.491 249.002C136.626 248.042 138.991 247.502 138.991 247.502H214.491C214.491 247.502 217.557 247.413 218.991 248.502C220.112 249.354 220.991 251.502 220.991 251.502V273.502C220.991 273.502 220.296 276.341 218.991 277.502C217.606 278.732 214.491 279.002 214.491 279.002H173.491" stroke="#4B3B8B" stroke-width="5" stroke-linecap="round"/>
<path d="M70.4906 105C70.4906 105 62.7827 112.269 58.4906 117.5C53.4066 123.697 49.9584 127.054 46.9906 134.5C45.272 138.811 44.5714 141.395 43.9906 146C43.4285 150.456 43.3069 153.061 43.9906 157.5C44.6112 161.53 45.116 163.879 46.9906 167.5C49.2206 171.807 51.1166 174.082 54.9906 177C58.1292 179.364 60.1601 180.623 63.9906 181.5C67.607 182.328 69.8429 182.177 73.4906 181.5C77.8768 180.686 80.2951 179.499 83.9906 177C88.2239 174.137 90.6738 172.055 92.9906 167.5C94.8155 163.912 94.9719 161.492 95.4906 157.5C96.0693 153.046 96.1369 150.444 95.4906 146C94.8149 141.354 93.7527 138.851 91.9906 134.5C89.0994 127.361 86.6254 123.652 81.9906 117.5C77.9991 112.202 70.4906 105 70.4906 105Z" stroke="#4B3B8B" stroke-width="5"/>
<path d="M2.4906 2.5C51.8919 2.5 128.991 2.5 128.991 2.5" stroke="#4B3B8B" stroke-width="5"/>
</svg>
