<?xml version="1.0" encoding="UTF-8"?>
<svg version="1.1" xmlns="http://www.w3.org/2000/svg" width="385" height="371">
<path d="M0 0 C127.05 0 254.1 0 385 0 C385 122.43 385 244.86 385 371 C257.95 371 130.9 371 0 371 C0 248.57 0 126.14 0 0 Z " fill="#FDFDFD" transform="translate(0,0)"/>
<path d="M0 0 C1.8828067 -0.02398109 1.8828067 -0.02398109 3.8036499 -0.04844666 C5.17150464 -0.054825 6.53936429 -0.06021722 7.90722656 -0.06469727 C9.31724134 -0.07367055 10.72725517 -0.08279252 12.13726807 -0.09205627 C15.09283761 -0.10853397 18.04829407 -0.11624372 21.00390625 -0.11914062 C24.77451687 -0.12451331 28.54405048 -0.16215019 32.31435776 -0.20788479 C35.22792343 -0.2377683 38.14123373 -0.24486665 41.05493927 -0.24586678 C42.44392055 -0.25004933 43.83290398 -0.26240425 45.22173309 -0.28338432 C53.29462283 -0.39559654 59.60984413 -0.2984724 65.79785156 5.30639648 C70.06025493 9.58281014 73.07909299 13.71095838 73.11035156 19.86889648 C73.12710937 20.63331055 73.14386719 21.39772461 73.16113281 22.18530273 C72.70822327 24.82971008 71.91010898 25.69825778 69.79785156 27.30639648 C67.05890521 27.71723844 65.5102354 27.72854987 63.11035156 26.30639648 C61.43439486 23.7525577 61.02193759 21.3328407 60.52050781 18.34155273 C59.4234385 15.25196835 58.55716596 14.18273028 55.79785156 12.30639648 C52.05233011 11.66663707 48.34140255 11.61026029 44.54785156 11.55639648 C41.00035156 11.47389648 37.45285156 11.39139648 33.79785156 11.30639648 C33.79785156 18.56639648 33.79785156 25.82639648 33.79785156 33.30639648 C35.42207031 33.2802124 37.04628906 33.25402832 38.71972656 33.22705078 C44.76532125 33.13631817 50.81085612 33.07906199 56.85693359 33.03173828 C59.4699924 33.00664696 62.08298138 32.97256619 64.69580078 32.92919922 C68.45915997 32.86831503 72.22158846 32.84013132 75.98535156 32.81811523 C77.14711914 32.79230881 78.30888672 32.76650238 79.50585938 32.73991394 C86.49859622 32.73751435 91.49632392 33.50424437 96.79785156 38.30639648 C100.83482486 43.21055242 101.40452812 47.77802242 101.23535156 53.99389648 C101.24244141 54.73961914 101.24953125 55.4853418 101.25683594 56.25366211 C101.21917937 59.50081672 101.00767497 61.91497153 99.46191406 64.79858398 C97.79785156 66.30639648 97.79785156 66.30639648 94.73535156 66.74389648 C93.76597656 66.59952148 92.79660156 66.45514648 91.79785156 66.30639648 C88.99216105 62.09786071 89.37798216 57.92355806 89.23144531 53.02319336 C89.20780518 48.70257168 89.20780518 48.70257168 86.79785156 45.30639648 C83.69426019 44.99828733 83.69426019 44.99828733 79.99316406 45.04760742 C79.29382751 45.04410278 78.59449097 45.04059814 77.8739624 45.0369873 C75.55682518 45.02816773 73.23999202 45.03401979 70.92285156 45.04077148 C69.31624289 45.0394249 67.70963462 45.03748442 66.10302734 45.03497314 C62.73368455 45.03202158 59.36444769 45.03632052 55.99511719 45.0456543 C51.67045662 45.0570489 47.34604428 45.0504896 43.02139282 45.03850937 C39.70318726 45.03129161 36.38504081 45.0335783 33.0668335 45.03876495 C31.47198457 45.04010169 29.87713032 45.03845291 28.2822876 45.03380585 C26.05555958 45.02874192 23.8292368 45.0364486 21.60253906 45.04760742 C20.33394043 45.04919861 19.0653418 45.05078979 17.75830078 45.0524292 C14.67834589 44.996515 14.67834589 44.996515 12.79785156 47.30639648 C12.49894173 49.47469703 12.49894173 49.47469703 12.55493164 51.99975586 C12.55185501 52.97416626 12.54877838 53.94857666 12.54560852 54.95251465 C12.55279404 56.00773315 12.55997955 57.06295166 12.56738281 58.15014648 C12.56784103 59.23017944 12.56829926 60.3102124 12.56877136 61.42297363 C12.57179623 63.70948381 12.57968947 65.99599188 12.59204102 68.2824707 C12.61027583 71.79182192 12.61255089 75.30090914 12.61230469 78.81030273 C12.61722056 81.02775294 12.62304918 83.24520136 12.62988281 85.46264648 C12.63155205 87.04547424 12.63155205 87.04547424 12.633255 88.66027832 C12.63963486 89.63468872 12.64601471 90.60909912 12.65258789 91.61303711 C12.65639969 92.47304321 12.66021149 93.33304932 12.66413879 94.21911621 C12.66578118 96.36652096 12.66578118 96.36652096 13.79785156 98.30639648 C23.28131171 98.35267467 32.76473317 98.38824261 42.24828148 98.41002083 C46.65156407 98.42047166 51.05476959 98.43465445 55.45800781 98.45727539 C59.70494981 98.4789576 63.95181752 98.49095531 68.19881058 98.49615097 C69.82158198 98.49985506 71.44434918 98.50708794 73.06708908 98.5178566 C75.33469273 98.53231028 77.60198684 98.53437703 79.86962891 98.53344727 C81.80822281 98.5401091 81.80822281 98.5401091 83.78598022 98.54690552 C86.91167791 98.62495488 86.91167791 98.62495488 88.79785156 96.30639648 C89.08952837 92.91334607 89.21318819 89.56255256 89.27636719 86.15991211 C89.47917696 80.76319351 89.47917696 80.76319351 91.17675781 78.32983398 C93.55814824 76.82640195 95.04503023 76.82465275 97.79785156 77.30639648 C100.54055777 79.84520846 100.80884703 81.40436514 101.23144531 85.16967773 C101.24864305 86.65265151 101.24945102 88.13589002 101.23535156 89.61889648 C101.25533203 90.35301758 101.2753125 91.08713867 101.29589844 91.84350586 C101.29092898 97.44408056 99.97303631 100.69163986 96.79785156 105.30639648 C91.85998881 109.77398659 89.29163595 110.42906725 82.67285156 110.36889648 C81.39152344 110.35987305 80.11019531 110.35084961 78.79003906 110.34155273 C77.80261719 110.32995117 76.81519531 110.31834961 75.79785156 110.30639648 C75.79785156 114.26639648 75.79785156 118.22639648 75.79785156 122.30639648 C76.65016357 122.29592285 77.50247559 122.28544922 78.38061523 122.2746582 C81.55817662 122.24046994 84.73564389 122.21544575 87.91333008 122.1965332 C89.28575739 122.18650722 90.65816351 122.17288293 92.03051758 122.15551758 C94.00885683 122.13112021 95.98735524 122.12095164 97.96582031 122.11108398 C99.15457764 122.10061035 100.34333496 122.09013672 101.56811523 122.0793457 C107.14745521 122.47157385 110.71378815 124.55347335 114.79785156 128.30639648 C117.45638985 132.09395038 117.08646533 136.27762161 117.06347656 140.72045898 C117.06539001 141.53130951 117.06730347 142.34216003 117.0692749 143.17758179 C117.07063322 144.88718985 117.06696146 146.59680836 117.05859375 148.30639648 C117.04786126 150.92902616 117.05851502 153.55097518 117.07128906 156.17358398 C117.06996795 157.83504383 117.06740655 159.49650326 117.06347656 161.15795898 C117.06752502 161.94441803 117.07157349 162.73087708 117.07574463 163.54116821 C117.02779087 169.07645718 117.02779087 169.07645718 114.79785156 171.30639648 C109.66082705 171.85288845 109.66082705 171.85288845 107.13623047 170.25415039 C105.10977607 167.30503453 105.33728493 164.287863 105.32128906 160.82983398 C105.29791977 159.74105453 105.29791977 159.74105453 105.27407837 158.63027954 C105.22657332 156.31399582 105.1987946 153.99801361 105.17285156 151.68139648 C105.13639624 149.35784954 105.09583034 147.03447488 105.05020142 144.71109009 C105.02291312 143.26553413 105.00158869 141.81985145 104.98666382 140.37411499 C105.22057219 137.05600311 105.22057219 137.05600311 103.79785156 134.30639648 C102.4237538 134.20669765 101.04459207 134.17565074 99.66688538 134.17268372 C98.7765007 134.16841873 97.88611603 134.16415375 96.96875 134.15975952 C95.49208862 134.1604393 95.49208862 134.1604393 93.9855957 134.16113281 C92.43937782 134.15609489 92.43937782 134.15609489 90.86192322 134.1509552 C87.43560601 134.14141318 84.0093375 134.13950048 80.58300781 134.13842773 C78.21268188 134.13521748 75.84235615 134.13185359 73.47203064 134.12834167 C68.4960789 134.1223423 63.52014455 134.12050261 58.54418945 134.12109375 C52.15353173 134.12119543 45.76298496 134.10754045 39.37235355 134.09032154 C34.47488386 134.07922848 29.57744122 134.07717371 24.67996025 134.07770348 C22.32314102 134.07651939 19.96632118 134.07207382 17.60951424 134.06437111 C14.31943003 134.0546252 11.02958969 134.05742781 7.73950195 134.06347656 C6.75708527 134.05785706 5.77466858 134.05223755 4.76248169 134.04644775 C3.42267494 134.05273949 3.42267494 134.05273949 2.05580139 134.05915833 C0.88799432 134.05834117 0.88799432 134.05834117 -0.30340481 134.05750751 C-2.44387121 134.14198117 -2.44387121 134.14198117 -4.20214844 136.30639648 C-4.53316378 138.60978451 -4.53316378 138.60978451 -4.52099609 141.30688477 C-4.54086578 142.34781281 -4.56073547 143.38874084 -4.58120728 144.46121216 C-4.59275848 145.58832611 -4.60430969 146.71544006 -4.61621094 147.87670898 C-4.63557709 149.02807343 -4.65494324 150.17943787 -4.67489624 151.36569214 C-4.73482216 155.05418418 -4.7811297 158.74270721 -4.82714844 162.43139648 C-4.86531621 164.92750408 -4.90436722 167.42359833 -4.94433594 169.91967773 C-5.04053432 176.04846585 -5.1255435 182.17733387 -5.20214844 188.30639648 C-2.63605704 188.19704493 -0.07184293 188.07402846 2.49316406 187.94311523 C3.21544189 187.91374878 3.93771973 187.88438232 4.68188477 187.85412598 C10.37369891 187.54729401 14.86310648 186.60504863 18.79785156 182.30639648 C20.37493985 179.17468882 20.37493985 179.17468882 20.79785156 176.30639648 C20.05535156 175.79077148 19.31285156 175.27514648 18.54785156 174.74389648 C13.79863554 170.5343641 11.58748919 166.64631725 11.17285156 160.36889648 C11.41540896 154.68612311 13.75914109 151.1779879 17.79785156 147.30639648 C21.87275352 144.40868843 25.57942485 143.71018167 30.48925781 143.89233398 C35.93538717 144.86913553 39.61867368 148.03878026 43.29785156 151.99389648 C45.36981868 156.56949053 45.68837037 160.36668107 44.79785156 165.30639648 C42.88654634 169.78625418 40.1870403 173.96549582 35.79785156 176.30639648 C34.80785156 176.30639648 33.81785156 176.30639648 32.79785156 176.30639648 C32.75660156 177.27577148 32.71535156 178.24514648 32.67285156 179.24389648 C31.75839249 185.34852865 28.23346531 190.2560292 23.57519531 194.17749023 C16.70137181 198.96277304 11.1651964 199.45803142 2.98535156 199.36889648 C1.80295898 199.36212891 1.80295898 199.36212891 0.59667969 199.35522461 C-1.33629604 199.3435096 -3.26923236 199.32557647 -5.20214844 199.30639648 C-5.20214844 202.93639648 -5.20214844 206.56639648 -5.20214844 210.30639648 C2.62703848 210.26217241 10.45542448 210.19225979 18.28417969 210.09887695 C20.94576767 210.06852125 23.60675177 210.04947534 26.26855469 210.03540039 C30.101668 210.01391433 33.93378758 209.96723085 37.76660156 209.91577148 C39.5420636 209.91392853 39.5420636 209.91392853 41.35339355 209.91204834 C48.71534793 209.7824989 54.73618442 209.18528697 60.31286621 203.85955811 C65.43869595 198.00564062 66.22875255 193.43826214 66.36035156 185.93139648 C66.43479492 184.67456055 66.43479492 184.67456055 66.51074219 183.39233398 C66.60346157 178.55355456 66.60346157 178.55355456 64.27001953 174.47338867 C62.42988278 172.88093114 62.42988278 172.88093114 60.50463867 171.57348633 C58.79785156 170.30639648 58.79785156 170.30639648 56.79785156 167.30639648 C56.04967232 161.47847395 55.54515182 155.24251571 58.92285156 150.18139648 C62.83308105 145.79191882 66.85461724 144.15388674 72.67285156 143.80639648 C78.09188769 143.99410406 81.80812821 145.65681083 85.79785156 149.30639648 C88.49433071 152.5132262 89.69020036 155.56629447 90.29785156 159.74389648 C89.67747489 164.16408025 88.44583761 167.69550642 85.79785156 171.30639648 C84.77304687 172.05276367 83.74824219 172.79913086 82.69238281 173.56811523 C79.47486165 176.07842368 79.47486165 176.07842368 79.09863281 179.94311523 C79.07819923 181.29322668 79.08308064 182.64390584 79.11035156 183.99389648 C79.07701469 185.42640623 79.03536084 186.85874683 78.98535156 188.29077148 C78.96214844 188.98106445 78.93894531 189.67135742 78.91503906 190.38256836 C78.33319668 199.93448088 73.32390837 208.32812892 66.36035156 214.68139648 C60.70775206 219.20598278 54.35219544 221.43558161 47.13305664 221.41992188 C45.97207962 221.41984634 44.8111026 221.41977081 43.61494446 221.41969299 C41.73515144 221.41195107 41.73515144 221.41195107 39.81738281 221.40405273 C38.53425705 221.40263779 37.25113129 221.40122284 35.92912292 221.39976501 C32.52114915 221.39595054 29.11321813 221.38612939 25.70526123 221.37506104 C22.22636493 221.36482392 18.74746171 221.36026246 15.26855469 221.35522461 C8.44496767 221.34450615 1.62141607 221.32691801 -5.20214844 221.30639648 C-5.20214844 227.24639648 -5.20214844 233.18639648 -5.20214844 239.30639648 C-0.87089844 239.46108398 -0.87089844 239.46108398 3.54785156 239.61889648 C16.67834414 240.27609172 26.82537105 242.04164039 36.79785156 251.30639648 C40.96668867 256.16456886 42.8333744 259.98491291 43.79785156 266.30639648 C44.77544434 266.2802124 45.75303711 266.25402832 46.76025391 266.22705078 C50.43156508 266.13567712 54.10277861 266.07883611 57.77490234 266.03173828 C59.35580416 266.00679023 60.93659299 265.97281843 62.51708984 265.92919922 C80.24892224 265.45253706 80.24892224 265.45253706 87.79785156 271.30639648 C92.02230304 275.86730402 94.94356614 279.92635761 94.89550781 286.31811523 C94.89228516 287.07543945 94.8890625 287.83276367 94.88574219 288.61303711 C94.87736328 289.3987207 94.86898438 290.1844043 94.86035156 290.99389648 C94.85583984 291.79118164 94.85132813 292.5884668 94.84667969 293.40991211 C94.83491007 295.37543905 94.81697505 297.34092733 94.79785156 299.30639648 C98.42785156 299.30639648 102.05785156 299.30639648 105.79785156 299.30639648 C105.79785156 284.78639648 105.79785156 270.26639648 105.79785156 255.30639648 C102.16785156 255.30639648 98.53785156 255.30639648 94.79785156 255.30639648 C94.89066406 257.19358398 94.89066406 257.19358398 94.98535156 259.11889648 C94.97156419 263.01382784 94.97156419 263.01382784 93.61035156 265.30639648 C91.13259314 266.67343561 89.58629237 266.72466261 86.79785156 266.30639648 C85.16685486 265.15124512 85.16685486 265.15124512 83.79785156 263.30639648 C83.41017151 260.65002441 83.41017151 260.65002441 83.39379883 257.41381836 C83.37477257 255.59678406 83.37477257 255.59678406 83.35536194 253.74304199 C83.3597654 251.77893372 83.3597654 251.77893372 83.36425781 249.77514648 C83.35969709 248.41898334 83.35439184 247.0628225 83.34837341 245.70666504 C83.33943946 242.86530158 83.34186878 240.02421915 83.35180664 237.18286133 C83.36330369 233.54073939 83.34307677 229.89958593 83.3138895 226.25759125 C83.295549 223.45743648 83.2958154 220.65751481 83.30152702 217.85731506 C83.30175509 215.86142856 83.28483843 213.86556404 83.26771545 211.86975098 C83.28178688 210.05271667 83.28178688 210.05271667 83.29614258 208.19897461 C83.29639183 206.59705261 83.29639183 206.59705261 83.29664612 204.96276855 C83.79785156 202.30639648 83.79785156 202.30639648 85.69755554 200.45939636 C88.07115107 199.15636321 89.43737262 198.95581479 92.12597656 199.01342773 C92.92519531 199.0230957 93.72441406 199.03276367 94.54785156 199.04272461 C95.37285156 199.06786133 96.19785156 199.09299805 97.04785156 199.11889648 C97.88832031 199.13243164 98.72878906 199.1459668 99.59472656 199.15991211 C101.66271094 199.19516184 103.73036427 199.24896628 105.79785156 199.30639648 C105.76304687 198.40276367 105.72824219 197.49913086 105.69238281 196.56811523 C105.6653125 195.38862305 105.63824219 194.20913086 105.61035156 192.99389648 C105.57554687 191.82213867 105.54074219 190.65038086 105.50488281 189.44311523 C105.79785156 186.30639648 105.79785156 186.30639648 107.12207031 184.41186523 C109.73868137 182.68575584 111.75092763 182.92553099 114.79785156 183.30639648 C117.02039235 184.92959353 117.7162337 185.81986196 118.17537498 188.55686188 C118.17650606 189.44249565 118.17763714 190.32812943 118.17880249 191.24060059 C118.18726196 192.25850174 118.19572144 193.27640289 118.20443726 194.32514954 C118.19532822 195.99906013 118.19532822 195.99906013 118.18603516 197.70678711 C118.19392059 199.47048897 118.19392059 199.47048897 118.20196533 201.26982117 C118.2129166 204.49507337 118.21033588 207.71995702 118.20082808 210.94520378 C118.19323727 214.31906794 118.20027547 217.69290734 118.20498657 221.06677246 C118.21044583 226.73279242 118.20324812 232.39869511 118.18896484 238.06469727 C118.17263789 244.61710525 118.17792628 251.1692332 118.19444406 257.72163439 C118.20805415 263.3454988 118.20998096 268.96927887 118.20212805 274.59315443 C118.19744886 277.95288146 118.1968333 281.31247684 118.20673752 284.67219543 C118.21433007 288.41699334 118.20277781 292.16124852 118.18603516 295.90600586 C118.19210785 297.02194626 118.19818054 298.13788666 118.20443726 299.28764343 C118.19597778 300.30554459 118.18751831 301.32344574 118.17880249 302.37219238 C118.17767141 303.25782616 118.17654034 304.14345993 118.17537498 305.05593109 C117.70281694 307.87291003 117.05284833 308.58491161 114.79785156 310.30639648 C112.37981874 310.67899197 112.37981874 310.67899197 109.44676685 310.67553997 C108.32959052 310.68151312 107.21241418 310.68748626 106.06138402 310.69364041 C104.82891004 310.68490189 103.59643606 310.67616336 102.32661438 310.66716003 C101.0213979 310.66972331 99.71618142 310.67228658 98.37141293 310.67492753 C94.74098965 310.68165326 91.11083058 310.6696114 87.48044097 310.65459335 C83.56839166 310.64166717 79.65635787 310.64602002 75.74429321 310.64830017 C68.96388008 310.64987508 62.18355339 310.64044323 55.403162 310.62358665 C45.59980536 310.59923059 35.79649061 310.59139487 25.99310698 310.58762268 C10.08872404 310.58105286 -5.8156128 310.56107732 -21.7199707 310.53271484 C-37.17179127 310.50518799 -52.62359933 310.48394769 -68.07543945 310.47119141 C-69.02750287 310.47040324 -69.97956629 310.46961507 -70.96048012 310.46880301 C-75.73658686 310.46488797 -80.5126937 310.46109683 -85.2888006 310.4573673 C-124.9266158 310.42625488 -164.56437835 310.37318203 -204.20214844 310.30639648 C-204.20214844 313.93639648 -204.20214844 317.56639648 -204.20214844 321.30639648 C-202.56602695 321.30363111 -200.92990545 321.30086573 -199.24420452 321.29801655 C-160.4366093 321.23309226 -121.62902074 321.18359964 -82.82138247 321.1532005 C-78.0484834 321.14944822 -73.27558445 321.14556527 -68.50268555 321.14160156 C-67.0773427 321.14042117 -67.0773427 321.14042117 -65.62320504 321.13921692 C-50.22194794 321.1261505 -34.82072431 321.10248987 -19.41948708 321.0749381 C-3.62529136 321.04691825 12.16888678 321.03022748 27.96310633 321.024131 C37.71492958 321.02000744 47.46665822 321.00696722 57.21845236 320.98264708 C63.89875918 320.96683209 70.57901684 320.96198648 77.25934104 320.96589235 C81.11791037 320.96782053 84.976314 320.96479232 88.83485413 320.94878006 C93.01153853 320.93157343 97.18786671 320.93740468 101.36457825 320.94563293 C102.59316128 320.93689441 103.82174431 320.92815589 105.08755714 320.91915256 C106.20125008 320.9251257 107.31494301 320.93109885 108.46238422 320.937253 C109.42725358 320.93611384 110.39212294 320.93497468 111.38623077 320.933801 C113.79785156 321.30639648 113.79785156 321.30639648 115.60788077 322.64196795 C117.45786674 325.2295688 117.18330121 327.22279931 116.79785156 330.30639648 C115.61516571 331.97030127 115.61516571 331.97030127 113.79785156 333.30639648 C111.33838654 333.68244398 111.33838654 333.68244398 108.3458252 333.68391991 C107.20611519 333.69174315 106.06640518 333.69956639 104.89215851 333.7076267 C103.63449425 333.70093454 102.37682999 333.69424237 101.08105469 333.68734741 C99.73591481 333.69080225 98.39077776 333.69556564 97.04564667 333.70152915 C93.3412269 333.71409288 89.63703796 333.70784454 85.93261719 333.69857049 C81.94073902 333.69180222 77.94890144 333.70225015 73.95703125 333.71051025 C66.13377578 333.72387361 58.31060649 333.7209583 50.4873476 333.71227233 C44.13112491 333.7055064 37.77492643 333.70457433 31.41870117 333.70784378 C30.06345848 333.70853333 30.06345848 333.70853333 28.68083715 333.70923681 C26.84559694 333.71019595 25.01035674 333.71116859 23.17511654 333.71215458 C5.95247987 333.7207161 -11.27010895 333.71086241 -28.49273777 333.69475348 C-43.2813153 333.68134961 -58.06982219 333.68367749 -72.85839844 333.69750977 C-90.01799432 333.71355215 -107.17754824 333.71989205 -124.33715057 333.71067297 C-126.16576639 333.70971729 -127.99438222 333.70877418 -129.82299805 333.70784378 C-130.72279089 333.70738095 -131.62258374 333.70691813 -132.54964304 333.70644128 C-138.90069998 333.70384735 -145.25173037 333.70823103 -151.6027832 333.71528244 C-159.33906804 333.72368275 -167.07526151 333.72144835 -174.81153584 333.70544021 C-178.76124921 333.69753761 -182.7108101 333.69449952 -186.66052246 333.70438766 C-190.2726924 333.71329422 -193.88456776 333.70846908 -197.49671078 333.69245501 C-199.42995922 333.68748968 -201.36322794 333.69733979 -203.29645538 333.7076267 C-204.43616539 333.69980346 -205.5758754 333.69198022 -206.75012207 333.68391991 C-207.73766731 333.68343285 -208.72521255 333.68294579 -209.74268341 333.68244398 C-212.20214844 333.30639648 -212.20214844 333.30639648 -214.01863861 331.96848547 C-215.89541394 329.33279328 -215.59149032 326.92930308 -215.60058594 323.73999023 C-215.60445312 322.4502832 -215.60832031 321.16057617 -215.61230469 319.83178711 C-215.60602051 319.16123291 -215.59973633 318.49067871 -215.59326172 317.79980469 C-215.57717505 315.74729172 -215.59312978 313.69673964 -215.61230469 311.64428711 C-215.6084375 310.35586914 -215.60457031 309.06745117 -215.60058594 307.73999023 C-215.59720215 306.5546167 -215.59381836 305.36924316 -215.59033203 304.14794922 C-215.46223145 303.21023682 -215.33413086 302.27252441 -215.20214844 301.30639648 C-212.01023591 299.1784548 -211.12893859 299.04540105 -207.45532227 298.98754883 C-206.01416801 298.95774429 -206.01416801 298.95774429 -204.54389954 298.92733765 C-202.99221321 298.91001083 -202.99221321 298.91001083 -201.40917969 298.89233398 C-200.34801437 298.87296783 -199.28684906 298.85360168 -198.19352722 298.83364868 C-194.80064966 298.77381816 -191.40773824 298.72745327 -188.01464844 298.68139648 C-185.71580543 298.64321993 -183.41697677 298.6041684 -181.11816406 298.56420898 C-175.47961949 298.4681138 -169.84098864 298.38307642 -164.20214844 298.30639648 C-164.79310303 297.80068115 -165.38405762 297.29496582 -165.99291992 296.77392578 C-170.55448516 292.80716519 -174.64001115 288.95813886 -178.26464844 284.11889648 C-179.01875 283.1353418 -179.77285156 282.15178711 -180.54980469 281.13842773 C-182.29948133 278.13957298 -182.68580935 276.70381946 -182.20214844 273.30639648 C-181.01464844 271.49389648 -181.01464844 271.49389648 -179.20214844 270.30639648 C-176.83105469 269.98217773 -176.83105469 269.98217773 -174.20214844 270.30639648 C-172.20996094 271.99389648 -172.20996094 271.99389648 -170.32714844 274.30639648 C-169.63492188 275.12881836 -168.94269531 275.95124023 -168.22949219 276.79858398 C-166.98431178 278.33886496 -165.7457554 279.88456493 -164.51855469 281.43920898 C-157.10500748 290.50613722 -146.78166703 296.42953044 -135.20214844 298.30639648 C-132.86461925 298.40598982 -130.52460058 298.4524565 -128.1849823 298.46461487 C-127.14339359 298.47202183 -127.14339359 298.47202183 -126.08076268 298.47957844 C-123.76079399 298.49490072 -121.44085285 298.5032997 -119.12084961 298.51171875 C-117.45510619 298.52130142 -115.78936519 298.53131173 -114.12362671 298.54171753 C-109.60548729 298.5687305 -105.08733747 298.58975959 -100.56916213 298.60971951 C-95.84591896 298.63160133 -91.12270774 298.65897928 -86.39949036 298.68577576 C-77.45714262 298.73567295 -68.51477711 298.78062281 -59.57239467 298.82379812 C-49.39107286 298.87319591 -39.20978312 298.92810461 -29.02849233 298.98347771 C-8.08640758 299.09725211 12.8557078 299.20410105 33.79785156 299.30639648 C33.77830702 294.89469541 33.72621962 290.48487631 33.64526367 286.07397461 C33.62221113 284.57668773 33.6077181 283.07924162 33.60229492 281.58178711 C33.6863588 269.51169478 33.6863588 269.51169478 27.79785156 259.30639648 C22.91568002 254.66833352 18.13456395 253.17194542 11.54003906 252.37670898 C10.29150146 252.22314941 9.04296387 252.06958984 7.7565918 251.91137695 C6.39536733 251.75119405 5.03411994 251.59120584 3.67285156 251.43139648 C2.25750982 251.2601674 0.84222759 251.08844579 -0.57299805 250.91625977 C-12.72751352 249.4465155 -24.89252652 248.05888265 -37.06005859 246.70141602 C-38.44208032 246.54651061 -39.82407943 246.39140336 -41.20605469 246.23608398 C-41.87286255 246.16136871 -42.53967041 246.08665344 -43.22668457 246.00967407 C-46.59538059 245.62604502 -49.95667804 245.21153939 -53.31494141 244.74487305 C-53.98331528 244.65215118 -54.65168915 244.55942932 -55.34031677 244.46389771 C-57.16598647 244.20694367 -58.99063019 243.94272932 -60.81518555 243.67797852 C-67.1125808 242.98709438 -70.87953665 242.84050974 -76.20214844 246.30639648 C-81.75514701 248.78388815 -87.35204061 250.65631111 -93.20214844 252.30639648 C-93.18643799 253.25482422 -93.17072754 254.20325195 -93.15454102 255.18041992 C-93.10334737 258.70651739 -93.06576719 262.23221871 -93.03735352 265.75854492 C-93.02228693 267.28334798 -93.00182968 268.80810785 -92.97583008 270.33276367 C-92.93935137 272.52720815 -92.9224013 274.72107864 -92.90917969 276.91577148 C-92.89346924 278.23544922 -92.87775879 279.55512695 -92.86157227 280.91479492 C-93.21740981 284.45837572 -93.61955614 285.89602726 -96.20214844 288.30639648 C-99.26464844 288.68139648 -99.26464844 288.68139648 -102.20214844 288.30639648 C-104.20214844 286.30639648 -104.20214844 286.30639648 -104.39746094 284.14233398 C-104.37425781 283.33022461 -104.35105469 282.51811523 -104.32714844 281.68139648 C-104.30910156 280.86413086 -104.29105469 280.04686523 -104.27246094 279.20483398 C-104.24925781 278.57834961 -104.22605469 277.95186523 -104.20214844 277.30639648 C-105.10835938 277.32959961 -106.01457031 277.35280273 -106.94824219 277.37670898 C-125.31845245 277.64886025 -139.78075768 272.23026454 -153.26464844 259.33374023 C-157.99757044 254.18880047 -161.61385705 248.28094616 -165.20214844 242.30639648 C-165.84216797 241.24098633 -165.84216797 241.24098633 -166.49511719 240.15405273 C-168.01247042 237.56304884 -169.24980897 235.16341488 -170.20214844 232.30639648 C-172.1188151 231.13972982 -172.1188151 231.13972982 -174.20214844 230.30639648 C-174.86214844 229.97639648 -175.52214844 229.64639648 -176.20214844 229.30639648 C-181.2616622 228.76671502 -184.04035496 229.34179996 -188.08300781 232.50561523 C-188.85354492 233.14950195 -188.85354492 233.14950195 -189.63964844 233.80639648 C-190.18041016 234.2356543 -190.72117187 234.66491211 -191.27832031 235.10717773 C-192.59837757 236.15855077 -193.90204407 237.23044804 -195.20214844 238.30639648 C-194.61152228 241.29324253 -193.75999302 243.19732085 -191.88183594 245.58374023 C-191.429375 246.17993164 -190.97691406 246.77612305 -190.51074219 247.39038086 C-189.55396481 248.62741319 -188.5903793 249.85920921 -187.62011719 251.08569336 C-184.1856838 255.64689643 -184.1856838 255.64689643 -184.27246094 259.12280273 C-185.20214844 261.30639648 -185.20214844 261.30639648 -187.20214844 263.30639648 C-190.07397461 263.71630859 -190.07397461 263.71630859 -193.20214844 263.30639648 C-195.33618164 261.39453125 -195.33618164 261.39453125 -197.25292969 258.74780273 C-197.95095703 257.80485352 -198.64898437 256.8619043 -199.36816406 255.89038086 C-200.07650391 254.89329102 -200.78484375 253.89620117 -201.51464844 252.86889648 C-202.60616211 251.3790625 -202.60616211 251.3790625 -203.71972656 249.85913086 C-205.06050519 248.02852444 -206.39311742 246.19189085 -207.71508789 244.34765625 C-209.04330325 242.4135186 -209.04330325 242.4135186 -210.20214844 241.30639648 C-210.57714844 238.52514648 -210.57714844 238.52514648 -210.20214844 235.30639648 C-208.07714844 232.96264648 -208.07714844 232.96264648 -205.20214844 230.80639648 C-204.19667969 230.04069336 -203.19121094 229.27499023 -202.15527344 228.48608398 C-200.69347656 227.40713867 -200.69347656 227.40713867 -199.20214844 226.30639648 C-198.08066406 225.41307617 -198.08066406 225.41307617 -196.93652344 224.50170898 C-190.30462689 219.25363337 -184.69984069 216.75815827 -176.20214844 217.30639648 C-173.20214844 217.80639648 -173.20214844 217.80639648 -171.20214844 218.30639648 C-171.30527344 217.31639648 -171.40839844 216.32639648 -171.51464844 215.30639648 C-171.56639923 211.0455813 -169.72544765 208.59970332 -167.19824219 205.29858398 C-165.8307721 202.56364382 -166.31505083 201.18946372 -167.20214844 198.30639648 C-167.86463489 196.79518242 -168.55335798 195.29526254 -169.26464844 193.80639648 C-172.10785862 186.78199485 -172.73193291 179.44051993 -170.07324219 172.25561523 C-168.88242403 169.85701569 -167.63227795 167.56906568 -166.20214844 165.30639648 C-167.05421875 165.05760742 -167.90628906 164.80881836 -168.78417969 164.55249023 C-186.98134777 157.91832267 -200.76748709 141.68239409 -208.78027344 124.57983398 C-209.24949219 123.49959961 -209.71871094 122.41936523 -210.20214844 121.30639648 C-210.69199219 120.20553711 -211.18183594 119.10467773 -211.68652344 117.97045898 C-215.08527821 109.01531298 -215.66327957 100.61562945 -215.70214844 91.05639648 C-215.70843262 89.88463867 -215.7147168 88.71288086 -215.72119141 87.50561523 C-215.56414559 76.6862261 -213.56416717 66.84959734 -208.51464844 57.24389648 C-208.1650708 56.56689697 -207.81549316 55.88989746 -207.45532227 55.19238281 C-196.88866996 35.22683422 -180.34449801 20.7972742 -158.8815918 13.51953125 C-151.53821488 11.27514798 -144.66528775 10.79978551 -137.01464844 10.86889648 C-135.82718018 10.87719482 -134.63971191 10.88549316 -133.41625977 10.89404297 C-115.87740699 11.23001799 -99.48140557 16.21004721 -85.72558594 27.53686523 C-84.20214844 29.30639648 -84.20214844 29.30639648 -83.45214844 33.11889648 C-84.20214844 36.30639648 -84.20214844 36.30639648 -87.20214844 38.30639648 C-91.03656938 37.99047489 -93.43257974 36.71952196 -96.51464844 34.49389648 C-112.21572033 23.76184245 -131.63631681 20.58822962 -150.34667969 23.96655273 C-169.03161376 28.41168123 -183.80565139 39.29243732 -194.20214844 55.30639648 C-203.29521925 70.85554758 -206.23590714 90.11509111 -202.36621094 107.81030273 C-197.20686296 127.04624819 -185.20174449 142.14381901 -168.20214844 152.30639648 C-162.05637029 155.55451289 -158.11828432 156.71306819 -151.20214844 155.30639648 C-144.72971676 154.82096411 -139.04965737 154.60649203 -133.07714844 157.36889648 C-127.13209296 160.09492192 -121.28665892 159.80874517 -115.16308594 157.55639648 C-114.28523438 157.15420898 -114.28523438 157.15420898 -113.38964844 156.74389648 C-109.68948074 155.0751934 -108.23109973 154.79992582 -104.20214844 155.30639648 C-100.59894183 156.8910313 -97.22864901 158.83148816 -93.82714844 160.80639648 C-92.9003125 161.33104492 -91.97347656 161.85569336 -91.01855469 162.39624023 C-88.73968338 163.68838376 -86.4681799 164.99190755 -84.20214844 166.30639648 C-84.41871094 164.99928711 -84.41871094 164.99928711 -84.63964844 163.66577148 C-85.22880392 159.88535712 -85.73512892 156.10380111 -86.20214844 152.30639648 C-86.33878906 151.23389648 -86.47542969 150.16139648 -86.61621094 149.05639648 C-87.02500506 143.24243564 -86.52020508 140.04822782 -82.70214844 135.55639648 C-81.61353516 134.35563477 -81.61353516 134.35563477 -80.50292969 133.13061523 C-77.7469845 129.74768082 -75.83069359 126.26014266 -73.88964844 122.36889648 C-73.56480469 121.73693359 -73.23996094 121.1049707 -72.90527344 120.45385742 C-68.38228679 111.20613265 -66.67544304 102.11676878 -66.82714844 91.86889648 C-66.83875 90.85754639 -66.85035156 89.84619629 -66.86230469 88.80419922 C-67.12613528 76.76983827 -70.17096429 60.33758064 -79.20214844 51.30639648 C-78.48214844 44.58639648 -78.48214844 44.58639648 -77.20214844 43.30639648 C-74.38964844 42.99389648 -74.38964844 42.99389648 -71.20214844 43.30639648 C-61.49648511 51.38487759 -57.30765951 66.29266274 -55.20214844 78.30639648 C-54.95983505 82.3247602 -54.97107836 86.34392236 -54.95214844 90.36889648 C-54.92121094 91.9728125 -54.92121094 91.9728125 -54.88964844 93.60913086 C-54.80927336 110.23672455 -60.50788645 129.45825732 -72.41699219 141.55639648 C-76.36405142 147.63676782 -73.99491769 155.61970928 -72.70214844 162.36889648 C-69.86228417 177.27178779 -69.86228417 177.27178779 -72.88964844 181.86889648 C-75.20214844 183.30639648 -75.20214844 183.30639648 -77.49511719 183.09545898 C-80.63791796 182.17937564 -83.03346513 180.82447403 -85.82714844 179.11889648 C-96.99982147 171.35089438 -96.99982147 171.35089438 -109.57714844 168.61889648 C-110.34800781 168.6975293 -111.11886719 168.77616211 -111.91308594 168.85717773 C-114.29975721 169.32555179 -116.08812589 170.12389529 -118.20214844 171.30639648 C-117.87859375 172.00120117 -117.55503906 172.69600586 -117.22167969 173.41186523 C-115.01544668 179.67553824 -115.25247138 187.45379583 -117.38964844 193.74389648 C-119.31654949 197.53125372 -121.40989833 200.13681528 -124.20214844 203.30639648 C-124.20214844 203.96639648 -124.20214844 204.62639648 -124.20214844 205.30639648 C-123.33589844 205.82202148 -122.46964844 206.33764648 -121.57714844 206.86889648 C-117.74018161 209.25108916 -115.81195243 212.58169154 -113.49902344 216.38061523 C-112.34008507 218.44246236 -112.34008507 218.44246236 -110.20214844 219.30639648 C-102.52724122 220.04912944 -95.67604502 218.70453575 -89.20214844 214.30639648 C-88.11385228 212.05902068 -87.9030597 210.25081052 -87.65136719 207.77514648 C-86.57248642 201.84599305 -82.35407481 196.93934829 -77.65917969 193.37670898 C-72.07400505 189.92825551 -67.74187982 188.17624565 -61.15820312 188.19287109 C-60.15746765 188.19294662 -59.15673218 188.19302216 -58.12567139 188.19309998 C-56.51610565 188.2008419 -56.51610565 188.2008419 -54.87402344 188.20874023 C-53.21780975 188.21086266 -53.21780975 188.21086266 -51.52813721 188.21302795 C-48.00278002 188.21862391 -44.47748642 188.2311757 -40.95214844 188.24389648 C-38.56152435 188.24891201 -36.17089928 188.25347482 -33.78027344 188.25756836 C-27.92087395 188.26859202 -22.06152197 188.28585391 -16.20214844 188.30639648 C-16.20214844 183.02639648 -16.20214844 177.74639648 -16.20214844 172.30639648 C-18.84214844 172.30639648 -21.48214844 172.30639648 -24.20214844 172.30639648 C-31.03443927 171.31260873 -35.80421593 167.46288712 -40.20214844 162.30639648 C-42.7534911 157.26417877 -43.66923153 153.105566 -43.67089844 147.43139648 C-43.67851196 146.7032373 -43.68612549 145.97507813 -43.69396973 145.22485352 C-43.70470685 143.69542852 -43.70765002 142.1659306 -43.703125 140.63647461 C-43.70215064 138.31165409 -43.74387816 135.99011843 -43.78808594 133.66577148 C-43.8873219 121.26119305 -43.8873219 121.26119305 -40.81542969 116.86108398 C-36.9952224 113.12653157 -34.38385384 111.33027599 -29.07714844 110.80639648 C-25.37695111 110.64606923 -25.37695111 110.64606923 -23.49194336 109.05322266 C-21.87858985 106.86818681 -21.78100396 105.55629118 -21.69042969 102.85717773 C-21.65498047 102.00961914 -21.61953125 101.16206055 -21.58300781 100.28881836 C-21.54916992 98.96720703 -21.54916992 98.96720703 -21.51464844 97.61889648 C-21.48048828 96.7262207 -21.44632813 95.83354492 -21.41113281 94.91381836 C-21.32869196 92.71146977 -21.25953293 90.50951711 -21.20214844 88.30639648 C-22.29914063 88.3644043 -23.39613281 88.42241211 -24.52636719 88.48217773 C-25.98075158 88.52909336 -27.43518218 88.57459159 -28.88964844 88.61889648 C-29.61087891 88.66079102 -30.33210937 88.70268555 -31.07519531 88.74584961 C-35.29864155 88.84227532 -36.74041824 88.68029425 -40.15917969 85.91186523 C-42.93712896 82.36905039 -43.33191829 80.71725644 -43.37915039 76.29345703 C-43.39840324 74.72624153 -43.39840324 74.72624153 -43.41804504 73.12736511 C-43.42543198 71.99406265 -43.43281891 70.86076019 -43.44042969 69.69311523 C-43.44850143 68.53141312 -43.45657318 67.369711 -43.46488953 66.17280579 C-43.4787387 63.71059669 -43.48945711 61.24836832 -43.49731445 58.78613281 C-43.51453035 55.01973108 -43.55841101 51.25420616 -43.60253906 47.48803711 C-43.61266541 45.09806962 -43.62118169 42.70809465 -43.62792969 40.31811523 C-43.64543777 39.19088547 -43.66294586 38.0636557 -43.6809845 36.90226746 C-43.65925785 29.07278393 -43.65925785 29.07278393 -41.30053711 25.11816406 C-37.41090485 21.75982072 -33.99500376 22.1886874 -29.07714844 22.24389648 C-28.32304687 22.2484082 -27.56894531 22.25291992 -26.79199219 22.25756836 C-24.92867717 22.26936149 -23.06540289 22.28729707 -21.20214844 22.30639648 C-21.24597656 21.23647461 -21.28980469 20.16655273 -21.33496094 19.06420898 C-21.1340646 13.38002442 -18.61863367 9.75378307 -14.67480469 5.75952148 C-9.80902635 1.54994226 -6.40458761 0.06172752 0 0 Z " fill="#50418E" transform="translate(232.2021484375,15.693603515625)"/>
<path d="M0 0 C3.92694106 3.13005135 6.13267852 5.94775323 8.0546875 10.67578125 C8.3828125 14.11328125 8.3828125 14.11328125 8.3046875 17.67578125 C8.28921875 18.85140625 8.27375 20.02703125 8.2578125 21.23828125 C8.0546875 24.67578125 8.0546875 24.67578125 7.4765625 27.98828125 C6.79412601 30.6384158 6.79412601 30.6384158 8.0546875 32.67578125 C8.12419291 34.21602121 8.13921107 35.75913113 8.1171875 37.30078125 C8.10816406 38.11804688 8.09914062 38.9353125 8.08984375 39.77734375 C8.07824219 40.40382812 8.06664062 41.0303125 8.0546875 41.67578125 C8.6940625 41.96453125 9.3334375 42.25328125 9.9921875 42.55078125 C12.0546875 43.67578125 12.0546875 43.67578125 13.0546875 45.67578125 C15.52268797 44.5240477 17.10252315 43.6279456 19.0546875 41.67578125 C19.72656334 39.42955226 20.29658856 37.15212316 20.8046875 34.86328125 C21.23007813 33.02830078 21.23007813 33.02830078 21.6640625 31.15625 C22.08375504 27.41678949 21.58986277 26.01100357 20.0546875 22.67578125 C19.15551527 16.48532629 19.23073488 11.12951382 22.6171875 5.73828125 C26.1130918 1.19525467 29.95617959 -2.29138278 35.4921875 -4.13671875 C44.94372458 -4.82829463 52.57364896 -4.35981293 60.1640625 1.78125 C67.50033946 9.13268455 70.00557306 17.89200602 70.3671875 27.98828125 C70.13660687 38.27794179 67.55390909 47.77319377 60.45703125 55.390625 C55.25969667 60.23278865 49.72779834 62.72992658 42.6171875 63.11328125 C34.74230679 62.81457888 28.69094413 58.87847968 23.0546875 53.67578125 C22.9103125 54.27390625 22.7659375 54.87203125 22.6171875 55.48828125 C22.1674436 57.23728529 21.62576409 58.96255148 21.0546875 60.67578125 C20.86104377 63.8601448 20.71003661 67.03768945 20.625 70.2265625 C20.48793363 73.12208959 20.38045641 75.20459665 18.70703125 77.625 C16.13491122 79.26069808 14.01780753 78.99100679 11.0546875 78.67578125 C8.35593051 75.97702426 8.76259915 74.3807649 8.6171875 70.61328125 C8.26886344 65.00899599 7.62370593 59.74006638 5.0546875 54.67578125 C4.0646875 54.18078125 4.0646875 54.18078125 3.0546875 53.67578125 C2.7246875 54.66578125 2.3946875 55.65578125 2.0546875 56.67578125 C0.49609375 57.80859375 0.49609375 57.80859375 -1.3828125 58.80078125 C-2.00027344 59.13335937 -2.61773437 59.4659375 -3.25390625 59.80859375 C-9.40366808 62.96158942 -17.81962173 62.72137616 -24.50390625 61.02734375 C-31.45211447 57.85798562 -35.441379 52.35077544 -38.2578125 45.42578125 C-41.92178527 35.46966958 -43.10013148 22.49065202 -38.84765625 12.41796875 C-35.21800333 5.41006745 -30.19248231 -0.20063384 -23.0703125 -3.76171875 C-14.69190522 -5.26983206 -7.16560478 -4.87779121 0 0 Z " fill="#4F408E" transform="translate(79.9453125,75.32421875)"/>
<path d="M0 0 C3.63 0 7.26 0 11 0 C11.08636719 0.86882812 11.17273438 1.73765625 11.26171875 2.6328125 C12.11570267 9.63704762 12.67803985 14.19725548 18 19 C21.60178588 21.40119059 24.50866369 21.43771322 28.6875 21.625 C29.38939453 21.66367188 30.09128906 21.70234375 30.81445312 21.7421875 C32.54254655 21.8362334 34.27123675 21.9191968 36 22 C36 25.96 36 29.92 36 34 C35.09757568 34.00410889 34.19515137 34.00821777 33.26538086 34.01245117 C29.88943529 34.03955936 26.51526834 34.08877331 23.13989258 34.15258789 C21.68427583 34.17566218 20.22849462 34.19013868 18.77270508 34.19555664 C9.33287424 33.94982534 9.33287424 33.94982534 0.69140625 37.11328125 C-5.76230774 44.03533442 -5.50644652 50.83826935 -5.6875 59.9375 C-5.72166016 61.09830078 -5.75582031 62.25910156 -5.79101562 63.45507812 C-5.87306285 66.30328882 -5.94235536 69.15120839 -6 72 C-7.60230933 72.06601838 -9.2054031 72.11318556 -10.80859375 72.15234375 C-11.70118896 72.18062256 -12.59378418 72.20890137 -13.51342773 72.23803711 C-16 72 -16 72 -19.0625 69.5625 C-19.701875 68.716875 -20.34125 67.87125 -21 67 C-21.33 66.67 -21.66 66.34 -22 66 C-22.21809756 61.74251574 -22.18579161 57.47954276 -22.18530273 53.21704102 C-22.18748743 51.07483 -22.20563512 48.93313529 -22.22460938 46.79101562 C-22.22754359 45.4348976 -22.2295282 44.07877712 -22.23046875 42.72265625 C-22.23457764 41.48265869 -22.23868652 40.24266113 -22.24291992 38.96508789 C-22 36 -22 36 -20 34 C-18.046875 33.5078125 -18.046875 33.5078125 -15.75 33.125 C-9.97048274 31.9097243 -6.38022294 29.92672005 -2.87890625 25.0390625 C-0.24570468 20.26448049 -0.33035916 15.40638383 -0.25 10.0625 C-0.20552734 8.6074707 -0.20552734 8.6074707 -0.16015625 7.12304688 C-0.08999135 4.74913452 -0.04266964 2.3745657 0 0 Z " fill="#FAFAFC" transform="translate(222,104)"/>
<path d="M0 0 C2.02910711 0.25327449 4.04962145 0.57730068 6.0625 0.9375 C7.16722656 1.13214844 8.27195312 1.32679688 9.41015625 1.52734375 C10.69212891 1.76130859 10.69212891 1.76130859 12 2 C11.6803125 2.72960937 11.360625 3.45921875 11.03125 4.2109375 C9.04519472 9.58231427 9.0059075 14.54635364 11.16796875 19.8828125 C17.17799709 31.22307164 25.45844075 39.26843403 37.80859375 43.4453125 C42.48410708 44.62877577 47.23210885 45.29565244 52 46 C52 49.96 52 53.92 52 58 C43.63951477 58.266824 36.78088628 58.12761115 29 55 C27.78570312 54.52433594 27.78570312 54.52433594 26.546875 54.0390625 C13.27082799 48.15251335 4.62213635 37.47998925 -0.53515625 24.1484375 C-2.7512171 18.02313729 -4.44676666 12.59778618 -4 6 C-2.84360194 3.68720389 -1.82590172 1.82590172 0 0 Z " fill="#F9F8FB" transform="translate(76,224)"/>
<path d="M0 0 C4.4491303 2.59949186 7.60988789 5.31591127 9.7734375 10.09375 C10.6157682 16.02879272 10.27699388 21.07198586 6.7734375 26.09375 C2.57002668 30.32013028 -1.06601669 32.23192147 -7.0390625 32.40625 C-11.92839538 32.32807753 -14.55179491 31.51213845 -18.2265625 28.09375 C-22.13994095 23.49527081 -24.02644735 19.35578375 -23.6484375 13.265625 C-22.69993474 8.38259229 -20.31443091 5.10201829 -16.6640625 1.71875 C-11.66255041 -1.61559139 -5.60464762 -2.28118991 0 0 Z " fill="#FBFBFC" transform="translate(95.2265625,182.90625)"/>
<path d="M0 0 C5.36673869 1.96092375 8.24198794 4.68769402 10.91015625 9.71484375 C14.48957836 17.855948 13.76426657 26.54745052 10.98828125 34.8359375 C9.01548605 39.15581316 5.85097137 41.43268575 2 44 C-0.55859375 44.30078125 -0.55859375 44.30078125 -3.4375 44.3125 C-4.38496094 44.32925781 -5.33242187 44.34601563 -6.30859375 44.36328125 C-9.37125309 43.94988891 -10.72618559 43.03729471 -13 41 C-12.73828125 39.1328125 -12.73828125 39.1328125 -12 37 C-10.29296875 35.8046875 -10.29296875 35.8046875 -8.1875 34.875 C-7.50042969 34.56304687 -6.81335938 34.25109375 -6.10546875 33.9296875 C-5.41066406 33.62289062 -4.71585938 33.31609375 -4 33 C-2.66345061 32.33980462 -1.32912559 31.67501659 0 31 C0 28.69 0 26.38 0 24 C-4.01804691 23.15901344 -7.01803543 22.94595055 -11 24 C-11.28875 23.0925 -11.5775 22.185 -11.875 21.25 C-12.83432035 18.14283493 -12.83432035 18.14283493 -14.125 16.0625 C-15.47095549 12.88989062 -15.35827341 10.40359738 -15 7 C-11.07922131 0.91603306 -7.12259688 -0.8649833 0 0 Z " fill="#F9F8FB" transform="translate(126,82)"/>
<path d="M0 0 C2.82852108 2.08114762 4.61908759 3.72591884 5.4609375 7.203125 C5.63705052 11.99019712 4.73437092 15.03906821 1.921875 18.9765625 C1.22608046 21.16786784 1.22608046 21.16786784 0.921875 22.9765625 C-1.06380208 22.65104167 -3.04947917 22.32552083 -5.03515625 22 C-7.39568324 21.78078402 -7.39568324 21.78078402 -10.078125 23.9765625 C-10.4144443 27.68901924 -10.4144443 27.68901924 -9.078125 30.9765625 C-5.25968846 33.17720211 -1.25829646 34.60839175 2.921875 35.9765625 C2.921875 39.9765625 2.921875 39.9765625 1.25390625 41.69140625 C-3.01367564 44.04322274 -7.3634197 43.79013258 -12.078125 42.9765625 C-16.96197152 40.49504048 -19.4441376 36.98919861 -21.48486328 31.93676758 C-22.52330819 28.50562596 -22.56571445 25.16432468 -22.515625 21.6015625 C-22.50877686 20.85495361 -22.50192871 20.10834473 -22.49487305 19.33911133 C-22.28286449 12.04903438 -20.83350071 6.66473393 -15.515625 1.4765625 C-10.67895256 -1.49985131 -5.20383821 -2.5627925 0 0 Z " fill="#FAFAFC" transform="translate(72.078125,83.0234375)"/>
<path d="M0 0 C4.16372198 -0.09218573 8.32386084 -0.17169966 12.48779297 -0.21972656 C13.90197795 -0.23975843 15.31608097 -0.26699248 16.72998047 -0.30175781 C18.77071419 -0.35065489 20.8103469 -0.37305123 22.8515625 -0.390625 C24.68968506 -0.4220459 24.68968506 -0.4220459 26.56494141 -0.45410156 C30.68612946 0.09070368 32.78866671 1.4063434 36 4 C38 7 38 7 38 22 C25.46 22 12.92 22 0 22 C0 14.74 0 7.48 0 0 Z " fill="#FDFDFE" transform="translate(278,293)"/>
<path d="M0 0 C4.78029991 1.62044065 5.63820147 3.79114239 8.19140625 7.94921875 C10.53599815 11.55487053 12.60011477 13.76112428 16.6875 15.25 C26.99350114 17.14241708 34.54907319 14.65874521 43.60864258 10.0090332 C49.07231009 7.23590535 49.07231009 7.23590535 52.5859375 7.31640625 C54.6875 8.25 54.6875 8.25 56.6875 11.25 C56.79296875 14.171875 56.79296875 14.171875 55.6875 17.25 C53.34131779 19.13676307 50.7414223 20.28590686 48 21.5 C47.29166016 21.83773437 46.58332031 22.17546875 45.85351562 22.5234375 C35.2654791 27.48994032 24.36751613 29.20622496 12.79296875 26.59765625 C4.6988367 23.29479676 -1.71936877 17.15488871 -5.3125 9.25 C-6.78127409 4.15824981 -6.78127409 4.15824981 -5.3125 1.3125 C-3.3125 0.25 -3.3125 0.25 0 0 Z " fill="#F8F8FA" transform="translate(102.3125,230.75)"/>
<path d="M0 0 C10.89 0 21.78 0 33 0 C33 7.26 33 14.52 33 22 C22.11 22 11.22 22 0 22 C0 14.74 0 7.48 0 0 Z " fill="#FDFCFD" transform="translate(200,71)"/>
<path d="M0 0 C0.96069397 0.00007553 1.92138794 0.00015106 2.91119385 0.00022888 C3.94049011 0.00539017 4.96978638 0.01055145 6.03027344 0.01586914 C7.61989899 0.01799156 7.61989899 0.01799156 9.24163818 0.02015686 C12.62433705 0.02575158 16.00696959 0.03830314 19.38964844 0.05102539 C21.68391831 0.05604107 23.97818923 0.06060386 26.27246094 0.06469727 C31.89488231 0.07571928 37.51725413 0.09298032 43.13964844 0.11352539 C43.13964844 3.74352539 43.13964844 7.37352539 43.13964844 11.11352539 C23.33964844 11.11352539 3.53964844 11.11352539 -16.86035156 11.11352539 C-14.75508848 5.85036768 -13.33758874 4.33713616 -8.86035156 1.11352539 C-5.87386901 0.11326911 -3.13618366 -0.00825311 0 0 Z " fill="#F9F8FB" transform="translate(172.8603515625,214.886474609375)"/>
<path d="M0 0 C15.51 0 31.02 0 47 0 C47 4.95 47 9.9 47 15 C36.28832191 15.20686403 26.15640869 14.49566969 15.5625 13 C14.13749306 12.80638228 12.71236276 12.61367017 11.28710938 12.421875 C7.85659604 11.95828455 4.42788568 11.48268327 1 11 C0.67 7.37 0.34 3.74 0 0 Z " fill="#F4F3F8" transform="translate(169,237)"/>
<path d="M0 0 C0.97118271 -0.00630432 1.94236542 -0.01260864 2.94297791 -0.019104 C4.52110008 -0.01303131 4.52110008 -0.01303131 6.13110352 -0.00683594 C7.74759544 -0.00970612 7.74759544 -0.00970612 9.39674377 -0.01263428 C11.679049 -0.01399713 13.96136195 -0.01029377 16.24365234 -0.00195312 C19.74212033 0.00873441 23.24007357 -0.00183991 26.73852539 -0.01464844 C28.95271924 -0.01332666 31.16691276 -0.01076388 33.38110352 -0.00683594 C34.43116074 -0.0108844 35.48121796 -0.01493286 36.56309509 -0.019104 C38.0245974 -0.00964752 38.0245974 -0.00964752 39.515625 0 C40.80230324 0.00238678 40.80230324 0.00238678 42.11497498 0.00482178 C44.32250977 0.25878906 44.32250977 0.25878906 47.32250977 2.25878906 C47.63500977 5.75878906 47.63500977 5.75878906 47.32250977 9.25878906 C44.82071321 11.76058561 44.01024695 11.51918801 40.55322266 11.54931641 C39.5620192 11.56207611 38.57081573 11.57483582 37.54957581 11.58798218 C35.93864296 11.59132065 35.93864296 11.59132065 34.29516602 11.59472656 C32.64538002 11.60471176 32.64538002 11.60471176 30.96226501 11.61489868 C28.63290076 11.62503771 26.30350739 11.62971532 23.97412109 11.62939453 C20.40291679 11.63376714 16.83294829 11.67007364 13.26196289 11.70800781 C11.00220151 11.71387568 8.74243423 11.71784527 6.48266602 11.71972656 C4.87476952 11.74128311 4.87476952 11.74128311 3.23439026 11.76327515 C1.74285683 11.75404526 1.74285683 11.75404526 0.22119141 11.74462891 C-0.65435898 11.74747894 -1.52990936 11.75032898 -2.43199158 11.75326538 C-4.67749023 11.25878906 -4.67749023 11.25878906 -6.49537659 9.39248657 C-7.67749023 7.25878906 -7.67749023 7.25878906 -7.48999023 4.63378906 C-6.00919267 0.30530388 -4.2485301 0.00788831 0 0 Z " fill="#4E3E8C" transform="translate(262.677490234375,70.7412109375)"/>
<path d="M0 0 C1.26521484 0.02255859 2.53042969 0.04511719 3.83398438 0.06835938 C6.95232979 0.12719608 10.07006589 0.21687319 13.1875 0.3125 C13.1875 7.5725 13.1875 14.8325 13.1875 22.3125 C9.5575 22.3125 5.9275 22.3125 2.1875 22.3125 C1.53645833 20.58723958 0.88541667 18.86197917 0.234375 17.13671875 C-1.1747812 14.6812115 -2.31767552 13.69121879 -4.8125 12.3125 C-7.46152575 11.94332726 -9.90809527 11.71281112 -12.5625 11.625 C-13.25988281 11.59083984 -13.95726562 11.55667969 -14.67578125 11.52148438 C-16.38747108 11.43941705 -18.0999576 11.37427081 -19.8125 11.3125 C-19.56613406 7.7812549 -18.93169408 5.51280086 -17.11328125 2.45703125 C-11.75970414 -1.02120998 -6.22554158 -0.2093431 0 0 Z " fill="#FAFAFC" transform="translate(241.8125,26.6875)"/>
<path d="M0 0 C3.63 0 7.26 0 11 0 C11 11.22 11 22.44 11 34 C7.37 34 3.74 34 0 34 C0 22.78 0 11.56 0 0 Z " fill="#F6F5F9" transform="translate(327,226)"/>
<path d="M0 0 C10.89 0 21.78 0 33 0 C33 3.63 33 7.26 33 11 C22.11 11 11.22 11 0 11 C0 7.37 0 3.74 0 0 Z " fill="#FAFAFB" transform="translate(200,49)"/>
<path d="M0 0 C1.8862207 0.00483398 1.8862207 0.00483398 3.81054688 0.00976562 C5.6909668 -0.0144043 5.6909668 -0.0144043 7.609375 -0.0390625 C8.80884766 -0.03970703 10.00832031 -0.04035156 11.24414062 -0.04101562 C12.34685303 -0.04399658 13.44956543 -0.04697754 14.58569336 -0.05004883 C17.37304688 0.32226562 17.37304688 0.32226562 19.23657227 1.65356445 C20.98439333 4.21991397 20.6936987 6.30813847 20.37304688 9.32226562 C17.06623351 12.62907899 12.8888188 11.61888059 8.390625 11.64453125 C7.08544922 11.64130859 5.78027344 11.63808594 4.43554688 11.63476562 C2.48358398 11.65893555 2.48358398 11.65893555 0.4921875 11.68359375 C-1.37469727 11.68456055 -1.37469727 11.68456055 -3.27929688 11.68554688 C-4.42390381 11.68852783 -5.56851074 11.69150879 -6.74780273 11.69458008 C-9.62695312 11.32226562 -9.62695312 11.32226562 -11.53540039 9.9909668 C-12.62695312 8.32226562 -12.62695312 8.32226562 -12.43945312 5.25976562 C-10.60580453 -1.36957931 -5.90351078 0.03493202 0 0 Z " fill="#51428F" transform="translate(267.626953125,92.677734375)"/>
<path d="M0 0 C9.24 0 18.48 0 28 0 C28 3.96 28 7.92 28 12 C18.76 12 9.52 12 0 12 C0 8.04 0 4.08 0 0 Z " fill="#F0EEF5" transform="translate(269,126)"/>
<path d="M0 0 C3.125 0.1875 3.125 0.1875 6.125 2.1875 C6.5625 5.125 6.5625 5.125 6.125 8.1875 C4.4375 10.125 4.4375 10.125 2.125 11.1875 C-0.5 11.0625 -0.5 11.0625 -2.875 10.1875 C-4.875 7.1875 -4.875 7.1875 -4.5625 4.0625 C-3.64792367 0.23790807 -3.64792367 0.23790807 0 0 Z " fill="#574893" transform="translate(298.875,248.8125)"/>
<path d="M0 0 C3.0625 0.3125 3.0625 0.3125 5 1.4375 C6.0625 3.3125 6.0625 3.3125 5.9375 6.375 C5.0625 9.3125 5.0625 9.3125 2.0625 11.3125 C-1.25990324 10.9883631 -2.54526303 10.70473697 -4.9375 8.3125 C-5.1875 5.3125 -5.1875 5.3125 -4.9375 2.3125 C-2.9375 0.3125 -2.9375 0.3125 0 0 Z " fill="#564792" transform="translate(276.9375,248.6875)"/>
<path d="M0 0 C6.57692308 0.57692308 6.57692308 0.57692308 8 2 C8.45875252 7.27565392 8.45875252 7.27565392 6.8125 9.875 C4.31963619 11.42229478 2.88032665 11.50405716 0 11 C-1.875 9.3125 -1.875 9.3125 -3 7 C-2.75925978 3.62963689 -2.41201979 2.41201979 0 0 Z " fill="#F3F2F7" transform="translate(258,171)"/>
<path d="M0 0 C2 2 2 2 2.25 5.5 C2 9 2 9 0 11 C-3 11.25 -3 11.25 -6 11 C-8 9 -8 9 -8.3125 6.0625 C-8 3 -8 3 -6.8125 1.125 C-4.38241919 -0.38332602 -2.80984248 -0.36023622 0 0 Z " fill="#554691" transform="translate(308,93)"/>
<path d="M0 0 C3 0.25 3 0.25 5 2.25 C5.3125 5.75 5.3125 5.75 5 9.25 C2 11.25 2 11.25 -0.5625 11 C-3 10.25 -3 10.25 -5 8.25 C-5.25 5.25 -5.25 5.25 -5 2.25 C-3 0.25 -3 0.25 0 0 Z " fill="#F6F5F9" transform="translate(305,170.75)"/>
<path d="M0 0 C0.66 0.33 1.32 0.66 2 1 C1.05125 1.9075 0.1025 2.815 -0.875 3.75 C-3.14549867 6.00978877 -4.83296506 7.96570916 -6 11 C-6.375 8.3125 -6.375 8.3125 -6 5 C-4.176017 2.93601924 -2.27236161 1.60958947 0 0 Z " fill="#6E61A1" transform="translate(28,246)"/>
</svg>
