<svg width="87" height="97" viewBox="0 0 87 97" fill="none" xmlns="http://www.w3.org/2000/svg">
<ellipse cx="16.7718" cy="41.0293" rx="16.7718" ry="41.0293" transform="matrix(0.882337 -0.470618 0.51589 0.856655 11.9943 18.4287)" fill="#4B3B8B" fill-opacity="0.39"/>
<path d="M30.5607 9.90414C30.5607 9.90414 9.53667 18.1725 7.90446 22.4515C6.27224 26.7304 11.5486 39.4468 16.3454 49.7056C21.029 59.7222 24.0466 65.6871 31.7088 73.7899C39.0813 81.5863 50.0252 89.3732 53.6046 89.6886C57.184 90.004 72.562 79.4257 72.562 79.4257" stroke="#4B3B8B" stroke-width="3"/>
<path d="M75.7845 71.9235C75.6101 78.2949 73.239 82.4486 69.0658 83.6932C64.8925 84.9378 59.1689 83.1981 52.8475 78.7639C46.5262 74.3296 39.9885 67.4681 34.3225 59.3215C28.6565 51.1749 24.204 42.2346 21.7062 33.9886C19.2084 25.7426 18.8159 18.6884 20.5939 14.0001C22.372 9.31172 26.2135 7.27206 31.4789 8.22058C36.7444 9.16909 43.1162 13.0486 49.5338 19.2133C55.9515 25.378 62.0278 33.4561 66.7515 42.103L64.8208 42.5008C60.5745 34.7276 55.1122 27.4658 49.3431 21.9241C43.5739 16.3823 37.846 12.8948 33.1126 12.0422C28.3793 11.1895 24.926 13.0231 23.3276 17.2376C21.7291 21.4522 22.082 27.7936 24.3274 35.2063C26.5729 42.619 30.5754 50.6559 35.6688 57.9793C40.7622 65.3027 46.6394 71.4708 52.3219 75.457C58.0045 79.4432 63.1497 81.0071 66.9013 79.8883C70.6528 78.7695 72.7843 75.0355 72.9411 69.3078L75.7845 71.9235Z" fill="#4B3B8B"/>
</svg>
