<svg width="281" height="207" viewBox="0 0 281 207" fill="none" xmlns="http://www.w3.org/2000/svg">
<path d="M147.374 66.4413C147.374 66.4413 176.309 48.9782 206.091 66.4413C235.873 83.9043 264.808 66.4413 264.808 66.4413L254.373 192.403L158.373 192.404L144.374 29.4413L267.873 29.4416L254.373 192.401" stroke="#4B3B8B" stroke-width="3"/>
<mask id="path-2-inside-1_5755_5569" fill="white">
<path d="M224.873 85.4043C224.873 90.3749 220.843 94.4043 215.873 94.4043C210.902 94.4043 206.873 90.3749 206.873 85.4043C206.873 80.4337 210.902 76.4043 215.873 76.4043C220.843 76.4043 224.873 80.4337 224.873 85.4043ZM208.957 85.4043C208.957 89.2239 212.053 92.3204 215.873 92.3204C219.692 92.3204 222.789 89.2239 222.789 85.4043C222.789 81.5846 219.692 78.4882 215.873 78.4882C212.053 78.4882 208.957 81.5846 208.957 85.4043Z"/>
</mask>
<path d="M224.873 85.4043C224.873 90.3749 220.843 94.4043 215.873 94.4043C210.902 94.4043 206.873 90.3749 206.873 85.4043C206.873 80.4337 210.902 76.4043 215.873 76.4043C220.843 76.4043 224.873 80.4337 224.873 85.4043ZM208.957 85.4043C208.957 89.2239 212.053 92.3204 215.873 92.3204C219.692 92.3204 222.789 89.2239 222.789 85.4043C222.789 81.5846 219.692 78.4882 215.873 78.4882C212.053 78.4882 208.957 81.5846 208.957 85.4043Z" fill="#D9D9D9" stroke="#4B3B8B" stroke-width="6" mask="url(#path-2-inside-1_5755_5569)"/>
<mask id="path-3-inside-2_5755_5569" fill="white">
<path d="M231.873 107.904C231.873 111.494 228.963 114.404 225.373 114.404C221.783 114.404 218.873 111.494 218.873 107.904C218.873 104.314 221.783 101.404 225.373 101.404C228.963 101.404 231.873 104.314 231.873 107.904ZM220.378 107.904C220.378 110.663 222.614 112.899 225.373 112.899C228.131 112.899 230.368 110.663 230.368 107.904C230.368 105.146 228.131 102.909 225.373 102.909C222.614 102.909 220.378 105.146 220.378 107.904Z"/>
</mask>
<path d="M231.873 107.904C231.873 111.494 228.963 114.404 225.373 114.404C221.783 114.404 218.873 111.494 218.873 107.904C218.873 104.314 221.783 101.404 225.373 101.404C228.963 101.404 231.873 104.314 231.873 107.904ZM220.378 107.904C220.378 110.663 222.614 112.899 225.373 112.899C228.131 112.899 230.368 110.663 230.368 107.904C230.368 105.146 228.131 102.909 225.373 102.909C222.614 102.909 220.378 105.146 220.378 107.904Z" fill="#D9D9D9" stroke="#4B3B8B" stroke-width="6" mask="url(#path-3-inside-2_5755_5569)"/>
<mask id="path-4-inside-3_5755_5569" fill="white">
<path d="M206.873 103.904C206.873 107.494 203.963 110.404 200.373 110.404C196.783 110.404 193.873 107.494 193.873 103.904C193.873 100.314 196.783 97.4043 200.373 97.4043C203.963 97.4043 206.873 100.314 206.873 103.904ZM195.378 103.904C195.378 106.663 197.614 108.899 200.373 108.899C203.131 108.899 205.368 106.663 205.368 103.904C205.368 101.146 203.131 98.9093 200.373 98.9093C197.614 98.9093 195.378 101.146 195.378 103.904Z"/>
</mask>
<path d="M206.873 103.904C206.873 107.494 203.963 110.404 200.373 110.404C196.783 110.404 193.873 107.494 193.873 103.904C193.873 100.314 196.783 97.4043 200.373 97.4043C203.963 97.4043 206.873 100.314 206.873 103.904ZM195.378 103.904C195.378 106.663 197.614 108.899 200.373 108.899C203.131 108.899 205.368 106.663 205.368 103.904C205.368 101.146 203.131 98.9093 200.373 98.9093C197.614 98.9093 195.378 101.146 195.378 103.904Z" fill="#D9D9D9" stroke="#4B3B8B" stroke-width="6" mask="url(#path-4-inside-3_5755_5569)"/>
<mask id="path-5-inside-4_5755_5569" fill="white">
<path d="M189.873 117.404C189.873 120.166 187.634 122.404 184.873 122.404C182.111 122.404 179.873 120.166 179.873 117.404C179.873 114.643 182.111 112.404 184.873 112.404C187.634 112.404 189.873 114.643 189.873 117.404ZM181.03 117.404C181.03 119.526 182.751 121.247 184.873 121.247C186.995 121.247 188.715 119.526 188.715 117.404C188.715 115.282 186.995 113.562 184.873 113.562C182.751 113.562 181.03 115.282 181.03 117.404Z"/>
</mask>
<path d="M189.873 117.404C189.873 120.166 187.634 122.404 184.873 122.404C182.111 122.404 179.873 120.166 179.873 117.404C179.873 114.643 182.111 112.404 184.873 112.404C187.634 112.404 189.873 114.643 189.873 117.404ZM181.03 117.404C181.03 119.526 182.751 121.247 184.873 121.247C186.995 121.247 188.715 119.526 188.715 117.404C188.715 115.282 186.995 113.562 184.873 113.562C182.751 113.562 181.03 115.282 181.03 117.404Z" fill="#D9D9D9" stroke="#4B3B8B" stroke-width="6" mask="url(#path-5-inside-4_5755_5569)"/>
<mask id="path-6-inside-5_5755_5569" fill="white">
<path d="M237.319 139.095C238.935 146.656 225.579 155.921 207.486 159.789C189.393 163.657 173.416 160.663 171.8 153.102C170.183 145.541 183.54 136.276 201.632 132.408C219.725 128.54 235.703 131.533 237.319 139.095ZM176.57 152.082C177.951 158.542 191.602 161.1 207.06 157.795C222.518 154.49 233.93 146.574 232.549 140.114C231.168 133.654 217.517 131.096 202.059 134.401C186.6 137.706 175.189 145.622 176.57 152.082Z"/>
</mask>
<path d="M237.319 139.095C238.935 146.656 225.579 155.921 207.486 159.789C189.393 163.657 173.416 160.663 171.8 153.102C170.183 145.541 183.54 136.276 201.632 132.408C219.725 128.54 235.703 131.533 237.319 139.095ZM176.57 152.082C177.951 158.542 191.602 161.1 207.06 157.795C222.518 154.49 233.93 146.574 232.549 140.114C231.168 133.654 217.517 131.096 202.059 134.401C186.6 137.706 175.189 145.622 176.57 152.082Z" fill="#D9D9D9" stroke="#4B3B8B" stroke-width="6" mask="url(#path-6-inside-5_5755_5569)"/>
<path d="M173.362 153.298C173.362 153.298 175.373 174.401 178.362 177.298C181.352 180.194 192.37 180.015 201.373 179.401C210.163 178.802 215.446 178.247 223.373 174.401C231 170.701 239.373 163.898 240.373 160.901C241.373 157.905 236.373 140.901 236.373 140.901" stroke="#4B3B8B" stroke-width="3"/>
<line x1="190.478" y1="137.032" x2="224.478" y2="152.032" stroke="#4B3B8B" stroke-width="3"/>
<path d="M61.3249 59.1851L61.3249 183.185C61.3249 183.185 72.3068 190.606 80.3734 192.4C87.9976 194.096 92.7281 193.998 100.373 192.4C108.774 190.645 120.325 183.185 120.325 183.185L120.325 59.1854L127.873 59.1872M127.873 59.1872L53.3727 59.183L53.3727 28.9039L66.3727 28.9043M127.873 59.1872L127.873 28.9043L113.373 28.9043M66.3727 28.9043L66.3727 59.1837M66.3727 28.9043L78.3727 28.9043M78.3727 28.9043L78.3727 59.1844M78.3727 28.9043L90.3727 28.9043M90.3727 28.9043L90.6227 59.1851M90.3727 28.9043L102.373 28.9043M102.373 28.9043L102.373 59.1858M102.373 28.9043L113.373 28.9043M113.373 59.1864L113.373 28.9043" stroke="#4B3B8B" stroke-width="3"/>
<path d="M111.873 83.4043C95.2761 92.1315 85.9692 92.3624 69.3727 83.4043L69.3727 157.404C88.098 166.917 97.2406 166.189 111.873 157.404L111.873 83.4043Z" stroke="#4B3B8B" stroke-width="3"/>
</svg>
