<svg width="193" height="154" viewBox="0 0 193 154" fill="none" xmlns="http://www.w3.org/2000/svg">
<path d="M53.0703 36.8994C53.0751 36.9035 53.0802 36.9082 53.0859 36.9131C53.1193 36.9412 53.1697 36.9823 53.2344 37.0371C53.3638 37.1468 53.5531 37.3095 53.7949 37.5176C54.2786 37.9337 54.9705 38.5345 55.7998 39.2744C57.4585 40.7544 59.6691 42.7896 61.8799 45.0088C64.0913 47.2286 66.3003 49.63 67.9551 51.8447C68.7824 52.9521 69.4696 54.0098 69.9492 54.9727C70.4297 55.9373 70.6962 56.7966 70.6963 57.5088V125.637L70.8213 125.638H70.6963V125.669C70.6959 125.69 70.6949 125.723 70.6934 125.766C70.6902 125.85 70.6837 125.974 70.6709 126.131C70.6453 126.445 70.5939 126.892 70.4912 127.419C70.2856 128.474 69.8752 129.846 69.0566 131.124C68.2389 132.401 67.0138 133.584 65.1758 134.268C63.3366 134.951 60.8721 135.139 57.5693 134.402C50.9119 132.917 40.9375 132.918 31.5332 133.288C22.116 133.659 13.2772 134.399 8.85254 134.399C6.66149 134.399 5.02679 133.849 3.80469 133.031C2.58187 132.213 1.76467 131.121 1.21875 130.025C0.672627 128.929 0.398698 127.831 0.261719 127.006C0.193291 126.594 0.158658 126.25 0.141602 126.011C0.133079 125.891 0.129066 125.797 0.126953 125.733C0.125897 125.702 0.125259 125.677 0.125 125.661V125.638H0C0.125 125.638 0.125 125.637 0.125 125.637V57.5088C0.124995 55.326 1.21376 52.9456 2.86816 50.5928C4.52085 48.2425 6.72764 45.9347 8.9375 43.9014C11.1467 41.8687 13.356 40.1122 15.0137 38.8643C15.8424 38.2404 16.5334 37.744 17.0166 37.4033C17.2582 37.233 17.4479 37.1014 17.5771 37.0127C17.6418 36.9684 17.6913 36.9347 17.7246 36.9121C17.7318 36.9072 17.7385 36.9032 17.7441 36.8994H53.0703Z" fill="#4B3B8B" fill-opacity="0.39" stroke="#4B3B8B" stroke-width="0.25"/>
<g filter="url(#filter0_d_5792_5407)">
<path d="M8.85269 19.999C8.85269 19.4467 9.30041 18.999 9.85269 18.999H60.9688C61.5211 18.999 61.9688 19.4467 61.9688 19.999V27.8853V35.7717C61.9688 36.324 61.5211 36.7717 60.9688 36.7717H9.85269C9.30041 36.7717 8.85269 36.324 8.85269 35.7717V19.999Z" fill="white"/>
<path d="M9.85269 19.124H60.9689C61.4521 19.1241 61.8439 19.5158 61.8439 19.999V35.7715C61.8439 36.2547 61.4521 36.6464 60.9689 36.6465H9.85269C9.36944 36.6465 8.97769 36.2547 8.97769 35.7715V19.999C8.97769 19.5158 9.36944 19.124 9.85269 19.124Z" stroke="#4B3B8B" stroke-width="0.25"/>
</g>
<path d="M11.1174 67.4561H62.2336C62.7168 67.4561 63.1086 67.8478 63.1086 68.3311V90.0283C63.1084 90.5113 62.7166 90.9033 62.2336 90.9033H11.1174C10.6343 90.9033 10.2426 90.5114 10.2424 90.0283V68.3311C10.2424 67.8478 10.6341 67.4561 11.1174 67.4561Z" fill="white" stroke="#4B3B8B" stroke-width="0.25"/>
<line x1="35.5357" y1="19.124" x2="35.5357" y2="24.7982" stroke="#4B3B8B" stroke-width="0.25" stroke-linecap="round"/>
<line x1="26.683" y1="19.124" x2="26.683" y2="24.7982" stroke="#4B3B8B" stroke-width="0.25" stroke-linecap="round"/>
<line x1="17.8304" y1="19.124" x2="17.8304" y2="24.7982" stroke="#4B3B8B" stroke-width="0.25" stroke-linecap="round"/>
<line x1="44.3884" y1="30.9756" x2="44.3884" y2="36.6498" stroke="#4B3B8B" stroke-width="0.25" stroke-linecap="round"/>
<line x1="53.2411" y1="30.9756" x2="53.2411" y2="36.6498" stroke="#4B3B8B" stroke-width="0.25" stroke-linecap="round"/>
<path d="M157.445 39.2715C156.05 36.4637 151.373 35.4097 147.051 33.9629C141.814 32.2098 138.549 32.4891 133.051 31.9629C121.778 30.8839 104.051 31.9629 104.051 31.9629C104.051 31.9629 90.5504 31.9629 83.0514 34.9629C75.5525 37.9629 77.5514 41.4629 77.5514 41.4629M157.445 39.2715C155.05 42.4637 152.05 43.4637 148.051 44.9629C144.053 46.4621 133.051 46.9629 133.051 46.9629L104.051 46.9629C104.051 46.9629 92.4597 47.2174 85.5514 44.9629C82.3096 43.9049 77.5514 41.4629 77.5514 41.4629M157.445 39.2715C153.385 72.5405 147.05 124.462 147.05 124.462M147.05 124.462C147.05 124.462 145.05 127.962 141.05 128.962C137.05 129.962 132.549 130.464 127.55 130.464C122.55 130.464 112.231 131.227 102.55 129.962C99.2075 129.525 97.1544 129.775 94.0499 128.462C91.4562 127.365 88.0499 124.462 88.0499 124.462M147.05 124.462C147.05 124.462 149.55 121.462 141.05 119.962C132.55 118.462 126.441 118.423 117.05 118.462C108.244 118.499 102.55 118.462 94.5499 119.962C86.5499 121.462 88.0499 124.462 88.0499 124.462M77.5514 41.4629L88.0499 124.462" stroke="#4B3B8B"/>
<line x1="87.5463" y1="82.9071" x2="91.5463" y2="117.907" stroke="#4B3B8B"/>
<path d="M101.379 121.589C99.7978 121.429 98.6673 121.835 97.5496 122.965C97.0544 123.465 96.5269 123.761 96.5495 124.464C96.5762 125.292 97.3692 125.492 98.0495 125.964C98.913 126.565 99.5453 126.653 100.55 126.964C103.539 127.893 105.468 128.013 108.549 127.464" stroke="#4B3B8B"/>
<path d="M128.528 120.827C129.9 120.72 130.689 120.751 132.047 120.966C133.452 121.188 133.708 120.994 135.05 121.464C136.042 121.811 137.424 122.118 138.049 122.964C138.416 123.461 138.549 124.464 138.549 124.464C138.478 125.164 138.114 125.543 137.549 125.964C136.903 126.445 136.329 126.759 135.55 126.964C134.175 127.325 133.458 127.286 132.047 127.464C130.886 127.61 130.22 127.464 129.049 127.464" stroke="#4B3B8B"/>
<path d="M82.0438 71.4645C83.2338 70.1111 84.029 69.4307 85.5501 68.4642C88.1558 66.8085 90.0546 66.7121 93.0501 65.9653C97.2568 64.9166 99.7336 64.873 104.05 64.4637C113.964 63.5234 119.625 63.6514 129.55 64.4637C133.074 64.7521 135.057 64.9092 138.55 65.4634C142.294 66.0576 144.582 65.9301 148.05 67.4634C150.131 68.3836 151.254 69.0589 153.044 70.4645" stroke="#4B3B8B"/>
<path d="M153.049 69.9642C151.859 71.3176 151.064 71.998 149.543 72.9645C146.937 74.6202 145.039 74.7166 142.043 75.4634C137.836 76.5121 135.36 76.5557 131.044 76.9651C121.13 77.9053 115.469 77.7773 105.544 76.9651C102.019 76.6766 100.036 76.5195 96.5436 75.9653C92.7991 75.3711 90.511 75.4986 87.0436 73.9653C84.9626 73.0451 82.0494 70.9642 82.0494 70.9642" stroke="#4B3B8B"/>
<path d="M133.321 67.3365C134.695 67.3906 135.482 67.2603 136.84 67.475C138.244 67.697 138.999 68.005 140.34 68.4745C141.333 68.8219 142.217 68.6271 142.842 69.4731L143.342 70.9727C143.342 70.9727 142.907 72.0523 142.342 72.4727C141.696 72.9537 141.12 72.7679 140.34 72.9727C138.965 73.3339 138.251 73.7946 136.84 73.9727C135.678 74.1193 135.004 74.1193 133.842 73.9727" stroke="#4B3B8B"/>
<path d="M102.391 67.3365C101.017 67.3906 100.231 67.2603 98.8723 67.475C97.4681 67.697 96.7138 68.005 95.3719 68.4745C94.3791 68.8219 93.4955 68.6271 92.8705 69.4731L92.3704 70.9727C92.3704 70.9727 92.8056 72.0523 93.3704 72.4727C94.0167 72.9537 94.5927 72.7679 95.3719 72.9727C96.747 73.3339 97.4618 73.7946 98.8723 73.9727C100.034 74.1193 100.709 74.1193 101.87 73.9727" stroke="#4B3B8B"/>
<mask id="path-18-inside-1_5792_5407" fill="white">
<path d="M111.05 80.999C111.05 82.1036 110.154 82.999 109.05 82.999C107.945 82.999 107.05 82.1036 107.05 80.999C107.05 79.8945 107.945 78.999 109.05 78.999C110.154 78.999 111.05 79.8945 111.05 80.999ZM107.814 80.999C107.814 81.6816 108.367 82.2349 109.05 82.2349C109.732 82.2349 110.285 81.6816 110.285 80.999C110.285 80.3165 109.732 79.7632 109.05 79.7632C108.367 79.7632 107.814 80.3165 107.814 80.999Z"/>
</mask>
<path d="M111.05 80.999C111.05 82.1036 110.154 82.999 109.05 82.999C107.945 82.999 107.05 82.1036 107.05 80.999C107.05 79.8945 107.945 78.999 109.05 78.999C110.154 78.999 111.05 79.8945 111.05 80.999ZM107.814 80.999C107.814 81.6816 108.367 82.2349 109.05 82.2349C109.732 82.2349 110.285 81.6816 110.285 80.999C110.285 80.3165 109.732 79.7632 109.05 79.7632C108.367 79.7632 107.814 80.3165 107.814 80.999Z" stroke="#4B3B8B" stroke-width="2" mask="url(#path-18-inside-1_5792_5407)"/>
<mask id="path-19-inside-2_5792_5407" fill="white">
<path d="M130 102.999C130 104.104 129.105 104.999 128 104.999C126.895 104.999 126 104.104 126 102.999C126 101.894 126.895 100.999 128 100.999C129.105 100.999 130 101.894 130 102.999ZM126.764 102.999C126.764 103.682 127.317 104.235 128 104.235C128.683 104.235 129.236 103.682 129.236 102.999C129.236 102.316 128.683 101.763 128 101.763C127.317 101.763 126.764 102.316 126.764 102.999Z"/>
</mask>
<path d="M130 102.999C130 104.104 129.105 104.999 128 104.999C126.895 104.999 126 104.104 126 102.999C126 101.894 126.895 100.999 128 100.999C129.105 100.999 130 101.894 130 102.999ZM126.764 102.999C126.764 103.682 127.317 104.235 128 104.235C128.683 104.235 129.236 103.682 129.236 102.999C129.236 102.316 128.683 101.763 128 101.763C127.317 101.763 126.764 102.316 126.764 102.999Z" stroke="#4B3B8B" stroke-width="2" mask="url(#path-19-inside-2_5792_5407)"/>
<mask id="path-20-inside-3_5792_5407" fill="white">
<path d="M119.05 85.999C119.05 87.1036 118.154 87.999 117.05 87.999C115.945 87.999 115.05 87.1036 115.05 85.999C115.05 84.8945 115.945 83.999 117.05 83.999C118.154 83.999 119.05 84.8945 119.05 85.999ZM115.814 85.999C115.814 86.6816 116.367 87.2349 117.05 87.2349C117.732 87.2349 118.285 86.6816 118.285 85.999C118.285 85.3165 117.732 84.7632 117.05 84.7632C116.367 84.7632 115.814 85.3165 115.814 85.999Z"/>
</mask>
<path d="M119.05 85.999C119.05 87.1036 118.154 87.999 117.05 87.999C115.945 87.999 115.05 87.1036 115.05 85.999C115.05 84.8945 115.945 83.999 117.05 83.999C118.154 83.999 119.05 84.8945 119.05 85.999ZM115.814 85.999C115.814 86.6816 116.367 87.2349 117.05 87.2349C117.732 87.2349 118.285 86.6816 118.285 85.999C118.285 85.3165 117.732 84.7632 117.05 84.7632C116.367 84.7632 115.814 85.3165 115.814 85.999Z" stroke="#4B3B8B" stroke-width="2" mask="url(#path-20-inside-3_5792_5407)"/>
<mask id="path-21-inside-4_5792_5407" fill="white">
<path d="M112.05 96.999C112.05 98.1036 111.154 98.999 110.05 98.999C108.945 98.999 108.05 98.1036 108.05 96.999C108.05 95.8945 108.945 94.999 110.05 94.999C111.154 94.999 112.05 95.8945 112.05 96.999ZM108.814 96.999C108.814 97.6816 109.367 98.2349 110.05 98.2349C110.732 98.2349 111.285 97.6816 111.285 96.999C111.285 96.3165 110.732 95.7632 110.05 95.7632C109.367 95.7632 108.814 96.3165 108.814 96.999Z"/>
</mask>
<path d="M112.05 96.999C112.05 98.1036 111.154 98.999 110.05 98.999C108.945 98.999 108.05 98.1036 108.05 96.999C108.05 95.8945 108.945 94.999 110.05 94.999C111.154 94.999 112.05 95.8945 112.05 96.999ZM108.814 96.999C108.814 97.6816 109.367 98.2349 110.05 98.2349C110.732 98.2349 111.285 97.6816 111.285 96.999C111.285 96.3165 110.732 95.7632 110.05 95.7632C109.367 95.7632 108.814 96.3165 108.814 96.999Z" stroke="#4B3B8B" stroke-width="2" mask="url(#path-21-inside-4_5792_5407)"/>
<mask id="path-22-inside-5_5792_5407" fill="white">
<path d="M131 83.999C131 85.1036 130.105 85.999 129 85.999C127.895 85.999 127 85.1036 127 83.999C127 82.8945 127.895 81.999 129 81.999C130.105 81.999 131 82.8945 131 83.999ZM127.764 83.999C127.764 84.6816 128.317 85.2349 129 85.2349C129.683 85.2349 130.236 84.6816 130.236 83.999C130.236 83.3165 129.683 82.7632 129 82.7632C128.317 82.7632 127.764 83.3165 127.764 83.999Z"/>
</mask>
<path d="M131 83.999C131 85.1036 130.105 85.999 129 85.999C127.895 85.999 127 85.1036 127 83.999C127 82.8945 127.895 81.999 129 81.999C130.105 81.999 131 82.8945 131 83.999ZM127.764 83.999C127.764 84.6816 128.317 85.2349 129 85.2349C129.683 85.2349 130.236 84.6816 130.236 83.999C130.236 83.3165 129.683 82.7632 129 82.7632C128.317 82.7632 127.764 83.3165 127.764 83.999Z" stroke="#4B3B8B" stroke-width="2" mask="url(#path-22-inside-5_5792_5407)"/>
<mask id="path-23-inside-6_5792_5407" fill="white">
<path d="M128 92.999C128 94.1036 127.105 94.999 126 94.999C124.895 94.999 124 94.1036 124 92.999C124 91.8945 124.895 90.999 126 90.999C127.105 90.999 128 91.8945 128 92.999ZM124.764 92.999C124.764 93.6816 125.317 94.2349 126 94.2349C126.683 94.2349 127.236 93.6816 127.236 92.999C127.236 92.3165 126.683 91.7632 126 91.7632C125.317 91.7632 124.764 92.3165 124.764 92.999Z"/>
</mask>
<path d="M128 92.999C128 94.1036 127.105 94.999 126 94.999C124.895 94.999 124 94.1036 124 92.999C124 91.8945 124.895 90.999 126 90.999C127.105 90.999 128 91.8945 128 92.999ZM124.764 92.999C124.764 93.6816 125.317 94.2349 126 94.2349C126.683 94.2349 127.236 93.6816 127.236 92.999C127.236 92.3165 126.683 91.7632 126 91.7632C125.317 91.7632 124.764 92.3165 124.764 92.999Z" stroke="#4B3B8B" stroke-width="2" mask="url(#path-23-inside-6_5792_5407)"/>
<mask id="path-24-inside-7_5792_5407" fill="white">
<path d="M120.05 99.999C120.05 101.104 119.154 101.999 118.05 101.999C116.945 101.999 116.05 101.104 116.05 99.999C116.05 98.8945 116.945 97.999 118.05 97.999C119.154 97.999 120.05 98.8945 120.05 99.999ZM116.814 99.999C116.814 100.682 117.367 101.235 118.05 101.235C118.732 101.235 119.285 100.682 119.285 99.999C119.285 99.3165 118.732 98.7632 118.05 98.7632C117.367 98.7632 116.814 99.3165 116.814 99.999Z"/>
</mask>
<path d="M120.05 99.999C120.05 101.104 119.154 101.999 118.05 101.999C116.945 101.999 116.05 101.104 116.05 99.999C116.05 98.8945 116.945 97.999 118.05 97.999C119.154 97.999 120.05 98.8945 120.05 99.999ZM116.814 99.999C116.814 100.682 117.367 101.235 118.05 101.235C118.732 101.235 119.285 100.682 119.285 99.999C119.285 99.3165 118.732 98.7632 118.05 98.7632C117.367 98.7632 116.814 99.3165 116.814 99.999Z" stroke="#4B3B8B" stroke-width="2" mask="url(#path-24-inside-7_5792_5407)"/>
<path d="M143 125.999C143 122.847 142.379 119.726 141.173 116.815C139.967 113.903 143.402 111.257 141.173 109.028C138.945 106.8 131.096 105.032 128.184 103.826C125.273 102.62 122.152 101.999 119 101.999C115.848 101.999 112.727 102.62 109.816 103.826C106.904 105.032 103.229 101.597 101 103.826C98.7714 106.055 96.2061 113.903 95 116.815C93.7939 119.726 95 122.847 95 125.999L120 127.999L143 125.999Z" fill="#4B3B8B"/>
<defs>
<filter id="filter0_d_5792_5407" x="4.85269" y="18.999" width="61.1161" height="25.7725" filterUnits="userSpaceOnUse" color-interpolation-filters="sRGB">
<feFlood flood-opacity="0" result="BackgroundImageFix"/>
<feColorMatrix in="SourceAlpha" type="matrix" values="0 0 0 0 0 0 0 0 0 0 0 0 0 0 0 0 0 0 127 0" result="hardAlpha"/>
<feOffset dy="4"/>
<feGaussianBlur stdDeviation="2"/>
<feComposite in2="hardAlpha" operator="out"/>
<feColorMatrix type="matrix" values="0 0 0 0 0 0 0 0 0 0 0 0 0 0 0 0 0 0 0.25 0"/>
<feBlend mode="normal" in2="BackgroundImageFix" result="effect1_dropShadow_5792_5407"/>
<feBlend mode="normal" in="SourceGraphic" in2="effect1_dropShadow_5792_5407" result="shape"/>
</filter>
</defs>
</svg>
