<svg width="167" height="295" viewBox="0 0 167 295" fill="none" xmlns="http://www.w3.org/2000/svg">
<path d="M77.0766 143.594C78.3423 143.558 79.4022 142.565 79.2885 141.304C79.0507 138.668 78.0321 136.239 76.3452 134.365C74.192 131.974 71.1264 130.684 67.8228 130.779C64.5192 130.873 61.2482 132.346 58.7294 134.871C56.8698 136.736 55.5327 139.062 54.8561 141.55C54.4719 142.964 55.6653 144.209 57.1296 144.167V144.167C58.3953 144.131 59.3959 143.124 59.8073 141.927C60.249 140.641 60.9871 139.447 61.9657 138.465C63.4805 136.947 65.4475 136.061 67.4342 136.004C69.4209 135.947 71.2645 136.723 72.5593 138.161C73.2725 138.953 73.787 139.911 74.0794 140.96C74.4726 142.371 75.6124 143.636 77.0766 143.594V143.594Z" fill="#4B3B8B"/>
<path d="M53.3544 166.268C53.3544 166.268 24.2651 190.857 22.9999 198.197C21.7346 205.537 33.0739 221.454 43.0273 233.979C52.7456 246.209 58.8736 253.359 72.5104 260.997C85.6317 268.345 104.075 273.6 109.498 271.987C114.922 270.373 134.962 245.622 134.962 245.622" stroke="#4B3B8B" stroke-width="3"/>
<line x1="111.034" y1="191.086" x2="69.0345" y2="231.086" stroke="#4B3B8B" stroke-width="3"/>
<path d="M137.718 232.543C139.198 242.159 136.797 249.742 130.914 254.031C125.032 258.319 116.023 259.055 105.387 256.114C94.7509 253.174 83.1296 246.735 72.4571 237.87C61.7846 229.004 52.7048 218.247 46.7289 207.388C40.7531 196.529 38.2416 186.224 39.6126 178.188C40.9836 170.151 46.1543 164.869 54.2641 163.219C62.3739 161.569 72.9336 163.651 84.1856 169.12C95.4376 174.588 106.703 183.112 116.107 193.274L113.337 194.992C104.884 185.857 94.7564 178.194 84.6414 173.279C74.5264 168.363 65.0337 166.491 57.7434 167.974C50.4531 169.457 45.8049 174.206 44.5725 181.43C43.34 188.655 45.5977 197.919 50.9697 207.68C56.3417 217.441 64.504 227.112 74.098 235.081C83.692 243.051 94.1391 248.839 103.7 251.482C113.261 254.126 121.36 253.465 126.648 249.609C131.936 245.754 134.095 238.937 132.765 230.293L137.718 232.543Z" fill="#4B3B8B"/>
<path d="M22 157.5C22 163.299 17.0751 168 11 168C4.92487 168 0 163.299 0 157.5C0 151.701 4.92487 147 11 147C17.0751 147 22 151.701 22 157.5ZM4.45119 157.5C4.45119 160.952 7.38319 163.751 11 163.751C14.6168 163.751 17.5488 160.952 17.5488 157.5C17.5488 154.048 14.6168 151.249 11 151.249C7.38319 151.249 4.45119 154.048 4.45119 157.5Z" fill="#4B3B8B"/>
<path d="M99 29C99 33.4183 95.4183 37 91 37C86.5817 37 83 33.4183 83 29C83 24.5817 86.5817 21 91 21C95.4183 21 99 24.5817 99 29ZM88.3221 29C88.3221 30.479 89.521 31.6779 91 31.6779C92.479 31.6779 93.6779 30.479 93.6779 29C93.6779 27.521 92.479 26.3221 91 26.3221C89.521 26.3221 88.3221 27.521 88.3221 29Z" fill="#4B3B8B"/>
<path d="M87 52.5C87 58.8513 81.8513 64 75.5 64C69.1487 64 64 58.8513 64 52.5C64 46.1487 69.1487 41 75.5 41C81.8513 41 87 46.1487 87 52.5ZM69.4129 52.5C69.4129 55.8618 72.1382 58.5871 75.5 58.5871C78.8618 58.5871 81.5871 55.8618 81.5871 52.5C81.5871 49.1382 78.8618 46.4129 75.5 46.4129C72.1382 46.4129 69.4129 49.1382 69.4129 52.5Z" fill="#4B3B8B"/>
<path d="M63 94C63 98.4183 59.4183 102 55 102C50.5817 102 47 98.4183 47 94C47 89.5817 50.5817 86 55 86C59.4183 86 63 89.5817 63 94ZM52.2028 94C52.2028 95.5449 53.4551 96.7972 55 96.7972C56.5449 96.7972 57.7972 95.5449 57.7972 94C57.7972 92.4551 56.5449 91.2028 55 91.2028C53.4551 91.2028 52.2028 92.4551 52.2028 94Z" fill="#4B3B8B"/>
<circle cx="23.5" cy="136.5" r="4.5" fill="#4B3B8B"/>
<circle cx="66" cy="5" r="5" fill="#4B3B8B"/>
<path d="M108 117.5C108 123.299 103.075 128 97 128C90.9249 128 86 123.299 86 117.5C86 111.701 90.9249 107 97 107C103.075 107 108 111.701 108 117.5ZM90.4512 117.5C90.4512 120.952 93.3832 123.751 97 123.751C100.617 123.751 103.549 120.952 103.549 117.5C103.549 114.048 100.617 111.249 97 111.249C93.3832 111.249 90.4512 114.048 90.4512 117.5Z" fill="#4B3B8B"/>
<path d="M139 157.5C139 164.956 132.732 171 125 171C117.268 171 111 164.956 111 157.5C111 150.044 117.268 144 125 144C132.732 144 139 150.044 139 157.5ZM116.665 157.5C116.665 161.939 120.397 165.537 125 165.537C129.603 165.537 133.335 161.939 133.335 157.5C133.335 153.061 129.603 149.463 125 149.463C120.397 149.463 116.665 153.061 116.665 157.5Z" fill="#4B3B8B"/>
<circle cx="151" cy="196" r="5" fill="#4B3B8B"/>
<circle cx="15" cy="229" r="5" fill="#4B3B8B"/>
<path d="M132 284.5C132 290.299 127.075 295 121 295C114.925 295 110 290.299 110 284.5C110 278.701 114.925 274 121 274C127.075 274 132 278.701 132 284.5ZM114.451 284.5C114.451 287.952 117.383 290.751 121 290.751C124.617 290.751 127.549 287.952 127.549 284.5C127.549 281.048 124.617 278.249 121 278.249C117.383 278.249 114.451 281.048 114.451 284.5Z" fill="#4B3B8B"/>
<path d="M141 212.5C141 218.299 136.075 223 130 223C123.925 223 119 218.299 119 212.5C119 206.701 123.925 202 130 202C136.075 202 141 206.701 141 212.5ZM123.451 212.5C123.451 215.952 126.383 218.751 130 218.751C133.617 218.751 136.549 215.952 136.549 212.5C136.549 209.048 133.617 206.249 130 206.249C126.383 206.249 123.451 209.048 123.451 212.5Z" fill="#4B3B8B"/>
<path d="M167 237.5C167 241.642 163.642 245 159.5 245C155.358 245 152 241.642 152 237.5C152 233.358 155.358 230 159.5 230C163.642 230 167 233.358 167 237.5ZM156.51 237.5C156.51 239.152 157.848 240.49 159.5 240.49C161.152 240.49 162.49 239.152 162.49 237.5C162.49 235.848 161.152 234.51 159.5 234.51C157.848 234.51 156.51 235.848 156.51 237.5Z" fill="#4B3B8B"/>
<mask id="path-18-inside-1_5765_5648" fill="white">
<path d="M70 258C70 262.971 65.9706 267 61 267C56.0294 267 52 262.971 52 258C52 253.029 56.0294 249 61 249C65.9706 249 70 253.029 70 258ZM59.0565 258C59.0565 259.073 59.9266 259.944 61 259.944C62.0734 259.944 62.9435 259.073 62.9435 258C62.9435 256.927 62.0734 256.056 61 256.056C59.9266 256.056 59.0565 256.927 59.0565 258Z"/>
</mask>
<path d="M70 258C70 262.971 65.9706 267 61 267C56.0294 267 52 262.971 52 258C52 253.029 56.0294 249 61 249C65.9706 249 70 253.029 70 258ZM59.0565 258C59.0565 259.073 59.9266 259.944 61 259.944C62.0734 259.944 62.9435 259.073 62.9435 258C62.9435 256.927 62.0734 256.056 61 256.056C59.9266 256.056 59.0565 256.927 59.0565 258Z" fill="#4B3B8B" stroke="white" stroke-width="4" mask="url(#path-18-inside-1_5765_5648)"/>
</svg>
