<svg width="179" height="252" viewBox="0 0 179 252" fill="none" xmlns="http://www.w3.org/2000/svg">
<path d="M72.6794 33.503L74.6259 16.1115L174.315 41.5555L154.13 93.5796L119.098 174.434L114.764 179.886L110.025 182.676L100.312 184.917L95.8504 185.223L88.8278 184.135L83.3515 182.717L78.3051 181.046M72.6794 33.503L168.091 57.5962M72.6794 33.503L59.5108 152.074L59.4376 160.821L61.3661 166.069L64.4093 171.24L71.3062 177.044L78.3051 181.046M78.3051 181.046L73.0713 178.054L70.0989 188.774L70.2517 191.005L71.0127 192.297L73.9597 192.908M73.9597 192.908L86.756 196.376L90.8633 197.439L92.4104 197.108L93.6244 195.236L95.4665 185.163M73.9597 192.908L71.8559 214.429M73.9597 192.908L88.8096 196.907L79.8939 217.24" stroke="#4B3B8B" stroke-width="2"/>
<mask id="path-2-inside-1_5774_5778" fill="white">
<path d="M130.46 107.908C130.46 120.058 119.715 129.908 106.46 129.908C93.2049 129.908 82.4597 120.058 82.4597 107.908C82.4597 95.7579 93.2049 85.9082 106.46 85.9082C119.715 85.9082 130.46 95.7579 130.46 107.908ZM87.1322 107.908C87.1322 117.693 95.7854 125.625 106.46 125.625C117.134 125.625 125.787 117.693 125.787 107.908C125.787 98.1234 117.134 90.1913 106.46 90.1913C95.7854 90.1913 87.1322 98.1234 87.1322 107.908Z"/>
</mask>
<path d="M130.46 107.908C130.46 120.058 119.715 129.908 106.46 129.908C93.2049 129.908 82.4597 120.058 82.4597 107.908C82.4597 95.7579 93.2049 85.9082 106.46 85.9082C119.715 85.9082 130.46 95.7579 130.46 107.908ZM87.1322 107.908C87.1322 117.693 95.7854 125.625 106.46 125.625C117.134 125.625 125.787 117.693 125.787 107.908C125.787 98.1234 117.134 90.1913 106.46 90.1913C95.7854 90.1913 87.1322 98.1234 87.1322 107.908Z" fill="#4B3B8B" stroke="#4B3B8B" stroke-width="2" mask="url(#path-2-inside-1_5774_5778)"/>
<line x1="82.5784" y1="47.4225" x2="127.578" y2="58.4225" stroke="#4B3B8B"/>
<line x1="82.957" y1="55.9605" x2="78.957" y2="93.9605" stroke="#4B3B8B"/>
<path d="M81.662 216.847C81.2535 218.166 78.3563 218.44 75.191 217.46C72.0256 216.479 69.7909 214.615 70.1994 213.296C70.608 211.977 73.5052 211.703 76.6705 212.684C79.8358 213.664 82.0706 215.528 81.662 216.847ZM72.9126 214.137C72.6974 214.831 73.8743 215.813 75.5412 216.329C77.208 216.846 78.7337 216.701 78.9489 216.007C79.164 215.312 77.9872 214.331 76.3203 213.814C74.6534 213.298 73.1277 213.442 72.9126 214.137Z" fill="#4B3B8B"/>
<path d="M54.24 238.363C56.6131 239.88 72.7048 241.455 77.2305 240.396C81.7562 239.337 80.5732 238.77 81.357 236.753C82.2961 234.337 81.5875 232.304 80.2206 229.666C79.3072 227.904 78.5117 226.954 76.9714 225.582C74.3252 223.225 68.809 221.823 68.809 221.823C68.809 221.823 71.3184 224.572 71.3114 226.449C71.3077 227.457 71.1405 228.052 70.5741 228.813C68.9501 230.997 67.4113 230.812 62.6965 228.117C57.9817 225.422 54.0389 226.168 51.9773 229.447C51.2002 230.683 50.8707 231.589 51.0462 233.161C51.2907 235.352 51.867 236.846 54.24 238.363Z" fill="#4B3B8B" stroke="#4B3B8B"/>
</svg>
