<svg width="62" height="79" viewBox="0 0 62 79" fill="none" xmlns="http://www.w3.org/2000/svg">
<g filter="url(#filter0_d_1534_16380)">
<path d="M20.6498 40.0234L27.1335 43.7668L13.9673 66.5713L10.1883 58.1433L20.6498 40.0234Z" fill="#4B3B8B"/>
<path d="M20.6498 40.0234L14.1662 36.2801L1.00001 59.0846L10.1883 58.1433L20.6498 40.0234Z" fill="#1C1C45"/>
<path d="M29.8996 40.0234L23.416 43.7668L36.5822 66.5713L40.3611 58.1433L29.8996 40.0234Z" fill="#4B3B8B"/>
<path d="M29.8996 40.0234L36.3832 36.2801L49.5494 59.0846L40.3611 58.1433L29.8996 40.0234Z" fill="#1C1C45"/>
<circle cx="25.0758" cy="24.3219" r="22.8219" fill="url(#paint0_linear_1534_16380)" stroke="#765C00"/>
<circle cx="25.0759" cy="24.3227" r="17.4243" fill="#A88300"/>
<mask id="mask0_1534_16380" style="mask-type:alpha" maskUnits="userSpaceOnUse" x="8" y="8" width="36" height="36">
<circle cx="26.006" cy="26.1816" r="17.4648" fill="#C28B37"/>
</mask>
<g mask="url(#mask0_1534_16380)">
<circle cx="25.076" cy="24.3222" r="17.4648" fill="#C09525"/>
</g>
<path d="M25.17 12.1719L28.9374 19.7067L36.4722 20.6485L31.2983 26.4503L32.7048 34.7763L25.17 31.0089L17.6351 34.7763L19.0542 26.4503L13.8677 20.6485L21.4026 19.7067L25.17 12.1719Z" fill="url(#paint1_linear_1534_16380)"/>
</g>
<defs>
<filter id="filter0_d_1534_16380" x="0.216502" y="0.216502" width="61.0854" height="78.1063" filterUnits="userSpaceOnUse" color-interpolation-filters="sRGB">
<feFlood flood-opacity="0" result="BackgroundImageFix"/>
<feColorMatrix in="SourceAlpha" type="matrix" values="0 0 0 0 0 0 0 0 0 0 0 0 0 0 0 0 0 0 127 0" result="hardAlpha"/>
<feOffset dx="5.48449" dy="5.48449"/>
<feGaussianBlur stdDeviation="3.13399"/>
<feComposite in2="hardAlpha" operator="out"/>
<feColorMatrix type="matrix" values="0 0 0 0 0 0 0 0 0 0 0 0 0 0 0 0 0 0 0.3 0"/>
<feBlend mode="normal" in2="BackgroundImageFix" result="effect1_dropShadow_1534_16380"/>
<feBlend mode="normal" in="SourceGraphic" in2="effect1_dropShadow_1534_16380" result="shape"/>
</filter>
<linearGradient id="paint0_linear_1534_16380" x1="25.0758" y1="2" x2="25.0758" y2="46.6438" gradientUnits="userSpaceOnUse">
<stop stop-color="#FFC600"/>
<stop offset="1" stop-color="#FFDE69"/>
</linearGradient>
<linearGradient id="paint1_linear_1534_16380" x1="25.17" y1="12.1719" x2="25.17" y2="34.7763" gradientUnits="userSpaceOnUse">
<stop stop-color="#FFFCDD"/>
<stop offset="1" stop-color="#FFE896"/>
</linearGradient>
</defs>
</svg>
