<svg width="23" height="23" viewBox="0 0 23 23" fill="none" xmlns="http://www.w3.org/2000/svg">
<path d="M19.0492 10.2369C19.5766 10.1493 20.0804 10.5061 20.1139 11.0396C20.2272 12.8412 19.8249 14.6452 18.9442 16.2363C17.9067 18.1107 16.266 19.5794 14.2886 20.4039C12.3111 21.2284 10.1131 21.3602 8.05125 20.7781C5.98942 20.1959 4.18491 18.934 2.93068 17.197C1.67645 15.4601 1.04616 13.3502 1.14214 11.2099C1.23811 9.06966 2.05472 7.02466 3.45938 5.40696C4.86404 3.78926 6.77426 2.69386 8.87992 2.2986C10.6672 1.9631 12.5062 2.14874 14.1807 2.82296C14.6766 3.02263 14.8568 3.61306 14.6077 4.08608C14.3587 4.55911 13.7747 4.7342 13.2738 4.54753C11.9904 4.06932 10.595 3.9464 9.23708 4.2013C7.56053 4.51601 6.03957 5.38819 4.92116 6.67623C3.80274 7.96427 3.15255 9.59254 3.07613 11.2967C2.99971 13.0008 3.50156 14.6807 4.5002 16.0637C5.49884 17.4467 6.93562 18.4515 8.57728 18.915C10.2189 19.3785 11.9691 19.2735 13.5435 18.617C15.118 17.9606 16.4243 16.7912 17.2505 15.2987C17.9196 14.0899 18.2418 12.7267 18.1916 11.358C18.172 10.8238 18.5219 10.3246 19.0492 10.2369Z" fill="#4B3B8B"/>
<path d="M5.57658 13.6237C5.47231 13.8794 5.59506 14.1712 5.85075 14.2755C6.10645 14.3797 6.39827 14.257 6.50254 14.0013L6.03956 13.8125L5.57658 13.6237ZM20.8269 0.897904L16.0162 4.09003L21.186 6.66023L20.8269 0.897904ZM7.34486 10.6118L7.38024 10.113L7.01873 10.0874L6.88188 10.423L7.34486 10.6118ZM11.3404 10.8952L11.305 11.394L11.6584 11.419L11.7992 11.094L11.3404 10.8952ZM12.9222 7.2437L12.9989 6.74963L12.617 6.69031L12.4634 7.04495L12.9222 7.2437ZM17.3317 7.92857L17.2549 8.42265L17.6165 8.4788L17.7794 8.15116L17.3317 7.92857ZM6.03956 13.8125L6.50254 14.0013L7.80784 10.8006L7.34486 10.6118L6.88188 10.423L5.57658 13.6237L6.03956 13.8125ZM7.34486 10.6118L7.30948 11.1105L11.305 11.394L11.3404 10.8952L11.3758 10.3965L7.38024 10.113L7.34486 10.6118ZM11.3404 10.8952L11.7992 11.094L13.381 7.44245L12.9222 7.2437L12.4634 7.04495L10.8816 10.6965L11.3404 10.8952ZM17.3317 7.92857L17.7794 8.15116L19.2714 5.15L18.8237 4.92741L18.376 4.70482L16.8839 7.70598L17.3317 7.92857ZM12.9222 7.2437L12.8455 7.73778L17.2549 8.42265L17.3317 7.92857L17.4084 7.43449L12.9989 6.74963L12.9222 7.2437Z" fill="url(#paint0_linear_5682_5627)"/>
<defs>
<linearGradient id="paint0_linear_5682_5627" x1="7.36799" y1="13.1893" x2="21.3558" y2="1.53282" gradientUnits="userSpaceOnUse">
<stop stop-color="#990000"/>
<stop offset="1" stop-color="#FF0000"/>
</linearGradient>
</defs>
</svg>
