<svg width="25" height="25" viewBox="0 0 25 25" fill="none" xmlns="http://www.w3.org/2000/svg">
<rect x="5.85855" y="16.3536" width="3.27913" height="5.11894" rx="0.75" transform="rotate(44.8166 5.85855 16.3536)" stroke="#4B3B8B" stroke-width="0.5"/>
<rect x="14.8781" y="2.41508" width="10.4404" height="2.71342" rx="1.35671" transform="rotate(44.8166 14.8781 2.41508)" stroke="#4B3B8B" stroke-width="0.5"/>
<rect x="20.4889" y="0.353552" width="5.3761" height="2.16698" rx="1.08349" transform="rotate(44.8166 20.4889 0.353552)" stroke="#4B3B8B" stroke-width="0.5"/>
<rect x="13.9123" y="5.24515" width="7.46917" height="13.4623" rx="0.75" transform="rotate(44.8166 13.9123 5.24515)" stroke="#4B3B8B" stroke-width="0.5"/>
<path d="M0.25 24.3799L3.25 21.3799" stroke="#4B3B8B" stroke-width="0.5" stroke-linecap="round"/>
<path d="M19.25 6.87988L21.75 4.37988" stroke="#4B3B8B" stroke-width="0.5"/>
<path d="M18.25 5.87988L20.75 3.37988" stroke="#4B3B8B" stroke-width="0.5"/>
<line x1="9.60355" y1="16.3799" x2="11.25" y2="18.0263" stroke="#4B3B8B" stroke-width="0.5" stroke-linecap="round"/>
<line x1="12.6036" y1="13.3799" x2="14.25" y2="15.0263" stroke="#4B3B8B" stroke-width="0.5" stroke-linecap="round"/>
<path d="M15.25 12.8799L15.75 13.3799" stroke="#4B3B8B" stroke-width="0.5" stroke-linecap="round"/>
<path d="M12.25 16.3799L12.75 16.8799" stroke="#4B3B8B" stroke-width="0.5" stroke-linecap="round"/>
<line x1="15.6036" y1="10.3799" x2="17.25" y2="12.0263" stroke="#4B3B8B" stroke-width="0.5" stroke-linecap="round"/>
</svg>
