<svg width="119" height="143" viewBox="0 0 119 143" fill="none" xmlns="http://www.w3.org/2000/svg">
<path d="M31.3941 88.9086L31.3941 31.4093C31.3941 31.4093 32.6486 26.1379 35.017 23.9072C36.924 22.1111 41.017 20.9076 41.017 20.9076L79.0177 20.9076C79.0177 20.9076 82.9817 23.0968 84.5177 25.4085C85.8847 27.4658 86.5172 31.4093 86.5172 31.4093L86.517 88.9074C86.517 88.9074 85.2172 92.7388 83.5168 94.5795C81.4025 96.8682 76.517 98.4085 76.517 98.4085L41.017 98.4086C41.017 98.4086 36.9707 96.5574 35.017 94.5804C33.1695 92.711 31.3941 88.9086 31.3941 88.9086Z" stroke="#4B3B8B" stroke-width="6"/>
<path d="M39.5175 82.4062C39.5175 82.4062 39.238 84.8693 39.5175 86.4062C39.7384 87.6212 39.7593 88.4314 40.5175 89.4062C41.1169 90.1769 42.5175 90.9062 42.5175 90.9062H76.5175C76.5175 90.9062 77.5497 90.0899 78.0175 89.4062C78.7148 88.387 79.0175 86.4062 79.0175 86.4062V51.4062C79.0175 51.4062 78.5613 49.2196 78.0175 47.9062C77.4152 46.4517 77.1907 45.4559 76.0175 44.4062C75.0413 43.5328 74.2908 43.2136 73.0175 42.9062C71.6888 42.5855 69.5175 42.9062 69.5175 42.9062C69.5175 42.9062 50.0211 51.2341 42.0175 61.4062C41.4138 62.1735 41.0266 62.5731 40.5175 63.4062C40.0621 64.1513 39.5175 65.4062 39.5175 65.4062V82.4062Z" stroke="#4B3B8B" stroke-width="6"/>
<line x1="42.0175" y1="33.9062" x2="58.0175" y2="33.9062" stroke="#4B3B8B" stroke-width="6" stroke-linecap="round"/>
<line x1="42.0175" y1="46.9062" x2="48.0175" y2="46.9062" stroke="#4B3B8B" stroke-width="6" stroke-linecap="round"/>
<path d="M54.945 21.4053C54.945 21.4053 54.4622 17.9875 54.945 15.9053C55.205 14.784 55.3738 14.1241 55.9525 13.1553C56.5604 12.1376 56.9839 11.5238 57.9674 10.9553C58.5172 10.6375 59.4786 10.4053 59.4786 10.4053C59.4786 10.4053 60.486 10.6831 60.9898 10.9553C61.4935 11.2275 62.7811 12.0324 63.5084 13.1553C64.1201 14.0997 64.2559 14.784 64.5159 15.9053C64.9987 17.9875 64.5159 21.4053 64.5159 21.4053" stroke="#4B3B8B" stroke-width="6"/>
<path d="M49.0175 98.4062C49.0175 98.4062 48.772 100.261 49.0175 101.406C49.1468 102.01 49.251 102.349 49.5175 102.906C49.8212 103.541 49.9617 103.974 50.5175 104.406C51.5964 105.245 52.7349 103.934 54.0175 104.406C54.4272 104.557 55.0175 104.906 55.0175 104.906C55.4541 105.343 55.3414 105.814 55.5175 106.406C56.36 109.238 55.3085 111.21 56.5175 113.906C56.6961 114.305 56.717 114.589 57.0175 114.906C57.5716 115.49 59.0175 115.406 59.0175 115.406H60.0175M70.0175 98.4062C70.0175 98.4062 70.2629 100.261 70.0175 101.406C69.8881 102.01 69.8238 102.37 69.5175 102.906C69.1064 103.626 68.7584 104.036 68.0175 104.406C66.9696 104.93 66.1222 104.016 65.0175 104.406C64.6057 104.552 64.3262 104.598 64.0175 104.906C63.5808 105.343 63.5175 106.406 63.5175 106.406C63.5175 106.406 64.1959 111.218 63.0175 113.906C62.8422 114.306 62.8086 114.581 62.5175 114.906C61.8536 115.648 60.0175 115.406 60.0175 115.406M60.0175 115.406H59.5175C59.5175 115.406 61.7356 126.442 59.5175 132.906C59.1762 133.901 59.1175 134.543 58.5175 135.406C58.0447 136.087 57.6401 136.36 57.0175 136.906C56.2836 137.55 55.8735 137.937 55.0175 138.406C53.9346 139 53.2373 139.214 52.0175 139.406C50.8602 139.589 50.1655 139.64 49.0175 139.406C47.987 139.197 47.4316 138.926 46.5175 138.406C45.6687 137.924 45.2513 137.55 44.5175 136.906C43.8948 136.36 43.4902 136.087 43.0175 135.406C42.4174 134.543 42.3422 133.906 42.0175 132.906C40.51 128.263 43.5249 125.049 42.0175 120.406C41.6927 119.406 41.5352 118.821 41.0175 117.906C40.4018 116.818 39.9015 116.29 39.0175 115.406C38.1334 114.522 37.6057 114.022 36.5175 113.406C35.6022 112.888 35.0282 112.696 34.0175 112.406C32.8758 112.079 32.2012 112.004 31.0175 111.906C29.8498 111.81 29.1705 111.699 28.0175 111.906C26.5539 112.17 25.784 112.627 24.5175 113.406C23.4526 114.061 22.9015 114.522 22.0175 115.406C21.1334 116.29 20.6331 116.818 20.0175 117.906C19.4997 118.821 19.332 119.403 19.0175 120.406C18.7767 121.174 18.6771 121.617 18.5175 122.406C17.8207 125.851 17.8207 127.961 18.5175 131.406" stroke="#4B3B8B" stroke-width="6"/>
</svg>
