<svg width="250" height="229" viewBox="0 0 250 229" fill="none" xmlns="http://www.w3.org/2000/svg">
<path d="M182.106 208.831C182.106 208.831 195.547 194.066 197.547 179.565C199.547 165.064 141.547 150.066 141.547 150.066C141.547 150.066 123.469 162.725 110.047 165.064C97.1071 167.319 89.0794 165.997 76.5469 162.065C66.7156 158.98 61.3359 156.19 53.047 150.069C45.4941 144.492 41.3264 140.832 36.0472 133.068C29.6375 123.642 27.5224 117.059 25.5472 105.833C23.7701 95.7321 23.2636 89.5695 25.5472 79.5713C27.7062 70.1187 30.462 64.9985 36.0471 57.0727C41.4553 49.3978 45.4944 45.6499 53.047 40.0722C61.3361 33.9506 66.7084 31.136 76.5469 28.0722C85.9595 25.1411 91.7251 23.7268 101.547 24.5722C111.575 25.4353 116.978 28.2077 126.047 32.5722C135.563 37.1515 141.359 39.836 148.547 47.5722C155.455 55.0063 158.176 60.5006 161.547 70.0722C164.512 78.4899 164.89 83.6719 165.547 92.5722C166.022 98.9984 165.547 109.072 165.547 109.072C165.547 109.072 212.547 140.572 219.047 139.072C225.547 137.572 237.106 105.831 237.106 105.831" stroke="#4B3B8B" stroke-width="6"/>
<path d="M97.7866 97.0704C108.769 97.2754 115.075 98.672 125.372 102.539C132.51 105.22 136.082 107.681 142.802 111.454C172.02 127.86 192.223 136.623 209.116 165.325C212.44 170.973 214.401 174.119 216.576 180.239C217.567 183.03 217.978 185.312 218.371 187.632C218.765 189.954 219.141 192.321 220.071 195.224C221.028 198.21 222.535 200.373 223.761 202.466C224.991 204.565 225.975 206.644 226.047 209.583C226.13 212.973 226.276 215.071 224.619 217.813C223.853 219.081 223.092 219.991 222.195 220.724C221.296 221.46 220.238 222.035 218.855 222.61C216.928 223.41 215.71 223.407 213.51 223.572C211.923 223.692 211.095 223.835 209.634 223.579C208.058 223.303 207.198 222.954 205.799 222.14C204.263 221.246 203.414 220.681 202.46 219.288C201.573 217.995 201.326 217.092 201.04 215.484C200.649 213.284 201.063 212.013 201.537 209.67C202.16 206.595 203.796 204.647 205.554 202.622C207.307 200.605 209.188 198.505 210.032 195.195C211.498 189.446 211.614 185.679 210.029 179.939C209.342 177.448 208.748 175.888 207.599 173.87C207.634 173.781 207.638 173.705 207.637 173.676C207.636 173.612 207.622 173.563 207.616 173.544C207.603 173.501 207.587 173.469 207.583 173.46C207.571 173.436 207.558 173.417 207.552 173.408C207.54 173.388 207.525 173.366 207.512 173.347C207.408 173.199 207.132 172.839 206.944 172.616C206.897 172.561 206.848 172.504 206.804 172.46C206.794 172.449 206.778 172.437 206.761 172.421C206.218 171.727 205.332 170.583 203.944 168.767C200.625 164.427 195.664 161.215 189.963 158.186C187.11 156.67 184.052 155.19 180.91 153.639C177.764 152.086 174.526 150.458 171.292 148.636C168.14 146.859 164.721 144.847 161.308 142.841C157.896 140.836 154.49 138.836 151.367 137.091C148.247 135.346 145.398 133.848 143.104 132.847C141.957 132.346 140.936 131.964 140.079 131.739C139.245 131.52 138.485 131.427 137.909 131.591C136.005 132.135 134.485 133.663 132.97 135.293C131.424 136.958 129.845 138.779 127.771 140.155C121.844 144.086 116.584 146.604 111.05 147.998C105.516 149.391 99.6791 149.666 92.5891 149.073C85.9882 148.521 80.6689 147.471 75.7651 145.481C70.8631 143.493 66.3499 140.555 61.3766 136.195C56.9728 132.335 52.3431 127.215 49.1396 122.456C47.5369 120.076 46.3045 117.805 45.6307 115.842C44.9494 113.857 44.8767 112.297 45.4215 111.248C46.6116 108.958 48.8391 107.649 52.443 106.478C54.2409 105.893 56.3515 105.351 58.8082 104.734C61.2603 104.118 64.0491 103.429 67.182 102.553C79.701 99.0487 85.6778 96.8445 97.7866 97.0704Z" fill="#4B3B8B" stroke="#4B3B8B"/>
<circle cx="111.547" cy="129.072" r="7.5" fill="white" stroke="#4B3B8B"/>
<circle cx="74.5472" cy="125.072" r="3.5" fill="white" stroke="#4B3B8B"/>
<circle cx="93.5472" cy="115.072" r="3.5" fill="white" stroke="#4B3B8B"/>
<circle cx="91.5472" cy="137.072" r="3.5" fill="white" stroke="#4B3B8B"/>
<circle cx="129.547" cy="119.072" r="3.5" fill="white" stroke="#4B3B8B"/>
</svg>
