<svg width="26" height="26" viewBox="0 0 26 26" fill="none" xmlns="http://www.w3.org/2000/svg">
<path d="M15.4866 20.1306C15.6991 20.6212 15.4747 21.1963 14.9651 21.3577C13.2442 21.903 11.3965 21.9487 9.63977 21.4786C7.57016 20.9248 5.74851 19.6877 4.47057 17.9681C3.19264 16.2485 2.53348 14.1475 2.60009 12.0061C2.6667 9.86471 3.45519 7.8087 4.83753 6.17189C6.21987 4.53508 8.1149 3.41358 10.2149 2.98948C12.315 2.56538 14.4967 2.86357 16.4059 3.83565C18.3151 4.80773 19.8397 6.39661 20.7321 8.34433C21.4896 9.99755 21.7539 11.8269 21.5043 13.6147C21.4304 14.1442 20.901 14.4617 20.3818 14.3343C19.8626 14.207 19.5516 13.6826 19.6117 13.1514C19.7656 11.7906 19.5476 10.4068 18.9721 9.15073C18.2616 7.59992 17.0477 6.33483 15.5275 5.56084C14.0074 4.78686 12.2702 4.54943 10.5982 4.88711C8.92607 5.22479 7.41722 6.11774 6.31658 7.421C5.21593 8.72425 4.58813 10.3613 4.53509 12.0663C4.48205 13.7713 5.00689 15.4442 6.0244 16.8133C7.04191 18.1825 8.49234 19.1675 10.1402 19.6085C11.4749 19.9656 12.8756 19.9489 14.1915 19.5694C14.7052 19.4212 15.2742 19.6401 15.4866 20.1306Z" fill="#4B3B8B"/>
<path d="M7.81857 8.3755C7.54243 8.37549 7.31856 8.59934 7.31856 8.87548C7.31855 9.15163 7.5424 9.37549 7.81854 9.3755L7.81856 8.8755L7.81857 8.3755ZM23.8183 20.3447L20.2965 15.7698L18.0954 21.1072L23.8183 20.3447ZM12.4457 8.87565L12.9457 8.87565L12.9457 8.37566L12.4457 8.37565L12.4457 8.87565ZM12.4457 12.8478L11.9457 12.8478L11.9457 13.3478L12.4457 13.3478L12.4457 12.8478ZM16.5438 12.8478L17.0438 12.8478L17.0438 12.3478L16.5438 12.3478L16.5438 12.8478ZM16.5438 17.3447L16.0438 17.3447L16.0438 17.6794L16.3532 17.807L16.5438 17.3447ZM7.81856 8.8755L7.81854 9.3755L12.4457 9.37565L12.4457 8.87565L12.4457 8.37565L7.81857 8.3755L7.81856 8.8755ZM12.4457 8.87565L11.9457 8.87565L11.9457 12.8478L12.4457 12.8478L12.9457 12.8478L12.9457 8.87565L12.4457 8.87565ZM12.4457 12.8478L12.4457 13.3478L16.5438 13.3478L16.5438 12.8478L16.5438 12.3478L12.4457 12.3478L12.4457 12.8478ZM16.5438 17.3447L16.3532 17.807L19.4676 19.0913L19.6582 18.6291L19.8488 18.1669L16.7344 16.8825L16.5438 17.3447ZM16.5438 12.8478L16.0438 12.8478L16.0438 17.3447L16.5438 17.3447L17.0438 17.3447L17.0438 12.8478L16.5438 12.8478Z" fill="url(#paint0_linear_5682_5636)"/>
<defs>
<linearGradient id="paint0_linear_5682_5636" x1="9.92423" y1="9.4091" x2="24.128" y2="20.8014" gradientUnits="userSpaceOnUse">
<stop stop-color="#867D00"/>
<stop offset="1" stop-color="#FFBB00"/>
</linearGradient>
</defs>
</svg>
