<svg width="171" height="159" viewBox="0 0 171 159" fill="none" xmlns="http://www.w3.org/2000/svg">
<path d="M50.4448 98.6079C50.4448 95.2884 50.4448 98.6079 50.4448 90.1079C50.4448 81.6079 51.9451 53.6079 50.4448 47.6079C48.9446 41.6079 47.3964 43.9553 46.9448 41.1079C46.7308 39.7579 46.3077 38.8172 46.9448 37.6079C47.6786 36.2151 48.9682 36.1536 50.4448 35.6079C53.5584 34.4573 60.9445 31.1111 58.9446 35.6079C56.9446 40.1047 65.4448 38.6079 65.4448 38.6079C65.4448 38.6079 68.945 39.6079 71.4448 38.6079C73.9446 37.6079 74.945 34.1111 79.4448 30.1079C83.9446 26.1047 82.3375 24.497 82.4448 20.6079C82.5624 16.345 81.8263 13.6457 79.4448 10.1079C77.197 6.76858 75.282 4.82459 71.4448 3.60792C68.2806 2.60464 66.1959 2.93743 62.9448 3.60792C59.605 4.29672 58.0238 5.64204 54.9448 7.10792C45.6928 11.5128 41.1377 15.1823 32.4448 20.6079C28.1253 23.304 24.0403 23.2273 21.4445 27.6079C19.8029 30.3784 20.3608 32.5206 19.4448 35.6079C18.7423 37.9758 18.2077 39.2588 17.4448 41.6079C10.0576 64.3546 3.94458 97.6048 2.94479 101.108C1.945 104.61 2.94467 109.608 2.94484 112.608C2.945 115.607 5.44469 121.609 5.44469 121.609C5.44469 121.609 8.08717 128.187 10.9445 131.607C14.2494 135.562 17.0896 136.846 21.4445 139.603C28.1625 143.855 32.4556 145.432 39.9447 148.102C47.1717 150.678 51.3266 152.188 58.9446 153.101C70.231 154.454 76.81 152.89 87.9445 150.601C95.5111 149.046 99.2875 144.077 106.944 145.099C112.231 145.805 114.42 148.81 119.444 150.6C126.268 153.031 130.201 154.969 137.444 155.078C141.173 155.134 143.419 155.32 146.945 154.105C150.428 152.905 152.34 151.71 154.945 149.105C157.55 146.5 158.33 144.416 159.945 141.105C161.407 138.106 162.013 136.309 162.945 133.105C164.11 129.097 164.53 126.758 164.945 122.605C165.411 117.942 164.945 110.605 164.945 110.605C164.945 110.605 164.391 105.417 163.945 102.105C163.285 97.2055 163.592 94.266 161.945 89.6049C160.459 85.4028 159.169 83.1327 156.445 79.6049C153.659 75.9968 151.838 73.9765 147.945 71.6049C143.726 69.0352 140.824 68.3777 135.945 67.6079C131.316 66.8774 128.611 67.1687 123.945 67.6079C120.397 67.9418 118.358 68.0838 114.945 69.1079C111.679 70.0879 109.936 70.9706 106.945 72.6079C104.712 73.8302 103.308 74.3728 101.445 76.1079C99.8156 77.6252 98.8509 78.5742 97.9448 80.6079C97.2896 82.0787 97.0982 83.005 96.9448 84.6079C96.5564 88.6665 97.3864 91.4333 99.9448 94.6079M50.4448 98.6079C49.078 101.146 48.4464 102.647 46.9448 105.108C45.3368 107.743 44.4455 109.256 42.4448 111.608C39.5761 114.979 37.6474 116.681 33.9448 119.108M50.4448 98.6079C50.9952 95.8186 51.4385 94.2669 52.4448 91.6079C53.1255 89.8093 53.4188 88.7344 54.4448 87.1079C55.5522 85.3523 56.3266 84.4078 57.9448 83.1079C59.5121 81.8489 60.5983 81.4028 62.4448 80.6079C65.4027 79.3345 67.2548 79.0486 70.4448 78.6079C74.5068 78.0467 76.9245 77.8012 80.9448 78.6079C84.2163 79.2642 86.0315 79.9813 88.9448 81.6079C91.9803 83.3026 93.7251 84.4322 95.9448 87.1079C98.0643 89.6626 98.3827 91.6789 99.9448 94.6079M99.9448 94.6079C101.312 96.7558 102.078 97.96 103.445 100.108" stroke="#4B3B8B" stroke-width="5"/>
<line x1="88.9565" y1="38.7" x2="109.036" y2="54.5965" stroke="#4B3B8B" stroke-width="5" stroke-linecap="round"/>
<line x1="110.623" y1="23.6569" x2="118.993" y2="47.93" stroke="#4B3B8B" stroke-width="5" stroke-linecap="round"/>
<line x1="138.921" y1="27.3211" x2="130.657" y2="49.6323" stroke="#4B3B8B" stroke-width="5" stroke-linecap="round"/>
<line x1="160.017" y1="40.6179" x2="140.954" y2="55.5364" stroke="#4B3B8B" stroke-width="5" stroke-linecap="round"/>
</svg>
