<svg width="293" height="304" viewBox="0 0 293 304" fill="none" xmlns="http://www.w3.org/2000/svg">
<path d="M85.6031 109.78L85.6031 137.28M85.6031 109.78L85.6031 117.282C98.5435 115.24 105.254 113.626 116.101 109.782L85.6031 109.78ZM85.6031 109.78L112.101 109.782L129.602 109.782L129.602 113.282M85.6031 137.28L59.6036 137.28C59.6036 137.28 56.902 138.474 55.6035 139.781C54.1334 141.26 52.9441 144.412 52.9441 144.412L52.9441 244.78C52.9441 244.78 53.7213 249.286 55.6035 251.28C57.4013 253.186 61.6031 254.28 61.6031 254.28L156.603 254.28C156.603 254.28 159.831 252.967 161.103 251.28C162.672 249.201 162.603 244.78 162.603 244.78L162.603 144.28C162.603 144.28 161.164 141.203 159.603 139.781C158.117 138.427 155.103 137.28 155.103 137.28L129.602 137.28M85.6031 137.28L129.602 137.28M129.602 113.282C113.383 118.999 103.782 121.284 85.6031 123.53M129.602 113.282L129.602 121.282M129.602 137.28L100.101 137.28C112.179 136.375 118.792 135.354 129.602 130.284M129.602 137.28L129.602 130.284M85.6031 133.282C104.128 130.388 114.04 128.125 129.602 121.282M129.602 121.282L129.602 130.284" stroke="#4B3B8B" stroke-width="3"/>
<path d="M59.9487 149.423L62.6018 177.284L68.1018 224.784C68.1018 224.784 69.5555 226.383 70.6018 227.284C71.8746 228.38 74.1018 229.784 74.1018 229.784L142.102 229.784C142.102 229.784 144.873 228.656 146.102 227.284C147.267 225.983 148.102 223.284 148.102 223.284L156.602 149.423C156.602 149.423 138.601 153.784 129.102 149.423C119.602 145.063 99.6018 153.784 81.1018 149.423C62.6018 145.062 59.9487 149.423 59.9487 149.423Z" fill="#4B3B8B" stroke="#4B3B8B" stroke-width="3"/>
<path d="M258.601 203.277L167.601 123.284L185.601 105.284L131.601 50.2842L98.6015 30.2842L117.102 12.2852L137.101 44.7818L191.101 99.2801L210.101 80.7768L290.101 172.777L258.601 203.277Z" stroke="#4B3B8B" stroke-width="3"/>
<path d="M102.602 59.2864L107.602 44.786C107.602 44.786 109.506 53.9555 112.102 59.2864C113.597 62.3567 114.915 63.8147 116.602 66.7842C117.81 68.9118 118.808 69.9703 119.602 72.2848C120.31 74.3497 120.686 75.6031 120.601 77.7844C120.532 79.5831 120.283 80.618 119.602 82.284C118.802 84.2388 118.095 85.2906 116.602 86.7842C115.108 88.2777 114.113 89.1405 112.102 89.7842C109.87 90.4983 108.416 90.1481 106.102 89.7842C104.088 89.4676 102.819 89.3828 101.102 88.2842C99.3533 87.1656 98.6027 86.1026 97.6018 84.2842C96.6187 82.4983 96.4055 81.3 96.1018 79.2842C95.7817 77.1603 95.7398 75.9013 96.1018 73.7842C96.603 70.8526 97.8886 69.4997 99.1018 66.7842C100.42 63.8339 102.602 59.2864 102.602 59.2864Z" fill="#4B3B8B" stroke="#4B3B8B" stroke-width="3"/>
<path d="M105.1 63.7412C95.6014 73.7842 95.6014 82.7842 107.1 86.7412" stroke="white" stroke-width="3" stroke-linecap="round"/>
<path d="M106.357 64.6055C106.81 63.9124 106.616 62.9827 105.923 62.529C105.23 62.0754 104.3 62.2696 103.846 62.9628L105.101 63.7842L106.357 64.6055ZM105.101 63.7842L103.846 62.9628C101.043 67.2463 99.6488 71.1235 100.011 75.1995C100.369 79.2346 102.427 83.1949 105.915 87.7022L107.101 86.7842L108.288 85.8661C104.929 81.526 103.282 78.1203 102.999 74.9343C102.72 71.7893 103.749 68.5902 106.357 64.6055L105.101 63.7842Z" fill="white"/>
<path d="M100.601 68.7842L102.601 67.7842L101.601 70.2842L102.101 79.7842V79.2842L106.101 86.2842L102.601 84.2842L101.601 83.7842L100.601 82.7842L99.1014 80.2842L98.1014 76.2842L100.601 68.7842Z" fill="white"/>
<path d="M115.33 22.5262L192.199 100.473L186.79 105.808L109.921 27.861L132.379 50.6347L99.1015 30.2847L117.102 12.7851L136.779 44.9646L115.33 22.5262Z" fill="#4B3B8B"/>
</svg>
