<svg width="182" height="186" viewBox="0 0 182 186" fill="none" xmlns="http://www.w3.org/2000/svg">
<path d="M83.5812 56.9873C83.5812 56.9873 80.0309 60.4768 78.0812 62.9873C76.3539 65.2114 75.531 66.573 74.0812 68.9873C73.0463 70.7107 72.5164 71.7077 71.5812 73.4873C70.7688 75.0333 70.2529 75.8751 69.5812 77.4873C68.8687 79.1972 68.3331 80.152 68.0812 81.9873C67.8954 83.3414 68.0812 84.1204 68.0812 85.4873C68.0812 87.0484 67.812 87.947 68.0812 89.4847C68.369 91.1284 68.8686 91.9769 69.5812 93.4857C70.2535 94.9092 70.4683 95.8724 71.5812 96.9859C72.6944 98.0996 73.6488 98.3338 75.0812 98.9878C76.7664 99.7572 77.7834 100.043 79.5827 100.484C84.8928 101.785 93.5823 100.489 93.5823 100.489C93.5823 100.489 94.7162 102.086 95.5823 102.988C96.6389 104.087 97.3123 104.643 98.5821 105.488C100.036 106.455 100.942 106.889 102.583 107.487C104.096 108.038 104.987 108.279 106.584 108.484C108.326 108.707 109.326 108.484 111.082 108.484C112.645 108.483 113.542 108.734 115.084 108.482C117.159 108.143 118.214 107.445 120.084 106.483C121.722 105.64 122.639 105.126 124.084 103.984C125.6 102.785 127.584 100.486 127.584 100.486C127.584 100.486 129.108 100.487 130.084 100.488C130.084 100.488 135.874 100.487 139.583 100.487C141.536 100.488 142.706 101.025 144.583 100.489C145.843 100.128 146.482 99.6962 147.584 98.9869C148.635 98.31 149.17 97.8397 150.084 96.9857C151.399 95.7564 152.279 95.0959 153.084 93.4857C153.804 92.0452 153.859 91.0795 154.084 89.4847C154.384 87.3579 154.275 86.1241 154.084 83.9847C153.889 81.8103 153.616 80.6019 153.084 78.4847C152.481 76.0895 151.991 74.7821 151.084 72.4847C150.378 70.696 150.05 69.6478 149.084 67.9847C148.24 66.5321 147.618 65.8087 146.584 64.4847C145.476 63.0658 144.809 62.3036 143.584 60.9847C142.456 59.7709 141.712 59.1986 140.584 57.9847C139.359 56.6658 138.692 55.9037 137.584 54.4847C136.55 53.1608 135.987 52.4007 135.084 50.9847C134.237 49.6569 133.865 48.85 133.084 47.4823C132.303 46.115 131.686 45.4361 131.084 43.9813C130.541 42.6691 130.453 41.8562 130.084 40.4847C129.666 38.9298 129.409 38.0617 129.084 36.4847C128.173 32.0697 128.084 24.9847 128.084 24.9847C128.084 24.9847 128.353 22.5234 128.084 20.9847C127.796 19.3414 127.368 18.4574 126.584 16.9847C125.795 15.5019 125.17 14.7657 124.084 13.4847C123.012 12.2211 122.374 11.5248 121.084 10.4847C119.988 9.6008 119.361 9.07666 118.084 8.48471C116.794 7.88708 115.992 7.67801 114.584 7.4847C113.23 7.29884 112.451 7.4847 111.084 7.4847C109.717 7.4847 108.938 7.29884 107.584 7.4847C106.176 7.678 105.414 7.98202 104.084 8.4847C102.45 9.10229 101.538 9.5177 100.084 10.4847C99.0427 11.177 98.4856 11.6187 97.5839 12.4851C96.4843 13.5416 95.8784 14.1831 95.0839 15.4847C94.3092 16.7541 94.0802 17.5831 93.584 18.9851C93.1098 20.3248 92.7773 21.0762 92.584 22.4842C92.398 23.8385 92.6262 24.6182 92.5841 25.9846C92.4749 29.5186 92.0068 31.4725 91.5829 34.9827C91.3942 36.5449 91.3478 37.4297 91.0831 38.9807C90.9156 39.9625 90.7786 40.505 90.5833 41.4815C90.388 42.4578 90.3978 43.0368 90.0829 43.9813C89.5849 45.4752 88.0823 47.4823 88.0823 47.4823" stroke="#4B3B8B" stroke-linecap="round"/>
<path d="M0.581295 158.487L0.581295 105.987M0.581295 168.487L0.581298 178.487C0.581298 178.487 1.12595 179.742 1.5813 180.487C2.09039 181.32 3.08129 182.487 3.08129 182.487L4.58129 183.987C5.31512 184.631 6.5813 185.487 6.5813 185.487L49.0813 185.487C49.0813 185.487 51.0394 185.15 52.0813 184.487C53.0132 183.894 53.3612 183.325 54.0813 182.487C54.7177 181.747 55.0722 181.32 55.5813 180.487C56.0366 179.742 56.5813 178.487 56.5813 178.487L56.5813 172.487M56.5813 172.487L0.581295 172.487M56.5813 172.487L56.5813 105.987M56.5813 105.987L49.0813 105.987M56.5813 105.987C56.5813 105.987 56.0515 104.129 55.5813 102.987C55.0826 101.776 54.8618 101.039 54.0813 99.9869C53.4231 99.0998 52.9684 98.645 52.0813 97.9869C51.0294 97.2064 50.2786 97.018 49.0813 96.4869C48.1201 96.0605 47.4965 96.0046 46.5813 95.4869C45.4931 94.8712 44.8723 94.4551 44.0813 93.4869C43.2526 92.4725 43.0973 91.6908 42.5813 90.4869C41.8516 88.7842 41.0813 85.9869 41.0813 85.9869M41.0813 85.9869L45.0813 85.9869L45.0813 71.4869L39.5813 71.4869M41.0813 85.9869L11.5813 85.9869L11.5813 71.4869L39.5813 71.4869M41.0813 85.9869L15.0813 85.9869C15.0813 85.9869 14.9075 88.8874 14.0813 90.4869C13.3814 91.8418 12.7215 92.4741 11.5813 93.4869C10.5285 94.4219 9.86229 94.9023 8.5813 95.4869C7.11643 96.1553 5.96581 95.6648 4.5813 96.4869C3.03336 97.4059 2.41057 98.389 1.5813 99.9869C1.01243 101.083 0.773907 101.767 0.581295 102.987C0.398554 104.144 0.581295 105.987 0.581295 105.987M39.5813 71.4869L39.5813 60.4869M39.5813 71.4869L17.5813 71.4869L17.5813 60.4869L39.5813 60.4869M39.5813 60.4869L44.0813 60.4869L44.0813 48.4869M39.5813 60.4869L13.0813 60.4869L13.0813 48.4869L37.0813 48.4869L33.5813 29.9869C33.5813 29.9869 32.8144 28.6317 32.0813 27.9869C30.9647 27.0047 30.0658 26.3995 28.5813 26.4869C27.2737 26.5638 26.5575 27.1134 25.5813 27.9869C24.8537 28.6379 24.0813 29.9869 24.0813 29.9869L21.5813 48.4869L8.5813 48.4869L44.0813 48.4869M44.0813 48.4869L49.0813 48.4869M0.581295 105.987L37.0813 105.987" stroke="#4B3B8B" stroke-linecap="round"/>
<path d="M1.0813 130.987L28.5813 147.987L56.0813 130.987" stroke="#4B3B8B"/>
<mask id="path-4-inside-1_5797_5468" fill="white">
<path d="M38.0813 124.987C38.0813 130.51 33.6041 134.987 28.0813 134.987C22.5585 134.987 18.0813 130.51 18.0813 124.987C18.0813 119.464 22.5585 114.987 28.0813 114.987C33.6041 114.987 38.0813 119.464 38.0813 124.987ZM21.427 124.987C21.427 128.662 24.4062 131.642 28.0813 131.642C31.7564 131.642 34.7356 128.662 34.7356 124.987C34.7356 121.312 31.7564 118.333 28.0813 118.333C24.4062 118.333 21.427 121.312 21.427 124.987Z"/>
</mask>
<path d="M38.0813 124.987C38.0813 130.51 33.6041 134.987 28.0813 134.987C22.5585 134.987 18.0813 130.51 18.0813 124.987C18.0813 119.464 22.5585 114.987 28.0813 114.987C33.6041 114.987 38.0813 119.464 38.0813 124.987ZM21.427 124.987C21.427 128.662 24.4062 131.642 28.0813 131.642C31.7564 131.642 34.7356 128.662 34.7356 124.987C34.7356 121.312 31.7564 118.333 28.0813 118.333C24.4062 118.333 21.427 121.312 21.427 124.987Z" fill="#4B3B8B" stroke="#4B3B8B" stroke-width="2" mask="url(#path-4-inside-1_5797_5468)"/>
<line x1="9.78841" y1="13.9873" x2="18.0813" y2="22.2802" stroke="#4B3B8B" stroke-linecap="round"/>
<line x1="28.5813" y1="7.4873" x2="28.5813" y2="19.4873" stroke="#4B3B8B" stroke-linecap="round"/>
<line x1="48.1185" y1="14.6934" x2="39.7874" y2="23.9501" stroke="#4B3B8B" stroke-linecap="round"/>
</svg>
