<svg width="299" height="262" viewBox="0 0 299 262" fill="none" xmlns="http://www.w3.org/2000/svg">
<path d="M147.035 138.873L156.035 132.873L170.535 125.873L182.035 119.873L186.035 111.873L188.035 107.373V99.373V73.373L193.035 53.373L197.535 41.873L204.035 33.373L211.035 27.373L221.535 22.373L232.535 19.873L234.035 30.873L238.535 43.873L249.035 73.373L259.035 105.373V122.373L256.535 136.373L242.035 165.373L236.535 170.373L230.035 171.373L194.035 172.373L189.035 182.373L182.535 198.373L174.035 199.373L161.035 200.873H152.535L143.535 205.873L137.035 188.873L135.035 175.373V162.373L138.035 151.873L142.035 144.873L147.035 138.873Z" fill="#4B3B8B" fill-opacity="0.39"/>
<path d="M245.752 19.5469C175.035 13.373 189.356 99.874 188.035 105.374C186.714 110.874 185.444 114.874 179.535 121.374C173.626 127.874 107.535 132.874 146.208 213.657" stroke="#4B3B8B" stroke-width="2" stroke-linecap="round"/>
<path d="M143.084 205.656L150.535 202.373L162.035 200.373L173.535 200.373L181.035 198.873L185.035 194.873L190.035 180.873L191.535 175.873L193.535 173.373L197.535 171.873L206.035 171.873L234.535 171.373L236.535 170.373L239.035 168.873L240.535 167.873L242.035 165.373L246.035 157.873L252.035 147.373L256.035 136.373L259.035 122.873L259.035 108.373L256.035 93.373L250.035 73.873L241.535 50.873L235.035 33.373L233.035 26.373L233.035 19.3731" stroke="#4B3B8B" stroke-width="2"/>
<path d="M226.669 114.827C229.558 116.062 231.569 118.81 232.404 122.404C233.238 125.998 232.871 130.366 231.047 134.633C229.223 138.899 226.32 142.183 223.146 144.064C219.971 145.944 216.595 146.39 213.706 145.155C210.818 143.921 208.807 141.172 207.972 137.578C207.137 133.984 207.505 129.616 209.329 125.35C211.152 121.083 214.055 117.799 217.23 115.919C220.405 114.038 223.781 113.592 226.669 114.827Z" fill="white" stroke="#4B3B8B" stroke-width="2"/>
<path d="M206.027 171.781L206.027 193.869M196.534 208.869L200.035 195.869L201.535 193.869L206.027 193.869M196.534 208.869L196.535 211.869L201.535 237.869L202.535 241.369L205.035 242.369L210.035 242.374M196.534 208.869L240.535 208.869M206.027 193.869L235.035 193.869L236.535 195.869L240.535 208.869M206.027 193.869L229.535 193.869L229.535 171.781M210.035 257.374L210.035 242.374M210.035 242.374L226.035 242.374M226.035 257.374L226.035 242.374M226.035 242.374L233.535 242.369L236.535 241.369L237.535 238.373L242.035 211.869L240.535 208.869" stroke="#4B3B8B" stroke-width="2"/>
<path d="M101.053 159.742C84.4487 180.798 75.1382 183.839 58.5342 159.743C24.5973 158.707 17.3884 149.176 28.0342 114.375C13.9986 82.4975 18.4074 69.4949 46.0342 54.3745C51.3163 18.1363 62.4207 13.5374 93.1061 27.4507C93.6814 27.7116 94.3752 27.6874 94.9317 27.3886C120.074 13.8881 128.151 19.1318 131.052 51.7423" stroke="#4B3B8B" stroke-width="2"/>
<path d="M60.5464 127.386C118.534 139.375 84.0347 118.873 144.546 129.386" stroke="#4B3B8B" stroke-width="2"/>
<path d="M77.6116 100.337C135.599 112.326 101.1 91.8245 161.612 102.337" stroke="#4B3B8B" stroke-width="2"/>
<path d="M95.6116 73.337C153.599 85.3259 119.1 64.8245 179.612 75.337" stroke="#4B3B8B" stroke-width="2"/>
</svg>
