<svg width="204" height="227" viewBox="0 0 204 227" fill="none" xmlns="http://www.w3.org/2000/svg">
<path d="M179.42 141.056L193.42 151.556L120.92 224.557L86.3281 180.769L34.4225 109.562L31.9225 103.062L31.9225 97.5616L34.9188 88.0548L36.9188 84.0548L41.4188 78.5548L45.4188 74.5548L49.4186 71.0535M179.42 141.056L110.254 211.056M179.42 141.056L83.9202 69.555L76.4195 65.0545L70.9192 64.0544L64.9188 64.0534L56.4182 67.0525L49.4186 71.0535M49.4186 71.0535L54.653 68.0616L46.9225 60.0616L44.9225 59.0616L43.4225 59.0616L38.9214 63.559M38.9214 63.559L31.9211 70.5595L28.9214 73.5598L28.4214 75.0607L29.4193 77.0569L37.1648 83.7541M38.9214 63.559L23.9221 48.5604L20.9225 47.5611L18.9225 47.5616L17.4225 49.0616L16.9225 51.5616L17.4225 54.0616L32.919 69.5616L38.9214 63.559Z" stroke="#4B3B8B" stroke-width="2"/>
<path d="M81.981 112.354C87.3474 107.115 94.3195 104.29 100.835 103.088C107.199 101.914 113.064 102.301 116.497 103.445C118.882 113.419 117.63 127.543 106.972 137.95C96.2676 148.401 82.1184 149.992 73.3072 146.183C71.6644 142.172 71.1463 136.384 72.3632 130.277C73.5971 124.084 76.6066 117.602 81.981 112.354ZM82.4292 112.814C77.3693 117.754 74.8642 123.851 74.0041 129.582C73.1453 135.305 73.9211 140.698 75.4633 144.26L75.5588 144.48L75.7887 144.543C84.8864 147.07 96.4114 147.363 106.523 137.49C116.622 127.63 117.443 115.553 114.399 105.911L114.331 105.695L114.123 105.603C105.937 102.022 92.5133 102.968 82.4292 112.814Z" fill="#4B3B8B" stroke="#4B3B8B"/>
<mask id="path-3-inside-1_5770_5707" fill="white">
<path d="M112.922 124.062C112.922 133.45 105.087 141.062 95.4225 141.062C85.7575 141.062 77.9225 133.45 77.9225 124.062C77.9225 114.673 85.7575 107.062 95.4225 107.062C105.087 107.062 112.922 114.673 112.922 124.062ZM81.3295 124.062C81.3295 131.622 87.6391 137.752 95.4225 137.752C103.206 137.752 109.515 131.622 109.515 124.062C109.515 116.501 103.206 110.371 95.4225 110.371C87.6391 110.371 81.3295 116.501 81.3295 124.062Z"/>
</mask>
<path d="M112.922 124.062C112.922 133.45 105.087 141.062 95.4225 141.062C85.7575 141.062 77.9225 133.45 77.9225 124.062C77.9225 114.673 85.7575 107.062 95.4225 107.062C105.087 107.062 112.922 114.673 112.922 124.062ZM81.3295 124.062C81.3295 131.622 87.6391 137.752 95.4225 137.752C103.206 137.752 109.515 131.622 109.515 124.062C109.515 116.501 103.206 110.371 95.4225 110.371C87.6391 110.371 81.3295 116.501 81.3295 124.062Z" fill="#4B3B8B" stroke="#4B3B8B" stroke-width="2" mask="url(#path-3-inside-1_5770_5707)"/>
<mask id="path-4-inside-2_5770_5707" fill="white">
<path d="M108.922 117.062C108.922 120.928 105.788 124.062 101.922 124.062C98.0565 124.062 94.9225 120.928 94.9225 117.062C94.9225 113.196 98.0565 110.062 101.922 110.062C105.788 110.062 108.922 113.196 108.922 117.062ZM97.697 117.062C97.697 119.395 99.5888 121.287 101.922 121.287C104.256 121.287 106.148 119.395 106.148 117.062C106.148 114.728 104.256 112.836 101.922 112.836C99.5888 112.836 97.697 114.728 97.697 117.062Z"/>
</mask>
<path d="M108.922 117.062C108.922 120.928 105.788 124.062 101.922 124.062C98.0565 124.062 94.9225 120.928 94.9225 117.062C94.9225 113.196 98.0565 110.062 101.922 110.062C105.788 110.062 108.922 113.196 108.922 117.062ZM97.697 117.062C97.697 119.395 99.5888 121.287 101.922 121.287C104.256 121.287 106.148 119.395 106.148 117.062C106.148 114.728 104.256 112.836 101.922 112.836C99.5888 112.836 97.697 114.728 97.697 117.062Z" fill="#4B3B8B" stroke="#4B3B8B" stroke-width="2" mask="url(#path-4-inside-2_5770_5707)"/>
<line x1="59.1217" y1="114.312" x2="70.173" y2="116.862" stroke="#4B3B8B" stroke-width="2" stroke-linecap="round"/>
<line x1="69.3367" y1="98.0615" x2="76.9225" y2="105.647" stroke="#4B3B8B" stroke-width="2" stroke-linecap="round"/>
<line x1="86.1352" y1="89.7891" x2="88.6501" y2="99.8488" stroke="#4B3B8B" stroke-width="2" stroke-linecap="round"/>
<line x1="102.135" y1="149.789" x2="104.65" y2="159.849" stroke="#4B3B8B" stroke-width="2" stroke-linecap="round"/>
<line x1="114.334" y1="143.145" x2="121.006" y2="150.65" stroke="#4B3B8B" stroke-width="2" stroke-linecap="round"/>
<line x1="120.187" y1="130.429" x2="130.29" y2="133.797" stroke="#4B3B8B" stroke-width="2" stroke-linecap="round"/>
</svg>
