<svg width="111" height="123" viewBox="0 0 111 123" fill="none" xmlns="http://www.w3.org/2000/svg">
<rect x="4.68359" y="58.7471" width="37" height="60" rx="3" fill="#4B3B8B" fill-opacity="0.39"/>
<path d="M74.1836 82.2471C81.4002 82.2471 87.1836 87.6552 87.1836 94.2471C87.1836 100.839 81.4002 106.247 74.1836 106.247C66.967 106.247 61.1836 100.839 61.1836 94.2471C61.1836 87.6552 66.967 82.2471 74.1836 82.2471Z" fill="#4B3B8B" fill-opacity="0.39" stroke="#4B3B8B"/>
<path d="M74.6836 89.2471C77.763 89.2471 80.1836 91.5257 80.1836 94.2471C80.1836 96.9684 77.763 99.2471 74.6836 99.2471C71.6042 99.2471 69.1836 96.9684 69.1836 94.2471C69.1836 91.5257 71.6042 89.2471 74.6836 89.2471Z" fill="white" stroke="#4B3B8B"/>
<path d="M78.1836 81.7471C86.7482 81.7471 93.2633 84.9913 97.6377 88.6387C99.8262 90.4636 101.475 92.3864 102.572 94.0469C103.121 94.8773 103.528 95.6363 103.797 96.2793C104.07 96.9325 104.184 97.4295 104.184 97.7471C104.184 98.0429 104.06 98.4872 103.753 99.0654C103.451 99.6339 102.991 100.292 102.376 101.006C101.146 102.432 99.3157 104.048 96.9385 105.568C92.1859 108.608 85.278 111.247 76.6836 111.247C68.079 111.247 59.4024 108.602 52.8721 105.537C49.6085 104.006 46.897 102.377 45.0098 100.936C44.0648 100.214 43.339 99.5493 42.8555 98.9775C42.3514 98.3816 42.1836 97.9711 42.1836 97.7471C42.1836 97.6523 42.2208 97.4885 42.3467 97.2451C42.4696 97.0076 42.6607 96.726 42.9248 96.4043C43.4533 95.7605 44.2414 94.9958 45.2588 94.1562C47.291 92.4793 50.1938 90.5382 53.6455 88.6953C60.5566 85.0055 69.5982 81.7471 78.1836 81.7471Z" stroke="#4B3B8B"/>
<path d="M89.8201 36.3037C89.9295 36.3919 90.0792 36.5351 90.2664 36.7383C90.6385 37.1424 91.1226 37.7437 91.6814 38.5117C92.7972 40.0454 94.1882 42.2146 95.5466 44.7383C98.2727 49.8028 100.823 56.213 100.823 61.7471C100.823 67.2168 98.3309 70.0586 95.7371 71.5605C93.1047 73.0848 90.3273 73.2471 89.823 73.2471C89.3114 73.2471 86.0211 73.0824 82.8787 71.5439C81.3138 70.7778 79.8034 69.6795 78.6843 68.1084C77.569 66.5426 76.823 64.4802 76.823 61.7471C76.823 56.2363 79.8539 49.8385 83.0808 44.7695C84.687 42.2465 86.3262 40.0764 87.6287 38.541C88.2806 37.7724 88.8429 37.1688 89.2703 36.7617C89.4851 36.5571 89.6576 36.4113 89.7839 36.3193C89.7944 36.3117 89.8049 36.3053 89.8142 36.2988C89.8162 36.3004 89.8181 36.3021 89.8201 36.3037Z" fill="#4B3B8B" fill-opacity="0.39" stroke="#4B3B8B"/>
<path d="M88.1041 65.8836C86.7303 66.0219 85.7287 67.2476 85.8669 68.6213C86.0051 69.9951 87.2308 70.9967 88.6046 70.8585L88.3544 68.3711L88.1041 65.8836ZM88.3544 68.3711L88.6046 70.8585C91.162 70.6013 93.5252 70.0947 95.3735 68.5447C97.2501 66.9711 98.1779 64.6827 98.7946 61.9147L96.3544 61.3711L93.9142 60.8275C93.3761 63.2428 92.765 64.2068 92.1608 64.7135C91.5283 65.2439 90.4688 65.6457 88.1041 65.8836L88.3544 68.3711Z" fill="white"/>
<path d="M93.993 60.8048C94.3316 59.4663 95.6912 58.6557 97.0298 58.9943C98.3683 59.333 99.1789 60.6926 98.8403 62.0311L96.4166 61.418L93.993 60.8048ZM96.4166 61.418L98.8403 62.0311C98.2099 64.5229 97.3615 66.786 95.5567 68.3864C93.7243 70.0113 91.3243 70.5927 88.4958 70.7957L88.3168 68.3022L88.1377 65.8086C90.6059 65.6314 91.6493 65.1686 92.2393 64.6454C92.8569 64.0978 93.4101 63.1089 93.993 60.8048L96.4166 61.418Z" fill="white"/>
<path d="M48.1835 91.7471C51.6834 99.7471 55.1836 95.7471 48.1835 102.747" stroke="#4B3B8B"/>
<path d="M51.1379 113.205C75.8802 124.407 88.2652 122.526 107.142 108.292" stroke="#4B3B8B" stroke-linecap="round"/>
<path d="M45.9463 84.0898C55.6788 76.4829 61.5338 73.6966 73.0272 72.4838" stroke="#4B3B8B" stroke-linecap="round"/>
<path d="M100.386 76.6673C105.207 79.7706 107.255 81.373 109.605 84.0426" stroke="#4B3B8B" stroke-linecap="round"/>
<path d="M52.6836 72.7471V61.7471V60.2471L52.1836 58.7471L51.6836 57.7471L50.6836 56.7471L49.5297 55.7471H6.18359L4.68359 56.2471L3.68359 56.7471L2.68359 57.7471L2.18359 58.7471L1.68359 60.2471V61.2471V74.7471M50.6836 119.747L48.6836 120.747L46.6836 121.247H9.18359H6.18359L4.18359 119.747L2.68359 118.247L1.68359 116.247V105.747M40.1836 105.747H1.68359M1.68359 105.747V74.7471M1.68359 74.7471H15.1836" stroke="black"/>
<circle cx="27.1836" cy="74.2471" r="12" fill="white" stroke="#4B3B8B"/>
<path d="M30.1836 64.2471C35.0879 64.2471 39.1836 68.8768 39.1836 74.7471C39.1836 80.6174 35.0879 85.2471 30.1836 85.2471C25.2793 85.2471 21.1836 80.6174 21.1836 74.7471C21.1836 68.8768 25.2793 64.2471 30.1836 64.2471Z" fill="#4B3B8B" fill-opacity="0.39" stroke="#4B3B8B"/>
<path d="M39.6836 74.7471C39.4075 74.7471 39.1836 74.9709 39.1836 75.2471C39.1836 75.5232 39.4075 75.7471 39.6836 75.7471V75.2471V74.7471ZM47.6836 75.2471V74.7471H39.6836V75.2471V75.7471H47.6836V75.2471Z" fill="black"/>
<path d="M39.6826 46.7496L14.1954 46.7496M39.6826 46.7496L39.6832 55.8633L14.1954 55.8619L14.1954 46.7496M39.6826 46.7496L43.6836 46.7496C43.6836 46.7496 44.3246 46.4968 44.6836 46.2477C45.1375 45.9328 45.3871 45.7132 45.6836 45.2471C46.015 44.7261 46.1836 43.7471 46.1836 43.7471L46.1836 32.2471L46.1836 30.7471C46.1836 30.7471 45.6495 30.0436 45.1836 29.7471C44.6627 29.4156 43.6836 29.2471 43.6836 29.2471L39.6832 29.2471M14.1954 46.7496L11.1836 46.7474C11.1836 46.7474 10.1775 46.6183 9.68364 46.2477C9.46262 46.0819 9.37893 45.9426 9.18355 45.7472C8.98835 45.552 8.8618 45.4583 8.68347 45.2475C8.46548 44.9899 8.19551 44.5343 8.19551 44.5343L8.19551 31.7471C8.19551 31.7471 8.1592 31.4409 8.18359 31.2471C8.23813 30.8139 8.41554 30.5917 8.68359 30.2471C8.85313 30.0291 9.18359 29.7471 9.18359 29.7471C9.43793 29.528 9.88284 29.2471 9.88284 29.2471L14.1954 29.2471M14.1954 29.2471L20.6836 4.24707L33.6836 4.24707L39.6832 29.2471M14.1954 29.2471L39.6832 29.2471" stroke="black"/>
<path d="M17.1836 29.7471C17.1836 29.4709 16.9597 29.2471 16.6836 29.2471C16.4075 29.2471 16.1836 29.4709 16.1836 29.7471H16.6836H17.1836ZM16.6836 29.7471H16.1836V38.7471H16.6836H17.1836V29.7471H16.6836Z" fill="black"/>
<line x1="26.1836" y1="29.2471" x2="26.1836" y2="34.2471" stroke="black" stroke-linecap="round"/>
<path d="M32.1836 5.74707L37.1836 31.7471H41.1836C42.8404 31.7471 44.1836 33.0902 44.1836 34.7471V44.7471H19.1836L32.1836 5.74707Z" fill="#4B3B8B" fill-opacity="0.39"/>
</svg>
