<svg width="24" height="26" viewBox="0 0 24 26" fill="none" xmlns="http://www.w3.org/2000/svg">
<path d="M12.7031 3.80273C12.7041 3.80363 12.705 3.80473 12.7061 3.80566C12.7314 3.82816 12.769 3.86159 12.8164 3.9043C12.9116 3.99004 13.0485 4.11398 13.2119 4.2666C13.5389 4.57195 13.974 4.99197 14.4092 5.44922C14.8449 5.907 15.2784 6.39986 15.6016 6.85254C15.7632 7.07892 15.8949 7.29321 15.9863 7.48535C16.0787 7.67938 16.125 7.84153 16.125 7.96777V22.0684C16.1249 22.0722 16.1243 22.0788 16.124 22.0869C16.1234 22.1031 16.1225 22.1274 16.1201 22.1582C16.1153 22.2204 16.1055 22.3091 16.0859 22.4141C16.0466 22.6252 15.9689 22.8966 15.8154 23.1475C15.6629 23.3967 15.4365 23.6249 15.0977 23.7568C14.7577 23.8891 14.2918 23.9293 13.6533 23.7803C12.3221 23.4695 10.3373 23.4713 8.47949 23.5479C6.60832 23.6249 4.87322 23.7773 4 23.7773C3.58568 23.7773 3.2827 23.669 3.05957 23.5127C2.83545 23.3557 2.68456 23.1441 2.58203 22.9287C2.47938 22.7129 2.42649 22.4956 2.40039 22.3311C2.38741 22.2492 2.38113 22.1808 2.37793 22.1338C2.37635 22.1104 2.37538 22.0921 2.375 22.0801V7.96777C2.37498 7.54506 2.57752 7.07243 2.90039 6.5918C3.22164 6.11365 3.65273 5.64177 4.08691 5.22363C4.52056 4.80601 4.95428 4.44436 5.28027 4.1875C5.44305 4.05924 5.57905 3.95764 5.67383 3.8877C5.72095 3.85292 5.75799 3.82572 5.7832 3.80762C5.78543 3.80602 5.788 3.8042 5.79004 3.80273H12.7031Z" fill="#4B3B8B" fill-opacity="0.39" stroke="#4B3B8B" stroke-width="0.25"/>
<g filter="url(#filter0_d_5698_5606)">
<path d="M4 1C4 0.447716 4.44772 0 5 0H13.5C14.0523 0 14.5 0.447715 14.5 1V1.83859V2.67717C14.5 3.22946 14.0523 3.67717 13.5 3.67717H5C4.44772 3.67717 4 3.22946 4 2.67717V1Z" fill="white"/>
<path d="M5 0.125H13.5C13.9832 0.125 14.375 0.516751 14.375 1V2.67676C14.375 3.16001 13.9832 3.55176 13.5 3.55176H5C4.51675 3.55176 4.125 3.16001 4.125 2.67676V1C4.125 0.516751 4.51675 0.125 5 0.125Z" stroke="#4B3B8B" stroke-width="0.25"/>
</g>
<path d="M5.25 10.125H13.75C14.2332 10.125 14.625 10.5168 14.625 11V13.9033C14.6248 14.3864 14.2331 14.7783 13.75 14.7783H5.25C4.76689 14.7783 4.37523 14.3864 4.375 13.9033V11C4.375 10.5168 4.76675 10.125 5.25 10.125Z" fill="white" stroke="#4B3B8B" stroke-width="0.25"/>
<line x1="9.375" y1="0.125" x2="9.375" y2="1.10072" stroke="#4B3B8B" stroke-width="0.25" stroke-linecap="round"/>
<line x1="7.625" y1="0.125" x2="7.625" y2="1.10072" stroke="#4B3B8B" stroke-width="0.25" stroke-linecap="round"/>
<line x1="5.875" y1="0.125" x2="5.875" y2="1.10072" stroke="#4B3B8B" stroke-width="0.25" stroke-linecap="round"/>
<line x1="11.125" y1="2.57715" x2="11.125" y2="3.55287" stroke="#4B3B8B" stroke-width="0.25" stroke-linecap="round"/>
<line x1="12.875" y1="2.57715" x2="12.875" y2="3.55287" stroke="#4B3B8B" stroke-width="0.25" stroke-linecap="round"/>
<path d="M13.75 16.5L14.25 16H14.75L15.75 16.5L16.75 17.5L17.25 18.5H13.25H11.25L11.75 17.5H13.25L13.75 16.5Z" fill="#4B3B8B"/>
<path d="M10.4805 20.1084V18.6084H17.9805V22.1084L15.9805 24.6084L14.4805 25.1084L12.9805 24.6084L10.4805 22.6084V20.1084Z" fill="white"/>
<line x1="10.7305" y1="20.8584" x2="13.2305" y2="20.8584" stroke="#4B3B8B" stroke-width="0.5" stroke-linecap="round"/>
<line x1="10.7305" y1="19.8584" x2="14.2305" y2="19.8584" stroke="#4B3B8B" stroke-width="0.5" stroke-linecap="round"/>
<line x1="10.7305" y1="21.8584" x2="14.2305" y2="21.8584" stroke="#4B3B8B" stroke-width="0.5" stroke-linecap="round"/>
<path d="M21.9804 18.6082C17.7978 18.6082 11.2704 18.6082 11.2704 18.6082M21.9804 18.6082L17.9804 18.6082C17.9804 18.6082 17.9804 20.1319 17.9804 21.1082M21.9804 18.6082C22.3489 18.7569 22.5504 18.9417 22.7304 19.2961C22.9623 19.753 23.0156 20.1825 22.7304 20.6082C22.5344 20.9006 20.2922 19.4449 19.9805 19.6084C18.5972 20.3341 19.5425 21.1082 17.9804 21.1082M17.9804 21.1082C18.0608 21.4903 18.0608 21.726 17.9804 22.1082C17.8353 22.7971 17.4332 23.0691 16.9804 23.6082C16.6251 24.0311 16.4463 24.3117 15.9804 24.6082C14.8272 25.342 13.6335 25.342 12.4804 24.6082C12.0144 24.3117 11.4804 23.6082 11.4804 23.6082C11.4804 23.6082 10.6254 22.7971 10.4804 22.1082C10.3999 21.726 10.4804 21.4987 10.4804 21.1082C10.4804 20.7176 10.4804 20.4987 10.4804 20.1082C10.4804 19.5224 9.96206 18.8811 10.4804 18.6082C10.7533 18.4644 11.2704 18.6082 11.2704 18.6082M11.2704 18.6082C11.2704 18.6082 11.2053 18.2923 11.2704 18.1082C11.3834 17.7884 11.6594 17.7178 11.9804 17.6082C12.3499 17.482 12.6311 17.7828 12.9804 17.6082C13.2273 17.4847 13.3108 17.3261 13.4804 17.1082C13.7484 16.7635 13.6013 16.3248 13.9804 16.1082C14.3194 15.9144 14.5991 16.0234 14.9804 16.1082C15.4066 16.2029 15.6357 16.3401 15.9804 16.6082C16.1983 16.7777 16.2962 16.9024 16.4804 17.1082C16.9498 17.6328 17.4804 18.6082 17.4804 18.6082H11.2704Z" stroke="#4B3B8B" stroke-width="0.5" stroke-linecap="round"/>
<defs>
<filter id="filter0_d_5698_5606" x="0" y="0" width="18.5" height="11.6768" filterUnits="userSpaceOnUse" color-interpolation-filters="sRGB">
<feFlood flood-opacity="0" result="BackgroundImageFix"/>
<feColorMatrix in="SourceAlpha" type="matrix" values="0 0 0 0 0 0 0 0 0 0 0 0 0 0 0 0 0 0 127 0" result="hardAlpha"/>
<feOffset dy="4"/>
<feGaussianBlur stdDeviation="2"/>
<feComposite in2="hardAlpha" operator="out"/>
<feColorMatrix type="matrix" values="0 0 0 0 0 0 0 0 0 0 0 0 0 0 0 0 0 0 0.25 0"/>
<feBlend mode="normal" in2="BackgroundImageFix" result="effect1_dropShadow_5698_5606"/>
<feBlend mode="normal" in="SourceGraphic" in2="effect1_dropShadow_5698_5606" result="shape"/>
</filter>
</defs>
</svg>
