<svg width="122" height="163" viewBox="0 0 122 163" fill="none" xmlns="http://www.w3.org/2000/svg">
<path d="M12.7224 106.429C23.4099 131.813 80.9108 89.3153 64.723 145.929" stroke="#4B3B8B" stroke-linecap="round"/>
<path d="M12.5273 106.035C-12.5682 155.037 63.3774 122.563 64.5273 146.035" stroke="#4B3B8B" stroke-linecap="round"/>
<path d="M19.5876 84.0876C19.5876 84.0876 15.0002 86.5762 14.2221 89.4285C13.811 90.9355 14.2221 93.4285 14.2221 93.4285L25.2221 103.928C25.2221 103.928 27.4006 104.278 28.7221 103.928C31.3136 103.244 33.5876 99.0876 33.5876 99.0876" stroke="#4B3B8B"/>
<path d="M63.68 13.6298L68.7225 6.93003L112.222 49.9288L104.723 54.4302L63.68 13.6298ZM63.68 13.6298L65.2222 15.1629L29.68 57.4287M29.68 57.4287L60.7222 88.9287M29.68 57.4287C29.68 57.4287 28.1211 59.2097 27.2222 60.4287C26.3865 61.562 25.9262 62.2093 25.2222 63.4287C24.5673 64.5631 24.1905 65.2054 23.7222 66.4287C23.1465 67.9325 22.9275 68.8317 22.7222 70.4287C22.4981 72.1717 22.6253 73.174 22.7222 74.9287C22.8196 76.6942 22.8047 77.7105 23.2222 79.4287C23.616 81.0499 24.0571 81.8987 24.7222 83.4287C25.4183 85.0304 25.7265 85.9938 26.7222 87.4287C27.6925 88.8271 28.4026 89.505 29.68 90.6298C31.4461 92.1848 32.5784 92.9584 34.7222 93.9287C36.5794 94.7693 37.7387 94.9577 39.7222 95.4287C42.0334 95.9775 43.3484 96.5194 45.7222 96.4287C48.1357 96.3365 49.4865 95.8427 51.7222 94.9287C53.583 94.1679 54.5407 93.5307 56.2222 92.4287C58.0842 91.2084 60.7222 88.9287 60.7222 88.9287M60.7222 88.9287L103.212 52.9287" stroke="#4B3B8B"/>
</svg>
