<svg width="48" height="53" viewBox="0 0 48 53" fill="none" xmlns="http://www.w3.org/2000/svg">
<path d="M15.4033 37.958L12.9141 51.958H3.08594L0.59668 37.958H15.4033Z" stroke="#4B3B8B"/>
<line x1="4" y1="37.958" x2="9" y2="37.958" stroke="white"/>
<path d="M42.3654 19.7047L42.3536 19.7186L42.3528 19.7192C42.3523 19.7197 42.3517 19.7206 42.3509 19.7216C42.3489 19.724 42.3458 19.7278 42.3417 19.7325C42.3337 19.742 42.3213 19.7561 42.3054 19.7747C42.2735 19.812 42.2264 19.8675 42.1644 19.9394C42.0403 20.0834 41.8575 20.2943 41.6234 20.5604C41.1552 21.0926 40.4818 21.8469 39.6599 22.7343C38.0156 24.5098 35.779 26.8175 33.4092 28.9493C31.0374 31.0829 28.5389 33.0335 26.3708 34.1007C25.2864 34.6344 24.2946 34.9417 23.4492 34.9479C22.6103 34.954 21.9155 34.6642 21.4044 33.9978C20.314 32.5761 19.1893 31.8872 18.1077 31.6682C17.0276 31.4496 16.0093 31.7033 15.1375 32.1311C14.2664 32.5586 13.5352 33.1634 13.023 33.6589C12.7664 33.907 12.5626 34.1284 12.424 34.2883C12.3827 34.336 12.3483 34.3791 12.3185 34.4149L7.38475 27.1071C7.43213 27.0924 7.48931 27.0757 7.554 27.0541C7.76263 26.9846 8.05545 26.878 8.39447 26.7318C9.07194 26.4394 9.93906 25.9843 10.6829 25.334C11.427 24.6835 12.0555 23.8315 12.2403 22.7472C12.4254 21.6614 12.162 20.3634 11.1649 18.8296C10.6965 18.1092 10.6578 17.3608 10.9536 16.5898C11.2522 15.8117 11.8928 15.0086 12.7852 14.2032C14.5691 12.5932 17.3222 11.0044 20.209 9.59998C23.0933 8.19673 26.1015 6.9818 28.3895 6.11774C29.5333 5.6858 30.4969 5.34224 31.1742 5.10607C31.5128 4.98803 31.7801 4.89701 31.9625 4.83549C32.0536 4.80474 32.1237 4.78114 32.1709 4.76547C32.1945 4.75764 32.2125 4.75096 32.2244 4.74701C32.2303 4.74509 32.235 4.74357 32.2379 4.7426C32.2392 4.74218 32.2402 4.74199 32.2409 4.74177L32.2423 4.74203L32.2588 4.73679L32.3122 4.70073C32.3384 4.68402 32.3773 4.65991 32.4271 4.63017C32.5273 4.57045 32.6719 4.48858 32.8486 4.401C33.2033 4.22526 33.6828 4.0287 34.1891 3.93786C34.6958 3.84695 35.2185 3.86367 35.6705 4.10066C36.1192 4.33596 36.519 4.79915 36.7624 5.64113C37.2706 7.39943 38.7256 9.55045 40.2001 11.4869C40.9391 12.4575 41.6868 13.3794 42.3285 14.1752C42.9718 14.973 43.5064 15.6407 43.823 16.1096C44.4182 16.9911 44.0857 17.8688 43.568 18.5558C43.3106 18.8974 43.013 19.1827 42.7787 19.3832C42.6618 19.4833 42.5614 19.5625 42.4903 19.6157C42.4551 19.642 42.4268 19.6615 42.4077 19.675C42.3985 19.6815 42.3912 19.6872 42.3864 19.6905L42.3654 19.7047Z" fill="#4B3B8B" fill-opacity="0.39" stroke="#4B3B8B" stroke-width="0.25"/>
<g filter="url(#filter0_d_5701_5675)">
<path d="M10.7653 35.5615C10.3076 35.8706 9.686 35.75 9.37697 35.2923L5.35387 29.3334C5.04484 28.8757 5.16539 28.2541 5.62312 27.9451L5.84308 27.7965L6.06305 27.648C6.52078 27.339 7.14237 27.4595 7.4514 27.9173L11.4745 33.8762C11.7835 34.3339 11.663 34.9555 11.2053 35.2645L10.7653 35.5615Z" fill="white"/>
<path d="M9.48057 35.2224L5.45769 29.2638C5.18729 28.8633 5.29276 28.3194 5.69327 28.049L6.13357 27.7517C6.53405 27.4816 7.07805 27.5869 7.34838 27.9873L11.3713 33.9459C11.6416 34.3463 11.5359 34.8902 11.1357 35.1607L10.6954 35.4579C10.2949 35.7283 9.75097 35.6229 9.48057 35.2224Z" stroke="#4B3B8B" stroke-width="0.25"/>
</g>
<path d="M22.4347 28.945L15.8692 19.2204C15.599 18.8199 15.7043 18.276 16.1048 18.0056L21.8011 14.1598C22.2016 13.8894 22.7455 13.995 23.0159 14.3954L29.5814 24.12C29.8518 24.5205 29.7463 25.0644 29.3458 25.3348L23.6495 29.1806C23.249 29.451 22.7051 29.3455 22.4347 28.945Z" fill="white" stroke="#4B3B8B" stroke-width="0.25"/>
<g filter="url(#filter1_d_5701_5675)">
<path d="M12.0615 35.213C11.8164 35.3785 11.4835 35.314 11.318 35.0688L6.2841 27.6128C6.1186 27.3676 6.18316 27.0347 6.4283 26.8692C6.67344 26.7037 7.00633 26.7683 7.17184 27.0134L12.2057 34.4695C12.3712 34.7146 12.3067 35.0475 12.0615 35.213Z" fill="white"/>
<path d="M11.4218 34.9992L6.38749 27.5425C6.26096 27.3547 6.31037 27.0999 6.49792 26.9731C6.68574 26.8463 6.94122 26.8953 7.06817 27.0829L12.1025 34.5397C12.2291 34.7276 12.1791 34.9828 11.9913 35.1096C11.8035 35.2362 11.5487 35.1868 11.4218 34.9992Z" stroke="#4B3B8B" stroke-width="0.25"/>
</g>
<line x1="6.34669" y1="28.5273" x2="8.06934" y2="31.1113" stroke="#4B3B8B" stroke-width="0.5" stroke-linecap="round"/>
<line x1="6.34669" y1="29.5273" x2="8.06934" y2="32.1113" stroke="#4B3B8B" stroke-width="0.5" stroke-linecap="round"/>
<line x1="8.34669" y1="31.5273" x2="10.0693" y2="34.1113" stroke="#4B3B8B" stroke-width="0.5" stroke-linecap="round"/>
<path d="M14.9032 16.3485C14.9377 15.9886 14.6698 15.6601 14.3133 15.72C14.0452 15.765 13.7848 15.8536 13.5428 15.9838C13.1074 16.218 12.7512 16.5761 12.5192 17.0128C12.2873 17.4494 12.19 17.9451 12.2398 18.437C12.2675 18.7104 12.3398 18.9758 12.4526 19.2231C12.6027 19.552 13.0248 19.59 13.3037 19.3599V19.3599C13.5826 19.1298 13.5985 18.7097 13.548 18.3517C13.5459 18.3363 13.544 18.3208 13.5424 18.3053C13.5187 18.071 13.565 17.8349 13.6755 17.6269C13.786 17.4189 13.9556 17.2484 14.163 17.1368C14.1768 17.1294 14.1907 17.1223 14.2047 17.1155C14.5295 16.9568 14.8687 16.7084 14.9032 16.3485V16.3485Z" fill="white"/>
<path d="M9.17181 35.2517C9.34576 35.0417 9.26932 34.6789 9.0993 34.4656C8.86632 34.1734 8.68651 33.8394 8.34091 33.9583C7.81707 34.1385 6.942 35.3491 6.63808 35.8122C6.33417 36.2754 6.19271 36.8264 6.23591 37.3787C6.26303 37.7254 6.1092 42.235 6.08298 45.646C6.07057 47.2612 6.73174 47.3032 7.09429 45.7292L7.73242 42.9589C6.23534 58.958 7.56175 37.5396 7.54117 37.2766C7.5206 37.0135 7.58797 36.7511 7.73273 36.5305C7.87748 36.3099 8.09141 35.7434 8.34091 35.6576C8.49294 35.6053 8.61191 35.5112 8.73818 35.4649C8.88981 35.4093 9.0688 35.3761 9.17181 35.2517Z" fill="#4B3B8B"/>
<path d="M1.5 43.458H14.5L12.875 51.458H3.125L1.5 43.458Z" fill="#4B3B8B"/>
<line x1="8.5" y1="49.958" x2="9.5" y2="49.958" stroke="white" stroke-linecap="round"/>
<line x1="8.5" y1="47.958" x2="10.5" y2="47.958" stroke="white" stroke-linecap="round"/>
<line x1="8.5" y1="45.958" x2="11.5" y2="45.958" stroke="white" stroke-linecap="round"/>
<line x1="8.5" y1="41.958" x2="12.5" y2="41.958" stroke="#4B3B8B" stroke-linecap="round"/>
<line x1="8.5" y1="39.958" x2="13.5" y2="39.958" stroke="#4B3B8B" stroke-linecap="round"/>
<defs>
<filter id="filter0_d_5701_5675" x="1.18262" y="27.4766" width="14.4634" height="16.2559" filterUnits="userSpaceOnUse" color-interpolation-filters="sRGB">
<feFlood flood-opacity="0" result="BackgroundImageFix"/>
<feColorMatrix in="SourceAlpha" type="matrix" values="0 0 0 0 0 0 0 0 0 0 0 0 0 0 0 0 0 0 127 0" result="hardAlpha"/>
<feOffset dy="4"/>
<feGaussianBlur stdDeviation="2"/>
<feComposite in2="hardAlpha" operator="out"/>
<feColorMatrix type="matrix" values="0 0 0 0 0 0 0 0 0 0 0 0 0 0 0 0 0 0 0.25 0"/>
<feBlend mode="normal" in2="BackgroundImageFix" result="effect1_dropShadow_5701_5675"/>
<feBlend mode="normal" in="SourceGraphic" in2="effect1_dropShadow_5701_5675" result="shape"/>
</filter>
<filter id="filter1_d_5701_5675" x="2.19238" y="26.7773" width="14.105" height="16.5273" filterUnits="userSpaceOnUse" color-interpolation-filters="sRGB">
<feFlood flood-opacity="0" result="BackgroundImageFix"/>
<feColorMatrix in="SourceAlpha" type="matrix" values="0 0 0 0 0 0 0 0 0 0 0 0 0 0 0 0 0 0 127 0" result="hardAlpha"/>
<feOffset dy="4"/>
<feGaussianBlur stdDeviation="2"/>
<feComposite in2="hardAlpha" operator="out"/>
<feColorMatrix type="matrix" values="0 0 0 0 0 0 0 0 0 0 0 0 0 0 0 0 0 0 0.25 0"/>
<feBlend mode="normal" in2="BackgroundImageFix" result="effect1_dropShadow_5701_5675"/>
<feBlend mode="normal" in="SourceGraphic" in2="effect1_dropShadow_5701_5675" result="shape"/>
</filter>
</defs>
</svg>
