<svg width="143" height="156" viewBox="0 0 143 156" fill="none" xmlns="http://www.w3.org/2000/svg">
<path d="M77.292 97.9385V75.9385C77.292 75.9385 77.7033 74.0355 77.292 72.9385C76.8072 71.6457 75.8818 71.2862 74.792 70.4385C73.5493 69.472 71.292 68.4385 71.292 68.4385M77.292 97.9385L77.292 147.938M77.292 97.9385C59.0001 114.438 27.0001 80.9385 0.791975 97.9385M77.292 147.938C77.292 147.938 77.1321 150.292 76.292 151.438C75.4598 152.574 73.292 153.438 73.292 153.438L5.79198 152.438C5.79198 152.438 3.83385 152.101 2.79198 151.438C1.86009 150.845 0.791975 149.438 0.791975 149.438L0.791975 134.438M77.292 147.938V134.438H0.791975M0.791975 134.438L0.791975 79.4385C0.791975 79.4385 0.135237 76.2773 0.791975 74.4385C1.26556 73.1125 1.85309 72.4878 2.79198 71.4385C4.09397 69.9833 6.79198 68.4385 6.79198 68.4385M6.79198 68.4385L71.292 68.4385M6.79198 68.4385C6.79198 68.4385 7.59306 65.654 8.29198 63.9385C9.11565 61.9167 9.47643 60.6807 10.792 58.9385C11.7904 57.6162 12.4314 56.884 13.792 55.9385C15.519 54.7384 16.7137 54.2605 18.792 53.9385M71.292 68.4385C71.292 68.4385 70.4909 65.654 69.792 63.9385C68.9683 61.9167 68.5243 60.7405 67.292 58.9385C66.4311 57.6796 65.9887 56.8838 64.792 55.9385C63.1417 54.6349 61.886 54.1326 59.792 53.9385M18.792 53.9385C34.8035 53.9385 43.7805 53.9385 59.792 53.9385M18.792 53.9385C19.573 51.9859 19.7529 50.7669 20.792 48.9385C21.8919 47.0028 22.6144 45.9022 24.292 44.4385C25.68 43.2274 26.7299 42.9148 28.292 41.9385C29.8541 40.9622 30.9159 40.6631 32.292 39.4385C38.4185 33.9866 29.5727 26.1755 32.292 18.4385C32.6406 17.4464 32.6919 16.802 33.292 15.9385C34.3432 14.4258 35.5013 13.8707 37.292 13.4385C38.6206 13.1178 39.4633 13.1178 40.792 13.4385C42.5826 13.8707 43.7408 14.4258 44.792 15.9385C45.392 16.802 45.4433 17.4464 45.792 18.4385C48.5113 26.1755 39.6655 33.9866 45.792 39.4385C47.1681 40.6631 48.2768 40.8908 49.792 41.9385C51.6232 43.2047 52.6294 43.9578 54.292 45.4385C55.7355 46.7241 56.714 47.334 57.792 48.9385C58.9648 50.6841 59.0109 51.9859 59.792 53.9385" stroke="#4B3B8B"/>
<path d="M81.9997 50.4426C81.9997 50.4426 79.5892 51.6642 78.5001 52.943C77.7619 53.8098 77.3319 54.354 77.0005 55.4433C76.6029 56.7501 76.6026 57.6341 76.9999 58.941C77.3312 60.0309 77.6274 60.7106 78.5003 61.4424C79.5894 62.3554 80.5897 62.2637 81.9997 62.4408C83.1617 62.5868 84.9986 62.4379 84.9986 62.4379L105.499 53.9369L121.999 98.9361C121.999 98.9361 121.666 100.455 121.499 101.437C121.234 102.989 120.884 103.867 120.999 105.437C121.071 106.43 121.259 106.971 121.499 107.938C122.423 111.671 124.576 113.204 125.499 116.938C125.738 117.907 125.902 118.451 125.999 119.444C126.093 120.416 126.532 121.126 125.999 121.943C125.614 122.533 125.178 122.758 124.499 122.943C123.307 123.268 122.558 122.579 121.499 121.944C120.315 121.234 119.877 120.511 118.999 119.445C116.552 116.478 117.037 113.707 114.998 110.446C114.108 109.021 113.771 108.042 112.499 106.944C111.176 105.804 109.761 106.153 108.498 104.946C107.791 104.269 106.999 102.938 106.999 102.938L103.966 95.2716L90.9986 59.9498L111.5 51.4429C111.5 51.4429 113.296 50.1303 114 48.9429C114.726 47.7205 115.062 46.8631 115 45.4429C114.947 44.2093 114.663 43.485 114 42.4433C113.407 41.5115 113.016 40.8787 112 40.4437C110.923 39.9822 110.163 40.2977 109 40.4436C107.59 40.6208 105.499 41.4382 105.499 41.4382M81.9997 50.4426L70.9996 23.9388C70.9996 23.9388 69.9574 20.9291 69.9997 18.938C70.038 17.1379 70.3202 16.1047 70.9993 14.4371C71.6941 12.7313 72.2189 11.7615 73.5001 10.4382C75.084 8.80209 76.3659 8.23206 78.5001 7.43778C80.5461 6.67634 81.817 6.43816 84.0001 6.43816C86.1832 6.43816 87.5111 6.53799 89.5001 7.43778C91.2792 8.24262 93.5001 10.4382 93.5001 10.4382L105.499 41.4382M81.9997 50.4426L105.499 41.4382" stroke="#4B3B8B"/>
<path d="M118.213 139.332C120.282 135.555 125.213 130.811 125.213 130.811C125.213 130.811 130.55 135.462 132.713 139.332C133.652 141.01 134.332 141.947 134.713 143.832C135.062 145.554 135.189 146.64 134.713 148.331C134.287 149.847 133.747 150.645 132.713 151.832C131.326 153.425 130.242 154.245 128.213 154.833C126.338 155.377 125.108 155.307 123.213 154.833C121.519 154.41 120.551 153.955 119.213 152.832C117.595 151.474 116.769 150.369 116.213 148.332C115.751 146.636 115.865 145.554 116.213 143.832C116.594 141.947 117.289 141.018 118.213 139.332Z" stroke="#4B3B8B"/>
</svg>
