<svg width="153" height="177" viewBox="0 0 153 177" fill="none" xmlns="http://www.w3.org/2000/svg">
<path d="M117.445 62.2315C116.05 59.4237 111.373 58.3696 107.051 56.9229C101.814 55.1698 98.5489 55.4491 93.0512 54.9229C81.7775 53.8439 64.0512 54.9229 64.0512 54.9229C64.0512 54.9229 50.5501 54.9229 43.0512 57.9228C35.5523 60.9228 37.5512 64.4228 37.5512 64.4228M117.445 62.2315C115.05 65.4237 112.05 66.4237 108.051 67.9229C104.052 69.4221 93.0512 69.9229 93.0512 69.9229L64.0512 69.9229C64.0512 69.9229 52.4594 70.1774 45.5512 67.9229C42.3094 66.8649 37.5512 64.4228 37.5512 64.4228M117.445 62.2315C113.385 95.5005 107.049 147.422 107.049 147.422M107.049 147.422C107.049 147.422 105.05 150.922 101.05 151.922C97.0493 152.922 92.549 153.424 87.5493 153.424C82.5496 153.424 72.2304 154.187 62.5496 152.922C59.2073 152.485 57.1541 152.735 54.0496 151.422C51.456 150.325 48.0496 147.422 48.0496 147.422M107.049 147.422C107.049 147.422 109.55 144.422 101.05 142.922C92.5496 141.422 86.4404 141.383 77.0496 141.422C68.2434 141.459 62.5496 141.422 54.5496 142.922C46.5496 144.422 48.0496 147.422 48.0496 147.422M37.5512 64.4228L48.0496 147.422" stroke="#4B3B8B"/>
<line x1="47.5466" y1="105.867" x2="51.5466" y2="140.867" stroke="#4B3B8B"/>
<line x1="53.5465" y1="110.867" x2="56.5465" y2="136.867" stroke="#4B3B8B"/>
<path d="M61.379 144.549C59.7981 144.389 58.6676 144.795 57.5499 145.924C57.0546 146.425 56.5271 146.721 56.5498 147.424C56.5765 148.252 57.3695 148.452 58.0498 148.924C58.9133 149.524 59.5455 149.613 60.5498 149.924C63.5393 150.853 65.4679 150.973 68.5496 150.424" stroke="#4B3B8B"/>
<path d="M88.5286 143.787C89.8998 143.68 90.6892 143.711 92.0476 143.926C93.4518 144.148 93.708 143.954 95.0498 144.424C96.0426 144.771 97.4245 145.078 98.0494 145.924C98.4162 146.421 98.5496 147.424 98.5496 147.424C98.4786 148.124 98.1143 148.503 97.5496 148.924C96.9033 149.405 96.329 149.719 95.5498 149.924C94.1748 150.285 93.4581 150.246 92.0476 150.424C90.886 150.57 90.2204 150.424 89.0496 150.424" stroke="#4B3B8B"/>
<path d="M42.0436 94.4245C43.2336 93.0711 44.0288 92.3907 45.5499 91.4242C48.1556 89.7685 50.0543 89.6721 53.0498 88.9253C57.2565 87.8765 59.7334 87.833 64.0495 87.4236C73.9633 86.4833 79.6243 86.6113 89.5494 87.4236C93.074 87.7121 95.0568 87.8691 98.5494 88.4234C102.294 89.0176 104.582 88.8901 108.049 90.4234C110.13 91.3436 111.254 92.0189 113.044 93.4245" stroke="#4B3B8B"/>
<path d="M113.049 92.9241C111.859 94.2775 111.064 94.958 109.543 95.9245C106.937 97.5802 105.038 97.6765 102.043 98.4233C97.8362 99.4721 95.3594 99.5156 91.0433 99.925C81.1294 100.865 75.4685 100.737 65.5433 99.925C62.0188 99.6366 60.036 99.4795 56.5433 98.9253C52.7989 98.3311 50.5107 98.4586 47.0433 96.9253C44.9623 96.005 42.0492 93.9241 42.0492 93.9241" stroke="#4B3B8B"/>
<path d="M93.3209 90.2964C94.6951 90.3505 95.4814 90.2203 96.8398 90.435C98.244 90.6569 98.9984 90.9649 100.34 91.4345C101.333 91.7818 102.217 91.587 102.842 92.4331L103.342 93.9326C103.342 93.9326 102.907 95.0123 102.342 95.4326C101.695 95.9137 101.119 95.7279 100.34 95.9326C98.9652 96.2938 98.2503 96.7545 96.8398 96.9326C95.6782 97.0793 95.0034 97.0793 93.8418 96.9326" stroke="#4B3B8B"/>
<path d="M62.3911 90.2964C61.0168 90.3505 60.2305 90.2203 58.8721 90.435C57.4679 90.6569 56.7135 90.9649 55.3717 91.4345C54.3789 91.7818 53.4952 91.587 52.8703 92.4331L52.3701 93.9326C52.3701 93.9326 52.8053 95.0123 53.3701 95.4326C54.0164 95.9137 54.5924 95.7279 55.3717 95.9326C56.7467 96.2938 57.4616 96.7545 58.8721 96.9326C60.0337 97.0793 60.7085 97.0793 61.8701 96.9326" stroke="#4B3B8B"/>
<path d="M34.5508 25.9241L59.6664 46.6023L59.6664 44.2055L62.0508 43.9248L63.5508 41.9248L63.5508 39.4248L66.5508 39.4248L68.5508 36.4248L68.5508 33.4248L71.5508 33.4248L72.5508 31.9248L72.0508 28.6023L74.6664 28.6023L49.5509 7.92488L46.0509 0.924885L26.5508 25.4241L34.5508 25.9241Z" stroke="#4B3B8B"/>
<line x1="33.6638" y1="25.606" x2="47.6638" y2="8.60598" stroke="#4B3B8B"/>
<line x1="39.3719" y1="25.5414" x2="58.3719" y2="41.5414" stroke="#4B3B8B"/>
<path d="M116.511 29.4282L92.2677 51.1227L92.169 48.728L89.775 48.5457L88.194 46.6091L88.0911 44.1113L85.0936 44.2348L82.9718 41.3196L82.8483 38.3222L79.8509 38.4457L78.79 36.9881L79.1528 33.6478L76.5394 33.7555L100.782 12.0617L103.991 4.92358L124.483 28.5993L116.511 29.4282Z" stroke="#4B3B8B"/>
<line y1="-0.5" x2="22.0227" y2="-0.5" transform="matrix(-0.666946 -0.745106 -0.745106 0.666946 117.011 29.4092)" stroke="#4B3B8B"/>
<line y1="-0.5" x2="24.8395" y2="-0.5" transform="matrix(-0.737746 0.675078 0.675078 0.737746 112.015 29.6143)" stroke="#4B3B8B"/>
<mask id="path-16-inside-1_5706_5741" fill="white">
<path d="M71.0498 44.9238C71.0498 46.0284 70.1544 46.9238 69.0498 46.9238C67.9452 46.9238 67.0498 46.0284 67.0498 44.9238C67.0498 43.8193 67.9452 42.9238 69.0498 42.9238C70.1544 42.9238 71.0498 43.8193 71.0498 44.9238ZM67.814 44.9238C67.814 45.6064 68.3673 46.1597 69.0498 46.1597C69.7323 46.1597 70.2856 45.6064 70.2856 44.9238C70.2856 44.2413 69.7323 43.688 69.0498 43.688C68.3673 43.688 67.814 44.2413 67.814 44.9238Z"/>
</mask>
<path d="M71.0498 44.9238C71.0498 46.0284 70.1544 46.9238 69.0498 46.9238C67.9452 46.9238 67.0498 46.0284 67.0498 44.9238C67.0498 43.8193 67.9452 42.9238 69.0498 42.9238C70.1544 42.9238 71.0498 43.8193 71.0498 44.9238ZM67.814 44.9238C67.814 45.6064 68.3673 46.1597 69.0498 46.1597C69.7323 46.1597 70.2856 45.6064 70.2856 44.9238C70.2856 44.2413 69.7323 43.688 69.0498 43.688C68.3673 43.688 67.814 44.2413 67.814 44.9238Z" stroke="#4B3B8B" stroke-width="2" mask="url(#path-16-inside-1_5706_5741)"/>
<mask id="path-17-inside-2_5706_5741" fill="white">
<path d="M79.0498 49.9238C79.0498 51.0284 78.1544 51.9238 77.0498 51.9238C75.9452 51.9238 75.0498 51.0284 75.0498 49.9238C75.0498 48.8193 75.9452 47.9238 77.0498 47.9238C78.1544 47.9238 79.0498 48.8193 79.0498 49.9238ZM75.814 49.9238C75.814 50.6064 76.3673 51.1597 77.0498 51.1597C77.7323 51.1597 78.2856 50.6064 78.2856 49.9238C78.2856 49.2413 77.7323 48.688 77.0498 48.688C76.3673 48.688 75.814 49.2413 75.814 49.9238Z"/>
</mask>
<path d="M79.0498 49.9238C79.0498 51.0284 78.1544 51.9238 77.0498 51.9238C75.9452 51.9238 75.0498 51.0284 75.0498 49.9238C75.0498 48.8193 75.9452 47.9238 77.0498 47.9238C78.1544 47.9238 79.0498 48.8193 79.0498 49.9238ZM75.814 49.9238C75.814 50.6064 76.3673 51.1597 77.0498 51.1597C77.7323 51.1597 78.2856 50.6064 78.2856 49.9238C78.2856 49.2413 77.7323 48.688 77.0498 48.688C76.3673 48.688 75.814 49.2413 75.814 49.9238Z" stroke="#4B3B8B" stroke-width="2" mask="url(#path-17-inside-2_5706_5741)"/>
<mask id="path-18-inside-3_5706_5741" fill="white">
<path d="M72.0498 60.9238C72.0498 62.0284 71.1544 62.9238 70.0498 62.9238C68.9452 62.9238 68.0498 62.0284 68.0498 60.9238C68.0498 59.8193 68.9452 58.9238 70.0498 58.9238C71.1544 58.9238 72.0498 59.8193 72.0498 60.9238ZM68.814 60.9238C68.814 61.6064 69.3673 62.1597 70.0498 62.1597C70.7323 62.1597 71.2856 61.6064 71.2856 60.9238C71.2856 60.2413 70.7323 59.688 70.0498 59.688C69.3673 59.688 68.814 60.2413 68.814 60.9238Z"/>
</mask>
<path d="M72.0498 60.9238C72.0498 62.0284 71.1544 62.9238 70.0498 62.9238C68.9452 62.9238 68.0498 62.0284 68.0498 60.9238C68.0498 59.8193 68.9452 58.9238 70.0498 58.9238C71.1544 58.9238 72.0498 59.8193 72.0498 60.9238ZM68.814 60.9238C68.814 61.6064 69.3673 62.1597 70.0498 62.1597C70.7323 62.1597 71.2856 61.6064 71.2856 60.9238C71.2856 60.2413 70.7323 59.688 70.0498 59.688C69.3673 59.688 68.814 60.2413 68.814 60.9238Z" stroke="#4B3B8B" stroke-width="2" mask="url(#path-18-inside-3_5706_5741)"/>
<mask id="path-19-inside-4_5706_5741" fill="white">
<path d="M80.0498 63.9238C80.0498 65.0284 79.1544 65.9238 78.0498 65.9238C76.9452 65.9238 76.0498 65.0284 76.0498 63.9238C76.0498 62.8193 76.9452 61.9238 78.0498 61.9238C79.1544 61.9238 80.0498 62.8193 80.0498 63.9238ZM76.814 63.9238C76.814 64.6064 77.3673 65.1597 78.0498 65.1597C78.7323 65.1597 79.2856 64.6064 79.2856 63.9238C79.2856 63.2413 78.7323 62.688 78.0498 62.688C77.3673 62.688 76.814 63.2413 76.814 63.9238Z"/>
</mask>
<path d="M80.0498 63.9238C80.0498 65.0284 79.1544 65.9238 78.0498 65.9238C76.9452 65.9238 76.0498 65.0284 76.0498 63.9238C76.0498 62.8193 76.9452 61.9238 78.0498 61.9238C79.1544 61.9238 80.0498 62.8193 80.0498 63.9238ZM76.814 63.9238C76.814 64.6064 77.3673 65.1597 78.0498 65.1597C78.7323 65.1597 79.2856 64.6064 79.2856 63.9238C79.2856 63.2413 78.7323 62.688 78.0498 62.688C77.3673 62.688 76.814 63.2413 76.814 63.9238Z" stroke="#4B3B8B" stroke-width="2" mask="url(#path-19-inside-4_5706_5741)"/>
</svg>
