<svg width="37" height="37" viewBox="0 0 37 37" fill="none" xmlns="http://www.w3.org/2000/svg">
<g id="Group 37407">
<line id="Line 210" x1="4.10382" y1="35.7979" x2="32.8825" y2="35.7979" stroke="#65636E"/>
<path id="Line 211" d="M3.98247 36.2017C3.98248 27.6334 3.02075 24.3841 14.5037 22.8954" stroke="#65636E"/>
<path id="Line 212" d="M32.6964 36.4492C32.7181 28.1956 33.7913 24.5859 21.7424 22.9915" stroke="#65636E"/>
<line id="Line 213" x1="21.5518" y1="22.9917" x2="21.5518" y2="19.8972" stroke="#65636E"/>
<line id="Line 214" x1="14.1251" y1="22.9917" x2="14.1251" y2="19.8972" stroke="#65636E"/>
<path id="Line 215" d="M21.9474 20.0112C21.7564 19.2611 22.3674 17.9863 25.1463 13.708C26.3228 6.11485 24.4574 4.94682 20.3499 3.49624C14.5613 3.30714 12.434 4.50289 11.1167 10.1089" stroke="#65636E"/>
<path id="Line 216" d="M11.0664 10.1496L8.90027 15.1008L11.5306 15.1008L11.5306 17.4216C12.1572 18.9996 12.6772 19.7184 14.4637 20.1619" stroke="#65636E"/>
<path id="Line 217" d="M10.1031 13.3009L18.3385 13.3008C19.2524 13.6875 19.4552 13.9926 19.4215 14.6366L19.4215 25.0031L21.2433 26.9167" stroke="#65636E"/>
<path id="Line 218" d="M11.3419 17.0152L17.1007 17.0152L17.1007 25.0029L15.5534 26.5501" stroke="#65636E"/>
<path id="Line 219" d="M16.0176 29.0259L18.3384 26.7051L20.814 29.0259" stroke="#65636E"/>
<path id="Line 220" d="M20.6654 28.8284C20.87 32.4835 21.5151 34.3449 24.5275 34.9051C27.5399 35.4654 27.5244 31.8305 27.4673 32.1201C26.9753 28.9814 26.1754 27.5581 24.0633 25.467C22.5806 24.8837 21.9664 25.1129 21.2843 26.6622" stroke="#65636E"/>
<path id="Line 221" d="M16.0176 29.0257C15.3987 32.8938 15.398 34.1048 12.2702 34.8377C9.14251 35.5706 9.0527 31.9226 9.12075 32.21C9.5427 29.0329 10.3361 27.5595 12.4796 25.3416C14.0101 24.6723 14.7964 25.0343 15.5535 26.5501" stroke="#65636E"/>
<line id="Line 222" x1="15.7321" y1="26.287" x2="16.3509" y2="29.0721" stroke="#65636E"/>
<line id="Line 223" x1="21.709" y1="26.5482" x2="20.9883" y2="29.307" stroke="#65636E"/>
<path id="Line 224" d="M15.6809 28.0303C12.2336 29.4384 11.7515 30.5859 12.277 32.9814" stroke="#65636E"/>
<path id="Line 225" d="M21.251 27.855C23.8069 29.0932 24.5716 30.1662 24.6549 32.8062" stroke="#65636E"/>
<path id="Line 226" d="M14.5284 28.6826C14.0327 27.4582 13.67 27.3508 12.9812 27.4448" stroke="#65636E"/>
<path id="Line 227" d="M12.1495 30.5732C11.3537 30.0676 11.0284 30.1072 10.6022 30.5732" stroke="#65636E"/>
<path id="Line 228" d="M13.8225 29.0201C14.549 29.5464 13.8484 30.6971 13.8484 30.6971" stroke="#65636E"/>
<path id="Line 229" d="M22.2684 28.4378C22.3224 27.5177 24.0632 27.6332 23.5062 27.5094" stroke="#65636E"/>
<path id="Line 230" d="M24.218 30.5728C24.9432 30.1257 25.3495 30.1755 26.0747 30.5728" stroke="#65636E"/>
<path id="Line 231" d="M23.1319 29.2109C22.6311 29.4817 22.581 29.8425 22.8224 30.7582" stroke="#65636E"/>
</g>
</svg>
