<svg width="20" height="47" viewBox="0 0 20 47" fill="none" xmlns="http://www.w3.org/2000/svg">
<path d="M18.455 25.1302L3.76749 45.1302C3.35361 45.6938 2.79226 46.0104 2.20695 46.0104C1.62163 46.0104 1.06028 45.6938 0.646399 45.1302C0.232516 44.5666 4.36096e-09 43.8022 0 43.0052C-4.36096e-09 42.2082 0.232516 41.4438 0.646399 40.8802L13.7752 23.0077L0.650072 5.1302C0.445138 4.85115 0.282575 4.51985 0.171665 4.15525C0.0607559 3.79064 0.00367126 3.39985 0.00367126 3.0052C0.00367126 2.61056 0.0607559 2.21977 0.171665 1.85516C0.282575 1.49055 0.445138 1.15926 0.650072 0.880204C0.855006 0.601145 1.0983 0.379783 1.36606 0.228758C1.63382 0.0777322 1.9208 -2.94036e-09 2.21062 0C2.50044 2.94037e-09 2.78742 0.0777322 3.05518 0.228758C3.32294 0.379784 3.56623 0.601145 3.77117 0.880204L18.4587 20.8802C18.6638 21.1592 18.8265 21.4907 18.9374 21.8555C19.0483 22.2204 19.1052 22.6114 19.1048 23.0062C19.1045 23.4011 19.0469 23.792 18.9354 24.1564C18.8239 24.5209 18.6606 24.8518 18.455 25.1302Z" fill="#4B3B8B"/>
</svg>
