<svg width="39" height="33" viewBox="0 0 39 33" fill="none" xmlns="http://www.w3.org/2000/svg">
<path d="M35.7415 14.6333L33.954 13.4989C33.954 13.4989 31.2892 12.2686 29.9539 10.9999C29.9539 10.9999 28.7851 9.43387 27.9538 8.49996C27.9538 8.49996 25.7642 7.34524 25.4537 5.99983C25.322 5.42904 25.0395 4.91404 25.4537 4.49983C25.8679 4.08562 26.3845 4.36138 26.9537 4.49983C27.9023 4.73058 28.1206 5.49073 28.9537 5.99983C29.6988 6.45518 30.1423 6.67695 30.9537 6.99983" stroke="#4B3B8B" stroke-width="0.5" stroke-linecap="round"/>
<path d="M32.4537 4.00014C32.4537 4.00014 35.4536 7 35.9538 9.00028C36.2593 10.222 38.1574 11.3548 38.1574 11.3548" stroke="#4B3B8B" stroke-width="0.5" stroke-linecap="round"/>
<path d="M24.0922 4.17696C24.0922 4.17696 23.4536 3.99976 23.4547 3.50384C23.4558 3.00792 25.1482 2.10946 26.4537 2.00131C27.3115 1.93025 28.6279 2.36266 28.6279 2.36266" stroke="#4B3B8B" stroke-width="0.5" stroke-linecap="round"/>
<path d="M25.9536 9.5C26.0601 10.3872 27.3472 10.3872 27.4536 9.5" stroke="#4B3B8B" stroke-width="0.5" stroke-linecap="round"/>
<path d="M29.9536 2L31.4536 4.00001M22.4536 7L23.9536 9" stroke="#4B3B8B" stroke-width="0.5"/>
<path d="M28.1306 3.32302L30.9635 1.23113C31.5115 0.826462 32.2834 0.939661 32.6921 1.48465C33.1098 2.04155 32.9873 2.83308 32.4208 3.2377L29.9536 5" stroke="#4B3B8B" stroke-width="0.5"/>
<path d="M23.9536 6L21.4077 7.8203C20.8206 8.2401 20.7128 9.0698 21.1731 9.62573C21.5912 10.1307 22.3295 10.2246 22.8606 9.84021L25.5205 7.91556" stroke="#4B3B8B" stroke-width="0.5"/>
<path d="M20.4534 11.0002L18.9458 12.0078" stroke="#4B3B8B" stroke-width="0.5" stroke-linecap="round"/>
<path d="M19.9534 9.50045L18.18 10.8471" stroke="#4B3B8B" stroke-width="0.5" stroke-linecap="round"/>
<path d="M21.9534 11.5005L20.0578 12.8905" stroke="#4B3B8B" stroke-width="0.5" stroke-linecap="round"/>
<path d="M25.4536 24.5006C25.4536 26.8519 26.9535 28.5 25.9536 30.5006C25.5085 31.3912 27.4581 30.5 28.4538 30.5C29.4494 30.5 31.3987 31.3913 30.9536 30.5006C29.9539 28.5 31.4536 26.8519 31.4536 24.5006C31.4536 23.5 30.9398 22.5696 29.9536 22.0006C28.9388 21.4152 27.9684 21.4152 26.9536 22.0006C25.9674 22.5696 25.4536 23.5 25.4536 24.5006Z" stroke="#4B3B8B" stroke-width="0.5"/>
<path d="M26.9536 22V21.5C26.9536 20.9477 27.4013 20.5 27.9536 20.5H28.9536C29.5059 20.5 29.9536 20.9477 29.9536 21.5V22" stroke="#4B3B8B" stroke-width="0.5" stroke-linecap="round"/>
<path d="M27.9536 20.5V19C27.9536 18.7239 28.1775 18.5 28.4536 18.5C28.7298 18.5 28.9536 18.7239 28.9536 19V20.5" stroke="#4B3B8B" stroke-width="0.5" stroke-linecap="round"/>
<path d="M27.3445 27.6281L27.0943 25.6254C27.0197 25.0282 27.4858 24.5008 28.0877 24.5014L28.8233 24.5022C29.4246 24.5028 29.8894 25.0302 29.8145 25.6269L29.563 27.6288C29.5001 28.1291 29.0747 28.5043 28.5704 28.5042L28.3365 28.5041C27.8323 28.5039 27.407 28.1284 27.3445 27.6281Z" stroke="#4B3B8B" stroke-width="0.5"/>
<path d="M22.9754 30.7499C21.9719 30.1269 21.4663 29.5647 20.9529 28.5009C20.4368 27.4312 20.2223 26.666 20.4529 25.5009C20.674 24.384 21.4406 24.0177 21.9529 23.0009C22.7037 21.5109 23.1843 20.6471 23.4523 19.0003C23.6718 17.651 23.6014 16.8587 23.4524 15.4999C23.3441 14.5119 22.9754 12.9999 22.9754 12.9999L23.2139 14.2499C23.2139 14.2499 21.6842 15.8535 20.4524 16.4999C19.1937 17.1604 18.373 17.4482 16.9524 17.4999C15.7655 17.5431 15.0732 17.393 13.9524 16.9999C13.1284 16.7109 12.6704 16.4969 11.9524 15.9999C11.0443 15.3712 10.5455 14.9318 9.95245 13.9999C9.28944 12.958 9.07952 12.2283 8.95245 10.9999C8.89217 10.4172 8.45245 9.99988 8.95245 9.49988C9.45245 8.99988 10.7351 8.70772 11.9524 8.49988C13.2998 8.26985 14.0945 8.34406 15.4524 8.49988C16.4416 8.61339 16.9761 8.80462 17.9524 8.99988" stroke="#4B3B8B" stroke-width="0.5"/>
<path d="M11.4536 10.5C11.8441 11.4763 11.2422 12.7257 11.9536 13.5C12.4299 14.0185 12.7496 14 13.4536 14C14.1576 14 14.9773 13.5185 15.4536 13C16.165 12.2257 15.9347 11.5513 15.9536 10.5" stroke="#4B3B8B" stroke-width="0.5" stroke-linecap="round"/>
<path d="M15.1499 15.2061C15.1499 15.2061 16.5703 15.3764 17.4536 15.2058C18.3674 15.0294 19.6596 14.3041 19.6596 14.3041" stroke="#4B3B8B" stroke-width="0.5" stroke-linecap="round"/>
<path d="M17.9529 25.9993C17.5628 26.5854 17.4124 26.9659 16.9539 27.5002C15.6446 29.0259 14.4402 29.6945 12.453 29.999M7.90052 11.9994C7.53082 12.3899 7.29383 12.5827 6.95385 12.9994C6.50875 13.5448 6.24612 13.8589 5.95385 14.4994C5.61964 15.2318 5.27921 15.7135 5.45385 16.4994C5.54857 16.9256 5.67853 17.1605 5.95385 17.4994C6.26168 17.8782 6.95385 18.2494 6.95385 18.2494L6.95385 17.4994M12.453 29.999C12.4529 30.7803 12.4527 31.9997 12.4527 31.9997M12.453 29.999C11.6725 30.3897 11.3205 31.1074 10.4544 30.9993C9.7559 30.9121 9.38705 30.5547 8.9548 29.9991C8.68669 29.6545 8.54925 29.4254 8.45448 28.9992C8.36974 28.618 8.64832 28.3383 8.45448 27.9994C8.2377 27.6203 7.59232 27.9144 7.45385 27.5002C7.31531 27.0859 7.53933 26.6374 7.95385 26.4994M7.95385 26.4994C8.7349 26.4994 9.30379 26.9323 9.95385 26.4994C10.1838 26.3462 10.4544 25.9993 10.4544 25.9993M7.95385 26.4994C7.75859 26.3041 7.54325 26.2606 7.45385 25.9993C7.31542 25.5946 8.03058 25.4068 7.90052 24.9994C7.8209 24.7499 7.67138 24.6451 7.45385 24.4994C6.96719 24.1733 6.45616 24.8008 5.95385 24.4994C5.71706 24.3573 5.54118 24.2613 5.45385 23.9994C5.39211 23.8141 5.42964 23.6931 5.45385 23.4994C5.54118 22.8008 6.10941 22.6134 6.45385 21.9994C6.66747 21.6186 6.82545 21.4167 6.95385 20.9994C7.18355 20.2529 6.95385 19.7804 6.95385 18.9994C6.95385 18.4136 6.95385 17.4994 6.95385 17.4994M6.95385 17.4994C6.95385 17.4994 7.11953 16.2318 7.45385 15.4994C7.74626 14.8588 7.97534 14.5154 8.45448 13.9994" stroke="#4B3B8B" stroke-width="0.5" stroke-linecap="round"/>
<path d="M17.2465 19.697C17.2465 19.697 18.5712 18.8045 19.4533 19.0008C19.4533 19.0008 20.1633 19.1743 20.4534 19.5006C20.9724 20.0843 20.9532 21.0013 20.4534 21.5006C19.9536 22 18.9537 22 19.4533 23.5006C19.9529 25.0013 18.2473 24.1347 17.4536 24.0006" stroke="#4B3B8B" stroke-width="0.5" stroke-linecap="round"/>
<path d="M9.20361 19.25C9.20361 19.25 10.2101 18.5 10.9536 18.5C11.6971 18.5 12.7036 19.25 12.7036 19.25" stroke="#4B3B8B" stroke-width="0.5" stroke-linecap="round"/>
<path d="M9.65217 20.3481C9.56827 20.2384 9.41137 20.2175 9.30171 20.3014C9.19205 20.3853 9.17116 20.5422 9.25506 20.6519L9.45361 20.5L9.65217 20.3481ZM9.45361 20.5C9.25506 20.6519 9.25512 20.652 9.25518 20.6521C9.2552 20.6521 9.25526 20.6522 9.25531 20.6522C9.2554 20.6523 9.25549 20.6525 9.25559 20.6526C9.2558 20.6529 9.25602 20.6532 9.25628 20.6535C9.25678 20.6541 9.25738 20.6549 9.25808 20.6558C9.25948 20.6576 9.26126 20.6598 9.26343 20.6625C9.26778 20.6679 9.27367 20.6751 9.28108 20.6838C9.29588 20.7011 9.31683 20.7246 9.34366 20.7523C9.39712 20.8073 9.47511 20.8799 9.57554 20.9526C9.7751 21.0969 10.0756 21.25 10.4536 21.25V21V20.75C10.2142 20.75 10.0146 20.6531 9.86858 20.5474C9.7962 20.4951 9.73997 20.4427 9.7024 20.404C9.68372 20.3847 9.66997 20.3692 9.66143 20.3592C9.65718 20.3542 9.65425 20.3506 9.65269 20.3487C9.6519 20.3477 9.65147 20.3472 9.65138 20.3471C9.65134 20.347 9.65138 20.3471 9.65151 20.3472C9.65158 20.3473 9.65166 20.3474 9.65177 20.3476C9.65183 20.3476 9.65189 20.3477 9.65195 20.3478C9.65199 20.3479 9.65204 20.3479 9.65206 20.3479C9.65211 20.348 9.65217 20.3481 9.45361 20.5ZM10.4536 21V21.25C10.8154 21.25 11.2296 21.1074 11.5319 20.9805C11.6877 20.9151 11.8229 20.8499 11.9192 20.8011C11.9675 20.7766 12.0062 20.7561 12.0332 20.7415C12.0467 20.7342 12.0573 20.7284 12.0646 20.7243C12.0683 20.7223 12.0712 20.7207 12.0733 20.7195C12.0743 20.719 12.0751 20.7185 12.0757 20.7182C12.076 20.718 12.0762 20.7179 12.0764 20.7178C12.0765 20.7177 12.0766 20.7177 12.0767 20.7176C12.0767 20.7176 12.0768 20.7176 12.0768 20.7176C12.0768 20.7175 12.0768 20.7175 11.9536 20.5C11.8304 20.2825 11.8304 20.2825 11.8304 20.2825C11.8304 20.2825 11.8305 20.2824 11.8305 20.2824C11.8305 20.2824 11.8305 20.2824 11.8305 20.2824C11.8305 20.2824 11.8304 20.2825 11.8303 20.2826C11.83 20.2827 11.8295 20.283 11.8289 20.2833C11.8275 20.2841 11.8254 20.2853 11.8225 20.2869C11.8166 20.2901 11.8076 20.2951 11.7958 20.3015C11.7721 20.3143 11.7371 20.3328 11.693 20.3552C11.6045 20.4001 11.4805 20.4599 11.3384 20.5195C11.0451 20.6426 10.7093 20.75 10.4536 20.75V21Z" fill="#4B3B8B"/>
</svg>
