<svg width="17" height="35" viewBox="0 0 17 35" fill="none" xmlns="http://www.w3.org/2000/svg">
<path d="M8.87891 3.25C8.88209 3.25409 8.8853 3.25836 8.88867 3.2627C8.94258 3.33201 9.01954 3.43296 9.1123 3.55664C9.29799 3.80422 9.54537 4.14374 9.79199 4.51367C10.0392 4.88444 10.2829 5.2808 10.4639 5.64258C10.6504 6.01562 10.75 6.31371 10.75 6.5V18.0156C10.7497 18.0279 10.7484 18.0471 10.7471 18.0713C10.7444 18.1199 10.7393 18.1899 10.7285 18.2725C10.7067 18.4398 10.6642 18.6493 10.583 18.8389C10.5011 19.03 10.3901 19.1777 10.2461 19.2578C10.11 19.3334 9.90399 19.371 9.5791 19.2627C8.77757 18.9955 7.60678 19.0002 6.54785 19.0625C6.01238 19.094 5.49284 19.1417 5.04883 19.1807C4.59936 19.2201 4.23656 19.25 4 19.25C3.66606 19.25 3.47642 19.0132 3.3623 18.6709C3.30722 18.5056 3.27812 18.3369 3.26367 18.207C3.25654 18.1428 3.2537 18.0893 3.25195 18.0527C3.2511 18.0348 3.2502 18.0208 3.25 18.0117V6.5C3.24999 6.17677 3.35929 5.80878 3.53906 5.42676C3.71755 5.04751 3.95779 4.67098 4.20215 4.33496C4.44605 3.9996 4.69031 3.70863 4.87402 3.50195C4.96576 3.39875 5.04266 3.31663 5.0957 3.26074C5.09914 3.25713 5.10223 3.25339 5.10547 3.25H8.87891Z" fill="#4B3B8B" fill-opacity="0.39" stroke="#4B3B8B" stroke-width="0.5"/>
<g filter="url(#filter0_d_5690_5487)">
<path d="M4 1C4 0.447715 4.44772 0 5 0H9C9.55228 0 10 0.447715 10 1V1.5V2C10 2.55228 9.55228 3 9 3H5C4.44772 3 4 2.55228 4 2V1Z" fill="white"/>
<path d="M5 0.125H9C9.48325 0.125 9.875 0.516751 9.875 1V2C9.875 2.48325 9.48325 2.875 9 2.875H5C4.51675 2.875 4.125 2.48325 4.125 2V1C4.125 0.547095 4.46913 0.174882 4.91016 0.129883L5 0.125Z" stroke="#4B3B8B" stroke-width="0.25"/>
</g>
<path d="M5 8.125H9C9.48325 8.125 9.875 8.51675 9.875 9V14C9.875 14.4832 9.48325 14.875 9 14.875H5C4.51675 14.875 4.125 14.4832 4.125 14V9L4.12988 8.91016C4.17488 8.46913 4.5471 8.125 5 8.125Z" fill="white" stroke="#4B3B8B" stroke-width="0.25"/>
<mask id="path-5-outside-1_5690_5487" maskUnits="userSpaceOnUse" x="5" y="9" width="5" height="5" fill="black">
<rect fill="white" x="5" y="9" width="5" height="5"/>
<path d="M6.863 13.244V11.561H5.441V11.102H6.863V9.419H7.358V11.102H8.789V11.561H7.358V13.244H6.863Z"/>
</mask>
<path d="M6.863 13.244V11.561H5.441V11.102H6.863V9.419H7.358V11.102H8.789V11.561H7.358V13.244H6.863Z" fill="#4B3B8B" fill-opacity="0.39"/>
<path d="M6.863 13.244H6.613V13.494H6.863V13.244ZM6.863 11.561H7.113V11.311H6.863V11.561ZM5.441 11.561H5.191V11.811H5.441V11.561ZM5.441 11.102V10.852H5.191V11.102H5.441ZM6.863 11.102V11.352H7.113V11.102H6.863ZM6.863 9.419V9.169H6.613V9.419H6.863ZM7.358 9.419H7.608V9.169H7.358V9.419ZM7.358 11.102H7.108V11.352H7.358V11.102ZM8.789 11.102H9.039V10.852H8.789V11.102ZM8.789 11.561V11.811H9.039V11.561H8.789ZM7.358 11.561V11.311H7.108V11.561H7.358ZM7.358 13.244V13.494H7.608V13.244H7.358ZM6.863 13.244H7.113V11.561H6.863H6.613V13.244H6.863ZM6.863 11.561V11.311H5.441V11.561V11.811H6.863V11.561ZM5.441 11.561H5.691V11.102H5.441H5.191V11.561H5.441ZM5.441 11.102V11.352H6.863V11.102V10.852H5.441V11.102ZM6.863 11.102H7.113V9.419H6.863H6.613V11.102H6.863ZM6.863 9.419V9.669H7.358V9.419V9.169H6.863V9.419ZM7.358 9.419H7.108V11.102H7.358H7.608V9.419H7.358ZM7.358 11.102V11.352H8.789V11.102V10.852H7.358V11.102ZM8.789 11.102H8.539V11.561H8.789H9.039V11.102H8.789ZM8.789 11.561V11.311H7.358V11.561V11.811H8.789V11.561ZM7.358 11.561H7.108V13.244H7.358H7.608V11.561H7.358ZM7.358 13.244V12.994H6.863V13.244V13.494H7.358V13.244Z" fill="#4B3B8B" mask="url(#path-5-outside-1_5690_5487)"/>
<line x1="7.125" y1="1.125" x2="7.125" y2="1.875" stroke="#4B3B8B" stroke-width="0.25" stroke-linecap="round"/>
<line x1="6.125" y1="1.125" x2="6.125" y2="1.875" stroke="#4B3B8B" stroke-width="0.25" stroke-linecap="round"/>
<line x1="5.125" y1="1.125" x2="5.125" y2="1.875" stroke="#4B3B8B" stroke-width="0.25" stroke-linecap="round"/>
<line x1="8.125" y1="1.125" x2="8.125" y2="1.875" stroke="#4B3B8B" stroke-width="0.25" stroke-linecap="round"/>
<line x1="9.125" y1="1.125" x2="9.125" y2="1.875" stroke="#4B3B8B" stroke-width="0.25" stroke-linecap="round"/>
<defs>
<filter id="filter0_d_5690_5487" x="0" y="0" width="14" height="11" filterUnits="userSpaceOnUse" color-interpolation-filters="sRGB">
<feFlood flood-opacity="0" result="BackgroundImageFix"/>
<feColorMatrix in="SourceAlpha" type="matrix" values="0 0 0 0 0 0 0 0 0 0 0 0 0 0 0 0 0 0 127 0" result="hardAlpha"/>
<feOffset dy="4"/>
<feGaussianBlur stdDeviation="2"/>
<feComposite in2="hardAlpha" operator="out"/>
<feColorMatrix type="matrix" values="0 0 0 0 0 0 0 0 0 0 0 0 0 0 0 0 0 0 0.25 0"/>
<feBlend mode="normal" in2="BackgroundImageFix" result="effect1_dropShadow_5690_5487"/>
<feBlend mode="normal" in="SourceGraphic" in2="effect1_dropShadow_5690_5487" result="shape"/>
</filter>
</defs>
</svg>
