<svg width="43" height="41" viewBox="0 0 43 41" fill="none" xmlns="http://www.w3.org/2000/svg">
<path d="M2.33701 33.0018L2.35435 18.3018L3.65635 18.3034L3.64729 25.9894L12.0053 25.9992L12.0143 18.3132L13.3373 18.3148L13.32 33.0148L11.997 33.0132L12.0039 27.1962L3.64587 27.1864L3.63901 33.0034L2.33701 33.0018Z" fill="#4B3B8B"/>
<path d="M13.2599 18.4054C13.3215 17.6449 13.2242 16.8799 12.9741 16.159C12.7241 15.4382 12.3268 14.7773 11.8075 14.2182C11.2883 13.6592 10.6584 13.2144 9.95787 12.912C9.25738 12.6095 8.50164 12.4562 7.73868 12.4616C6.97571 12.4671 6.22223 12.6312 5.52613 12.9435C4.83002 13.2559 4.20652 13.7097 3.69526 14.2761C3.18401 14.8424 2.79618 15.5089 2.55644 16.2333C2.3167 16.9576 2.23028 17.7239 2.30269 18.4834L3.66205 18.3539C3.60762 17.7829 3.67258 17.2068 3.8528 16.6623C4.03302 16.1178 4.32456 15.6168 4.70888 15.1911C5.0932 14.7653 5.5619 14.4242 6.08518 14.1894C6.60846 13.9546 7.17487 13.8312 7.74841 13.8271C8.32194 13.823 8.89005 13.9383 9.41663 14.1656C9.9432 14.393 10.4167 14.7274 10.8071 15.1476C11.1974 15.5678 11.4961 16.0647 11.684 16.6065C11.872 17.1484 11.9452 17.7235 11.8989 18.2952L13.2599 18.4054Z" fill="#4B3B8B"/>
<path d="M2.27821 32.8597C2.26484 33.5859 2.39547 34.3077 2.66256 34.9832C2.92964 35.6587 3.3279 36.2746 3.83432 36.7954C4.34074 37.3161 4.94531 37.7314 5.61311 38.0172C6.28091 38.3031 6.99871 38.4538 7.72507 38.4607C8.45144 38.4676 9.17197 38.3305 9.84508 38.0574C10.5182 37.7843 11.1305 37.3806 11.6467 36.8695C12.163 36.3585 12.5728 35.7502 12.8527 35.0799C13.1326 34.4096 13.2769 33.6905 13.2773 32.9641L11.9002 32.9633C11.8999 33.5078 11.7917 34.0469 11.5819 34.5494C11.3722 35.0519 11.0649 35.5078 10.6779 35.8909C10.291 36.274 9.83193 36.5767 9.32736 36.7814C8.82278 36.9861 8.28265 37.0888 7.73815 37.0837C7.19364 37.0785 6.65556 36.9655 6.15496 36.7513C5.65436 36.537 5.20116 36.2257 4.82153 35.8353C4.4419 35.445 4.14336 34.9832 3.94315 34.4769C3.74293 33.9705 3.64501 33.4295 3.65503 32.885L2.27821 32.8597Z" fill="#4B3B8B"/>
<path d="M3.5 17.6835C5 11.183 12 13.6836 12.0005 17.6835V25.9492H3.5V17.6835Z" fill="#4B3B8B" fill-opacity="0.39"/>
<path d="M7.67613 15.8466C7.71062 15.4867 7.44278 15.1582 7.08623 15.218C6.81815 15.263 6.55776 15.3517 6.31579 15.4818C5.88034 15.716 5.52412 16.0741 5.29218 16.5108C5.06024 16.9475 4.963 17.4431 5.01275 17.9351C5.0404 18.2084 5.11274 18.4738 5.22556 18.7211C5.37561 19.0501 5.79777 19.088 6.07664 18.8579V18.8579C6.35551 18.6279 6.37145 18.2078 6.32098 17.8498C6.3188 17.8344 6.31693 17.8189 6.31536 17.8033C6.29166 17.569 6.33797 17.3329 6.44845 17.125C6.55892 16.917 6.72859 16.7464 6.936 16.6348C6.94975 16.6274 6.96362 16.6203 6.97762 16.6135C7.3025 16.4549 7.64163 16.2064 7.67613 15.8466V15.8466Z" fill="white"/>
<mask id="path-6-inside-1_5693_5532" fill="white">
<path d="M28.0519 36.6558C31.1695 36.0459 34.0776 34.6435 36.4959 32.5836C38.9143 30.5237 40.7615 27.8758 41.8596 24.8949C42.9577 21.914 43.2697 18.7005 42.7655 15.5641C42.2614 12.4276 40.9581 9.47379 38.9812 6.98715C37.0042 4.50052 34.4203 2.56485 31.4782 1.36658C28.5362 0.168309 25.3351 -0.252178 22.1834 0.145618C19.0317 0.543414 16.0355 1.74609 13.4834 3.6378C10.9314 5.52951 8.90941 8.04652 7.61234 10.9464L8.50968 11.3477C9.73782 8.60197 11.6523 6.2187 14.0688 4.42751C16.4852 2.63631 19.3222 1.49754 22.3065 1.12088C25.2907 0.744225 28.3217 1.14237 31.1074 2.27697C33.8932 3.41157 36.3398 5.24439 38.2117 7.59889C40.0836 9.9534 41.3176 12.7503 41.795 15.7201C42.2724 18.6899 41.9769 21.7326 40.9372 24.5551C39.8974 27.3776 38.1484 29.8848 35.8585 31.8352C33.5687 33.7857 30.8151 35.1136 27.8632 35.6911L28.0519 36.6558Z"/>
</mask>
<path d="M28.0519 36.6558C31.1695 36.0459 34.0776 34.6435 36.4959 32.5836C38.9143 30.5237 40.7615 27.8758 41.8596 24.8949C42.9577 21.914 43.2697 18.7005 42.7655 15.5641C42.2614 12.4276 40.9581 9.47379 38.9812 6.98715C37.0042 4.50052 34.4203 2.56485 31.4782 1.36658C28.5362 0.168309 25.3351 -0.252178 22.1834 0.145618C19.0317 0.543414 16.0355 1.74609 13.4834 3.6378C10.9314 5.52951 8.90941 8.04652 7.61234 10.9464L8.50968 11.3477C9.73782 8.60197 11.6523 6.2187 14.0688 4.42751C16.4852 2.63631 19.3222 1.49754 22.3065 1.12088C25.2907 0.744225 28.3217 1.14237 31.1074 2.27697C33.8932 3.41157 36.3398 5.24439 38.2117 7.59889C40.0836 9.9534 41.3176 12.7503 41.795 15.7201C42.2724 18.6899 41.9769 21.7326 40.9372 24.5551C39.8974 27.3776 38.1484 29.8848 35.8585 31.8352C33.5687 33.7857 30.8151 35.1136 27.8632 35.6911L28.0519 36.6558Z" fill="white" stroke="#4B3B8B" stroke-width="2" mask="url(#path-6-inside-1_5693_5532)"/>
<path d="M13 34L19.5 35.5L26 34V37L20 38.5L13 37V34Z" fill="#4B3B8B" fill-opacity="0.39"/>
<path d="M12.5 32V36C13.8759 38.2126 19.5 38.5 19.5 38.5C19.5 38.5 24.3852 38.5357 26.5 36V32" stroke="#4B3B8B"/>
<path d="M19.5 28.5C21.5056 28.5 23.2969 28.9342 24.5684 29.6123C25.8612 30.3019 26.5 31.17 26.5 32C26.5 32.83 25.8612 33.6981 24.5684 34.3877C23.2969 35.0658 21.5056 35.5 19.5 35.5C17.4944 35.5 15.7031 35.0658 14.4316 34.3877C13.1388 33.6981 12.5 32.83 12.5 32C12.5 31.17 13.1388 30.3019 14.4316 29.6123C15.7031 28.9342 17.4944 28.5 19.5 28.5Z" fill="white" stroke="#4B3B8B"/>
<line x1="12.9974" y1="31.5703" x2="26.4508" y2="31.5001" stroke="#4B3B8B"/>
<path d="M31.3368 28.7527L24.4999 19.0002L24.4999 9.5" stroke="#4B3B8B" stroke-linecap="round"/>
<line x1="15.6934" y1="6.13868" x2="17.1387" y2="8.30662" stroke="#4B3B8B" stroke-linecap="round"/>
<line x1="24.5" y1="4.5" x2="24.5" y2="6.5" stroke="#4B3B8B" stroke-linecap="round"/>
<line x1="31.2236" y1="6.67082" x2="30.6708" y2="7.77639" stroke="#4B3B8B" stroke-linecap="round"/>
<line x1="36.7764" y1="12.6708" x2="35.6708" y2="13.2236" stroke="#4B3B8B" stroke-linecap="round"/>
<line x1="38.5" y1="20.5" x2="36.5" y2="20.5" stroke="#4B3B8B" stroke-linecap="round"/>
<line x1="36.2929" y1="28" x2="35" y2="26.7071" stroke="#4B3B8B" stroke-linecap="round"/>
<line x1="29.3292" y1="32.7764" x2="28.7764" y2="31.6708" stroke="#4B3B8B" stroke-linecap="round"/>
<circle cx="25" cy="19" r="3" fill="#4B3B8B"/>
</svg>
