<svg width="24" height="23" viewBox="0 0 24 23" fill="none" xmlns="http://www.w3.org/2000/svg">
<path d="M4.69141 14.2637L10.4437 10.6555L14.1914 4.26367L16.196 6.54725L13.5418 11.7637L7.19141 16.2637L4.69141 14.2637Z" fill="#4B3B8B" fill-opacity="0.39"/>
<path d="M9.69141 17.7637L16.1914 19.2637L22.6914 17.7637V20.7637L16.6914 22.2637L9.69141 20.7637V17.7637Z" fill="#4B3B8B" fill-opacity="0.39"/>
<path d="M12.6322 3.08198C13.2343 3.64652 13.4326 4.69305 13.0647 6.08449C12.7025 7.4539 11.815 9.03067 10.4691 10.4661C9.12334 11.9014 7.60743 12.8879 6.26426 13.3374C4.89932 13.7942 3.84227 13.6636 3.24014 13.099C2.6381 12.5344 2.43966 11.488 2.80769 10.0965C3.16986 8.72722 4.05685 7.15097 5.40256 5.71563C6.74843 4.28019 8.26484 3.29313 9.60811 2.84358C10.973 2.38684 12.0301 2.51752 12.6322 3.08198Z" fill="white" stroke="#4B3B8B"/>
<path d="M9.19141 15.7637V19.7637C10.5674 21.9763 16.1914 22.2637 16.1914 22.2637C16.1914 22.2637 21.0766 22.2994 23.1914 19.7637V15.7637" stroke="#4B3B8B"/>
<path d="M3.19141 12.7637C3.19141 12.7637 5.98314 15.2765 6.69131 15.7637C7.39949 16.2509 9.96653 15.1097 12.9008 12.6545C14.9913 9.88212 16.187 9.05342 15.8292 5.89215L12.6915 3.26387" stroke="#4B3B8B"/>
<path d="M16.1914 12.2637C18.197 12.2637 19.9883 12.6979 21.2598 13.376C22.5526 14.0655 23.1914 14.9337 23.1914 15.7637C23.1914 16.5937 22.5526 17.4618 21.2598 18.1514C19.9883 18.8295 18.197 19.2637 16.1914 19.2637C14.1858 19.2637 12.3945 18.8295 11.123 18.1514C9.83017 17.4618 9.19141 16.5937 9.19141 15.7637C9.19141 14.9337 9.83017 14.0655 11.123 13.376C12.3945 12.6979 14.1858 12.2637 16.1914 12.2637Z" fill="white" stroke="#4B3B8B"/>
<line x1="3.31976" y1="13.4292" x2="12.3198" y2="3.42919" stroke="#4B3B8B"/>
<line x1="9.6888" y1="15.334" x2="23.1422" y2="15.2638" stroke="#4B3B8B"/>
</svg>
