<svg width="41" height="43" viewBox="0 0 41 43" fill="none" xmlns="http://www.w3.org/2000/svg">
<g clip-path="url(#clip0_1534_17317)">
<path d="M20.5 0C9.16909 0 0 9.16909 0 20.5C0 31.8309 9.16909 41 20.5 41C31.8309 41 41 31.8309 41 20.5C41 9.16909 31.8309 0 20.5 0ZM31.1414 16.2323L18.0959 29.2777C17.3691 30.0045 16.195 30.0045 15.4682 29.2777L9.87727 23.6868C9.16909 22.9414 9.18773 21.7673 9.91455 21.0591C10.6414 20.3695 11.7782 20.3695 12.505 21.0591L16.7727 25.3268L28.495 13.6045C29.2405 12.8964 30.4145 12.915 31.1227 13.6418C31.8123 14.3686 31.8123 15.5055 31.1227 16.2323H31.1414Z" fill="#4B3B8B"/>
</g>
<defs>
<clipPath id="clip0_1534_17317">
<rect width="41" height="41" fill="white"/>
</clipPath>
</defs>
</svg>
