<svg width="29" height="29" viewBox="0 0 29 29" fill="none" xmlns="http://www.w3.org/2000/svg">
<g clip-path="url(#clip0_1534_16425)">
<path d="M14.5 0C6.48546 0 0 6.48546 0 14.5C0 22.5145 6.48546 29 14.5 29C22.5145 29 29 22.5145 29 14.5C29 6.48546 22.5145 0 14.5 0ZM22.0268 11.4814L12.7995 20.7086C12.2855 21.2227 11.455 21.2227 10.9409 20.7086L6.98636 16.7541C6.48546 16.2268 6.49864 15.3964 7.01273 14.8955C7.52682 14.4077 8.33091 14.4077 8.845 14.8955L11.8636 17.9141L20.155 9.62273C20.6823 9.12182 21.5127 9.135 22.0136 9.64909C22.5014 10.1632 22.5014 10.9673 22.0136 11.4814H22.0268Z" fill="#4B3B8B"/>
</g>
<defs>
<clipPath id="clip0_1534_16425">
<rect width="29" height="29" fill="white"/>
</clipPath>
</defs>
</svg>
