<svg width="661" height="537" viewBox="0 0 661 537" fill="none" xmlns="http://www.w3.org/2000/svg">
<path d="M12.659 201.758L52.7856 166.091L128.786 253.341L65.8515 181.091C65.8515 181.091 124.285 63.5911 162.286 45.0911C200.287 26.5912 196.786 45.0913 196.786 45.0913M95.6591 294.758L133.286 260.091L124.286 246.591C124.286 246.591 154.166 226.737 175.786 220.091C219.749 206.578 285.286 230.091 293.286 228.091C301.286 226.091 304.786 208.591 304.786 208.591C304.786 208.591 307.786 198.091 304.786 192.591C301.786 187.091 243.599 190.223 217.286 166.091C211.478 160.764 206.935 158.316 203.785 151.091C199.806 141.962 200.872 135.114 203.785 125.591C206.59 116.425 209.973 111.288 217.286 105.091" stroke="#4B3B8B" stroke-width="8"/>
<path d="M489.397 413.578C489.397 413.578 455.44 458.207 425.784 455.591C416.245 454.75 408.921 455.493 402.283 448.591C394.606 440.609 393.283 431.091 397.783 420.591C402.283 410.091 470.784 347.091 482.783 339.091C494.782 331.091 495.927 333.581 504.783 331.591C531.418 325.606 574.283 339.091 574.283 339.091L577.783 325.091M562.284 430.091L577.783 325.091M562.284 430.091L562.284 445.591L618.783 448.591M562.284 430.091C562.284 430.091 554.782 425.091 540.784 427.591C526.785 430.092 489.398 515.591 457.783 497.591C426.169 479.592 310.283 474.591 308.783 475.591C307.283 476.591 298.988 470.148 296.283 464.091C293.496 457.851 292.971 452.569 296.283 446.591C299.199 441.33 303.508 440.481 308.783 437.591C330.366 425.766 371.784 439.091 371.784 439.091M577.783 325.091L631.783 331.591" stroke="#4B3B8B" stroke-width="8"/>
<path d="M375.785 411.787C368.785 416.091 318.785 416.591 304.285 411.787C289.786 406.983 293.33 405.46 290.285 398.591C286.637 390.363 288.267 383.876 291.785 375.591C294.136 370.055 296.354 367.16 300.784 363.091C308.396 356.101 325.285 353.091 325.285 353.091C325.285 353.091 318.217 361.412 318.785 367.591C319.09 370.914 319.787 372.919 321.785 375.591C327.514 383.254 332.285 383.091 346.284 375.591C360.284 368.092 372.865 371.697 380.284 383.091C383.081 387.387 384.378 390.467 384.285 395.591C384.157 402.733 382.784 407.483 375.785 411.787Z" fill="#4B3B8B" stroke="#4B3B8B" stroke-width="8"/>
<path d="M289.701 159.815C297.549 160.792 302.078 162.4 308.785 166.591C315.225 170.616 318.394 173.893 322.784 180.091C327.018 186.067 328.902 189.992 330.701 197.091C333.075 206.45 333.075 212.456 330.701 221.815" stroke="#4B3B8B" stroke-width="8"/>
<path d="M248.776 144.997L222.285 23.0911L344.785 5.091L370.785 263.591M267.776 244.997L278.285 282.591M370.785 263.591L348.785 269.591M370.785 263.591L346.285 290.091L350.785 324.591L310.785 330.091L307.785 299.591M307.785 299.591L325.785 297.591M307.785 299.591L278.285 282.591M278.285 282.591L323.285 276.591" stroke="#4B3B8B" stroke-width="8"/>
</svg>
