<svg width="79" height="108" viewBox="0 0 79 108" fill="none" xmlns="http://www.w3.org/2000/svg">
<path d="M46.5646 22.1905C46.5646 22.1905 49.4513 22.1894 51.301 22.1887M51.301 22.1887C51.4961 22.3211 51.8005 22.5276 51.8005 22.5276L51.8021 35.5323M51.301 22.1887C50.7157 22.1896 49.8021 22.1909 49.8021 22.1909L49.8025 4.19214L35.8281 4.19224C35.8281 4.19224 35.8123 15.1628 35.8021 22.1922M51.301 22.1887C51.5375 22.2039 51.702 22.3165 51.8018 22.5315C51.884 22.7086 51.8018 23.0315 51.8018 23.0315L51.8021 35.5323M51.8021 35.5323C51.8021 35.5323 51.6118 36.2247 51.3027 36.5336C50.9939 36.8421 50.7345 36.9713 50.3022 37.0319M50.3022 37.0319C44.4443 37.0283 41.16 37.0263 35.3021 37.0226M50.3022 37.0319C50.0544 37.5581 50.0544 37.9951 50.3022 38.5213C50.6023 39.1584 51.1611 39.2308 51.8021 39.5225C52.7085 39.9348 53.3943 39.614 54.3025 40.0225C55.2106 40.4309 55.6121 40.8321 56.3025 41.5225C56.9928 42.2128 57.8029 43.5238 57.8029 43.5238L57.8034 96.5231C57.8034 96.5231 57.4005 97.8866 56.8038 98.5249C56.3231 99.0391 55.3036 99.5242 55.3036 99.5242L30.3036 99.5232C30.3036 99.5232 28.5519 99.2647 27.8036 98.5267C27.1813 97.9129 26.8036 96.5242 26.8036 96.5242L26.8036 43.5238C26.8036 43.5238 27.2527 42.2006 27.8036 41.5225C28.4192 40.7647 28.9129 40.4223 29.8036 40.0225C30.7117 39.6148 31.3274 39.7207 32.3036 39.5262C33.28 39.3316 34.1307 39.76 34.8036 39.0262C35.3485 38.4319 35.505 37.803 35.3021 37.0226M35.3021 37.0226C34.693 37.1157 34.2391 36.9676 33.8021 36.5332C33.4924 36.2253 33.3021 35.5328 33.3021 35.5328L33.3021 23.0315C33.3021 23.0315 33.5739 22.685 33.8021 22.5276C34.1414 22.2933 34.8021 22.1887 34.8021 22.1887C34.8021 22.1887 35.4116 22.1909 35.8021 22.1922M35.8021 22.1922C38.3406 22.1909 42.3023 22.1887 42.3023 22.1887" stroke="#4B3B8B" stroke-linecap="round"/>
<path d="M35.8037 43.526C35.8037 43.526 34.4374 43.6139 33.8036 44.1272C33.1509 44.6558 33.0904 45.2401 32.7931 46.0256C32.5084 46.7777 32.3036 48.0256 32.3036 48.0256L32.7931 68.1272" stroke="#4B3B8B" stroke-linecap="round"/>
<line x1="10.8036" y1="13.5264" x2="12.8036" y2="13.5264" stroke="#4B3B8B" stroke-linecap="round"/>
<line x1="17.8036" y1="13.5264" x2="19.8036" y2="13.5264" stroke="#4B3B8B" stroke-linecap="round"/>
<line x1="24.8036" y1="13.5264" x2="26.8036" y2="13.5264" stroke="#4B3B8B" stroke-linecap="round"/>
<line x1="11.6198" y1="25.3939" x2="13.6711" y2="24.7101" stroke="#4B3B8B" stroke-linecap="round"/>
<line x1="18.6198" y1="22.3939" x2="20.6711" y2="21.7101" stroke="#4B3B8B" stroke-linecap="round"/>
<line x1="25.6198" y1="19.3939" x2="27.6711" y2="18.7101" stroke="#4B3B8B" stroke-linecap="round"/>
<line x1="24.9099" y1="6.66256" x2="27.9398" y2="7.42003" stroke="#4B3B8B" stroke-linecap="round"/>
<line x1="17.9099" y1="4.66256" x2="20.9398" y2="5.42003" stroke="#4B3B8B" stroke-linecap="round"/>
<line x1="10.9099" y1="1.66256" x2="13.9398" y2="2.42003" stroke="#4B3B8B" stroke-linecap="round"/>
<ellipse cx="37.3036" cy="12.5264" rx="3" ry="5.5" fill="#4B3B8B"/>
<ellipse cx="37.3036" cy="12.0264" rx="2" ry="3" fill="white"/>
</svg>
